<?xml version="1.0" ?><!DOCTYPE svg  PUBLIC '-//W3C//DTD SVG 1.1//EN'  'http://www.w3.org/Graphics/SVG/1.1/DTD/svg11.dtd'><svg enable-background="new 0 0 100 100" id="Lager_1" version="1.1" viewBox="0 0 100 100" xml:space="preserve" xmlns="http://www.w3.org/2000/svg" xmlns:xlink="http://www.w3.org/1999/xlink"><g><path d="M170.6,483.3h-6v-16.2h6c1.7,0,3.2,0.5,4.4,1.6c1.9,1.9,1.7,3.9,1.7,6.5c0,1,0,1.9,0,2.7   c1.9-3.2,1.4-7.4-1.3-10.2L136.5,429c-3.3-3.3-11.9-3.8-11.9,3.4V468c-0.1-0.1-0.1-0.1-0.2-0.2l-0.5-0.5v3.4h-4v12.6h-4v-12.6h-4   v-3.5h11.8L85.7,429c-3.3-3.3-11.9-3.8-11.9,3.4v34.7h10.7v3.5h-7v2.8h6v3.5h-6v6.2h-3.7v31.5c0,7.4,8.6,6.9,11.9,3.6l38.8-38.8   c0.1-0.1,0.1-0.1,0.2-0.2v35.3c0,7.4,8.6,6.9,11.9,3.6l35.2-35.2C171.4,483.3,171,483.3,170.6,483.3z M94.2,483.3l-0.7-2.4h-5   l-0.8,2.4h-4.2l5.9-16.2h3.1l5.9,16.2H94.2z M104.4,483.5c-2.5,0-4.5-0.5-6.1-2.1l2.5-2.5c0.8,0.8,2.3,1.1,3.6,1.1   c1.6,0,2.3-0.5,2.3-1.5c0-0.4-0.1-0.7-0.3-1c-0.2-0.2-0.5-0.4-1.1-0.4l-2-0.3c-1.4-0.2-2.5-0.7-3.2-1.4c-0.7-0.8-1.1-1.9-1.1-3.2   c0-3,2.2-5.1,5.9-5.1c2.3,0,4.1,0.5,5.4,1.9l-2.5,2.5c-1-1-2.4-1-3.1-1c-1.4,0-2,0.8-2,1.5c0,0.2,0.1,0.5,0.3,0.8   c0.2,0.2,0.5,0.4,1.1,0.5l2,0.3c1.5,0.2,2.5,0.7,3.2,1.3c0.9,0.8,1.2,2,1.2,3.5C110.6,481.7,107.8,483.5,104.4,483.5z M141.9,470.7   h-7v2.8h6v3.5h-6v6.2h-4v-16.2h11V470.7z M158.8,483.3h-3.2l-2.6-8l-2.6,8h-3.2l-4.4-16.2h4.2l2.1,8.5l2.6-8.5h2.8l2.6,8.5l2.1-8.5   h4.2L158.8,483.3z" fill="#06000B"/><polygon fill="#06000B" points="89.6,477.6 92.4,477.6 91,473.3  "/><path d="M172.3,471.6c-0.4-0.5-0.9-0.9-1.9-0.9h-1.7v9.1h1.7c1,0,1.5-0.4,1.9-0.9c0.3-0.5,0.4-0.9,0.4-3.6   C172.7,472.5,172.6,472.1,172.3,471.6z" fill="#06000B"/></g><g><g><path d="M48.4,74.1c0,0,23.3-6.3,18.9-28.1s-10-25.2-5-34.4S39.8,27.4,32.6,46.1c-5.6,14.4-0.4,25.5,15,28.2" fill="#296639"/><path d="M42.5,80.3c0,0-17.3,5.8-24.7-13.1s-5.6-24-12.9-28.8s21.2,2,34.3,13.1c10.1,8.6,12.1,19.4,3.9,28.6" fill="#479958"/></g><path d="M93.3,40.9c6.6,6.6,1.6,22.4-7.4,31.4s-19.6,8.8-26.2,2.2s-6.8-17.2,2.2-26.2S86.7,34.3,93.3,40.9z" fill="#F9EDC8"/><path d="M76.3,82.1c0-2.9,2.1-5.3,4.8-5.8c-3.3-12.7-13-22.2-13-22.2c-6.2,0.4-17.3,5.5-27.7,11.2   c0.9,1,1.5,2.3,1.5,3.8c0,3.1-2.5,5.6-5.6,5.6c-2.6,0-4.7-1.7-5.4-4.1c-6.2,3.6-11.5,6.9-14.2,8.6c-1.3,0.8-0.3,2,0.6,2.3   c19.9,6.7,64.2,8.9,64.2,8.9c0.2-0.8,0.3-1.6,0.4-2.4C78.9,87.9,76.3,85.3,76.3,82.1z M62.2,86.2c-2.3,0-4.1-1.8-4.1-4.1   c0-2.3,1.8-4.1,4.1-4.1c2.3,0,4.1,1.8,4.1,4.1C66.3,84.4,64.5,86.2,62.2,86.2z M66.3,66.8c-1.5,0-2.7-1.2-2.7-2.7   c0-1.5,1.2-2.7,2.7-2.7s2.7,1.2,2.7,2.7C69,65.6,67.8,66.8,66.3,66.8z" fill="#E9BC42"/></g></svg>