<?xml version="1.0" encoding="UTF-8" standalone="no"?>
<svg
   xmlns:dc="http://purl.org/dc/elements/1.1/"
   xmlns:cc="http://creativecommons.org/ns#"
   xmlns:rdf="http://www.w3.org/1999/02/22-rdf-syntax-ns#"
   xmlns:svg="http://www.w3.org/2000/svg"
   xmlns="http://www.w3.org/2000/svg"
   viewBox="0 0 564.03998 135.93333"
   height="135.93333"
   width="564.03998"
   xml:space="preserve"
   id="svg2"
   version="1.1"><metadata
     id="metadata8"><rdf:RDF><cc:Work
         rdf:about=""><dc:format>image/svg+xml</dc:format><dc:type
           rdf:resource="http://purl.org/dc/dcmitype/StillImage" /></cc:Work></rdf:RDF></metadata><defs
     id="defs6"><clipPath
       id="clipPath20"
       clipPathUnits="userSpaceOnUse"><path
         id="path18"
         d="M 0,0 H 4230 V 1019.53 H 0 Z" /></clipPath></defs><g
     transform="matrix(1.3333333,0,0,-1.3333333,0,135.93333)"
     id="g10"><g
       transform="scale(0.1)"
       id="g12"><g
         id="g14"><g
           clip-path="url(#clipPath20)"
           id="g16"><path
             id="path22"
             style="fill:#51bbed;fill-opacity:1;fill-rule:nonzero;stroke:none"
             d="M 228.586,138.875 516.465,880.652 H 287.922 L 0,138.875 h 228.586" /><path
             id="path24"
             style="fill:#3067ba;fill-opacity:1;fill-rule:nonzero;stroke:none"
             d="M 808.574,138.875 520.664,880.652 H 292.051 L 579.969,138.875 h 228.605" /><path
             id="path26"
             style="fill:#73c7f0;fill-opacity:1;fill-rule:nonzero;stroke:none"
             d="M 807.109,138.875 H 569.258 c -38.391,48.918 -98.008,80.352 -164.992,80.352 -66.969,0 -126.59,-31.434 -164.981,-80.352 H 1.43359 228.586 l 112.141,288.953 c 20.722,3.121 41.941,4.738 63.539,4.738 21.601,0 42.82,-1.617 63.55,-4.742 L 579.969,138.875 h 227.14 v 0" /><path
             id="path28"
             style="fill:#51bbed;fill-opacity:1;fill-rule:nonzero;stroke:none"
             d="M 228.586,138.875 H 1.43359 C 49.7891,289.719 180.531,403.691 340.727,427.828 L 228.586,138.875" /><path
             id="path30"
             style="fill:#d0d6ef;fill-opacity:1;fill-rule:nonzero;stroke:none"
             d="M 807.109,138.875 H 579.969 L 467.816,427.824 c 160.2,-24.133 290.942,-138.105 339.293,-288.949" /><path
             id="path32"
             style="fill:#73c7f0;fill-opacity:1;fill-rule:nonzero;stroke:none"
             d="M 807.109,138.875 H 579.969 L 467.816,427.824 c 160.2,-24.133 290.942,-138.105 339.293,-288.949" /><path
             id="path34"
             style="fill:#51bbed;fill-opacity:1;fill-rule:nonzero;stroke:none"
             d="m 1408.3,633.828 -41.71,-122.5 h 83.39 z m -59.36,-175.422 -20.2,-59.734 h -60.19 l 104.02,298.367 h 71.83 l 104.06,-298.367 h -60.22 l -20.16,59.734 h -119.14" /><path
             id="path36"
             style="fill:#51bbed;fill-opacity:1;fill-rule:nonzero;stroke:none"
             d="m 1704.14,569.383 c -22.79,2.539 -41.74,0 -54.64,-13.809 -12.03,-12.429 -14.19,-30.496 -14.19,-48.094 V 398.672 h -56.74 v 221.433 h 54.17 v -21.941 c 18.07,22.352 44.72,30.496 71.4,26.231 v -55.012" /><path
             id="path38"
             style="fill:#51bbed;fill-opacity:1;fill-rule:nonzero;stroke:none"
             d="m 1834.46,393.535 c -66.63,0 -114.35,51.543 -114.35,115.606 0,64.089 47.72,116.511 114.35,116.511 53.32,0 93.75,-30.058 106.65,-79.941 h -60.65 c -7.74,15.031 -25.36,27.961 -46,27.961 -31.37,0 -56.74,-29.277 -56.74,-64.942 0,-34.816 25.37,-63.652 56.74,-63.652 21.08,0 39.14,12.93 46.44,28.399 h 60.61 c -12.89,-50.325 -53.32,-79.942 -107.05,-79.942" /><path
             id="path40"
             style="fill:#51bbed;fill-opacity:1;fill-rule:nonzero;stroke:none"
             d="M 2176.74,398.672 H 2120 v 129.414 c 0,12.871 -4.29,42.109 -41.27,42.109 -25.4,0 -43.03,-17.16 -43.03,-42.109 V 398.672 h -57.17 v 319.851 h 57.17 V 608.457 c 14.19,10.77 31.41,17.195 50.74,17.195 54.19,0 90.3,-39.082 90.3,-97.566 V 398.672" /><path
             id="path42"
             style="fill:#51bbed;fill-opacity:1;fill-rule:nonzero;stroke:none"
             d="m 2284.7,398.672 h -56.77 v 221.433 h 56.77 z m 0,245.488 h -56.77 v 52.879 h 56.77 V 644.16" /><path
             id="path44"
             style="fill:#51bbed;fill-opacity:1;fill-rule:nonzero;stroke:none"
             d="m 2457.1,398.672 h -61.06 l -83.84,221.433 h 59.36 L 2426.57,455 l 55.46,165.105 h 58.49 L 2457.1,398.672" /><path
             id="path46"
             style="fill:#51bbed;fill-opacity:1;fill-rule:nonzero;stroke:none"
             d="m 2716,533.652 c -6.89,25.801 -28.37,42.149 -55.46,42.149 -25.8,0 -46.44,-16.348 -54.61,-42.149 z m -110.91,-46.398 c 7.29,-27.117 28.77,-43.875 55.45,-43.875 18.94,0 37.42,8.172 46.84,25.801 h 60.66 c -12.9,-45.149 -52.04,-75.645 -107.09,-75.645 -62.31,0 -113.48,51.543 -113.48,115.606 0,64.089 51.17,116.511 113.48,116.511 65.35,0 119.55,-50.73 111.37,-138.398 h -167.23" /><path
             id="path48"
             style="fill:#51bbed;fill-opacity:1;fill-rule:nonzero;stroke:none"
             d="m 2901.77,393.535 c -56.33,0 -98.04,29.617 -104.89,77.344 h 57.61 c 7.71,-18.887 30.5,-25.801 47.28,-25.801 22.79,0 39.99,6.914 39.99,19.813 0,12.461 -7.77,17.597 -46.48,23.644 -39.51,6.016 -92.36,16.746 -92.36,66.192 0,34.824 30.53,70.925 94.53,70.925 50.76,0 88.59,-27.488 95.91,-69.199 h -58.9 c -3.47,10.305 -15.93,18.469 -37.01,18.469 -26.21,0 -36.95,-9.426 -36.95,-17.598 0,-11.613 16.35,-15.5 43.84,-19.816 55.04,-8.985 94.56,-21.043 94.56,-69.199 0,-43.868 -40.39,-74.774 -97.13,-74.774" /><path
             id="path50"
             style="fill:#3067ba;fill-opacity:1;fill-rule:nonzero;stroke:none"
             d="m 3238.28,614.883 h -15.78 c 0,43.523 -32.81,72.012 -83.56,72.012 -50.77,0 -84.43,-25.579 -84.43,-63.528 0,-32.383 24.71,-49.851 87.83,-62.656 66.54,-13.652 104.87,-31.563 104.87,-82.734 0,-51.602 -43.02,-84.852 -109.53,-84.852 -51.61,0 -107.06,30.281 -107.06,95.508 h 15.78 c 0,-54.551 46.03,-79.289 91.28,-79.289 57.95,0 93.81,25.988 93.81,68.633 0,36.671 -23.04,53.3 -92.15,67.394 -52.46,10.203 -100.61,27.266 -100.61,77.996 0,47.344 40.08,78.906 100.21,78.906 68.66,0 99.34,-43.867 99.34,-87.39" /><path
             id="path52"
             style="fill:#3067ba;fill-opacity:1;fill-rule:nonzero;stroke:none"
             d="m 3405.05,607.617 c -51.56,0 -93.78,-44.777 -93.78,-99.797 0,-54.14 42.22,-98.476 93.78,-98.476 52.05,0 93.82,44.336 93.82,98.476 0,55.02 -41.77,99.797 -93.82,99.797 z m 0,-214.055 c -40.49,0 -75.43,23.458 -93.78,57.989 V 301.004 h -15.81 v 317.285 h 15.81 v -53.348 c 18.35,35 53.29,58.895 93.78,58.895 60.57,0 110.04,-52.039 110.04,-116.016 0,-63.125 -49.47,-114.258 -110.04,-114.258" /><path
             id="path54"
             style="fill:#3067ba;fill-opacity:1;fill-rule:nonzero;stroke:none"
             d="m 3713.82,528.711 c -17.03,-15.781 -49.01,-18.762 -79.31,-21.328 -56.27,-5.539 -78.04,-20.442 -78.04,-50.723 0,-36.23 40.96,-46.066 62.73,-46.066 47.34,0 94.62,21.359 94.62,67.793 z m 5.98,-130.039 c -3.81,8.074 -5.98,18.348 -5.98,32 v 4.23 c -17.47,-24.679 -51.16,-40.09 -94.62,-40.09 -38.39,0 -79.76,19.2 -79.76,61.438 0,49.883 46.47,61.375 93.38,65.633 48.63,4.699 81,9.836 81,36.73 0,40.489 -38.35,49.844 -70.76,49.844 -40.08,0 -66.51,-16.652 -75.9,-46.465 h -16.22 c 9.83,39.207 42.64,61.844 92.12,61.844 55.02,0 86.58,-23.895 86.58,-65.223 V 434.492 c 0,-11.086 2.97,-27.304 6.35,-35.82 h -16.19" /><path
             id="path56"
             style="fill:#3067ba;fill-opacity:1;fill-rule:nonzero;stroke:none"
             d="m 3881.06,393.562 c -60.58,0 -109.59,51.133 -109.59,114.258 0,63.977 49.01,116.016 109.59,116.016 48.6,0 86.55,-28.992 101.49,-73.367 h -17.07 c -14.09,35.008 -45.19,57.148 -84.42,57.148 -51.6,0 -93.8,-44.777 -93.8,-99.797 0,-54.14 42.2,-98.476 93.8,-98.476 40.49,0 71.62,22.14 84.86,57.551 h 16.63 c -14.5,-44.336 -52.89,-73.333 -101.49,-73.333" /><path
             id="path58"
             style="fill:#3067ba;fill-opacity:1;fill-rule:nonzero;stroke:none"
             d="m 4213.25,524.422 c -7.67,47.375 -46.46,83.195 -92.53,83.195 -46.46,0 -84.85,-35.82 -92.08,-83.195 z m -186.34,-15.75 c 0.44,-57.121 43.09,-99.328 96.38,-99.328 51.6,0 75.06,28.527 85.7,57.551 h 16.64 c -15.35,-47.278 -50.74,-73.333 -102.34,-73.333 -62.68,0 -112.13,50.293 -112.13,114.258 0,63.977 49.05,116.016 109.56,116.016 65.67,0 110.48,-59.688 109.6,-115.164 h -203.41" /><path
             id="path60"
             style="fill:#231f20;fill-opacity:1;fill-rule:nonzero;stroke:none"
             d="m 1060.02,0 h 10.7891 V 1019.53 H 1060.02 Z" /></g></g></g></g></svg>