<?xml version="1.0" encoding="utf-8"?>
<!-- Generator: Adobe Illustrator 16.0.4, SVG Export Plug-In . SVG Version: 6.00 Build 0)  -->
<!DOCTYPE svg PUBLIC "-//W3C//DTD SVG 1.1//EN" "http://www.w3.org/Graphics/SVG/1.1/DTD/svg11.dtd">
<svg version="1.1" id="Layer_1" xmlns="http://www.w3.org/2000/svg" xmlns:xlink="http://www.w3.org/1999/xlink" x="0px" y="0px"
	 width="279.824px" height="68.147px" viewBox="0 0 279.824 68.147" enable-background="new 0 0 279.824 68.147"
	 xml:space="preserve">
<g>
	<path fill="#1E5073" d="M37.72,47.38c-2.328,0-4.613,0.805-6.426,2.266c-0.761,0.611-1.451,1.528-2.016,2.122
		c-0.944,0.943-2.14,1.587-3.404,1.991c-1.705,0.544-3.287,0.308-4.913-0.438c-2.218-1.016-3.326-3.22-5.392-4.468
		c-3.806-2.302-8.804-1.825-12.119,1.128c-3.173,2.826-4.31,7.455-2.771,11.423c1.521,3.919,5.397,6.575,9.601,6.575
		c2.321-0.003,4.603-0.809,6.415-2.258c0.874-0.7,1.44-1.647,2.253-2.378c0.981-0.883,2.188-1.473,3.45-1.838
		c1.766-0.513,3.526-0.078,5.127,0.788c2.014,1.093,3.056,3.171,5.1,4.337c3.872,2.206,8.857,1.619,12.113-1.416
		c3.049-2.842,4.089-7.365,2.578-11.253C45.794,50.04,41.928,47.379,37.72,47.38"/>
	<path fill="#4CA4DB" d="M28.776,5.055c-1.311,2.265-1.703,4.981-1.092,7.525c0.3,1.246,0.812,2.115,0.897,3.373
		c0.077,1.127,0.013,2.781-0.568,3.783c-0.962,1.655-2.245,2.937-4.062,3.689c-1.037,0.431-2.185,0.44-3.253,0.795
		c-1.112,0.37-2.161,0.929-3.085,1.65c-3.498,2.729-4.831,7.547-3.281,11.694c1.515,4.055,5.531,6.793,9.863,6.694
		c4.473-0.101,8.473-3.177,9.686-7.492c0.333-1.187,0.449-2.433,0.343-3.663c-0.119-1.384-0.742-2.532-1.019-3.855
		c-0.445-2.114,0.035-4.116,1.084-5.934c0.471-0.82,1.613-1.569,2.405-2.038c1.091-0.649,2.017-0.759,3.197-1.016
		c2.234-0.487,4.277-1.727,5.735-3.49c2.781-3.357,3.118-8.236,0.842-11.951C42.473-1.709,32.591-1.58,28.776,5.055"/>
	<path fill="#3873A0" d="M42.448,39.07c1.164,2.018,3.003,3.596,5.175,4.434c0.913,0.354,2.036,0.488,2.846,0.686
		c1.218,0.328,2.319,0.984,3.263,1.812c1.413,1.237,2.062,2.718,2.241,4.592c0.137,1.438-0.21,2.552-0.651,3.883
		c-0.412,1.249-0.586,2.575-0.505,3.89c0.288,4.629,3.783,8.552,8.322,9.424c4.249,0.815,8.68-1.189,10.852-4.936
		c2.189-3.774,1.73-8.651-1.145-11.939c-1.503-1.718-3.574-2.897-5.815-3.33c-2.076-0.4-4.36-1.311-5.492-3.267
		c-1.146-1.977-1.452-4.443-0.588-6.593c0.959-2.385,0.963-5.093,0.036-7.489c-1.593-4.113-5.731-6.817-10.141-6.598
		C43.301,24.016,38.666,32.538,42.448,39.07"/>
	<path fill="#1E5073" d="M214.67,33.118h-5.962c-0.203,0-0.368,0.162-0.368,0.367V33.42l-8.106,24.192
		c-0.051,0.141-0.187,0.245-0.343,0.245h-0.14c-0.155,0-0.298-0.104-0.345-0.245l-8.101-24.187v0.062
		c0-0.205-0.165-0.367-0.367-0.367h-5.966c-0.203,0-0.366,0.162-0.366,0.367v0.048l0.021,0.062l0.019,0.048l0.078,0.209
		l12.338,33.629c0.069,0.189,0.193,0.252,0.408,0.24h4.711l-0.062-0.022c0.19,0.069,0.4-0.028,0.47-0.218l12.341-33.631l0.109-0.302
		v-0.066C215.038,33.28,214.874,33.118,214.67,33.118z"/>
	<path fill="#1E5073" d="M146.57,38.393l0.013-0.018c0.057-0.074,0.08-0.161,0.076-0.245v-4.646c0-0.205-0.164-0.367-0.369-0.367
		h-23.914c-0.202,0-0.367,0.162-0.367,0.367v4.818c0,0.203,0.165,0.367,0.367,0.367h15.994c0.139,0,0.26,0.076,0.323,0.199
		c0.061,0.122,0.045,0.27-0.036,0.381l-17.517,23.171c-0.006,0.008-0.01,0.017-0.016,0.021l-0.043,0.059l0.008-0.005
		c-0.036,0.056-0.06,0.117-0.06,0.188v4.673c0,0.204,0.165,0.366,0.367,0.366h24.893c0.205,0,0.369-0.162,0.369-0.366v-5.235
		c0-0.203-0.164-0.365-0.369-0.365h-16.977c-0.14,0-0.267-0.081-0.327-0.206c-0.06-0.121-0.043-0.268,0.038-0.377L146.57,38.393z"/>
	<path fill="#1E5073" d="M99.345,32.695c-4.807,0.012-8.341,1.159-10.936,4.164c-0.062,0.072-0.188,0.195-0.25,0.272
		c-0.001,0.001,0.056-0.052,0.055-0.048l0,0c-0.019,0.015-0.039,0.027-0.055,0.048c-0.124,0.161-0.092,0.391,0.068,0.513
		l0.001,0.003c0,0-0.001,0-0.001-0.001l4.106,3.136l0,0l0.292,0.224l0.049,0.037l-0.048-0.037c0.162,0.123,0.392,0.092,0.514-0.068
		c1.092-1.615,3.04-2.287,6.556-2.268c2.57,0.002,4.44,0.285,5.718,1.058c1.295,0.774,1.905,2.086,1.894,3.827v3.693
		c0,0.096-0.04,0.189-0.107,0.256c-0.065,0.064-0.159,0.104-0.256,0.104h-9.826c-7.433,0.022-11.111,4.624-11.136,10.1
		c0.02,5.932,4.385,10.416,12.115,10.44c4.773-0.012,7.011-1.077,8.397-3.379c0.068-0.107,0.186-0.174,0.313-0.174h0.137
		c0.098,0,0.191,0.036,0.256,0.105c0.067,0.065,0.107,0.159,0.107,0.254v2.406c0,0.204,0.165,0.366,0.367,0.366h5.648
		c0.203,0,0.368-0.162,0.368-0.366V43.975C113.661,35.49,108.015,32.75,99.345,32.695z M88.233,37.647 M107.308,55.684
		c0,2.776-0.51,4.478-1.912,5.429c-1.388,0.928-3.427,1.054-6.395,1.064c-2.456-0.002-4.206-0.532-5.369-1.419
		c-1.154-0.881-1.682-2.122-1.678-3.402c-0.003-1.379,0.542-2.578,1.643-3.381c1.1-0.807,2.713-1.228,4.842-1.23h8.505
		c0.098,0,0.191,0.041,0.256,0.108c0.067,0.064,0.107,0.157,0.107,0.254V55.684z"/>
	<path fill="#1E5073" d="M165.159,32.695c-4.807,0.012-8.342,1.159-10.935,4.164c-0.063,0.072-0.188,0.195-0.251,0.272
		c0,0.001,0.057-0.052,0.056-0.048l0,0c-0.02,0.015-0.04,0.027-0.056,0.048c-0.123,0.161-0.09,0.391,0.068,0.513l0.002,0.003
		c0,0,0,0,0-0.001l4.104,3.136l0,0l0.292,0.224l0.049,0.037l-0.048-0.037c0.161,0.123,0.392,0.092,0.515-0.068
		c1.092-1.615,3.04-2.287,6.555-2.268c2.57,0.002,4.439,0.285,5.718,1.058c1.297,0.774,1.905,2.086,1.894,3.827v3.693
		c0,0.096-0.039,0.189-0.107,0.256c-0.064,0.064-0.158,0.104-0.255,0.104h-9.827c-7.432,0.022-11.111,4.624-11.137,10.1
		c0.021,5.932,4.385,10.416,12.115,10.44c4.773-0.012,7.012-1.077,8.398-3.379c0.066-0.107,0.184-0.174,0.312-0.174h0.138
		c0.097,0,0.19,0.036,0.255,0.105c0.068,0.065,0.107,0.159,0.107,0.254v2.406c0,0.204,0.166,0.366,0.368,0.366h5.647
		c0.203,0,0.367-0.162,0.367-0.366V43.975C179.475,35.49,173.829,32.75,165.159,32.695z M154.049,37.647 M173.122,55.684
		c0,2.776-0.51,4.478-1.912,5.429c-1.387,0.928-3.426,1.054-6.395,1.064c-2.455-0.002-4.205-0.532-5.368-1.419
		c-1.154-0.881-1.683-2.122-1.679-3.402c-0.004-1.379,0.543-2.578,1.643-3.381c1.1-0.807,2.714-1.228,4.842-1.23h8.507
		c0.097,0,0.19,0.041,0.255,0.108c0.068,0.064,0.107,0.157,0.107,0.254V55.684z"/>
	<path fill="#1E5073" d="M232.649,32.695c-6.672,0.036-14.171,4.25-14.207,17.834c0.047,14.325,8.179,17.567,15.319,17.618
		c4.327-0.002,8.435-1.416,11.733-4.785c0.072-0.074,0.141-0.148,0.211-0.226c0.016-0.011,0.033-0.02,0.047-0.036
		c0.01-0.009,0.012-0.021,0.019-0.03c0.108-0.154,0.087-0.362-0.061-0.488l-4.063-3.461l-0.024-0.02l0,0
		c-0.153-0.134-0.385-0.116-0.517,0.037l0.028-0.033c-2.114,1.943-4.89,3.066-7.512,3.069c-2.509,0.002-4.718-0.756-6.296-2.289
		c-1.579-1.533-2.498-3.818-2.498-6.781c0-0.095,0.039-0.188,0.109-0.252c0.065-0.069,0.157-0.108,0.255-0.108h21.294
		c0.202,0,0.366-0.162,0.366-0.367v-5.129C246.843,38.316,240.271,32.709,232.649,32.695z M240.364,47.497
		c-0.068,0.071-0.162,0.11-0.26,0.11h-14.911c-0.101,0-0.189-0.039-0.261-0.107c-0.066-0.071-0.104-0.162-0.104-0.261
		c0.115-5.505,3.457-8.594,7.82-8.569c4.359-0.024,7.637,3.065,7.811,8.564C240.466,47.332,240.432,47.427,240.364,47.497z"/>
	<path fill="#1E5073" d="M265.478,32.695c-4.807,0.012-8.342,1.159-10.934,4.164c-0.063,0.072-0.188,0.195-0.251,0.272
		c0,0.001,0.058-0.052,0.054-0.048l0,0c-0.018,0.015-0.039,0.027-0.054,0.048c-0.124,0.161-0.091,0.391,0.069,0.513l0.001,0.003
		c0,0,0,0,0-0.001l4.104,3.136l0,0l0.291,0.224l0.051,0.037l-0.049-0.037c0.161,0.123,0.391,0.092,0.514-0.068
		c1.094-1.615,3.041-2.287,6.557-2.268c2.568,0.002,4.439,0.285,5.717,1.058c1.295,0.774,1.906,2.086,1.894,3.827v3.693
		c0,0.096-0.039,0.189-0.106,0.256c-0.066,0.064-0.16,0.104-0.256,0.104h-9.828c-7.432,0.022-11.11,4.624-11.136,10.1
		c0.021,5.932,4.386,10.416,12.114,10.44c4.773-0.012,7.012-1.077,8.398-3.379c0.068-0.107,0.186-0.174,0.312-0.174h0.139
		c0.096,0,0.189,0.036,0.256,0.105c0.067,0.065,0.106,0.159,0.106,0.254v2.406c0,0.204,0.163,0.366,0.368,0.366h5.648
		c0.203,0,0.366-0.162,0.366-0.366V43.975C279.794,35.49,274.147,32.75,265.478,32.695z M254.366,37.647 M273.441,55.684
		c0,2.776-0.51,4.478-1.911,5.429c-1.388,0.928-3.428,1.054-6.396,1.064c-2.456-0.002-4.205-0.532-5.368-1.419
		c-1.154-0.881-1.682-2.122-1.68-3.402c-0.002-1.379,0.543-2.578,1.644-3.381c1.101-0.807,2.714-1.228,4.843-1.23h8.506
		c0.096,0,0.189,0.041,0.256,0.108c0.067,0.064,0.106,0.157,0.106,0.254V55.684z"/>
</g>
</svg>
