<?xml version="1.0" encoding="UTF-8" standalone="no"?>
<svg
   xmlns:dc="http://purl.org/dc/elements/1.1/"
   xmlns:cc="http://creativecommons.org/ns#"
   xmlns:rdf="http://www.w3.org/1999/02/22-rdf-syntax-ns#"
   xmlns:svg="http://www.w3.org/2000/svg"
   xmlns="http://www.w3.org/2000/svg"
   viewBox="0 0 450 143.75"
   height="143.75"
   width="450"
   xml:space="preserve"
   version="1.1"
   id="svg2"><metadata
     id="metadata8"><rdf:RDF><cc:Work
         rdf:about=""><dc:format>image/svg+xml</dc:format><dc:type
           rdf:resource="http://purl.org/dc/dcmitype/StillImage" /></cc:Work></rdf:RDF></metadata><defs
     id="defs6" /><g
     transform="matrix(1.25,0,0,-1.25,0,143.75)"
     id="g10"><g
       transform="scale(0.1,0.1)"
       id="g12"><path
         id="path14"
         style="fill:#cd1e25;fill-opacity:1;fill-rule:evenodd;stroke:none"
         d="M 0,120 C 0,53.7305 53.7266,0 120,0 l 3360,0 c 66.27,0 120,53.7305 120,120 l 0,910 c 0,66.27 -53.73,120 -120,120 l -3360,0 C 53.7266,1150 0,1096.27 0,1030 L 0,120" /><path
         id="path16"
         style="fill:#ffffff;fill-opacity:1;fill-rule:nonzero;stroke:none"
         d="m 632.395,509.797 c 0,-7.043 1.277,-14.078 2.554,-20.481 10.879,-39.039 43.52,-65.918 84.477,-65.918 58.875,0 94.074,47.997 94.074,119.036 0,62.074 -31.996,115.195 -92.152,115.195 -38.399,0 -74.239,-26.242 -85.758,-69.117 -1.277,-6.403 -3.195,-14.082 -3.195,-23.039 l 0,-55.676 z M 574.156,385.645 c 1.278,21.125 2.563,52.476 2.563,79.996 l 0,374.371 55.676,0 0,-194.547 1.277,0 c 19.84,34.558 55.68,56.957 105.59,56.957 76.797,0 131.191,-63.992 130.551,-158.067 0,-110.71 -69.754,-165.75 -138.868,-165.75 -44.797,0 -80.632,17.274 -103.672,58.235 l -1.921,0 -2.559,-51.195 -48.637,0" /><path
         id="path18"
         style="fill:#ffffff;fill-opacity:1;fill-rule:nonzero;stroke:none"
         d="m 1118.52,543.711 c -61.44,1.285 -131.192,-9.602 -131.192,-69.75 0,-36.481 24.322,-53.758 53.112,-53.758 40.32,0 65.92,25.598 74.88,51.832 1.92,5.762 3.2,12.164 3.2,17.922 l 0,53.754 z m 8.32,-158.066 -4.48,39.039 -1.92,0 c -17.28,-24.325 -50.56,-46.079 -94.72,-46.079 -62.712,0 -94.708,44.161 -94.708,88.954 0,74.875 66.554,115.832 186.228,115.191 l 0,6.398 c 0,25.598 -7.04,71.676 -70.39,71.676 -28.8,0 -58.881,-8.961 -80.639,-23.035 l -12.805,37.113 c 25.602,16.641 62.714,27.52 101.754,27.52 94.72,0 117.76,-64.633 117.76,-126.707 l 0,-115.836 c 0,-26.875 1.27,-53.109 5.11,-74.234 l -51.19,0" /><path
         id="path20"
         style="fill:#ffffff;fill-opacity:1;fill-rule:nonzero;stroke:none"
         d="m 1273.15,385.645 56.3203,0 0,454.367 -56.3203,0 0,-454.367 z" /><path
         id="path22"
         style="fill:#ffffff;fill-opacity:1;fill-rule:nonzero;stroke:none"
         d="m 1422.71,443.242 c 16.64,-10.879 46.08,-22.402 74.24,-22.402 40.96,0 60.15,20.476 60.15,46.078 0,26.883 -16,41.598 -57.59,56.961 -55.68,19.832 -81.92,50.551 -81.92,87.668 0,49.918 40.32,90.875 106.88,90.875 31.36,0 58.87,-8.961 76.15,-19.199 l -14.08,-40.957 c -12.16,7.679 -34.56,17.922 -63.35,17.922 -33.28,0 -51.84,-19.204 -51.84,-42.239 0,-25.601 18.56,-37.121 58.87,-52.476 53.76,-20.477 81.28,-47.36 81.28,-93.438 0,-54.39 -42.24,-92.789 -115.83,-92.789 -33.92,0 -65.27,8.32 -87.04,21.113 l 14.08,42.883" /><path
         id="path24"
         style="fill:#ffffff;fill-opacity:1;fill-rule:nonzero;stroke:none"
         d="m 1863.21,543.711 c -61.43,1.285 -131.19,-9.602 -131.19,-69.75 0,-36.481 24.32,-53.758 53.12,-53.758 40.31,0 65.91,25.598 74.87,51.832 1.92,5.762 3.2,12.164 3.2,17.922 l 0,53.754 z m 8.32,-158.066 -4.48,39.039 -1.92,0 c -17.28,-24.325 -50.56,-46.079 -94.71,-46.079 -62.72,0 -94.72,44.161 -94.72,88.954 0,74.875 66.56,115.832 186.23,115.191 l 0,6.398 c 0,25.598 -7.04,71.676 -70.4,71.676 -28.79,0 -58.87,-8.961 -80.63,-23.035 l -12.8,37.113 c 25.6,16.641 62.72,27.52 101.75,27.52 94.72,0 117.76,-64.633 117.76,-126.707 l 0,-115.836 c 0,-26.875 1.28,-53.109 5.11,-74.234 l -51.19,0" /><path
         id="path26"
         style="fill:#ffffff;fill-opacity:1;fill-rule:nonzero;stroke:none"
         d="m 2017.4,611.547 c 0,32 -0.64,58.238 -2.56,83.836 l 49.28,0 2.56,-49.918 1.91,0 c 17.29,29.437 46.09,56.957 97.28,56.957 42.24,0 74.24,-25.602 87.67,-62.074 l 1.28,0 c 9.6,17.281 21.76,30.715 34.56,40.316 18.56,14.078 39.04,21.758 68.47,21.758 40.96,0 101.76,-26.879 101.76,-134.391 l 0,-182.386 -55.04,0 0,175.347 c 0,59.516 -21.76,95.352 -67.2,95.352 -31.99,0 -56.95,-23.676 -66.55,-51.199 -2.56,-7.672 -4.48,-17.915 -4.48,-28.153 l 0,-191.347 -55.03,0 0,185.585 c 0,49.278 -21.76,85.114 -64.64,85.114 -35.2,0 -60.79,-28.156 -69.76,-56.317 -3.19,-8.316 -4.48,-17.918 -4.48,-27.515 l 0,-186.867 -55.03,0 0,225.902" /><path
         id="path28"
         style="fill:#ffffff;fill-opacity:1;fill-rule:nonzero;stroke:none"
         d="m 2560.37,385.645 0,309.738 56.32,0 0,-309.738 -56.32,0 z m 62.72,396.773 c 0.63,-19.199 -13.44,-34.563 -35.84,-34.563 -19.84,0 -33.92,15.364 -33.92,34.563 0,19.84 14.72,35.195 35.2,35.195 21.12,0 34.56,-15.355 34.56,-35.195" /><path
         id="path30"
         style="fill:#ffffff;fill-opacity:1;fill-rule:nonzero;stroke:none"
         d="m 2932.76,569.949 c 0,7.684 -0.63,16.645 -2.55,23.68 -8.33,34.559 -38.4,64 -80.64,64 -58.23,0 -93.44,-49.277 -93.44,-119.035 0,-61.438 29.45,-115.196 91.52,-115.196 36.48,0 67.84,22.403 80.63,61.442 2.56,7.676 4.48,18.558 4.48,26.875 l 0,58.234 z m 0,-136.304 -1.28,0 c -16.64,-30.723 -51.19,-55.04 -101.11,-55.04 -72.31,0 -131.19,62.711 -131.19,156.79 0,115.832 74.87,167.027 140.16,167.027 47.98,0 79.99,-23.676 95.35,-53.754 l 1.28,0 1.91,46.715 53.12,0 c -1.28,-26.238 -1.92,-53.117 -1.92,-85.113 l 0,-351.332 -56.32,0 0,174.707" /><path
         id="path32"
         style="fill:#ffffff;fill-opacity:1;fill-rule:nonzero;stroke:none"
         d="m 3099.43,659.184 3.92,0 c 5.04,0 8.4,1.953 8.4,5.312 0,3.645 -3.08,5.606 -7.84,5.606 -1.68,0 -3.36,-0.282 -4.48,-0.282 l 0,-10.636 z m -0.56,-25.477 -13.72,0 0,44.516 c 3.08,0.562 10.36,1.402 19.6,1.402 10.08,0 14.56,-1.402 17.92,-3.363 2.8,-1.961 4.76,-5.321 4.76,-9.801 0,-4.484 -4.2,-8.398 -10.36,-10.078 l 0,-0.559 c 5.04,-1.679 7.84,-5.039 9.24,-11.484 1.4,-6.434 2.24,-8.953 3.08,-10.633 l -15.4,0 c -1.4,1.68 -2.24,5.594 -3.08,9.512 -0.84,4.48 -3.08,6.726 -7.56,6.726 l -4.48,0 0,-16.238 z m -28.84,22.676 c 0,-20.156 14.84,-36.125 35,-36.125 20.16,0 35,15.969 35,36.406 0,19.879 -14.84,36.117 -35.28,36.117 -19.88,0 -34.72,-16.238 -34.72,-36.398 z m 84.55,0.281 c 0,-26.883 -21.83,-48.445 -49.55,-48.445 -27.72,0 -49.84,21.562 -49.84,48.445 0,26.598 22.12,48.156 49.84,48.156 27.72,0 49.55,-21.558 49.55,-48.156" /></g></g></svg>