<?xml version="1.0" encoding="UTF-8" standalone="no"?>
<svg
   xmlns:dc="http://purl.org/dc/elements/1.1/"
   xmlns:cc="http://creativecommons.org/ns#"
   xmlns:rdf="http://www.w3.org/1999/02/22-rdf-syntax-ns#"
   xmlns:svg="http://www.w3.org/2000/svg"
   xmlns="http://www.w3.org/2000/svg"
   viewBox="0 0 433.38751 216.2625"
   height="216.2625"
   width="433.38751"
   xml:space="preserve"
   version="1.1"
   id="svg2"><metadata
     id="metadata8"><rdf:RDF><cc:Work
         rdf:about=""><dc:format>image/svg+xml</dc:format><dc:type
           rdf:resource="http://purl.org/dc/dcmitype/StillImage" /></cc:Work></rdf:RDF></metadata><defs
     id="defs6" /><g
     transform="matrix(1.25,0,0,-1.25,0,216.2625)"
     id="g10"><g
       transform="scale(0.1,0.1)"
       id="g12"><path
         id="path14"
         style="fill:#a80c30;fill-opacity:1;fill-rule:nonzero;stroke:none"
         d="M 2620.19,487.281 C 2558.41,146.57 2438.8,-19.2109 2269.76,1.76953 2095.4,23.3516 1997.26,189.051 2024.95,413.211 l 5.48,-0.582 c -16.64,-134.789 67.08,-287.641 161.13,-298.598 161.97,-18.7497 235.29,201.778 220.98,399.77 l -135,10.289 285.24,340.832 190.88,-401.531 -133.47,23.89" /><path
         id="path16"
         style="fill:#a80c30;fill-opacity:1;fill-rule:nonzero;stroke:none"
         d="m 2505.5,1242.79 c 61.85,340.68 181.35,506.47 350.35,485.55 174.53,-21.59 272.58,-187.38 244.78,-411.49 l -5.37,0.64 c 16.64,134.74 -67.05,287.62 -161.13,298.55 -162.03,18.8 -235.23,-201.8 -221,-399.72 l 135.06,-10.31 -285.41,-341.088 -190.71,401.788 133.43,-23.92" /><path
         id="path18"
         style="fill:#231f20;fill-opacity:1;fill-rule:nonzero;stroke:none"
         d="m 455.41,1223.48 c 107.324,0 194.004,-30.94 224.18,-64.73 -18.977,-29.43 -37.043,-61.82 -51.223,-97.1 l -11.816,0 c -18.145,50.05 -73.223,114.68 -165.828,114.68 -177.95,0 -276.551,-136.65 -311.692,-317.549 -39.1482,-201.402 31.723,-305.832 194.895,-305.832 77.922,0 177.969,45.61 240.859,104.43 l 6.492,-4.399 C 572.258,629.441 564.461,604.398 558.406,580.879 490.508,533.898 386.621,491.238 295.488,491.238 124.91,491.238 -41.7969,594.102 9.40234,857.344 58.7773,1111.7 267.215,1223.48 455.41,1223.48" /><path
         id="path20"
         style="fill:#231f20;fill-opacity:1;fill-rule:nonzero;stroke:none"
         d="m 880.266,1061.65 16.093,0 c 46.11,63.26 126.801,100.07 204.651,100.07 117.72,0 144.87,-86.81 125.79,-185.306 C 1215.62,919.063 1206,907.285 986.23,873.496 854.324,852.891 762.609,789.719 739.785,672.102 c -21.73,-111.801 61.836,-180.864 160.43,-180.864 99.905,0 167.345,36.742 251.625,107.321 -3.84,-49.989 20.5,-91.09 83.72,-91.09 38.3,0 75.85,11.703 98.08,20.511 l 6.39,32.321 c -11.48,-5.84 -23.24,-5.84 -32.04,-5.84 -57.33,0 -45.71,60.238 -36.26,108.82 24.01,123.43 51.12,232.305 72.56,342.499 25.37,130.91 -54.81,217.7 -195.91,217.7 -78.02,0 -152.22,-19.18 -253.353,-85.35 l -14.761,-76.48 z M 1158.6,655.879 c -44.38,-54.41 -118.49,-102.93 -193.522,-102.93 -64.621,0 -118.738,47.11 -100.73,139.66 31.121,160.282 235.012,150.02 343.042,183.797 L 1158.6,655.879" /><path
         id="path22"
         style="fill:#231f20;fill-opacity:1;fill-rule:nonzero;stroke:none"
         d="m 1696.17,1195.5 c 26.35,135.24 60.2,324.89 70.55,423.39 21.19,-4.34 42.64,-7.3 64.71,-7.3 22.09,0 44.69,2.96 67.62,7.3 -28.02,-98.5 -67.8,-288.15 -94.14,-423.39 l -51.69,-266.133 c -26.29,-135.254 -60.18,-324.969 -70.49,-423.437 -21.25,4.39 -42.7,7.359 -64.77,7.359 -22.06,0 -44.61,-2.969 -67.62,-7.359 27.99,98.468 67.77,288.183 94.1,423.437 l 51.73,266.133" /><path
         id="path24"
         style="fill:#231f20;fill-opacity:1;fill-rule:nonzero;stroke:none"
         d="m 2231.27,1539.5 c 41.1,0 68.34,-33.82 60.4,-74.92 -8.03,-41.19 -48.43,-75.02 -89.54,-75.02 -41.19,0 -68.44,33.83 -60.46,75.02 8.03,41.1 48.41,74.92 89.6,74.92 z M 2059.09,933.77 c 17.18,88.23 34.18,191.14 41.67,274.99 21.21,-4.46 42.7,-7.37 64.78,-7.37 22.01,0 44.66,2.91 67.53,7.37 -25.04,-83.85 -48.02,-186.76 -65.21,-274.99 l -29.74,-152.918 c -17.13,-88.243 -34.19,-191.141 -41.62,-274.922 -21.3,4.39 -42.69,7.359 -64.7,7.359 -22.18,0 -44.75,-2.969 -67.68,-7.359 25.11,83.781 48.06,186.679 65.24,274.922 l 29.73,152.918" /><path
         id="path26"
         style="fill:#231f20;fill-opacity:1;fill-rule:nonzero;stroke:none"
         d="m 2998.39,1061.65 16.23,0 c 46.07,63.26 126.78,100.07 204.61,100.07 117.65,0 144.86,-86.81 125.7,-185.306 -11.15,-57.351 -20.7,-69.129 -240.47,-102.918 -131.95,-20.605 -223.67,-83.777 -246.46,-201.394 -21.74,-111.801 61.81,-180.864 160.35,-180.864 100,0 167.42,36.742 251.72,107.321 -3.89,-49.989 20.53,-91.09 83.67,-91.09 38.18,0 75.8,11.703 98.11,20.511 l 6.26,32.321 c -11.38,-5.84 -23.16,-5.84 -31.99,-5.84 -57.32,0 -45.54,60.238 -36.21,108.82 24.08,123.43 51.08,232.305 72.5,342.499 25.47,130.91 -54.72,217.7 -195.88,217.7 -78,0 -152.2,-19.18 -253.26,-85.35 l -14.88,-76.48 z m 278.38,-405.771 c -44.32,-54.41 -118.5,-102.93 -193.54,-102.93 -64.61,0 -118.67,47.11 -100.76,139.66 31.17,160.282 235,150.02 343.11,183.797 l -48.81,-220.527" /></g></g></svg>