<?xml version="1.0" encoding="utf-8"?>
<!-- Generator: Adobe Illustrator 15.1.0, SVG Export Plug-In . SVG Version: 6.00 Build 0)  -->
<!DOCTYPE svg PUBLIC "-//W3C//DTD SVG 1.1//EN" "http://www.w3.org/Graphics/SVG/1.1/DTD/svg11.dtd">
<svg version="1.1" xmlns="http://www.w3.org/2000/svg" xmlns:xlink="http://www.w3.org/1999/xlink" x="0px" y="0px" width="360px"
	 height="184.832px" viewBox="0 0 360 184.832" enable-background="new 0 0 360 184.832" xml:space="preserve">
<g id="Layer_3">
	<rect x="149.145" y="21.724" fill="#FFFFFF" width="63.044" height="82.608"/>
	<rect x="258.135" y="82.644" fill="#FFFFFF" width="63.043" height="82.608"/>
	<rect x="38.824" y="80.536" fill="#FFFFFF" width="63.043" height="82.608"/>
</g>
<g id="Layer_1">
	<g>
		<path fill="#005295" d="M35.174,184.832L0,123.911l35.174-60.918h70.344l35.174,60.918l-35.174,60.921H35.174z M94.409,87.939
			c-0.879,0.688-1.748,1.547-3.294,1.547c-1.068,0-2.422-0.387-4.264-0.773c-1.835-0.387-4.068-0.773-6.876-0.773
			c-20.735,0-36.812,15.016-36.812,36.034c0,21.026,16.077,36.042,36.812,36.042c5.516,0,9.784-1.558,11.141-1.558
			c0.58,0,1.16,0.193,1.74,0.387c0.587,0.2,1.062,0.591,1.554,1.171v-18.411c-2.918,3.491-7.271,6.012-14.435,6.012
			c-12.783,0-24.029-9.791-24.029-23.643c0-13.847,11.246-23.635,24.029-23.635c7.165,0,11.517,2.528,14.435,6.003V87.939z"/>
		<path fill="#005295" d="M170.603,55.373V30.764c0-1.746,1.065-3.005,2.422-3.875h-17.631c1.357,0.87,2.419,2.129,2.419,3.875
			v61.228c0,1.748-1.062,3.002-2.419,3.88h17.631c-1.357-0.878-2.422-2.132-2.422-3.88V66.806h21.702v25.186
			c0,1.748-1.065,3.002-2.422,3.88h17.634c-1.356-0.878-2.426-2.132-2.426-3.88V30.764c0-1.746,1.069-3.005,2.426-3.875h-17.634
			c1.356,0.87,2.422,2.129,2.422,3.875v24.609H170.603z M144.872,121.84l-35.17-60.92L144.872,0h70.351l35.167,60.92l-35.167,60.92
			H144.872z"/>
		<path fill="#005295" d="M254.485,184.867l-35.174-60.921l35.174-60.918h70.345L360,123.946l-35.17,60.921H254.485z
			 M274.268,154.503c0,1.737-1.064,3.003-2.422,3.871h17.631c-1.354-0.868-2.419-2.134-2.419-3.871v-25.195h11.142
			c2.71,0,4.359,0.675,5.909,2.13v-15.696c-1.55,1.461-3.199,2.139-5.909,2.139h-11.142v-17.052h17.824
			c3.491,0,5.231,1.16,6.684,3.095V89.396h-39.72c1.357,0.87,2.422,2.128,2.422,3.876V154.503z"/>
	</g>
</g>
<g id="Layer_2" display="none">
</g>
</svg>
