<?xml version="1.0" encoding="utf-8"?>
<!-- Generator: Adobe Illustrator 15.1.0, SVG Export Plug-In . SVG Version: 6.00 Build 0)  -->
<!DOCTYPE svg PUBLIC "-//W3C//DTD SVG 1.1//EN" "http://www.w3.org/Graphics/SVG/1.1/DTD/svg11.dtd">
<svg version="1.1" id="Layer_1" xmlns="http://www.w3.org/2000/svg" xmlns:xlink="http://www.w3.org/1999/xlink" x="0px" y="0px"
	 width="606.5px" height="204px" viewBox="0 199.5 606.5 204" enable-background="new 0 199.5 606.5 204" xml:space="preserve">
<g>
	<g>
		<defs>
			<rect id="SVGID_1_" width="612" height="792"/>
		</defs>
		<clipPath id="SVGID_2_">
			<use xlink:href="#SVGID_1_"  overflow="visible"/>
		</clipPath>
		<path clip-path="url(#SVGID_2_)" fill="#1674BB" d="M261.692,257.942c0.542,0.089,1.086,0.182,1.626,0.28
			c6.882,1.228,13.744,2.923,20.232,5.385c5.384,2.015,10.663,4.422,15.527,7.383c3.947,2.422,7.761,5.137,11.101,8.216
			c5.206,4.573,9.746,9.732,13.438,15.431c3.684,5.625,6.458,11.635,8.323,17.983c1.88,6.352,2.783,12.897,2.783,19.484
			c0,6.451-0.833,12.887-2.712,19.103c-1.782,5.927-4.366,11.594-7.845,16.834c-3.408,5.14-7.492,9.842-12.198,14.011
			c-4.946,4.377-10.52,8.106-16.443,11.284c-5.785,3.032-12.079,5.206-18.483,6.796c-4.806,1.204-10.08,1.863-15.35,2.215v-10.019
			c2.98-0.423,5.917-0.973,8.763-1.684c8.567-2.179,15.976-7.157,22.189-12.906c5.597-5.246,9.758-11.482,12.803-18.281
			c3.683-8.191,4.85-17.487,4.85-26.303c0-8.248-1.348-16.366-3.926-24.256c-2.562-7.734-6.477-14.865-11.969-21.176
			c-6.164-7.207-13.968-12.564-22.986-16.357c-3.135-1.319-6.393-2.373-9.724-3.21V257.942L261.692,257.942z M187.996,392.413
			c2.079-2.781,3.278-5.813,3.278-9.209V276.21c0-2.671-0.402-5.535-1.732-7.936c-0.988-1.784-2.384-3.32-4.33-4.261
			c-1.984-0.97-4.117-1.366-6.355-1.366h-4.787v-6.438h64.71c7.658,0,15.362,0.492,22.912,1.733v10.213
			c-7.94-1.989-16.299-2.715-24.444-2.715c-7.971,0-16.23,0.865-24.163,1.96v110.221c0,3.296,0.385,7.979,2.55,10.759
			c1.819,2.383,4.755,3.54,7.74,4.097c5.688,1.015,12.356,1.106,18.139,1.106c6.597,0,13.494-0.306,20.178-1.255v10.019
			c-4.281,0.284-8.56,0.364-12.589,0.364H174.07v-6.339h4.787C182.595,396.373,185.82,395.335,187.996,392.413"/>
	</g>
	<g>
		<defs>
			<rect id="SVGID_3_" width="612" height="792"/>
		</defs>
		<clipPath id="SVGID_4_">
			<use xlink:href="#SVGID_3_"  overflow="visible"/>
		</clipPath>
		<path clip-path="url(#SVGID_4_)" fill="#1674BB" d="M448.451,386.765c2.5-3.134,4.521-7.097,6.168-10.675l0.673-1.458h6.822
			l-7.396,28.08H354.13v-6.339h4.788c3.4,0,6.209-1.208,8.642-3.398c2.878-2.586,3.777-6.152,3.777-9.772V276.21
			c0-3.597-0.642-8.092-4.024-10.377c-3.166-2.139-6.796-3.078-10.68-3.189l-2.503-0.069v-6.366h56.784v6.364l-2.501,0.071
			c-3.861,0.113-7.473,1.079-10.656,3.122c-3.509,2.262-4.163,6.781-4.163,10.444v103.415c0,3.776,0.686,8.465,4.22,10.872
			c3.928,2.67,11.004,3.087,15.68,3.087h13.916c4.368,0,9.475-0.329,13.595-1.783C443.998,390.744,446.526,389.138,448.451,386.765"
			/>
	</g>
	<g>
		<defs>
			<rect id="SVGID_5_" width="612" height="792"/>
		</defs>
		<clipPath id="SVGID_6_">
			<use xlink:href="#SVGID_5_"  overflow="visible"/>
		</clipPath>
		<path clip-path="url(#SVGID_6_)" fill="#1674BB" d="M530.796,333.912v49.259c0,3.659,1.022,7.01,3.847,9.638
			c2.567,2.393,5.609,3.564,9.244,3.564h4.862v6.339h-57.195v-6.339h4.789c3.583,0,6.554-1.117,8.991-3.566
			c2.676-2.684,3.652-6.026,3.652-9.636V276.013c0-3.38-0.508-8.307-3.688-10.534c-2.653-1.86-5.621-2.831-8.956-2.831h-4.789
			v-6.438h102.042v26.338h-6.684l-0.227-2.171c-0.407-3.992-2.083-7.483-4.92-10.516c-3.442-3.722-9.819-4.42-14.766-4.42h-36.205
			v59.34h33.59c3.569,0,9.499-0.354,12.136-2.952c2.444-2.435,3.609-5.758,4.166-8.985l0.348-2.019h6.541v36.945h-6.667
			l-0.238-2.151c-0.36-3.217-1.509-6.175-3.891-8.569c-2.727-2.735-8.681-3.138-12.395-3.138H530.796L530.796,333.912z"/>
	</g>
	<g>
		<defs>
			<rect id="SVGID_7_" width="612" height="792"/>
		</defs>
		<clipPath id="SVGID_8_">
			<use xlink:href="#SVGID_7_"  overflow="visible"/>
		</clipPath>
		<path clip-path="url(#SVGID_8_)" fill="#1674BB" d="M140.473,275.984c-18.099-2.18-34.259,8.798-36.087,24.522
			c-1.828,15.722,11.364,30.24,29.463,32.424c18.097,2.181,34.256-8.801,36.085-24.523
			C171.765,292.686,158.569,278.166,140.473,275.984"/>
	</g>
	<g>
		<defs>
			<rect id="SVGID_9_" width="612" height="792"/>
		</defs>
		<clipPath id="SVGID_10_">
			<use xlink:href="#SVGID_9_"  overflow="visible"/>
		</clipPath>
		<path clip-path="url(#SVGID_10_)" fill="#1674BB" d="M139.316,199.408c-9.896-1.195-18.731,4.811-19.731,13.411
			c-1,8.595,6.213,16.534,16.109,17.729c9.899,1.191,18.734-4.813,19.734-13.41C156.428,208.541,149.214,200.601,139.316,199.408"/>
	</g>
	<g>
		<defs>
			<rect id="SVGID_11_" width="612" height="792"/>
		</defs>
		<clipPath id="SVGID_12_">
			<use xlink:href="#SVGID_11_"  overflow="visible"/>
		</clipPath>
		<path clip-path="url(#SVGID_12_)" fill="#1674BB" d="M137.653,244.712c-5.973-0.72-11.306,2.904-11.911,8.094
			c-0.603,5.188,3.752,9.978,9.725,10.698c5.973,0.723,11.306-2.901,11.909-8.091S143.627,245.432,137.653,244.712"/>
	</g>
	<g>
		<defs>
			<rect id="SVGID_13_" width="612" height="792"/>
		</defs>
		<clipPath id="SVGID_14_">
			<use xlink:href="#SVGID_13_"  overflow="visible"/>
		</clipPath>
		<path clip-path="url(#SVGID_14_)" fill="#1674BB" d="M94.856,259.796c-5.972-0.72-11.306,2.904-11.911,8.094
			c-0.603,5.191,3.752,9.98,9.725,10.701c5.973,0.72,11.306-2.904,11.911-8.092C105.184,265.309,100.829,260.516,94.856,259.796"/>
	</g>
	<g>
		<defs>
			<rect id="SVGID_15_" width="612" height="792"/>
		</defs>
		<clipPath id="SVGID_16_">
			<use xlink:href="#SVGID_15_"  overflow="visible"/>
		</clipPath>
		<path clip-path="url(#SVGID_16_)" fill="#1674BB" d="M63.212,240.16c-5.807-0.701-10.956,2.55-11.503,7.259
			c-0.549,4.708,3.715,9.095,9.518,9.794c5.806,0.701,10.957-2.551,11.503-7.261C73.279,245.246,69.015,240.859,63.212,240.16"/>
	</g>
	<g>
		<defs>
			<rect id="SVGID_17_" width="612" height="792"/>
		</defs>
		<clipPath id="SVGID_18_">
			<use xlink:href="#SVGID_17_"  overflow="visible"/>
		</clipPath>
		<path clip-path="url(#SVGID_18_)" fill="#1674BB" d="M80.577,296.453c-5.973-0.72-11.306,2.904-11.911,8.092
			c-0.603,5.19,3.752,9.98,9.724,10.7c5.974,0.722,11.307-2.902,11.912-8.091C90.905,301.963,86.55,297.173,80.577,296.453"/>
	</g>
	<g>
		<defs>
			<rect id="SVGID_19_" width="612" height="792"/>
		</defs>
		<clipPath id="SVGID_20_">
			<use xlink:href="#SVGID_19_"  overflow="visible"/>
		</clipPath>
		<path clip-path="url(#SVGID_20_)" fill="#1674BB" d="M80.549,296.7c-5.805-0.7-10.954,2.551-11.503,7.259
			c-0.546,4.711,3.715,9.095,9.518,9.794c5.804,0.701,10.957-2.55,11.504-7.259C90.616,301.786,86.352,297.4,80.549,296.7"/>
	</g>
	<g>
		<defs>
			<rect id="SVGID_21_" width="612" height="792"/>
		</defs>
		<clipPath id="SVGID_22_">
			<use xlink:href="#SVGID_21_"  overflow="visible"/>
		</clipPath>
		<path clip-path="url(#SVGID_22_)" fill="#1674BB" d="M100.339,327.762c-5.973-0.72-11.306,2.904-11.908,8.092
			c-0.605,5.19,3.748,9.982,9.722,10.703c5.973,0.72,11.309-2.904,11.912-8.094C110.667,333.272,106.312,328.479,100.339,327.762"/>
	</g>
	<g>
		<defs>
			<rect id="SVGID_23_" width="612" height="792"/>
		</defs>
		<clipPath id="SVGID_24_">
			<use xlink:href="#SVGID_23_"  overflow="visible"/>
		</clipPath>
		<path clip-path="url(#SVGID_24_)" fill="#1674BB" d="M137.653,341.251c-5.973-0.719-11.306,2.904-11.911,8.094
			c-0.603,5.189,3.752,9.981,9.725,10.701c5.973,0.72,11.306-2.904,11.909-8.094S143.627,341.972,137.653,341.251"/>
	</g>
	<g>
		<defs>
			<rect id="SVGID_25_" width="612" height="792"/>
		</defs>
		<clipPath id="SVGID_26_">
			<use xlink:href="#SVGID_25_"  overflow="visible"/>
		</clipPath>
		<path clip-path="url(#SVGID_26_)" fill="#1674BB" d="M136.846,374.3c-9.616-1.161-18.15,4.228-19.057,12.027
			c-0.909,7.801,6.155,15.067,15.771,16.228c9.618,1.16,18.151-4.227,19.059-12.028C153.526,382.725,146.464,375.458,136.846,374.3"
			/>
	</g>
	<g>
		<defs>
			<rect id="SVGID_27_" width="612" height="792"/>
		</defs>
		<clipPath id="SVGID_28_">
			<use xlink:href="#SVGID_27_"  overflow="visible"/>
		</clipPath>
		<path clip-path="url(#SVGID_28_)" fill="#1674BB" d="M71.184,350.116c-9.896-1.193-18.731,4.813-19.731,13.409
			c-1.002,8.597,6.213,16.538,16.109,17.73c9.897,1.194,18.732-4.812,19.734-13.41C88.295,359.248,81.08,351.309,71.184,350.116"/>
	</g>
	<g>
		<defs>
			<rect id="SVGID_29_" width="612" height="792"/>
		</defs>
		<clipPath id="SVGID_30_">
			<use xlink:href="#SVGID_29_"  overflow="visible"/>
		</clipPath>
		<path clip-path="url(#SVGID_30_)" fill="#1674BB" d="M35.123,290.447c-9.896-1.192-18.733,4.813-19.734,13.41
			c-0.999,8.599,6.213,16.537,16.11,17.73c9.899,1.193,18.734-4.811,19.734-13.41C52.235,299.58,45.019,291.642,35.123,290.447"/>
	</g>
	<g>
		<defs>
			<rect id="SVGID_31_" width="612" height="792"/>
		</defs>
		<clipPath id="SVGID_32_">
			<use xlink:href="#SVGID_31_"  overflow="visible"/>
		</clipPath>
		<path clip-path="url(#SVGID_32_)" fill="#1674BB" d="M26.182,206.8c-9.896-1.194-18.735,4.812-19.733,13.409
			c-0.999,8.597,6.214,16.537,16.11,17.729c9.896,1.194,18.735-4.811,19.734-13.409C43.293,215.932,36.077,207.992,26.182,206.8"/>
	</g>
</g>
</svg>
