<?xml version="1.0" encoding="UTF-8" standalone="no"?>
<svg
   xmlns:dc="http://purl.org/dc/elements/1.1/"
   xmlns:cc="http://creativecommons.org/ns#"
   xmlns:rdf="http://www.w3.org/1999/02/22-rdf-syntax-ns#"
   xmlns:svg="http://www.w3.org/2000/svg"
   xmlns="http://www.w3.org/2000/svg"
   viewBox="0 0 483.08749 170.08749"
   height="170.08749"
   width="483.08749"
   xml:space="preserve"
   version="1.1"
   id="svg2"><metadata
     id="metadata8"><rdf:RDF><cc:Work
         rdf:about=""><dc:format>image/svg+xml</dc:format><dc:type
           rdf:resource="http://purl.org/dc/dcmitype/StillImage" /></cc:Work></rdf:RDF></metadata><defs
     id="defs6" /><g
     transform="matrix(1.25,0,0,-1.25,0,170.0875)"
     id="g10"><g
       transform="scale(0.1,0.1)"
       id="g12"><path
         id="path14"
         style="fill:#2c3d6b;fill-opacity:1;fill-rule:nonzero;stroke:none"
         d="M 3864.66,196.711 C 3864.66,88.2109 3778.38,0 3671.97,0 L 192.695,0 C 86.2813,0 0,88.2109 0,196.711 l 0,967.239 c 0,108.66 86.2813,196.76 192.695,196.76 l 3479.275,0 c 106.41,0 192.69,-88.1 192.69,-196.76 l 0,-967.239" /><path
         id="path16"
         style="fill:#3d4d7f;fill-opacity:1;fill-rule:nonzero;stroke:none"
         d="m 3845.25,1250.43 c -36.14,72.82 -96.5,106.42 -171.04,110.28 l -3488.819,0 C 82.5781,1357.53 1.46094,1269.79 0.207031,1163.95 c 0,0 -0.46875,-787.321 0,-964.321 0,-22.367 2.453129,-34.738 2.453129,-34.738" /><path
         id="path18"
         style="fill:#ffffff;fill-opacity:1;fill-rule:nonzero;stroke:none"
         d="m 164.578,298.48 0,44.86 c 79.188,0 101.617,23.586 101.617,87.383 l 0,484.609 c 0,63.797 -22.429,87.428 -101.617,87.428 l 0,44.91 575.535,0 30.774,-106.361 c 3.5,-11.789 5.894,-22.43 5.894,-27.125 0,-5.95 -10.636,-17.739 -23.683,-17.739 -8.243,0 -11.789,4.696 -24.727,24.778 -53.254,79.187 -121.801,93.377 -226.965,93.377 -73.293,0 -81.535,-11.84 -81.535,-59.104 l 0,-234.012 93.324,0 c 68.543,0 94.52,15.387 109.91,83.934 2.399,12.988 4.801,14.191 22.481,15.387 14.187,0 20.141,-3.598 20.141,-22.481 l 0,-231.609 c 0,-11.844 -9.5,-15.391 -22.539,-15.391 -12.989,0 -15.282,3.547 -16.536,8.242 -31.875,104.02 -52.007,109.965 -113.457,109.965 l -93.324,0 0,-251.801 c 0,-62.601 11.789,-74.39 121.75,-74.39 145.332,0 185.5,43.668 244.555,145.332 3.547,5.953 5.941,9.445 20.129,9.445 12.992,0 17.738,-3.492 17.738,-8.297 0,-4.64 -1.199,-10.64 -2.402,-21.226 l -25.977,-170.114 -631.086,0" /><path
         id="path20"
         style="fill:#ffffff;fill-opacity:1;fill-rule:nonzero;stroke:none"
         d="m 1143.13,424.879 c 0,-62.602 18.94,-81.539 89.83,-81.539 94.52,0 141.78,66.101 141.78,160.676 0,113.457 -73.24,165.515 -172.56,165.515 -49.65,0 -59.05,-9.492 -59.05,-56.808 l 0,-187.844 z m 0,335.625 c 0,-34.274 16.54,-46.113 65,-46.113 73.34,0 131.14,31.925 131.14,145.437 0,109.856 -51.95,142.932 -137.09,142.932 -47.2,0 -59.05,-18.885 -59.05,-61.451 l 0,-180.805 z M 989.508,915.332 c 0,63.797 -22.43,87.428 -108.711,87.428 l 0,44.91 304.853,0 c 191.49,0 295.51,-63.795 295.51,-176.053 0,-105.168 -99.27,-152.48 -167.87,-172.562 l 0,-2.399 c 141.84,-17.687 210.38,-112.207 210.38,-199.687 0,-80.387 -61.45,-198.489 -274.17,-198.489 l -368.703,0 0,44.86 c 86.281,0 108.711,23.586 108.711,87.383 l 0,484.609" /><path
         id="path22"
         style="fill:#ffffff;fill-opacity:1;fill-rule:nonzero;stroke:none"
         d="m 2049.6,891.699 c 0,-24.832 -4.75,-29.574 -20.09,-29.574 -12.98,0 -17.73,7.094 -33.07,37.816 -27.23,55.555 -87.43,112.309 -163.12,112.309 -68.54,0 -127.65,-47.262 -127.65,-111.109 0,-166.614 380.54,-124.098 380.54,-382.938 0,-103.965 -57.9,-229.262 -276.52,-229.262 -62.65,0 -166.66,22.481 -208.03,44.911 -8.19,10.636 -18.89,104.015 -18.89,154.82 0,24.836 4.7,33.078 24.89,33.078 20.03,0 24.73,-2.352 33.02,-33.078 12.99,-46.109 62.65,-154.82 191.49,-154.82 75.59,0 142.98,37.871 142.98,119.406 0,176.055 -380.53,153.621 -380.53,388.781 0,146.527 141.78,215.071 257.64,215.071 111.11,0 185.55,-33.07 192.59,-42.51 1.25,-16.537 4.75,-31.873 4.75,-77.987 l 0,-44.914" /><path
         id="path24"
         style="fill:#ffffff;fill-opacity:1;fill-rule:nonzero;stroke:none"
         d="m 2836.71,428.371 c -3.5,-30.726 -8.24,-43.656 -18.94,-56.648 -17.68,-21.332 -113.41,-82.782 -280.07,-82.782 -220.97,0 -398.28,172.559 -398.28,384.082 0,211.532 177.31,384.087 398.28,384.087 135.99,0 293.11,-56.7 293.11,-109.911 0,-52.004 -8.29,-96.863 -8.29,-115.801 0,-7.093 -5.9,-23.632 -20.09,-23.632 -11.79,0 -16.53,3.547 -33.07,47.257 -39.02,100.473 -124.05,157.227 -231.66,157.227 -105.17,0 -232.86,-89.824 -232.86,-339.227 0,-249.293 127.69,-339.171 268.28,-339.171 130.05,0 208.03,122.898 223.42,160.773 10.69,24.773 14.19,27.125 28.37,27.125 11.8,0 18.84,-5.844 18.84,-15.336 0,-7.094 -1.15,-17.742 -2.3,-36.672 l -4.74,-41.371" /><path
         id="path26"
         style="fill:#ffffff;fill-opacity:1;fill-rule:nonzero;stroke:none"
         d="m 3298.83,333.852 c 105.17,0 232.81,89.878 232.81,339.171 0,249.403 -127.64,339.227 -232.81,339.227 -105.21,0 -232.81,-89.824 -232.81,-339.227 0,-249.293 127.6,-339.171 232.81,-339.171 z m 0,723.258 c 221.02,0 398.22,-172.555 398.22,-384.087 0,-211.523 -177.2,-384.082 -398.22,-384.082 -220.91,0 -398.27,172.559 -398.27,384.082 0,211.532 177.36,384.087 398.27,384.087" /></g></g></svg>