<?xml version="1.0" encoding="utf-8"?>
<!-- Generator: Adobe Illustrator 15.1.0, SVG Export Plug-In . SVG Version: 6.00 Build 0)  -->
<!DOCTYPE svg PUBLIC "-//W3C//DTD SVG 1.1//EN" "http://www.w3.org/Graphics/SVG/1.1/DTD/svg11.dtd">
<svg version="1.1" xmlns="http://www.w3.org/2000/svg" xmlns:xlink="http://www.w3.org/1999/xlink" x="0px" y="0px"
	 width="8935.438px" height="3283.142px" viewBox="0 0 8935.438 3283.142" enable-background="new 0 0 8935.438 3283.142"
	 xml:space="preserve">
<g id="Layer_1">
</g>
<g id="Layer_2">
	<g>
		<text transform="matrix(1 0 0 1 1325.3481 1961.7861)" font-family="'MyriadPro-Regular'" font-size="15.0465">m</text>
		<g>
			<g>
				<defs>
					<path id="SVGID_1_" d="M2539.66,1641.523c0,479.504-388.839,868.402-868.348,868.402
						c-479.646,0-868.456-388.898-868.456-868.402c0-479.6,388.809-868.31,868.456-868.31
						C2150.821,773.213,2539.66,1161.923,2539.66,1641.523z"/>
				</defs>
				<use xlink:href="#SVGID_1_"  overflow="visible" fill="#FFFFFF"/>
				<clipPath id="SVGID_2_">
					<use xlink:href="#SVGID_1_"  overflow="visible"/>
				</clipPath>
				<g clip-path="url(#SVGID_2_)">
					<g>
						<path fill="#005DAA" d="M1029.886,1611.195l1245.863,1.885c-0.519-60.281-7.857-109.068-33.287-156.449l-2.076-7.91
							c-26.087-76.858-63.193-138.267-112.604-200.34c-145.136-183.753-339.114-275.489-582.209-275.489
							c-236.042,0-424.32,89.851-565.077,269.371c-52.79,67.249-109.685,161.905-120.234,214.845
							c-16.104,81.465-13.048,159.266-13.048,159.266c-0.226,479.889,390.034,883.654,891.349,910.41
							c256.604,13.562,501.501-71.961,689.396-240.836c179.099-161.064,284.68-380.035,297.248-616.645l-185.819-9.795
							c-9.943,186.963-93.679,360.174-235.709,487.986c-151.082,135.721-348.205,204.574-555.182,193.455
							c-403.827-21.561-720.773-344.541-718.04-728.533L1029.886,1611.195z"/>
					</g>
					<path fill="#FFFFFF" d="M1067.944,1445.707c33.061-71.959,69.747-119.619,118.58-162.942
						c100.682-89.665,221.151-134.405,361.351-134.405c84.959,0,166.001,17.799,243.046,53.499
						c77.143,35.599,139.122,82.595,185.927,140.806c25.714,32.117,47.754,70.645,66.827,114.443l-1.46-1.605h-980.157
						L1067.944,1445.707z"/>
				</g>
				<g clip-path="url(#SVGID_2_)">
					<g>
						<path fill="#7F99CD" d="M2318.89,1647.922l-1245.901-1.875c0.51,59.992,7.955,108.967,33.384,156.441l1.979,7.816
							c26.136,77.053,63.204,138.268,112.604,200.432c145.087,183.662,339.164,275.502,582.161,275.502
							c236.081,0,424.456-89.957,565.126-269.475c52.741-67.053,109.685-161.814,120.233-214.744
							c16.105-81.475,12.902-159.273,12.902-159.273c0.382-479.974-390.033-883.759-891.192-910.412
							c-256.672-13.656-501.55,71.962-689.504,240.835c-179.088,161.059-284.591,379.953-297.159,616.551l185.838,9.889
							c9.835-187.055,93.659-360.455,235.788-488.079c150.984-135.721,348.019-204.295,555.183-193.456
							c403.65,21.661,720.636,344.626,717.854,728.626L2318.89,1647.922z"/>
					</g>
					<path fill="#FFFFFF" d="M2280.794,1813.318c-32.974,72.053-69.708,119.807-118.589,163.129
						c-100.684,89.477-221.241,134.311-361.392,134.311c-84.861,0-165.863-17.791-243.006-53.49
						c-77.084-35.701-139.023-82.705-185.926-140.916c-25.705-32.016-47.744-70.543-66.867-114.332l1.558,1.502h980.1
						L2280.794,1813.318z"/>
				</g>
				<use xlink:href="#SVGID_1_"  overflow="visible" fill="none" stroke="#FFFFFF" stroke-width="3.6304"/>
			</g>
		</g>
		<g>
			<path d="M3585.05,1688.52h-577.987c4.143,78.93,30.621,141.748,79.072,188.373c48.46,46.623,110.996,69.896,187.854,69.896
				c107.148,0,205.892-33.256,296.317-99.562v158.334c-49.92,33.236-99.556,56.883-148.584,71.193
				c-49.117,14.227-106.619,21.391-172.692,21.391c-90.466,0-163.591-18.74-219.594-56.24
				c-55.809-37.67-100.693-88.053-134.264-151.355c-33.531-63.293-50.39-136.758-50.39-220.107
				c0-124.992,35.412-226.525,106.285-304.792c70.785-78.174,162.808-117.27,275.931-117.27
				c108.921,0,195.811,37.865,260.659,113.967c64.986,76.008,97.392,178.018,97.392,305.641V1688.52z M3010.745,1591.41h413.191
				c-4.095-64.609-23.54-114.246-57.973-149.191c-34.462-34.936-80.865-52.455-139.209-52.455
				c-58.345,0-106.002,17.519-143.295,52.455C3046.295,1477.164,3022.05,1526.801,3010.745,1591.41z"/>
			<path d="M4099.54,1263.548h307.572v1239.586h-162.338v-431.846c-70.922,18.844-130.913,28.555-179.794,28.555
				c-116.885,0-213.521-39.387-289.821-118.033c-76.34-78.631-114.436-178.383-114.436-299.316
				c0-128.1,39.517-229.818,118.775-305.547C3858.796,1301.414,3965.463,1263.548,4099.54,1263.548z M4244.774,1930.203v-515.391
				h-102.847c-70.315,0-117.306,3.013-140.817,9.421c-23.637,6.214-43.983,14.878-61.214,25.896
				c-17.329,10.934-33.062,24.59-47.335,40.691c-44.688,50.578-67.102,113.119-67.102,187.531
				c0,84.107,25.098,152.867,75.537,206.17c50.34,53.305,115.424,79.975,195.34,79.975c18.465,0,33.678-1.223,45.59-3.584
				c11.96-2.256,38.243-10.168,78.739-23.545l12.577-3.684L4244.774,1930.203z"/>
			<path d="M5039.055,2085.041v-104.453c-34.48,37.686-73.842,66.969-118.146,87.781c-44.377,20.914-88.496,31.475-132.48,31.475
				c-51.812,0-99.517-13.107-143.266-38.994c-43.66-25.82-76.711-60.943-99.086-105.504
				c-22.168-44.256-33.336-118.008-33.336-221.051v-470.747h162.29v468.77c0,86.27,12.421,146.652,37.104,180.842
				c24.689,34.275,67.906,51.336,129.778,51.336c77.348,0,143.038-37.773,197.142-113.408v-587.54h162.378v821.493H5039.055z"/>
			<path fill="#005DAA" d="M5403.934,919.112c26.801,0,49.732,9.412,68.717,27.78c19.064,18.46,28.586,40.971,28.586,67.623
				c0,26.38-9.521,48.89-28.586,67.911c-18.984,19.029-41.916,28.638-68.717,28.638c-24.951,0-46.953-9.701-65.936-29.104
				c-19.016-19.218-28.625-41.728-28.625-67.444c0-24.861,9.609-46.997,28.625-66.4
				C5356.98,928.711,5378.982,919.112,5403.934,919.112z"/>
			<rect x="5324.166" y="1263.548" width="162.287" height="821.493"/>
			<path d="M5773.906,1263.548v104.453c72.518-80.433,154.646-120.367,246.777-120.367c50.908,0,98.506,13.181,142.539,39.646
				c43.982,26.466,77.289,62.828,100.262,108.883c22.902,46.149,34.345,119.237,34.345,219.266v469.611h-162.29V1616.85
				c0-83.93-12.822-143.922-38.33-179.994c-25.617-36.075-68.385-53.975-128.338-53.975c-76.533,0-141.512,38.432-194.965,115.571
				v586.59h-166.062v-821.493H5773.906z"/>
			<path d="M7900.74,1263.548h207.154l-337.224,404.252l361.909,417.24h-208.054l-257.044-295.361l-244.693,295.361h-203.912
				l345.895-416.867l-345.895-404.625h204.531l243.33,281.901L7900.74,1263.548z"/>
			<path fill="#005DAA" d="M7202.617,1264.695c6.887,8.056,332.709,388.78,345.217,403.413
				c-12.303,14.82-338.408,407.562-345.325,415.896c-9.021,0-114.091,0-150.415,0c29.652-35.734,345.384-416.135,345.384-416.135
				s-314.222-367.322-344.876-403.174C7089.424,1264.695,7193.791,1264.695,7202.617,1264.695z"/>
			<path d="M6807.744,1262.42c124.986,0,228.785,40.215,311.383,120.842c82.893,80.72,124.045,181.972,124.045,304.037
				c0,118.389-41.916,216.812-125.74,294.988c-83.912,78.461-189.551,117.557-316.799,117.557
				c-123.193,0-226.188-39.844-308.875-119.256c-82.756-79.48-124.094-178.568-124.094-297.721
				c0-120.273,41.809-220.396,125.396-300.455C6576.619,1302.261,6681.631,1262.42,6807.744,1262.42z M6799.271,1408.692
				c-78.084,0-141.982,25.523-191.863,76.857c-49.92,51.141-75.018,116.506-75.018,195.723c0,78.641,25.568,142.783,76.801,192.699
				c51.154,49.646,116.844,74.602,197.189,74.602c79.633,0,144.912-25.143,195.959-75.637
				c50.666-50.383,76.096-114.814,76.096-193.641c0-77.895-26.361-142.605-79.396-193.746
				C6946.16,1434.215,6879.381,1408.692,6799.271,1408.692z"/>
		</g>
	</g>
</g>
</svg>
