<?xml version="1.0" encoding="utf-8"?>
<!-- Generator: Adobe Illustrator 15.1.0, SVG Export Plug-In . SVG Version: 6.00 Build 0)  -->
<!DOCTYPE svg PUBLIC "-//W3C//DTD SVG 1.1//EN" "http://www.w3.org/Graphics/SVG/1.1/DTD/svg11.dtd">
<svg version="1.1" id="Layer_1" xmlns="http://www.w3.org/2000/svg" xmlns:xlink="http://www.w3.org/1999/xlink" x="0px" y="0px"
	 width="574.766px" height="267.893px" viewBox="0 0 574.766 267.893" enable-background="new 0 0 574.766 267.893"
	 xml:space="preserve">
<g>
	<g>
		<linearGradient id="SVGID_1_" gradientUnits="userSpaceOnUse" x1="270.0845" y1="38.8018" x2="495.1577" y2="38.8018">
			<stop  offset="0" style="stop-color:#ED1C24"/>
			<stop  offset="0.0332" style="stop-color:#EE2324"/>
			<stop  offset="0.0619" style="stop-color:#EE3324"/>
			<stop  offset="0.0891" style="stop-color:#EF4823"/>
			<stop  offset="0.1153" style="stop-color:#F16022"/>
			<stop  offset="0.1405" style="stop-color:#F47920"/>
			<stop  offset="0.1647" style="stop-color:#F7941E"/>
			<stop  offset="0.3054" style="stop-color:#FFC20E"/>
			<stop  offset="0.334" style="stop-color:#F1C219"/>
			<stop  offset="0.389" style="stop-color:#D2C52A"/>
			<stop  offset="0.4642" style="stop-color:#98C53D"/>
			<stop  offset="0.476" style="stop-color:#8DC63F"/>
			<stop  offset="0.6257" style="stop-color:#00AEEF"/>
			<stop  offset="0.703" style="stop-color:#0090D6"/>
			<stop  offset="0.7715" style="stop-color:#007AC3"/>
			<stop  offset="0.8054" style="stop-color:#0072BC"/>
			<stop  offset="0.8168" style="stop-color:#006DB8"/>
			<stop  offset="0.8762" style="stop-color:#3657A7"/>
			<stop  offset="0.9281" style="stop-color:#55439A"/>
			<stop  offset="0.9702" style="stop-color:#623393"/>
			<stop  offset="0.997" style="stop-color:#662D91"/>
		</linearGradient>
		<path fill-rule="evenodd" clip-rule="evenodd" fill="url(#SVGID_1_)" d="M491.913,55.584C469.67,16.575,424.204,0,382.136,0
			c-41.695,0-86.972,16.705-108.91,55.399c-1.437,2.416-3.047,5.371-3.142,8.505c0.078,3.393,0.911,6.383,2.955,8.59
			c2.042,2.233,5.191,4.754,10.026,5.109c9.053-0.355,12.005-6.718,12.005-6.718c21.267-38.701,45.81-65.205,87.065-65.205
			c40.547,0,67.149,28.281,88.459,65.968c0.514,1.208,4.979,6.294,13.147,5.639c7.799-0.285,11.551-8.828,11.411-13.137
			C495.069,60.886,493.437,57.968,491.913,55.584z"/>
	</g>
	<g>
		<g>
			<path fill="#717073" d="M22.529,99.252c0-8.508,5.188-16.101,15.248-16.101h32.93v-14.87H27.699
				c-15.65,0-27.382,14.852-27.382,33.068v54.545c0,18.217,11.731,33.064,27.382,33.064h43.008v-14.867h-32.93
				c-10.061,0-15.248-7.592-15.248-16.098v-23.793h44.152v-14.674H22.529v-6.135V99.252z"/>
			<polygon fill="#717073" points="147.491,188.584 127.474,154.32 127.08,154.32 106.658,188.584 82.08,188.584 115.186,139.797 
				85.455,94.343 110.817,94.343 128.848,125.11 129.26,125.11 148.083,94.343 170.872,94.343 140.548,138.402 174.048,188.584 			
				"/>
			<path fill="#717073" d="M210.128,68.297v89.697c0,8.506,5.187,16.098,15.248,16.098h32.93v14.867h-43.008
				c-15.651,0-27.382-14.848-27.382-33.064V68.297H210.128z"/>
			<rect x="272.41" y="94.343" fill="#717073" width="21.334" height="94.243"/>
			<path fill="#717073" d="M349.62,105.535c-5.776,0-10.788,0.866-14.286,2.791v66.975c2.791,1.227,8.337,1.924,12.357,1.924
				c16.787,0,23.607-14.337,23.607-36.721C371.298,120.912,365.691,105.535,349.62,105.535 M346.817,190.33
				c-14.517,0-26.693-2.967-32.642-6.822V71.111l21.158-3.953v29.799c4.546-2.093,11.136-3.839,20.055-3.839
				c21.852,0,37.065,18.009,37.065,46.161C392.454,170.914,376.192,190.33,346.817,190.33"/>
			<path fill="#717073" d="M453.887,108.326c-7.172-2.446-18.504-2.1-23.409,0.701v79.557H409.15v-89.18
				c12.537-5.105,26.914-8.231,48.936-6.64L453.887,108.326z"/>
			<rect x="471.271" y="94.343" fill="#717073" width="21.319" height="94.243"/>
			<path fill="#717073" d="M537.87,190.16c-12.107,0-22.485-2.977-28.626-6.811l6.141-13.641c3.852,2.793,10.954,5.41,19.417,5.41
				c9.603,0,17.497-5.596,17.497-13.285c0-8.043-6.166-11.887-16.735-15.562c-19.604-6.822-23.633-16.613-23.633-26.398
				c0-15.047,13.061-27.277,32.864-27.277c11.526,0,20.178,2.624,26.891,6.638l-5.759,12.415c-3.081-2.268-9.22-5.247-16.527-5.247
				c-9.61,0-16.175,5.771-16.175,12.423c0,7.688,7.722,11.54,16.756,14.855c20.176,7.346,24.786,16.783,24.786,27.808
				C574.766,176.871,560.549,190.16,537.87,190.16"/>
		</g>
		<g>
			<path fill="#717073" d="M12.428,221.651v33.976H7.435v-33.976H0v-3.364h19.864v3.364H12.428z"/>
			<path fill="#717073" d="M42.225,255.627v-20.732c0-3.039-1.303-5.753-5.97-5.753c-2.171,0-3.908,0.38-5.699,1.465v25.021H25.78
				v-42.604h4.776v14.871c2.442-1.249,4.559-1.791,6.73-1.791c7.436,0,9.715,4.504,9.715,8.629v20.896H42.225z"/>
			<path fill="#717073" d="M58.506,242.818c0.543,6.621,3.636,9.878,8.901,9.878c3.311,0,5.699-0.814,7.219-1.683l1.248,3.147
				c-1.791,1.086-4.885,2.009-8.847,2.009c-7.652,0-13.025-4.831-13.025-15.251c0-9.933,4.884-15.088,11.777-15.088
				c7.001,0,11.234,4.559,11.126,14.328L58.506,242.818z M65.616,228.925c-4.233,0-7.381,3.419-7.272,11.343l14.002-2.117
				C72.346,231.529,69.795,228.925,65.616,228.925z"/>
			<path fill="#717073" d="M108.056,256.17c-3.962,0-7.001-0.923-8.738-2.062v-41.085h4.722v14.328
				c1.465-0.76,3.094-1.357,5.97-1.357c6.73,0,11.343,5.645,11.343,14.491C121.354,249.874,116.74,256.17,108.056,256.17z
				 M108.816,228.815c-2.171,0-3.419,0.38-4.776,1.14v22.415c1.085,0.543,2.605,0.706,4.125,0.706c6.024,0,8.412-5.048,8.412-12.429
				C116.577,234.243,114.352,228.815,108.816,228.815z"/>
			<path fill="#717073" d="M139.806,229.521c-2.388-0.706-5.102-0.488-6.676,0.543v25.562h-4.776v-27.68
				c2.876-1.465,5.645-2.225,12.591-2.062L139.806,229.521z"/>
			<path fill="#717073" d="M148.978,220.729c-1.574,0-2.822-1.194-2.822-2.605c0-1.466,1.248-2.659,2.822-2.659
				c1.52,0,2.768,1.193,2.768,2.659C151.746,219.535,150.498,220.729,148.978,220.729z M146.59,255.627v-29.254h4.776v29.254H146.59
				z"/>
			<path fill="#717073" d="M171.501,256.17c-8.358,0-12.863-5.861-12.863-14.708c0-9.716,5.156-15.359,12.7-15.359
				c1.628,0,3.04,0.217,4.613,0.65v-13.73h4.722v41.085C178.719,255.302,175.571,256.17,171.501,256.17z M175.951,229.413
				c-1.194-0.326-2.388-0.543-3.636-0.543c-6.784,0-8.955,5.861-8.955,12.212c0,6.893,2.388,11.939,8.358,11.939
				c1.954,0,3.311-0.217,4.233-0.813V229.413z"/>
			<path fill="#717073" d="M198.42,267.893c-3.854,0-7.11-0.813-9.064-2.008l1.465-3.202c1.628,0.923,4.179,1.736,6.784,1.736
				c5.374,0,7.436-3.256,7.436-7.652v-2.062c-1.302,0.76-3.311,1.248-5.861,1.248c-7.001,0-11.506-5.535-11.506-14.437
				c0-9.28,4.504-15.685,13.297-15.685c4.07,0,7.001,0.977,8.684,2.062v28.33C209.655,263.605,205.421,267.893,198.42,267.893z
				 M205.042,229.521c-1.085-0.597-2.497-0.814-4.179-0.814c-5.916,0-8.467,4.939-8.467,12.646c0,7.545,2.442,11.777,8.032,11.777
				c1.846,0,3.474-0.488,4.613-1.193V229.521z"/>
			<path fill="#717073" d="M221.16,242.818c0.543,6.621,3.636,9.878,8.901,9.878c3.311,0,5.699-0.814,7.219-1.683l1.248,3.147
				c-1.791,1.086-4.885,2.009-8.847,2.009c-7.652,0-13.025-4.831-13.025-15.251c0-9.933,4.884-15.088,11.777-15.088
				c7.001,0,11.234,4.559,11.126,14.328L221.16,242.818z M228.27,228.925c-4.233,0-7.381,3.419-7.272,11.343L235,238.15
				C235,231.529,232.449,228.925,228.27,228.925z"/>
			<path fill="#717073" d="M270.874,255.898c-5.319,0-7.273-3.799-7.273-7.381v-19.159h-3.365v-2.985h3.365v-6.729l4.776-1.466
				v8.195h5.102v2.985h-5.102v19.05c0,2.334,1.031,4.233,3.69,4.233c0.489,0,0.923-0.108,1.411-0.217v3.039
				C272.936,255.627,272.067,255.898,270.874,255.898z"/>
			<path fill="#717073" d="M289.597,256.17c-7.979,0-11.452-6.567-11.452-15.143c0-8.738,3.528-15.196,11.397-15.196
				c8.033,0,11.452,6.458,11.452,15.196C300.995,249.603,297.521,256.17,289.597,256.17z M289.597,228.87
				c-5.59,0-6.676,6.241-6.676,12.157s1.194,11.832,6.676,11.832c5.59,0,6.621-5.971,6.621-11.832S295.187,228.87,289.597,228.87z"
				/>
			<path fill="#717073" d="M339.636,255.627l-11.181-15.088h-0.108v15.088h-4.667v-42.604h4.667v26.919h0.108l10.421-13.568h4.993
				l-11.071,13.678l12.266,15.576H339.636z"/>
			<path fill="#717073" d="M366.122,255.627v-21.004c0-2.714-1.14-5.698-6.133-5.698c-2.713,0-4.016,0.38-5.535,1.03v25.672h-4.776
				v-27.733c2.605-1.249,6.024-2.062,10.691-2.062c8.142,0,10.529,4.504,10.529,8.684v21.112H366.122z"/>
			<path fill="#717073" d="M389.35,256.17c-7.978,0-11.451-6.567-11.451-15.143c0-8.738,3.527-15.196,11.397-15.196
				c8.032,0,11.451,6.458,11.451,15.196C400.748,249.603,397.275,256.17,389.35,256.17z M389.35,228.87
				c-5.59,0-6.675,6.241-6.675,12.157s1.193,11.832,6.675,11.832c5.591,0,6.622-5.971,6.622-11.832S394.941,228.87,389.35,228.87z"
				/>
			<path fill="#717073" d="M435.036,255.627h-4.125l-5.916-20.896c-0.488-1.791-0.597-3.419-0.597-3.419h-0.054
				c0,0-0.163,1.628-0.706,3.419l-6.024,20.896h-4.125l-8.304-29.254h4.885l5.102,21.004c0.488,2.009,0.598,3.474,0.598,3.474h0.108
				c0,0,0.162-1.465,0.705-3.474l5.916-21.004h4.125l5.753,21.004c0.434,1.683,0.651,3.474,0.651,3.474h0.108
				c0,0,0.163-1.791,0.597-3.527l5.319-20.95h4.342L435.036,255.627z"/>
			<path fill="#717073" d="M449.744,255.627v-42.604h4.776v42.604H449.744z"/>
			<path fill="#717073" d="M466.406,242.818c0.542,6.621,3.636,9.878,8.9,9.878c3.311,0,5.699-0.814,7.219-1.683l1.248,3.147
				c-1.791,1.086-4.885,2.009-8.847,2.009c-7.652,0-13.025-4.831-13.025-15.251c0-9.933,4.885-15.088,11.777-15.088
				c7.001,0,11.234,4.559,11.126,14.328L466.406,242.818z M473.515,228.925c-4.233,0-7.381,3.419-7.272,11.343l14.003-2.117
				C480.246,231.529,477.694,228.925,473.515,228.925z"/>
			<path fill="#717073" d="M503.528,256.17c-8.357,0-12.862-5.861-12.862-14.708c0-9.716,5.156-15.359,12.7-15.359
				c1.628,0,3.039,0.217,4.613,0.65v-13.73h4.722v41.085C510.747,255.302,507.599,256.17,503.528,256.17z M507.979,229.413
				c-1.194-0.326-2.389-0.543-3.637-0.543c-6.784,0-8.955,5.861-8.955,12.212c0,6.893,2.388,11.939,8.358,11.939
				c1.953,0,3.311-0.217,4.233-0.813V229.413z"/>
			<path fill="#717073" d="M530.448,267.893c-3.854,0-7.11-0.813-9.063-2.008l1.465-3.202c1.629,0.923,4.18,1.736,6.784,1.736
				c5.373,0,7.436-3.256,7.436-7.652v-2.062c-1.303,0.76-3.311,1.248-5.861,1.248c-7.001,0-11.506-5.535-11.506-14.437
				c0-9.28,4.505-15.685,13.297-15.685c4.07,0,7.001,0.977,8.684,2.062v28.33C541.682,263.605,537.449,267.893,530.448,267.893z
				 M537.069,229.521c-1.085-0.597-2.496-0.814-4.179-0.814c-5.916,0-8.467,4.939-8.467,12.646c0,7.545,2.442,11.777,8.032,11.777
				c1.846,0,3.474-0.488,4.613-1.193V229.521z"/>
			<path fill="#717073" d="M553.187,242.818c0.542,6.621,3.636,9.878,8.9,9.878c3.311,0,5.699-0.814,7.219-1.683l1.248,3.147
				c-1.791,1.086-4.885,2.009-8.847,2.009c-7.652,0-13.025-4.831-13.025-15.251c0-9.933,4.885-15.088,11.777-15.088
				c7.001,0,11.234,4.559,11.126,14.328L553.187,242.818z M560.296,228.925c-4.233,0-7.381,3.419-7.272,11.343l14.003-2.117
				C567.027,231.529,564.475,228.925,560.296,228.925z"/>
		</g>
	</g>
</g>
<g>
	<g>
		<path fill="#717073" d="M177.75,420.711c0,5.5-4.5,10-10,10h-25.242c-5.5,0-10-4.5-10-10v-25.242c0-5.5,4.5-10,10-10h25.242
			c5.5,0,10,4.5,10,10V420.711z"/>
	</g>
	<g>
		<path fill="#717073" d="M195.831,403.797c-1.261,0-2.412-0.469-3.276-1.332c-1.206-1.206-1.206-2.467-1.206-5.185
			s0-3.978,1.206-5.184c0.864-0.864,2.016-1.332,3.276-1.332c2.304,0,4.014,1.403,4.445,3.815h-1.403
			c-0.342-1.565-1.44-2.592-3.042-2.592c-0.847,0-1.656,0.324-2.214,0.9c-0.811,0.828-0.9,1.71-0.9,4.392
			c0,2.683,0.09,3.564,0.9,4.393c0.558,0.575,1.367,0.899,2.214,0.899c1.602,0,2.735-1.025,3.078-2.592h1.367
			C199.862,402.393,198.117,403.797,195.831,403.797z"/>
		<path fill="#717073" d="M208.754,402.788c-0.612,0.612-1.458,1.009-2.538,1.009s-1.926-0.396-2.538-1.009
			c-0.9-0.918-1.08-2.159-1.08-3.527s0.18-2.61,1.08-3.528c0.612-0.612,1.458-1.008,2.538-1.008s1.926,0.396,2.538,1.008
			c0.899,0.918,1.08,2.16,1.08,3.528S209.654,401.87,208.754,402.788z M207.836,396.524c-0.414-0.414-0.99-0.648-1.62-0.648
			s-1.188,0.234-1.603,0.648c-0.647,0.648-0.72,1.746-0.72,2.736c0,0.989,0.072,2.088,0.72,2.735
			c0.414,0.414,0.973,0.648,1.603,0.648s1.206-0.234,1.62-0.648c0.647-0.647,0.702-1.746,0.702-2.735
			C208.539,398.271,208.484,397.173,207.836,396.524z"/>
		<path fill="#717073" d="M218.294,402.788c-0.612,0.612-1.458,1.009-2.538,1.009s-1.926-0.396-2.538-1.009
			c-0.9-0.918-1.08-2.159-1.08-3.527s0.18-2.61,1.08-3.528c0.612-0.612,1.458-1.008,2.538-1.008s1.926,0.396,2.538,1.008
			c0.899,0.918,1.08,2.16,1.08,3.528S219.194,401.87,218.294,402.788z M217.376,396.524c-0.414-0.414-0.99-0.648-1.62-0.648
			s-1.188,0.234-1.603,0.648c-0.647,0.648-0.72,1.746-0.72,2.736c0,0.989,0.072,2.088,0.72,2.735
			c0.414,0.414,0.973,0.648,1.603,0.648s1.206-0.234,1.62-0.648c0.647-0.647,0.702-1.746,0.702-2.735
			C218.079,398.271,218.024,397.173,217.376,396.524z"/>
		<path fill="#717073" d="M224.36,403.688c-1.548,0-2.25-1.008-2.25-2.358v-10.458h1.296v10.404c0,0.864,0.288,1.296,1.188,1.296
			h0.702v1.116H224.36z"/>
		<path fill="#717073" d="M239.624,402.32c-0.899,0.972-2.105,1.477-3.42,1.477c-1.26,0-2.412-0.469-3.275-1.332
			c-1.206-1.206-1.206-2.467-1.206-5.185s0-3.978,1.206-5.184c0.863-0.864,1.998-1.332,3.275-1.332c2.448,0,4.104,1.584,4.481,3.834
			h-1.367c-0.36-1.62-1.512-2.61-3.114-2.61c-0.846,0-1.656,0.342-2.214,0.918c-0.81,0.828-0.9,1.692-0.9,4.374
			c0,2.683,0.091,3.564,0.9,4.393c0.558,0.575,1.368,0.899,2.214,0.899c0.937,0,1.836-0.378,2.431-1.098
			c0.521-0.63,0.719-1.332,0.719-2.322v-0.972h-3.149v-1.206h4.519v2.034C240.722,400.484,240.416,401.475,239.624,402.32z"/>
		<path fill="#717073" d="M248.624,396.524c-0.485-0.486-0.846-0.648-1.53-0.648c-1.295,0-2.123,1.026-2.123,2.376v5.437h-1.297
			v-8.856h1.297v1.08c0.485-0.737,1.457-1.188,2.483-1.188c0.847,0,1.494,0.198,2.124,0.828L248.624,396.524z"/>
		<path fill="#717073" d="M256.093,403.688v-0.846c-0.721,0.72-1.368,0.954-2.557,0.954c-1.224,0-1.943-0.234-2.502-0.811
			c-0.432-0.432-0.666-1.098-0.666-1.8c0-1.548,1.08-2.556,3.061-2.556h2.664v-0.847c0-1.296-0.648-1.943-2.268-1.943
			c-1.135,0-1.711,0.27-2.232,1.008l-0.883-0.811c0.793-1.025,1.693-1.313,3.133-1.313c2.376,0,3.546,1.025,3.546,2.952v6.012
			H256.093z M256.093,399.603h-2.484c-1.332,0-1.979,0.54-1.979,1.566c0,1.025,0.63,1.512,2.034,1.512
			c0.756,0,1.422-0.055,1.979-0.594c0.306-0.288,0.45-0.792,0.45-1.53V399.603z"/>
		<path fill="#717073" d="M262.735,405.83c-0.18,0.486-0.378,0.811-0.63,1.044c-0.469,0.45-1.098,0.612-1.729,0.612h-0.558v-1.151
			h0.396c0.9,0,1.17-0.288,1.459-1.099l0.629-1.728l-3.186-8.677h1.404l2.43,7.11l2.412-7.11h1.404L262.735,405.83z"/>
		<path fill="#717073" d="M276.091,403.688v-11.376l-2.395,2.105v-1.476l2.395-2.07h1.295v12.816H276.091z"/>
		<path fill="#717073" d="M285.486,403.688v-11.376l-2.394,2.105v-1.476l2.394-2.07h1.297v12.816H285.486z"/>
		<path fill="#717073" d="M194.012,425.289h-1.368l4.446-11.664h-4.464v2.016h-1.278v-3.168h7.11v1.152L194.012,425.289z"/>
		<path fill="#717073" d="M204.075,425.397c-1.998,0-3.511-1.404-3.511-3.528v-5.977c0-2.124,1.513-3.527,3.511-3.527
			s3.51,1.403,3.51,3.527v5.977C207.584,423.993,206.073,425.397,204.075,425.397z M206.289,415.965
			c0-1.404-0.792-2.448-2.214-2.448c-1.423,0-2.215,1.044-2.215,2.448v5.832c0,1.404,0.792,2.448,2.215,2.448
			c1.422,0,2.214-1.044,2.214-2.448V415.965z"/>
		<path fill="#717073" d="M212.372,419.079c-1.404,0-2.43-0.954-2.43-2.412v-1.89c0-1.477,1.025-2.431,2.43-2.431
			c1.386,0,2.431,0.954,2.431,2.431v1.89C214.802,418.125,213.757,419.079,212.372,419.079z M213.776,414.813
			c0-0.954-0.432-1.566-1.404-1.566c-0.99,0-1.404,0.594-1.404,1.566v1.817c0,0.972,0.433,1.548,1.404,1.548
			c0.973,0,1.404-0.594,1.404-1.548V414.813z M213.812,425.289h-1.08l6.012-12.816h1.08L213.812,425.289z M220.184,425.415
			c-1.404,0-2.431-0.954-2.431-2.43v-1.891c0-1.476,1.026-2.43,2.431-2.43c1.386,0,2.43,0.954,2.43,2.43v1.891
			C222.614,424.461,221.57,425.415,220.184,425.415z M221.587,421.131c0-0.954-0.432-1.565-1.403-1.565
			c-0.99,0-1.404,0.594-1.404,1.565v1.818c0,0.972,0.414,1.565,1.404,1.565c0.972,0,1.403-0.611,1.403-1.565V421.131z"/>
		<path fill="#717073" d="M235.087,425.289h-4.986v-12.816h4.824c2.232,0,3.779,1.278,3.779,3.42c0,1.351-0.81,2.412-1.89,2.809
			c1.225,0.45,2.089,1.512,2.089,3.042C238.904,424.065,237.355,425.289,235.087,425.289z M234.817,413.697h-3.348v4.445h3.348
			c1.423,0,2.521-0.701,2.521-2.231S236.24,413.697,234.817,413.697z M234.961,419.367h-3.492v4.698h3.492
			c1.584,0,2.574-0.918,2.574-2.358S236.545,419.367,234.961,419.367z"/>
		<path fill="#717073" d="M244.105,425.289c-1.547,0-2.25-1.008-2.25-2.358v-10.458h1.297v10.404c0,0.864,0.287,1.296,1.188,1.296
			h0.702v1.116H244.105z"/>
		<path fill="#717073" d="M252.259,425.289v-0.846c-0.721,0.72-1.368,0.954-2.557,0.954c-1.224,0-1.943-0.234-2.502-0.811
			c-0.432-0.432-0.666-1.098-0.666-1.8c0-1.548,1.08-2.556,3.061-2.556h2.664v-0.847c0-1.296-0.648-1.943-2.268-1.943
			c-1.135,0-1.711,0.27-2.232,1.008l-0.883-0.811c0.793-1.025,1.693-1.313,3.133-1.313c2.376,0,3.546,1.025,3.546,2.952v6.012
			H252.259z M252.259,421.203h-2.484c-1.332,0-1.979,0.54-1.979,1.565c0,1.026,0.63,1.513,2.034,1.513
			c0.756,0,1.422-0.054,1.979-0.594c0.306-0.288,0.45-0.792,0.45-1.53V421.203z"/>
		<path fill="#717073" d="M260.143,425.397c-2.231,0-3.925-1.513-3.925-4.536c0-3.024,1.693-4.536,3.925-4.536
			c1.224,0,1.998,0.324,2.916,1.313l-0.882,0.828c-0.666-0.737-1.188-0.99-2.034-0.99c-0.864,0-1.584,0.343-2.052,1.009
			c-0.414,0.575-0.576,1.26-0.576,2.376c0,1.115,0.162,1.8,0.576,2.376c0.468,0.666,1.188,1.008,2.052,1.008
			c0.846,0,1.368-0.271,2.034-1.008l0.882,0.846C262.141,425.073,261.367,425.397,260.143,425.397z"/>
		<path fill="#717073" d="M271.357,425.289l-2.809-4.536l-1.728,1.98v2.556h-1.296v-12.816h1.296v8.568l3.996-4.608h1.62
			l-3.006,3.385l3.527,5.472H271.357z"/>
	</g>
	<g>
		<linearGradient id="SVGID_2_" gradientUnits="userSpaceOnUse" x1="322.1987" y1="408.0898" x2="367.4429" y2="408.0898">
			<stop  offset="0" style="stop-color:#ED1C24"/>
			<stop  offset="0.0332" style="stop-color:#EE2324"/>
			<stop  offset="0.0619" style="stop-color:#EE3324"/>
			<stop  offset="0.0891" style="stop-color:#EF4823"/>
			<stop  offset="0.1153" style="stop-color:#F16022"/>
			<stop  offset="0.1405" style="stop-color:#F47920"/>
			<stop  offset="0.1647" style="stop-color:#F7941E"/>
			<stop  offset="0.3054" style="stop-color:#FFC20E"/>
			<stop  offset="0.334" style="stop-color:#F1C219"/>
			<stop  offset="0.389" style="stop-color:#D2C52A"/>
			<stop  offset="0.4642" style="stop-color:#98C53D"/>
			<stop  offset="0.476" style="stop-color:#8DC63F"/>
			<stop  offset="0.6257" style="stop-color:#00AEEF"/>
			<stop  offset="0.703" style="stop-color:#0090D6"/>
			<stop  offset="0.7715" style="stop-color:#007AC3"/>
			<stop  offset="0.8054" style="stop-color:#0072BC"/>
			<stop  offset="0.8168" style="stop-color:#006DB8"/>
			<stop  offset="0.8762" style="stop-color:#3657A7"/>
			<stop  offset="0.9281" style="stop-color:#55439A"/>
			<stop  offset="0.9702" style="stop-color:#623393"/>
			<stop  offset="0.997" style="stop-color:#662D91"/>
		</linearGradient>
		<path fill="url(#SVGID_2_)" d="M367.443,420.711c0,5.5-4.5,10-10,10h-25.244c-5.5,0-10-4.5-10-10v-25.242c0-5.5,4.5-10,10-10
			h25.244c5.5,0,10,4.5,10,10V420.711z"/>
	</g>
	<g>
		<path fill="#717073" d="M386.296,409.17h-3.402v5.274h-1.368v-12.816h4.771c2.34,0,3.959,1.458,3.959,3.763
			C390.255,407.694,388.636,409.17,386.296,409.17z M386.169,402.853h-3.275v5.094h3.275c1.603,0,2.719-0.864,2.719-2.556
			C388.888,403.698,387.772,402.853,386.169,402.853z"/>
		<path fill="#717073" d="M397.582,407.28c-0.486-0.486-0.846-0.648-1.529-0.648c-1.297,0-2.125,1.026-2.125,2.376v5.437h-1.295
			v-8.856h1.295v1.08c0.486-0.737,1.459-1.188,2.484-1.188c0.846,0,1.494,0.198,2.124,0.828L397.582,407.28z"/>
		<path fill="#717073" d="M405.287,413.544c-0.612,0.612-1.458,1.009-2.538,1.009s-1.926-0.396-2.538-1.009
			c-0.9-0.918-1.08-2.159-1.08-3.527s0.18-2.61,1.08-3.528c0.612-0.612,1.458-1.008,2.538-1.008s1.926,0.396,2.538,1.008
			c0.9,0.918,1.08,2.16,1.08,3.528S406.187,412.626,405.287,413.544z M404.369,407.28c-0.414-0.414-0.99-0.648-1.62-0.648
			s-1.188,0.234-1.603,0.648c-0.647,0.648-0.719,1.746-0.719,2.736c0,0.989,0.071,2.088,0.719,2.735
			c0.414,0.414,0.973,0.648,1.603,0.648s1.206-0.234,1.62-0.648c0.648-0.647,0.702-1.746,0.702-2.735
			C405.071,409.026,405.017,407.929,404.369,407.28z"/>
		<path fill="#717073" d="M412.577,414.553c-2.231,0-3.925-1.513-3.925-4.536c0-3.024,1.693-4.536,3.925-4.536
			c1.224,0,1.998,0.324,2.916,1.313l-0.882,0.828c-0.666-0.737-1.188-0.99-2.034-0.99c-0.864,0-1.584,0.343-2.052,1.009
			c-0.414,0.575-0.576,1.26-0.576,2.376c0,1.115,0.162,1.8,0.576,2.376c0.468,0.666,1.188,1.008,2.052,1.008
			c0.846,0,1.368-0.271,2.034-1.008l0.882,0.846C414.575,414.229,413.8,414.553,412.577,414.553z"/>
		<path fill="#717073" d="M418.5,410.358c0,1.944,0.918,3.06,2.611,3.06c1.025,0,1.619-0.306,2.32-1.008l0.883,0.774
			c-0.9,0.899-1.729,1.368-3.24,1.368c-2.34,0-3.869-1.404-3.869-4.536c0-2.862,1.385-4.536,3.635-4.536
			c2.287,0,3.637,1.656,3.637,4.284v0.594H418.5z M422.91,407.91c-0.342-0.81-1.133-1.332-2.07-1.332
			c-0.936,0-1.727,0.522-2.068,1.332c-0.199,0.486-0.234,0.756-0.271,1.477h4.68C423.144,408.666,423.109,408.396,422.91,407.91z"/>
		<path fill="#717073" d="M430.021,414.553c-1.494,0-2.664-0.343-3.637-1.278l0.863-0.864c0.703,0.738,1.656,1.026,2.754,1.026
			c1.459,0,2.359-0.522,2.359-1.566c0-0.773-0.451-1.206-1.477-1.296l-1.459-0.126c-1.727-0.144-2.645-0.918-2.645-2.376
			c0-1.62,1.367-2.592,3.258-2.592c1.26,0,2.395,0.306,3.186,0.954l-0.846,0.846c-0.631-0.486-1.439-0.702-2.357-0.702
			c-1.297,0-1.98,0.559-1.98,1.458c0,0.756,0.432,1.206,1.547,1.296l1.422,0.126c1.549,0.145,2.611,0.738,2.611,2.395
			C433.621,413.562,432.162,414.553,430.021,414.553z"/>
		<path fill="#717073" d="M438.658,414.553c-1.494,0-2.664-0.343-3.637-1.278l0.865-0.864c0.701,0.738,1.656,1.026,2.754,1.026
			c1.457,0,2.357-0.522,2.357-1.566c0-0.773-0.449-1.206-1.477-1.296l-1.457-0.126c-1.729-0.144-2.646-0.918-2.646-2.376
			c0-1.62,1.369-2.592,3.258-2.592c1.26,0,2.395,0.306,3.188,0.954l-0.848,0.846c-0.629-0.486-1.439-0.702-2.357-0.702
			c-1.297,0-1.98,0.559-1.98,1.458c0,0.756,0.432,1.206,1.549,1.296l1.422,0.126c1.549,0.145,2.609,0.738,2.609,2.395
			C442.257,413.562,440.8,414.553,438.658,414.553z"/>
	</g>
</g>
</svg>
