<?xml version="1.0" encoding="utf-8"?>
<!-- Generator: Adobe Illustrator 15.1.0, SVG Export Plug-In . SVG Version: 6.00 Build 0)  -->
<!DOCTYPE svg PUBLIC "-//W3C//DTD SVG 1.1//EN" "http://www.w3.org/Graphics/SVG/1.1/DTD/svg11.dtd">
<svg version="1.1" id="Layer_1" xmlns="http://www.w3.org/2000/svg" xmlns:xlink="http://www.w3.org/1999/xlink" x="0px" y="0px"
	 width="998.999px" height="237px" viewBox="0 0 998.999 237" enable-background="new 0 0 998.999 237" xml:space="preserve">
<g>
	<path fill-rule="evenodd" clip-rule="evenodd" d="M342.633,174.549c-12.033,0-21.494,9.806-21.494,21.706
		c0,11.825,9.602,21.701,21.494,21.701c11.898,0,21.498-9.876,21.498-21.701C364.131,184.354,354.67,174.549,342.633,174.549
		L342.633,174.549z M342.633,169.121c14.957,0,27.344,12.172,27.344,27.199c0,15.095-12.387,27.063-27.344,27.063
		c-14.951,0-27.338-11.969-27.338-27.063C315.295,181.293,327.682,169.121,342.633,169.121L342.633,169.121z"/>
	<polygon points="16.359,86.662 10.516,86.662 10.516,139.113 16.359,139.113 16.359,86.662 	"/>
	<polygon points="38.446,86.662 32.604,86.662 32.604,139.113 62.931,139.113 62.931,133.686 38.446,133.686 38.446,86.662 	"/>
	<polygon points="79.007,86.662 73.165,86.662 73.165,139.113 103.492,139.113 103.492,133.686 79.007,133.686 79.007,86.662 	"/>
	<polygon points="122.63,86.662 116.787,86.662 116.787,139.113 122.63,139.113 122.63,86.662 	"/>
	<polygon points="142.146,139.113 147.987,139.113 147.987,98.695 188.892,141.48 188.892,86.662 183.049,86.662 183.049,127.286 
		142.146,84.434 142.146,139.113 	"/>
	<path fill-rule="evenodd" clip-rule="evenodd" d="M227.509,85.758c-14.957,0-27.338,12.175-27.338,27.196
		c0,15.097,12.381,27.063,27.338,27.063c14.955,0,27.337-11.967,27.337-27.063C254.846,97.933,242.463,85.758,227.509,85.758
		L227.509,85.758z M227.509,91.182c12.034,0,21.493,9.81,21.493,21.708c0,11.822-9.599,21.7-21.493,21.7
		c-11.897,0-21.496-9.878-21.496-21.7C206.013,100.991,215.476,91.182,227.509,91.182L227.509,91.182z"/>
	<polygon points="274.695,86.662 268.854,86.662 268.854,139.113 274.695,139.113 274.695,86.662 	"/>
	<polygon points="371.143,86.662 365.299,86.662 365.299,139.113 371.143,139.113 371.143,86.662 	"/>
	<polygon points="390.656,139.113 396.502,139.113 396.502,98.695 437.404,141.48 437.404,86.662 431.562,86.662 431.562,127.286 
		390.656,84.434 390.656,139.113 	"/>
	<path d="M483.797,93.895c-2.781-5.146-9.592-8.137-15.436-8.137c-7.791,0-15.301,5.215-15.301,13.355
		c0,7.516,3.777,9.51,9.898,12.295l5.957,2.521c4.869,2.225,10.916,4.314,10.916,10.434c0,5.91-5.771,10.227-11.406,10.227
		s-11.611-4.383-12.377-9.739l-5.703,1.597c1.672,8.143,9.803,13.57,18.219,13.57c9.115,0,17.111-7.027,17.111-16.211
		c0-8.349-5.775-11.754-12.592-14.747l-4.844-1.952c-3.547-1.597-9.338-3.268-9.338-7.788c0-4.8,4.658-8.138,9.32-8.138
		c4.453,0,8.828,2.088,10.914,5.707L483.797,93.895L483.797,93.895z"/>
	<path d="M320.469,94.023c-2.783-5.147-9.592-8.139-15.436-8.139c-7.793,0-15.303,5.216-15.303,13.357
		c0,7.512,3.779,9.506,9.9,12.294l5.957,2.522c4.869,2.223,10.918,4.311,10.918,10.434c0,5.91-5.773,10.226-11.408,10.226
		s-11.611-4.383-12.375-9.741l-5.703,1.598c1.67,8.144,9.803,13.572,18.217,13.572c9.113,0,17.111-7.027,17.111-16.212
		c0-8.348-5.775-11.758-12.59-14.747l-4.844-1.952c-3.551-1.6-9.34-3.268-9.34-7.787c0-4.8,4.658-8.102,9.32-8.14
		c4.744-0.04,8.828,2.087,10.914,5.707L320.469,94.023L320.469,94.023z"/>
	<polygon points="516.055,92.086 533.023,92.086 533.023,86.662 493.379,86.662 493.379,92.086 510.209,92.086 510.209,139.113 
		516.055,139.113 516.055,92.086 	"/>
	<polygon points="552.426,86.662 546.582,86.662 546.582,139.113 552.426,139.113 552.426,86.662 	"/>
	<polygon points="588.453,92.086 605.424,92.086 605.424,86.662 565.779,86.662 565.779,92.086 582.611,92.086 582.611,139.113 
		588.453,139.113 588.453,92.086 	"/>
	<path d="M624.551,86.662h-5.846v32.834c0,5.981,0.559,10.777,5.148,15.165c3.549,3.477,8.625,5.356,13.566,5.356
		c5.287,0,10.506-2.088,14.121-5.98c4.176-4.316,4.59-8.836,4.59-14.541V86.662h-5.842v31.23c0,4.104,0.207,8.695-2.574,12.037
		c-2.436,2.92-6.539,4.66-10.295,4.66c-3.828,0-8.277-1.808-10.574-5.008c-2.436-3.338-2.295-7.79-2.295-11.689V86.662
		L624.551,86.662z"/>
	<polygon points="689.184,92.086 706.492,92.086 706.492,86.662 666.512,86.662 666.512,92.086 683.342,92.086 683.342,139.113 
		689.184,139.113 689.184,92.086 	"/>
	<polygon points="501.178,222.264 532.047,222.264 532.047,216.836 507.014,216.836 507.014,198.12 531.42,198.12 531.42,192.695 
		507.014,192.695 507.014,175.236 532.047,175.236 532.047,169.811 501.178,169.811 501.178,222.264 	"/>
	<polygon points="719.527,139.113 750.396,139.113 750.396,133.686 725.365,133.686 725.365,114.973 749.771,114.973 
		749.771,109.545 725.365,109.545 725.365,92.086 750.396,92.086 750.396,86.662 719.527,86.662 719.527,139.113 	"/>
	<polygon points="471.305,175.236 488.279,175.236 488.279,169.811 448.633,169.811 448.633,175.236 465.461,175.236 
		465.461,222.264 471.305,222.264 471.305,175.236 	"/>
	<path d="M587.104,174.054c-4.658-3.48-9.809-5.149-15.654-5.149c-15.02,0-27.334,12.315-27.334,27.334
		c0,14.892,12.523,26.93,27.334,26.93c5.568,0,11.131-1.88,15.654-5.147v-7.238c-4.176,4.176-9.949,6.958-15.859,6.958
		c-11.756,0-21.285-10.154-21.285-21.701c0-11.548,9.461-21.709,21.146-21.709c6.049,0,11.822,2.645,15.998,6.959V174.054
		L587.104,174.054z"/>
	<polygon points="610.666,192.674 610.666,169.673 604.824,169.673 604.824,222.127 610.666,222.127 610.666,198.096 
		639.389,198.096 639.389,222.127 645.232,222.127 645.232,169.673 639.389,169.673 639.389,192.674 610.666,192.674 	"/>
	<polygon points="663.375,222.264 669.213,222.264 669.213,181.845 710.121,224.63 710.121,169.811 704.279,169.811 
		704.279,210.435 663.375,167.584 663.375,222.264 	"/>
	<path fill-rule="evenodd" clip-rule="evenodd" d="M749.836,168.904c-14.957,0-27.34,12.177-27.34,27.2
		c0,15.095,12.383,27.063,27.34,27.063c14.953,0,27.336-11.969,27.336-27.063C777.172,181.081,764.789,168.904,749.836,168.904
		L749.836,168.904z M749.836,174.33c12.031,0,21.496,9.81,21.496,21.709c0,11.822-9.602,21.701-21.496,21.701
		c-11.896,0-21.496-9.879-21.496-21.701C728.34,184.14,737.797,174.33,749.836,174.33L749.836,174.33z"/>
	<polygon points="796.885,169.811 791.041,169.811 791.041,222.264 821.365,222.264 821.365,216.836 796.885,216.836 
		796.885,169.811 	"/>
	<path fill-rule="evenodd" clip-rule="evenodd" d="M852.9,168.904c-14.955,0-27.338,12.177-27.338,27.2
		c0,15.095,12.383,27.063,27.338,27.063c14.957,0,27.338-11.969,27.338-27.063C880.238,181.081,867.857,168.904,852.9,168.904
		L852.9,168.904z M852.9,174.33c12.035,0,21.494,9.81,21.494,21.709c0,11.822-9.594,21.701-21.494,21.701
		c-11.893,0-21.494-9.879-21.494-21.701C831.406,184.14,840.861,174.33,852.9,174.33L852.9,174.33z"/>
	<path d="M921.025,195.897v5.425h15.586c0,9.737-9.604,16.418-18.719,16.418c-5.492,0-11.057-2.853-14.887-6.681
		c-3.895-3.963-6.121-9.252-6.121-14.821c0-11.818,9.461-21.908,21.43-21.908c7.725,0,13.631,3.688,18.018,9.881l4.242-3.967
		c-5.562-7.236-13.01-11.34-22.191-11.34c-15.096,0-27.334,12.244-27.334,27.271c0,14.747,12.238,26.992,26.984,26.992
		c7.305,0,14.607-3.204,19.412-8.771c4.799-5.564,5.562-11.405,5.426-18.5H921.025L921.025,195.897z"/>
	<polygon points="969.336,199.722 969.336,222.264 975.184,222.264 975.184,199.722 992.367,169.811 985.619,169.811 
		972.264,193.182 958.908,169.811 952.16,169.811 969.336,199.722 	"/>
	<polygon points="383.957,222.55 389.826,222.55 389.801,197.73 414.006,197.73 414.006,192.308 389.801,192.308 389.801,175.52 
		414.629,175.52 414.629,170.094 383.957,170.094 383.957,222.55 	"/>
</g>
<path fill="none" stroke="#FFFFFF" stroke-width="0.4072" d="M823.15,141.09"/>
<path fill="none" stroke="#FFFFFF" stroke-width="0.4072" d="M746.221,7.683"/>
<g>
	<polygon fill="#E31837" points="830.131,48.01 837.119,51.451 838.213,43.338 830.633,40.239 	"/>
	<path fill="#E31837" d="M755.146,7.117c-0.75-0.004-0.848,0.381-0.039,0.633c2.113,0.656,68.385,21.983,68.385,21.983l-0.004-7.24
		c0,0-63.465-14.36-65.1-14.769C757.697,7.552,755.688,7.119,755.146,7.117z"/>
	<polygon fill="#E31837" points="840.494,26.418 831.656,24.378 831.154,32.178 839.363,34.798 	"/>
	<polygon fill="#E31837" points="843.09,7.158 832.77,7.166 832.205,15.887 841.752,17.086 	"/>
	<polygon fill="#E31837" points="859.775,30.867 850.078,28.63 848.139,37.599 856.881,40.389 	"/>
	<path fill="#E31837" d="M823.482,7.174c0,0-54.945,0.006-55.986,0.006c-0.414,0-0.707-0.014-0.768,0.111
		c-0.117,0.236,0.025,0.396,0.67,0.484c1.83,0.25,56.088,7.016,56.088,7.016L823.482,7.174z"/>
	<polygon fill="#E31837" points="844.369,55.021 851.383,58.477 854.021,49.801 846.191,46.6 	"/>
	<polygon fill="#E31837" points="866.986,7.141 854.727,7.149 852.291,18.41 863.148,19.773 	"/>
	<polygon fill="#E31837" points="862.74,53.366 859.023,62.238 866.891,66.113 872.043,57.168 	"/>
	<path fill="#E31837" d="M748.479,7.186c-0.514,0.349,0.523,0.678,1.363,1.103c0.5,0.289,73.658,36.456,73.658,36.456l-0.004-7.422
		c0,0-71.562-29.08-72.357-29.396C749.957,7.459,748.904,6.896,748.479,7.186z"/>
	<polygon fill="#E31837" points="882.117,7.129 876.135,21.404 891.527,23.338 900.871,7.115 	"/>
	<path fill="#E31837" d="M823.492,141.449c-0.031-0.717,0.012-89.611,0.012-89.611s-77.814-44.09-78.33-44.39
		c-1.109-0.644-0.656,0.309-0.248,1.013c7.25,12.544,77.49,133.049,77.746,133.434C823.268,142.797,823.521,142.523,823.492,141.449
		z"/>
	<polygon fill="#E31837" points="871.076,33.476 866.846,43.568 877.854,47.081 883.975,36.453 	"/>
	<path fill="#E31837" d="M836.09,59.09l-6.436-3.709c0,0-4.781,81.362-4.779,82.094c-0.1,1.059-0.123,1.82,0.416,1.82
		c0.4,0,0.486-1.891,0.598-2.701C826.037,135.533,836.09,59.09,836.09,59.09z"/>
	<path fill="#E31837" d="M855.625,70.346c0,0-21.16,50.068-21.885,51.947c-0.242,0.629-0.186,0.799,0.055,0.908
		c0.201,0.09,0.35-0.169,0.594-0.595c1.953-3.403,27.865-48.442,27.865-48.442L855.625,70.346z"/>
	<path fill="#E31837" d="M848.947,66.496l-6.279-3.616c0,0-14.705,68.994-15.023,70.087c0,0-0.039,0.279-0.012,0.509
		c0.066,0.288,0.178,0.563,0.547,0.099c0.346-0.464,0.543-1.65,1.07-3.287C829.416,129.699,848.947,66.496,848.947,66.496z"/>
</g>
</svg>
