<?xml version="1.0" encoding="UTF-8" standalone="no"?>
<svg
   xmlns:dc="http://purl.org/dc/elements/1.1/"
   xmlns:cc="http://creativecommons.org/ns#"
   xmlns:rdf="http://www.w3.org/1999/02/22-rdf-syntax-ns#"
   xmlns:svg="http://www.w3.org/2000/svg"
   xmlns="http://www.w3.org/2000/svg"
   viewBox="0 0 117.875 154.52499"
   height="154.52499"
   width="117.875"
   xml:space="preserve"
   version="1.1"
   id="svg2"><metadata
     id="metadata8"><rdf:RDF><cc:Work
         rdf:about=""><dc:format>image/svg+xml</dc:format><dc:type
           rdf:resource="http://purl.org/dc/dcmitype/StillImage" /></cc:Work></rdf:RDF></metadata><defs
     id="defs6" /><g
     transform="matrix(1.25,0,0,-1.25,0,154.525)"
     id="g10"><g
       transform="scale(0.1,0.1)"
       id="g12"><path
         id="path14"
         style="fill:#8cd7b2;fill-opacity:1;fill-rule:nonzero;stroke:none"
         d="m 0.0117188,0 942.9570012,0 0,942.949 -942.9570012,0 0,-942.949 z" /><path
         id="path16"
         style="fill:#173a78;fill-opacity:1;fill-rule:nonzero;stroke:none"
         d="m 319.672,185.469 -153.93,0 0,613.945 -165.742,0 0,143.551 319.672,0 0,-757.496" /><path
         id="path18"
         style="fill:#173a78;fill-opacity:1;fill-rule:nonzero;stroke:none"
         d="m 379.688,105.672 7.917,0 c 14.961,0 23.875,-7.9103 23.875,-23.1837 0,-15.2969 -8.582,-23.207 -23.875,-23.207 l -7.917,0 0,46.3907 z m -20.45,-61.5626 27.93,0 c 26.184,0 45.422,10 45.422,38.6914 0,29.7192 -18.695,38.0582 -45.422,38.0582 l -27.93,0 0,-76.7496" /><path
         id="path20"
         style="fill:#173a78;fill-opacity:1;fill-rule:nonzero;stroke:none"
         d="m 555.977,75 -19.247,0 9.891,30.02 0.234,0 9.122,-30.02 z m -50.821,-30.8906 20.789,0 6.067,16.3789 28.789,0 5.722,-16.3789 22.442,0 -29.57,76.7496 -25.079,0 -29.16,-76.7496" /><path
         id="path22"
         style="fill:#173a78;fill-opacity:1;fill-rule:nonzero;stroke:none"
         d="m 689.063,105.672 -18.934,0 0,15.187 58.289,0 0,-15.187 -18.906,0 0,-61.5626 -20.449,0 0,61.5626" /><path
         id="path24"
         style="fill:#173a78;fill-opacity:1;fill-rule:nonzero;stroke:none"
         d="m 860.391,75 -19.239,0 9.903,30.02 0.207,0 9.129,-30.02 z m -50.801,-30.8906 20.781,0 6.055,16.3789 28.808,0 5.704,-16.3789 22.441,0 -29.59,76.7496 -25.059,0 -29.14,-76.7496" /><path
         id="path26"
         style="fill:#173a78;fill-opacity:1;fill-rule:nonzero;stroke:none"
         d="m 278.125,1052.67 c 22.938,0 41.547,18.6 41.547,41.56 l 0,100.45 c 0,22.96 -18.609,41.57 -41.547,41.57 l -100.461,0 c -22.957,0 -41.559,-18.61 -41.559,-41.57 l 0,-100.45 c 0,-22.96 18.602,-41.56 41.559,-41.56 l 100.461,0" /><path
         id="path28"
         style="fill:#ffffff;fill-opacity:1;fill-rule:nonzero;stroke:none"
         d="m 845.977,825.797 11.0156,0 0,76.7617 -11.0156,0 0,-76.7617 z" /><path
         id="path30"
         style="fill:#ffffff;fill-opacity:1;fill-rule:nonzero;stroke:none"
         d="m 693.777,630.375 11.0078,0 0,76.7656 -11.0078,0 0,-76.7656 z" /><path
         id="path32"
         style="fill:#ffffff;fill-opacity:1;fill-rule:nonzero;stroke:none"
         d="m 821.465,707.141 14.961,0 33.867,-61.805 0.215,0 0,61.805 10.996,0 0,-76.758 -14.082,0 -34.746,63.117 -0.203,0 0,-63.117 -11.008,0 0,76.758" /><path
         id="path34"
         style="fill:#ffffff;fill-opacity:1;fill-rule:nonzero;stroke:none"
         d="m 375.297,892.875 12.871,0 c 15.832,0 28.027,-10.562 28.027,-28.48 0,-19.801 -10.437,-28.926 -29.359,-28.926 l -11.539,0 0,57.406 z m -11,-67.078 22.652,0 c 25.297,0 40.906,13.308 40.906,39.043 0,23.637 -18.136,37.719 -40.906,37.719 l -22.652,0 0,-76.762" /><path
         id="path36"
         style="fill:#ffffff;fill-opacity:1;fill-rule:nonzero;stroke:none"
         d="m 669.246,511.703 14.965,0 33.875,-61.816 0.215,0 0,61.816 10.984,0 0,-76.758 -14.07,0 -34.735,63.125 -0.226,0 0,-63.125 -11.008,0 0,76.758" /><path
         id="path38"
         style="fill:#ffffff;fill-opacity:1;fill-rule:nonzero;stroke:none"
         d="m 831.895,502.035 12.89,0 c 15.84,0 28.028,-10.566 28.028,-28.496 0,-19.785 -10.45,-28.906 -29.368,-28.906 l -11.55,0 0,57.402 z m -10.989,-67.09 22.649,0 c 25.293,0 40.918,13.321 40.918,39.024 0,23.672 -18.145,37.754 -40.918,37.754 l -22.649,0 0,-76.778" /><path
         id="path40"
         style="fill:#ffffff;fill-opacity:1;fill-rule:nonzero;stroke:none"
         d="m 526.836,902.555 42.988,0 0,-9.68 -32.011,0 0,-22.43 29.14,0 0,-9.679 -29.14,0 0,-25.293 32.011,0 0,-9.676 -42.988,0 0,76.758" /><path
         id="path42"
         style="fill:#ffffff;fill-opacity:1;fill-rule:nonzero;stroke:none"
         d="m 691.746,865.707 -25.73,36.852 13.203,0 20.449,-29.477 20.344,29.477 12.539,0 -25.84,-36.621 28.367,-40.137 -13.855,0 -22.649,32.551 -21.886,-32.551 -13.192,0 28.25,39.906" /><path
         id="path44"
         style="fill:#ffffff;fill-opacity:1;fill-rule:nonzero;stroke:none"
         d="m 541.563,434.945 10.9961,0 0,76.7578 -10.9961,0 0,-76.7578 z" /><path
         id="path46"
         style="fill:#ffffff;fill-opacity:1;fill-rule:nonzero;stroke:none"
         d="m 70.9023,502.035 12.8633,0 c 15.8399,0 28.0354,-10.566 28.0354,-28.496 0,-19.785 -10.438,-28.906 -29.3596,-28.906 l -11.5391,0 0,57.402 z m -11,-67.09 22.6524,0 c 25.2973,0 40.9063,13.321 40.9063,39.024 0,23.672 -18.141,37.754 -40.9063,37.754 l -22.6524,0 0,-76.778" /><path
         id="path48"
         style="fill:#ffffff;fill-opacity:1;fill-rule:nonzero;stroke:none"
         d="m 70.2383,316.273 42.9997,0 0,-9.668 -31.9997,0 0,-22.441 29.1447,0 0,-9.687 -29.1447,0 0,-25.274 31.9997,0 0,-9.687 -42.9997,0 0,76.757" /><path
         id="path50"
         style="fill:#ffffff;fill-opacity:1;fill-rule:nonzero;stroke:none"
         d="m 60.4492,707.141 14.9531,0 33.8677,-61.805 0.218,0 0,61.805 11,0 0,-76.758 -14.066,0 -34.7423,63.117 -0.2188,0 0,-63.117 -11.0117,0 0,76.758" /><path
         id="path52"
         style="fill:#ffffff;fill-opacity:1;fill-rule:nonzero;stroke:none"
         d="m 374.629,707.141 43.004,0 0,-9.668 -31.992,0 0,-22.446 29.129,0 0,-9.675 -29.129,0 0,-25.293 31.992,0 0,-9.676 -43.004,0 0,76.758" /><path
         id="path54"
         style="fill:#ffffff;fill-opacity:1;fill-rule:nonzero;stroke:none"
         d="m 539.531,670.293 -25.73,36.852 13.191,0 20.457,-29.477 20.344,29.477 12.539,0 -25.84,-36.622 28.367,-40.148 -13.855,0 -22.656,32.559 -21.875,-32.559 -13.203,0 28.261,39.918" /><path
         id="path56"
         style="fill:#ffffff;fill-opacity:1;fill-rule:nonzero;stroke:none"
         d="m 389.379,239.516 10.9922,0 0,76.7578 -10.9922,0 0,-76.7578 z" /><path
         id="path58"
         style="fill:#ffffff;fill-opacity:1;fill-rule:nonzero;stroke:none"
         d="m 517.043,316.273 14.949,0 33.867,-61.816 0.215,0 0,61.816 11.004,0 0,-76.757 -14.07,0 -34.738,63.144 -0.243,0 0,-63.144 -10.984,0 0,76.757" /><path
         id="path60"
         style="fill:#ffffff;fill-opacity:1;fill-rule:nonzero;stroke:none"
         d="m 679.707,306.605 12.871,0 c 15.84,0 28.047,-10.585 28.047,-28.496 0,-19.785 -10.449,-28.906 -29.363,-28.906 l -11.555,0 0,57.402 z m -10.984,-67.089 22.644,0 c 25.293,0 40.918,13.3 40.918,39.043 0,23.652 -18.144,37.714 -40.918,37.714 l -22.644,0 0,-76.757" /><path
         id="path62"
         style="fill:#ffffff;fill-opacity:1;fill-rule:nonzero;stroke:none"
         d="m 831.25,316.273 42.996,0 0,-9.668 -32,0 0,-22.441 29.141,0 0,-9.687 -29.141,0 0,-25.274 32,0 0,-9.687 -42.996,0 0,76.757" /><path
         id="path64"
         style="fill:#ffffff;fill-opacity:1;fill-rule:nonzero;stroke:none"
         d="m 82.9414,84.0117 -25.7422,36.8473 13.2031,0 20.4571,-29.4879 20.3396,29.4879 12.551,0 -25.8477,-36.6207 28.3677,-40.1289 -13.852,0 -22.6563,32.539 -21.8789,-32.539 -13.207,0 28.2656,39.9023" /><path
         id="path66"
         style="fill:#ffffff;fill-opacity:1;fill-rule:nonzero;stroke:none"
         d="m 387.336,474.867 -25.738,36.836 13.199,0 20.457,-29.492 20.344,29.492 12.547,0 -25.848,-36.64 28.367,-40.118 -13.848,0 -22.66,32.559 -21.883,-32.559 -13.203,0 28.266,39.922" /><path
         id="path68"
         style="fill:#ffffff;fill-opacity:1;fill-rule:nonzero;stroke:none"
         d="m 228.922,279.867 -22.223,36.406 23.871,0 12.871,-25.293 13.2,25.293 22.429,0 -22.429,-36.406 24.629,-40.351 -24.418,0 -14.84,28.261 -14.742,-28.261 -23.2,0 24.852,40.351" /><path
         id="path70"
         style="fill:#ffffff;fill-opacity:1;fill-rule:nonzero;stroke:none"
         d="m 80.2383,825.797 20.4492,0 0,76.7617 -20.4492,0 0,-76.7617 z" /><path
         id="path72"
         style="fill:#ffffff;fill-opacity:1;fill-rule:nonzero;stroke:none"
         d="m 207.367,902.555 26.063,0 25.961,-52.121 0.218,0 -0.332,52.121 18.703,0 0,-76.758 -25.414,0 -26.828,52.461 -0.218,0 0.648,-52.461 -18.801,0 0,76.758" /><path
         id="path74"
         style="fill:#ffffff;fill-opacity:1;fill-rule:nonzero;stroke:none"
         d="m 215.676,511.703 54.109,0 0,-14.512 -33.664,0 0,-15.839 31.785,0 0,-14.512 -31.785,0 0,-17.402 34.859,0 0,-14.493 -55.304,0 0,76.758" /><path
         id="path76"
         style="fill:#ffffff;fill-opacity:1;fill-rule:nonzero;stroke:none"
         d="m 227.496,691.969 7.918,0 c 14.961,0 23.863,-7.922 23.863,-23.215 0,-15.277 -8.578,-23.195 -23.863,-23.195 l -7.918,0 0,46.41 z m -20.449,-61.594 27.918,0 c 26.183,0 45.43,10 45.43,38.723 0,29.679 -18.7,38.043 -45.43,38.043 l -27.918,0 0,-76.766" /></g></g></svg>