<?xml version="1.0" encoding="utf-8"?>
<!-- Generator: Adobe Illustrator 15.1.0, SVG Export Plug-In . SVG Version: 6.00 Build 0)  -->
<!DOCTYPE svg PUBLIC "-//W3C//DTD SVG 1.1//EN" "http://www.w3.org/Graphics/SVG/1.1/DTD/svg11.dtd">
<svg version="1.1" id="Layer_1" xmlns="http://www.w3.org/2000/svg" xmlns:xlink="http://www.w3.org/1999/xlink" x="0px" y="0px"
	 width="957.717px" height="174.145px" viewBox="0 0 957.717 174.145" enable-background="new 0 0 957.717 174.145"
	 xml:space="preserve">
<g>
	<g>
		<path fill="#414042" d="M3.382,150.539v4.235c0,3.632,2.62,4.996,8.219,4.996c5.906,0,7.423-1.712,7.423-7.111v-17.606h3.377
			v18.514c0,6.703-3.23,9.37-11.402,9.37c-7.416,0-11-2.558-11-8.061v-4.337H3.382z"/>
		<path fill="#414042" d="M42.277,155.227c3.887,3.022,8.179,4.591,12.162,4.591c5.19,0,8.479-2.471,8.479-5.701
			c0-2.473-2.127-4.488-6.36-4.843c-4.641-0.352-8.327-0.399-11.206-1.714c-2.522-1.217-3.876-3.183-3.876-5.6
			c0-4.189,4.078-7.522,10.536-7.522c4.594,0,9.089,1.57,13.022,4.438l-1.97,2.824c-3.376-2.729-7.118-4.078-10.994-4.078
			c-4.292,0-7.066,1.915-7.066,4.184c0,1.018,0.454,1.761,1.313,2.426c2.322,1.761,6.2,1.364,11.197,1.917
			c5.706,0.649,8.982,3.933,8.982,8.062c0,4.696-4.343,8.725-12.009,8.725c-5.349,0-9.937-1.505-14.174-4.781L42.277,155.227z"/>
		<path fill="#414042" d="M90.407,138.171H78.957v-3.119h26.287v3.119H93.788v24.073h-3.38V138.171z"/>
		<path fill="#414042" d="M117.185,148.72c0-8.275,5.959-14.282,14.077-14.282c8.13,0,14.134,6.007,14.134,14.282
			s-6.004,14.216-14.134,14.216C123.145,162.936,117.185,156.996,117.185,148.72z M141.856,148.72
			c0-6.462-4.485-11.098-10.594-11.098c-6.051,0-10.596,4.636-10.596,11.098c0,6.455,4.544,11.05,10.596,11.05
			C137.372,159.77,141.856,155.122,141.856,148.72z"/>
		<path fill="#414042" d="M163.853,135.052h15.596c5.344,0,8.523,2.821,8.523,7.559c0,3.836-2.473,6.956-6.457,7.676l6.809,11.958
			h-3.734l-6.816-11.909h-10.538v11.909h-3.383V135.052z M179.245,147.149c3.431,0,5.192-1.553,5.192-4.436
			c0-2.83-1.761-4.542-5.046-4.542h-12.155v8.978H179.245z"/>
	</g>
	<g>
		<path fill="#414042" d="M234.436,174.145h-2.674v-50.456h2.674V174.145z"/>
	</g>
	<g>
		<path fill="#414042" d="M281.957,135.052h15.596c5.343,0,8.526,2.821,8.526,7.361c0,4.535-2.979,7.922-8.073,7.922h-12.664v11.909
			h-3.385V135.052z M297.347,147.149c3.433,0,5.195-1.553,5.195-4.436c0-2.83-1.762-4.542-5.048-4.542h-12.151v8.978H297.347z"/>
		<path fill="#414042" d="M320.649,148.72c0-8.275,5.952-14.282,14.077-14.282c8.128,0,14.129,6.007,14.129,14.282
			s-6,14.216-14.129,14.216C326.601,162.936,320.649,156.996,320.649,148.72z M345.321,148.72c0-6.462-4.486-11.098-10.594-11.098
			c-6.056,0-10.601,4.636-10.601,11.098c0,6.455,4.545,11.05,10.601,11.05C340.834,159.77,345.321,155.122,345.321,148.72z"/>
		<path fill="#414042" d="M367.324,135.052h15.589c5.351,0,8.534,2.821,8.534,7.559c0,3.836-2.477,6.956-6.461,7.676l6.807,11.958
			h-3.734l-6.814-11.909h-10.542v11.909h-3.378V135.052z M382.712,147.149c3.433,0,5.198-1.553,5.198-4.436
			c0-2.83-1.765-4.542-5.049-4.542h-12.159v8.978H382.712z"/>
		<path fill="#414042" d="M414.997,138.171h-11.448v-3.119h26.285v3.119h-11.451v24.073h-3.387V138.171z"/>
		<path fill="#414042" d="M444.005,134.895h3.426v27.446h-3.426V134.895z"/>
		<path fill="#414042" d="M493.171,155.573c-2.528,4.743-7.021,7.363-12.523,7.363c-8.118,0-14.079-5.94-14.079-14.216
			s5.961-14.282,14.079-14.282c5.046,0,9.337,2.323,11.909,6.354l-2.822,2.031c-1.716-3.286-5.152-5.201-9.087-5.201
			c-6.048,0-10.593,4.636-10.593,11.098c0,6.455,4.545,11.05,10.593,11.05c4.244,0,7.621-2.122,9.793-6.204L493.171,155.573z"/>
		<path fill="#414042" d="M509.709,148.72c0-8.275,5.956-14.282,14.078-14.282c8.132,0,14.133,6.007,14.133,14.282
			s-6.001,14.216-14.133,14.216C515.665,162.936,509.709,156.996,509.709,148.72z M534.39,148.72
			c0-6.462-4.493-11.098-10.603-11.098c-6.051,0-10.597,4.636-10.597,11.098c0,6.455,4.546,11.05,10.597,11.05
			C529.896,159.77,534.39,155.122,534.39,148.72z"/>
	</g>
	<g>
		<path fill="#414042" d="M585.544,174.145h-2.676v-50.456h2.676V174.145z"/>
	</g>
	<g>
		<path fill="#414042" d="M634.118,134.895h3.435v27.446h-3.435V134.895z"/>
		<path fill="#414042" d="M664.111,138.171h-11.444v-3.119h26.282v3.119h-11.455v24.073h-3.383V138.171z"/>
		<path fill="#414042" d="M694.071,135.052h3.439v10.737h16.032v-10.737h3.383v27.192h-3.383v-13.322h-16.032v13.322h-3.439V135.052
			z"/>
		<path fill="#414042" d="M747.05,135.052h2.827l13.464,27.192h-3.681l-3.682-7.322h-15.036l-3.575,7.322h-3.641L747.05,135.052z
			 M754.469,151.745l-6.004-12.058l-5.951,12.058H754.469z"/>
		<path fill="#414042" d="M780.145,134.998h3.375v13.563l15.596-13.563h4.438l-10.995,9.69l12.658,17.557h-4.08l-11.004-15.236
			l-6.612,5.545v9.691h-3.375V134.998z"/>
		<path fill="#414042" d="M830.599,135.052h2.823l13.471,27.192h-3.681l-3.689-7.322h-15.03l-3.576,7.322h-3.63L830.599,135.052z
			 M838.018,151.745l-6.004-12.058l-5.955,12.058H838.018z"/>
	</g>
	<g>
		<path fill="#414042" d="M887.587,139.23c-1.132-1.974-2.497-3.114-4.934-3.114c-2.537,0-4.73,1.823-4.73,4.438
			c0,2.472,2.539,3.605,4.476,4.475l1.889,0.835c3.719,1.627,6.866,3.487,6.866,8.041c0,4.994-4.017,8.82-8.98,8.82
			c-4.593,0-8.001-2.948-8.911-7.389l3.106-0.868c0.413,2.928,2.655,5.309,5.724,5.309c3.076,0,5.882-2.348,5.882-5.573
			c0-3.332-2.623-4.472-5.278-5.69l-1.741-0.75c-3.333-1.519-6.214-3.225-6.214-7.317c0-4.437,3.754-7.283,7.994-7.283
			c3.185,0,5.882,1.636,7.392,4.441L887.587,139.23z"/>
		<path fill="#414042" d="M914.785,143.365v7.697h7.703v2.954h-7.703v7.696h-2.951v-7.696h-7.7v-2.954h7.7v-7.697H914.785z"/>
		<path fill="#414042" d="M940.508,162.245h-3.182v-28.584h4.122c5.424,0,10.475,1.437,10.475,7.879
			c0,4.397-2.769,7.513-7.169,7.889l9.095,12.816h-3.902l-8.641-12.554h-0.798V162.245z M940.508,146.894h0.984
			c3.602,0,7.243-0.686,7.243-5.131c0-4.69-3.448-5.145-7.287-5.145h-0.94V146.894z"/>
	</g>
	<g>
		<path fill="#414042" d="M0.476,3.34v2.354h0.438c2.204,0,2.645,1.021,2.645,2.596v57.328c0,1.559-0.44,2.582-2.645,2.582H0.476
			v2.353h17.588V68.2h-0.422c-2.241,0-2.694-1.023-2.694-2.582V8.291c0-1.574,0.453-2.596,2.694-2.596h0.422V3.34H0.476z"/>
	</g>
	<g>
		<path fill="#414042" d="M203.16,0v0.422c0,1.932-1.317,2.918-3.996,2.918h-53.055c-2.678,0-3.977-0.986-3.977-2.918V0h-2.37
			v15.806h2.37v-0.458c0-2.204,0.939-2.852,3.977-2.852c0,0,20.004,0,20.8,0c0,0.825,0,53.122,0,53.122
			c0,1.559-0.439,2.582-2.596,2.582h-0.425v2.353h17.495V68.2h-0.405c-2.142,0-2.596-1.023-2.596-2.582c0,0,0-52.297,0-53.122
			c0.809,0,20.783,0,20.783,0c3.068,0,3.996,0.647,3.996,2.852v0.458h2.3V0H203.16z"/>
	</g>
	<g>
		<path fill="#414042" d="M384.421,3.34v2.354h0.421c1.868,0,2.647,0.731,2.647,2.596c0,0,0,22.505,0,23.316
			c-0.841,0-43.082,0-43.924,0c0-0.811,0-23.316,0-23.316c0-1.574,0.469-2.596,2.663-2.596h0.418V3.34h-17.54v2.354h0.421
			c2.158,0,2.614,1.021,2.614,2.596v57.328c0,1.559-0.456,2.582-2.614,2.582h-0.421v2.353h17.54V68.2h-0.418
			c-2.194,0-2.663-1.023-2.663-2.582c0,0,0-24.029,0-24.84c0.843,0,43.083,0,43.924,0c0,0.811,0,24.84,0,24.84
			c0,1.851-0.78,2.582-2.647,2.582h-0.421v2.353h17.525V68.2h-0.438c-2.155,0-2.596-1.023-2.596-2.582V8.291
			c0-1.865,0.745-2.596,2.596-2.596h0.438V3.34H384.421z"/>
	</g>
	<g>
		<path fill="#414042" d="M753.103,3.34v2.354h0.424c1.109,0,1.507,0.39,1.507,0.679c0,0.311-0.338,0.603-1.123,1.187l-0.5,0.422
			c0,0-32.382,24.259-33.718,25.233c0-1.591,0-24.925,0-24.925c0-1.865,0.782-2.596,2.627-2.596h0.43V3.34h-17.512v2.354h0.424
			c2.192,0,2.611,1.021,2.611,2.596v57.328c0,1.559-0.419,2.582-2.611,2.582h-0.424v2.353h17.512V68.2h-0.43
			c-1.845,0-2.627-0.731-2.627-2.582c0,0,0-22.568,0-24.127c3.913,2.855,24.944,18.449,33.286,23.576
			c1.507,0.944,2.546,2.45,2.627,2.694c-0.018,0.226-0.018,0.439-1.234,0.439h-0.438v2.353h22.995V68.2H776.5
			c-1.41,0-4.929-1.9-9.215-4.998c0,0-35.758-24.973-36.649-25.592c0.818-0.713,35.771-28.994,35.771-28.994
			c-0.011,0.017,1.169-0.861,1.169-0.861c2.195-1.589,2.88-2.061,4.851-2.061h0.425V3.34H753.103z"/>
	</g>
	<path fill="#414042" d="M543.957,3.34v2.354h0.412c1.057,0,1.864,0.567,1.864,1.055c0,0.439-0.28,1.039-0.743,2.061l-1.218,2.743
		l-22.898,51.013c-2.53,5.634-2.919,5.634-4.772,5.634h-0.432v2.353h16.372V68.2h-0.41c-1.681,0-1.681-0.618-1.681-0.942l0,0
		c0-0.684,0.616-2.043,1.167-3.278l0.535-1.249c0,0,3.989-9.282,4.2-9.786c0.532,0,34.645,0,35.162,0
		c0.209,0.456,4.725,9.817,4.725,9.817c-0.021-0.017,0.595,1.333,0.595,1.333c0.829,1.899,0.993,2.271,0.993,2.805
		c0,0.714-0.164,1.3-2.112,1.3h-0.402v2.353h18.385V68.2h-0.422c-2.592,0-2.644-0.067-5.438-5.828l-24.371-50.478l-0.877-1.816
		c-0.826-1.692-1.329-2.665-1.329-3.329c0-0.635,0.113-1.055,1.526-1.055h0.458V3.34H543.957z M553.234,15.348
		c0.747,1.542,13.077,27.279,13.606,28.399c-1.25,0-24.901,0-26.104,0C541.22,42.641,552.531,16.923,553.234,15.348z"/>
	<path fill="#414042" d="M907.981,3.34v2.354h0.409c1.071,0,1.897,0.567,1.897,1.055c0,0.439-0.321,1.072-0.812,2.125l-1.205,2.679
		L885.44,62.566c-2.576,5.634-2.961,5.634-4.832,5.634h-0.414v2.353h16.436V68.2h-0.407c-1.736,0-1.736-0.618-1.736-0.942
		c0-0.65,0.617-1.996,1.168-3.228l0.568-1.299c0,0,3.929-9.282,4.121-9.786c0.57,0,34.644,0,35.182,0
		c0.208,0.456,4.717,9.817,4.717,9.817l0.453,1.02c0.948,2.096,1.143,2.518,1.143,3.118c0,0.765-0.163,1.3-2.097,1.3h-0.407v2.353
		h18.383V68.2h-0.405c-2.624,0-2.674-0.067-5.485-5.893L927.51,11.895l-0.989-1.997c-0.797-1.589-1.271-2.515-1.271-3.148
		c0-0.552,0.129-1.055,1.643-1.055h0.425V3.34H907.981z M917.279,15.348c0.75,1.542,13.08,27.279,13.619,28.399
		c-1.256,0-24.912,0-26.109,0C905.28,42.641,916.601,16.923,917.279,15.348z"/>
</g>
</svg>
