<?xml version="1.0" encoding="utf-8"?>
<!-- Generator: Adobe Illustrator 15.1.0, SVG Export Plug-In . SVG Version: 6.00 Build 0)  -->
<!DOCTYPE svg PUBLIC "-//W3C//DTD SVG 1.1//EN" "http://www.w3.org/Graphics/SVG/1.1/DTD/svg11.dtd">
<svg version="1.1" id="Layer_1" xmlns="http://www.w3.org/2000/svg" xmlns:xlink="http://www.w3.org/1999/xlink" x="0px" y="0px"
	 width="300px" height="60px" viewBox="0 0 300 60" enable-background="new 0 0 300 60" xml:space="preserve">
<g>
	<g>
		<path fill="#5F6062" d="M66.709,43.875v-2.246c0.466-0.108,0.958-0.191,1.369-0.246l-5.531-6.626v6.544
			c0.575,0.054,1.232,0.163,1.807,0.328v2.246h-7.749v-2.219c0.712-0.164,1.56-0.302,2.382-0.355V27.965
			c-0.822-0.055-1.67-0.191-2.382-0.355v-2.218h7.749v2.245c-0.575,0.165-1.232,0.274-1.807,0.329V34.1l5.476-6.216
			c-0.438-0.028-1.013-0.11-1.424-0.247v-2.245h7.502v2.245c-0.548,0.11-1.205,0.219-1.698,0.274l-5.859,6.353l6.243,7.091
			c0.521,0.056,1.177,0.166,1.725,0.274v2.246H66.709z"/>
		<path fill="#5F6062" d="M86.178,43.875v-8.708c0-1.396-0.383-2.245-1.67-2.245c-1.78,0-3.176,1.999-3.176,4.381v3.998
			c0.657,0.054,1.396,0.163,1.999,0.328v2.246h-7.886v-2.219c0.712-0.164,1.561-0.302,2.382-0.355v-8.352
			c-0.657-0.109-1.588-0.219-2.382-0.274v-2.19c1.752-0.219,3.861-0.301,5.695-0.246c0,0.63-0.055,1.726-0.191,2.465h0.027
			c0.822-1.588,2.41-2.711,4.628-2.711c3.066,0,4.053,1.945,4.053,4.327v6.982c0.794,0.054,1.588,0.191,2.218,0.355v2.219H86.178z"
			/>
		<path fill="#5F6062" d="M92.614,43.875v-2.219c0.712-0.164,1.561-0.302,2.382-0.355v-8.352c-0.657-0.109-1.588-0.219-2.382-0.274
			v-2.19c1.752-0.219,3.861-0.301,5.887-0.246v11.062c0.767,0.054,1.561,0.191,2.218,0.355v2.219H92.614z M96.748,28.239
			c-1.177,0-2.163-0.931-2.163-2.108c0-1.178,0.986-2.136,2.163-2.136c1.205,0,2.19,0.931,2.19,2.136
			C98.938,27.281,97.953,28.239,96.748,28.239z"/>
		<path fill="#5F6062" d="M107.564,50.747c-3.615,0-5.832-1.396-5.832-4.053c0-1.424,0.985-2.737,2.108-3.341
			c-0.821-0.383-1.341-1.15-1.341-2.081c0-1.067,0.684-2.026,1.615-2.436c-1.259-0.686-2.026-1.945-2.026-3.725
			c0-2.739,2.026-5.148,5.997-5.148c0.876,0,1.479,0.11,2.218,0.301h4.628v2.738h-1.862c0.438,0.41,0.685,1.013,0.685,1.726
			c0,2.902-1.944,4.901-5.832,4.901c-0.384,0-0.685-0.027-1.068-0.109c-0.438,0.191-0.657,0.547-0.657,0.875
			c0,0.631,0.52,0.795,2.108,0.85l2.108,0.082c2.93,0.109,4.627,1.368,4.627,3.998C115.04,48.255,112.083,50.747,107.564,50.747z
			 M109.426,44.038l-2.354-0.081h-0.63c-0.794,0.575-1.26,1.313-1.26,2.08c0,1.261,1.15,2.027,2.902,2.027
			c2.273,0,3.478-0.987,3.478-2.273C111.562,44.805,110.932,44.094,109.426,44.038z M107.948,32.511c-1.588,0-2.52,1.013-2.52,2.382
			c0,1.452,0.876,2.354,2.52,2.354c1.533,0,2.464-0.875,2.464-2.326S109.563,32.511,107.948,32.511z"/>
		<path fill="#5F6062" d="M126.349,43.875v-8.708c0-1.396-0.384-2.245-1.67-2.245c-1.78,0-3.176,1.999-3.176,4.408v3.971
			c0.685,0.054,1.396,0.163,1.999,0.328v2.246h-7.694v-2.219c0.657-0.164,1.451-0.302,2.217-0.355V26.569
			c-0.657-0.109-1.561-0.219-2.3-0.273v-2.19c1.697-0.219,3.778-0.302,5.777-0.247v5.888c0,0.82-0.055,1.943-0.219,2.765h0.027
			c0.795-1.506,2.355-2.519,4.491-2.519c3.067,0,4.052,1.945,4.052,4.327v6.982c0.712,0.054,1.533,0.191,2.191,0.355v2.219H126.349z
			"/>
		<path fill="#5F6062" d="M138.589,44.147c-3.012,0-3.943-1.094-3.943-4.271v-6.9h-2.355v-2.711h2.355v-4.189l3.478-0.931v5.121
			h3.313v2.711h-3.313v5.97c0,1.751,0.41,2.245,1.615,2.245c0.576,0,1.096-0.055,1.561-0.191l0.247,2.765
			C140.67,43.984,139.547,44.147,138.589,44.147z"/>
		<path fill="#5F6062" d="M158.358,30.129c-0.109-0.63-0.219-1.232-0.273-1.89h-3.697v5.093h3.095
			c0.054-0.52,0.164-1.04,0.301-1.506h2.272v5.723h-2.272c-0.137-0.466-0.247-0.959-0.301-1.506h-3.095v5.258
			c0.822,0.054,1.671,0.191,2.382,0.355v2.219h-8.323v-2.219c0.711-0.164,1.561-0.302,2.382-0.355V27.965
			c-0.821-0.055-1.671-0.191-2.382-0.355v-2.218h12.568v4.737H158.358z"/>
		<path fill="#5F6062" d="M168.873,44.147c-3.86,0-6.353-1.999-6.353-6.79c0-4.3,2.821-7.366,6.954-7.366
			c3.862,0,6.354,2.109,6.354,6.792C175.828,41.081,172.98,44.147,168.873,44.147z M169.229,32.949c-1.589,0-3.095,1.205-3.095,4.08
			c0,2.71,0.986,4.134,3.039,4.134c1.726,0,3.04-1.396,3.04-4.08C172.214,34.373,171.229,32.949,169.229,32.949z"/>
		<path fill="#5F6062" d="M187.602,43.902c0-0.685,0.056-1.699,0.165-2.465h-0.055c-0.794,1.588-2.383,2.71-4.601,2.71
			c-3.094,0-4.08-1.944-4.08-4.326v-6.872c-0.657-0.109-1.478-0.219-2.19-0.274v-2.218c1.589-0.191,3.67-0.273,5.695-0.219v8.735
			c0,1.396,0.384,2.245,1.671,2.245c1.779,0,3.177-1.999,3.177-4.381v-3.916c-0.576-0.082-1.315-0.191-1.999-0.247V30.43
			c1.615-0.164,3.587-0.246,5.476-0.191v10.953c0.657,0.109,1.507,0.219,2.218,0.272v2.219
			C191.491,43.875,189.383,43.957,187.602,43.902z"/>
		<path fill="#5F6062" d="M204.58,43.875v-8.708c0-1.396-0.385-2.245-1.671-2.245c-1.78,0-3.177,1.999-3.177,4.381v3.998
			c0.657,0.054,1.396,0.163,1.998,0.328v2.246h-7.885v-2.219c0.712-0.164,1.561-0.302,2.382-0.355v-8.352
			c-0.657-0.109-1.588-0.219-2.382-0.274v-2.19c1.753-0.219,3.861-0.301,5.694-0.246c0,0.63-0.054,1.726-0.191,2.465h0.028
			c0.82-1.588,2.409-2.711,4.628-2.711c3.065,0,4.052,1.945,4.052,4.327v6.982c0.794,0.054,1.588,0.191,2.218,0.355v2.219H204.58z"
			/>
		<path fill="#5F6062" d="M220.434,43.902c0-0.685,0.055-1.562,0.164-2.301h-0.055c-0.712,1.507-2.218,2.574-4.299,2.574
			c-3.313,0-4.956-2.491-4.956-6.38c0-4.601,2.683-7.777,7.201-7.777c0.575,0,1.122,0.028,1.726,0.11v-3.56
			c-0.657-0.109-1.589-0.219-2.383-0.273v-2.19c1.726-0.219,3.86-0.302,5.859-0.247v17.333c0.658,0.109,1.562,0.219,2.246,0.272
			v2.191C224.35,43.875,222.241,43.957,220.434,43.902z M220.215,33.004c-0.631-0.138-1.232-0.219-1.835-0.219
			c-1.999,0-3.423,1.26-3.423,4.627c0,2.547,0.739,3.86,2.328,3.86c1.834,0,2.93-2.135,2.93-4.462V33.004z"/>
		<path fill="#5F6062" d="M235.083,43.902c0-0.794,0-1.616,0.11-2.328l-0.028-0.027c-0.657,1.533-2.327,2.601-4.353,2.601
			c-2.438,0-3.889-1.505-3.889-3.695c0-3.259,3.231-4.792,7.858-4.847v-0.794c0-1.452-0.575-2.273-2.41-2.273
			c-0.657,0-1.424,0.137-1.999,0.328c-0.054,0.521-0.136,1.179-0.273,1.781h-2.19v-3.972c1.424-0.438,3.095-0.711,4.71-0.711
			c4.463,0,5.695,1.752,5.695,4.738v6.489c0.657,0.109,1.506,0.219,2.218,0.272v2.219C238.944,43.875,236.836,43.957,235.083,43.902
			z M234.782,37.851c-3.121,0-4.518,0.685-4.518,2.08c0,0.904,0.63,1.562,1.643,1.562c1.725,0,2.875-1.615,2.875-3.286V37.851z"/>
		<path fill="#5F6062" d="M247.05,44.147c-3.013,0-3.943-1.094-3.943-4.271v-6.9h-2.354v-2.711h2.354v-4.189l3.478-0.931v5.121
			h3.313v2.711h-3.313v5.97c0,1.751,0.41,2.245,1.616,2.245c0.574,0,1.095-0.055,1.56-0.191l0.247,2.765
			C249.13,43.984,248.008,44.147,247.05,44.147z"/>
		<path fill="#5F6062" d="M251.267,43.875v-2.219c0.712-0.164,1.561-0.302,2.383-0.355v-8.352c-0.658-0.109-1.589-0.219-2.383-0.274
			v-2.19c1.752-0.219,3.86-0.301,5.887-0.246v11.062c0.767,0.054,1.562,0.191,2.219,0.355v2.219H251.267z M255.401,28.239
			c-1.178,0-2.163-0.931-2.163-2.108c0-1.178,0.985-2.136,2.163-2.136c1.205,0,2.189,0.931,2.189,2.136
			C257.591,27.281,256.606,28.239,255.401,28.239z"/>
		<path fill="#5F6062" d="M266.737,44.147c-3.86,0-6.353-1.999-6.353-6.79c0-4.3,2.82-7.366,6.954-7.366
			c3.862,0,6.354,2.109,6.354,6.792C273.693,41.081,270.845,44.147,266.737,44.147z M267.094,32.949
			c-1.589,0-3.095,1.205-3.095,4.08c0,2.71,0.986,4.134,3.039,4.134c1.726,0,3.04-1.396,3.04-4.08
			C270.078,34.373,269.093,32.949,267.094,32.949z"/>
		<path fill="#5F6062" d="M285.768,43.875v-8.708c0-1.396-0.384-2.245-1.67-2.245c-1.78,0-3.176,1.999-3.176,4.381v3.998
			c0.657,0.054,1.396,0.163,1.998,0.328v2.246h-7.885v-2.219c0.711-0.164,1.56-0.302,2.382-0.355v-8.352
			c-0.657-0.109-1.589-0.219-2.382-0.274v-2.19c1.751-0.219,3.859-0.301,5.694-0.246c0,0.63-0.054,1.726-0.191,2.465h0.027
			c0.821-1.588,2.409-2.711,4.627-2.711c3.067,0,4.054,1.945,4.054,4.327v6.982c0.793,0.054,1.587,0.191,2.218,0.355v2.219H285.768z
			"/>
	</g>
</g>
<g>
	<polygon fill="#00467F" points="12.332,13.963 21.684,13.963 12.332,28.213 21.684,43.76 12.332,43.76 	"/>
	<polygon fill="#00467F" points="29.584,13.963 46.371,13.963 46.371,20.071 29.584,20.071 29.584,25.316 46.371,25.316 
		46.371,31.411 29.584,31.411 29.584,43.76 19.578,28.213 	"/>
</g>
<rect fill="none" width="300" height="60"/>
</svg>
