<?xml version="1.0" encoding="utf-8"?>
<!-- Generator: Adobe Illustrator 15.1.0, SVG Export Plug-In . SVG Version: 6.00 Build 0)  -->
<!DOCTYPE svg PUBLIC "-//W3C//DTD SVG 1.1//EN" "http://www.w3.org/Graphics/SVG/1.1/DTD/svg11.dtd">
<svg version="1.1" id="Layer_1" xmlns="http://www.w3.org/2000/svg" xmlns:xlink="http://www.w3.org/1999/xlink" x="0px" y="0px"
	 width="225.176px" height="83.729px" viewBox="0 0 225.176 83.729" enable-background="new 0 0 225.176 83.729"
	 xml:space="preserve">
<g>
	<path fill="#010101" d="M107.646,53.958H92.061v-5.819c-2.323,2.389-4.668,4.09-7.032,5.104c-2.368,1.01-5.269,1.52-8.716,1.52
		c-4.596,0-8.201-1.135-10.812-3.401c-2.613-2.267-3.917-5.758-3.917-10.475V18.009h16.691v19.77c0,2.257,0.511,3.86,1.529,4.809
		c1.014,0.949,2.448,1.42,4.293,1.42c2.01,0,3.655-0.631,4.934-1.896c1.279-1.262,1.922-3.527,1.922-6.806V18.009h16.691V53.958z"/>
	<path fill="#010101" d="M129.123,29.565l-15.886-1.284c0.599-2.303,1.465-4.11,2.602-5.433c1.131-1.322,2.766-2.47,4.894-3.439
		c1.531-0.7,3.632-1.24,6.311-1.626c2.676-0.38,5.567-0.574,8.684-0.574c4.999,0,9.012,0.232,12.045,0.693
		c3.026,0.461,5.555,1.427,7.575,2.894c1.422,1.018,2.543,2.456,3.361,4.315c0.819,1.861,1.227,3.64,1.227,5.33v15.871
		c0,1.692,0.131,3.02,0.391,3.978c0.261,0.955,0.829,2.18,1.702,3.669h-15.705c-0.631-0.932-1.041-1.643-1.231-2.134
		c-0.195-0.487-0.388-1.258-0.578-2.306c-2.181,1.747-4.341,2.996-6.496,3.747c-2.941,0.998-6.36,1.496-10.256,1.496
		c-5.174,0-9.102-0.997-11.784-2.986c-2.684-1.991-4.023-4.444-4.023-7.366c0-2.733,0.964-4.987,2.901-6.752
		c1.93-1.761,5.5-3.075,10.701-3.938c6.235-1.036,10.278-1.766,12.128-2.185c1.853-0.418,3.812-0.969,5.883-1.648
		c0-1.666-0.423-2.829-1.267-3.497c-0.849-0.663-2.333-0.998-4.458-0.998c-2.731,0-4.773,0.357-6.138,1.062
		C130.638,27.006,129.778,28.042,129.123,29.565z M143.566,36.787c-2.283,0.682-4.661,1.281-7.134,1.803
		c-3.372,0.748-5.505,1.485-6.403,2.21c-0.927,0.751-1.387,1.601-1.387,2.551c0,1.09,0.455,1.981,1.366,2.672
		c0.911,0.693,2.251,1.035,4.018,1.035c1.848,0,3.567-0.371,5.154-1.12c1.592-0.746,2.721-1.659,3.387-2.738s0.999-2.479,0.999-4.2
		V36.787z"/>
	<path fill="#010101" d="M167.294,4.368h16.689v49.59h-16.689V4.368z"/>
	<path fill="#010101" d="M192.033,4.368h16.691v9.31h-16.691V4.368z M192.033,18.009h16.691v35.949h-16.691V18.009z"/>
	<path fill="#010101" d="M5.825,0C2.607,0,0,2.607,0,5.825v43.107c0,3.219,2.607,5.829,5.825,5.829h1.164V0H5.825z"/>
	<polygon fill="#A21D21" points="54.76,47.706 54.76,20.264 41.238,32.554 	"/>
	<path fill="#A21B1E" d="M40.179,15.147H54.76V5.825C54.76,2.607,52.152,0,48.935,0H24.078v30.863L40.179,15.147z"/>
	<polygon fill="#A21D21" points="26.694,37.974 24.078,40.576 24.078,54.762 40.795,54.762 	"/>
	<text transform="matrix(1.3161 0 0 1 170.7197 77.9863)" font-family="'Myriad-Roman'" font-size="22.9698">ole</text>
	<g>
		<path fill="#010101" d="M220.851,45.138c2.405,0,4.325,1.955,4.325,4.399c0,2.483-1.92,4.421-4.343,4.421
			c-2.405,0-4.36-1.938-4.36-4.421c0-2.444,1.955-4.399,4.36-4.399H220.851z M220.833,45.822c-1.938,0-3.52,1.662-3.52,3.715
			c0,2.093,1.582,3.735,3.537,3.735c1.955,0.019,3.521-1.643,3.521-3.715c0-2.073-1.566-3.735-3.521-3.735H220.833z M220.012,52.1
			h-0.783v-4.91c0.41-0.057,0.801-0.116,1.389-0.116c0.744,0,1.232,0.156,1.527,0.373c0.29,0.215,0.448,0.547,0.448,1.016
			c0,0.646-0.431,1.038-0.959,1.193v0.039c0.431,0.078,0.724,0.47,0.821,1.193c0.117,0.764,0.235,1.054,0.312,1.212h-0.82
			c-0.118-0.158-0.233-0.607-0.333-1.252c-0.118-0.626-0.429-0.861-1.057-0.861h-0.546V52.1z M220.012,49.381h0.568
			c0.644,0,1.191-0.235,1.191-0.841c0-0.431-0.312-0.861-1.191-0.861c-0.258,0-0.431,0.021-0.568,0.04V49.381z"/>
	</g>
</g>
</svg>
