<?xml version="1.0" encoding="UTF-8" standalone="no"?>
<svg
   xmlns:dc="http://purl.org/dc/elements/1.1/"
   xmlns:cc="http://creativecommons.org/ns#"
   xmlns:rdf="http://www.w3.org/1999/02/22-rdf-syntax-ns#"
   xmlns:svg="http://www.w3.org/2000/svg"
   xmlns="http://www.w3.org/2000/svg"
   viewBox="0 0 325.96249 325.96249"
   height="325.96249"
   width="325.96249"
   xml:space="preserve"
   version="1.1"
   id="svg2"><metadata
     id="metadata8"><rdf:RDF><cc:Work
         rdf:about=""><dc:format>image/svg+xml</dc:format><dc:type
           rdf:resource="http://purl.org/dc/dcmitype/StillImage" /></cc:Work></rdf:RDF></metadata><defs
     id="defs6" /><g
     transform="matrix(1.25,0,0,-1.25,0,325.9625)"
     id="g10"><g
       transform="scale(0.1,0.1)"
       id="g12"><path
         id="path14"
         style="fill:#ffffff;fill-opacity:1;fill-rule:nonzero;stroke:none"
         d="m 0,0 2607.69,0 0,2607.69 L 0,2607.69 0,0 Z" /><path
         id="path16"
         style="fill:#ffffff;fill-opacity:1;fill-rule:nonzero;stroke:none"
         d="m 1312.66,1511.66 c 138.86,0 252.55,112.58 252.55,251.47 0,138.86 -118.28,250.44 -252.55,250.33 -138.89,-0.14 -253.33,-111.47 -253.33,-250.33 0,-138.89 114.44,-251.47 253.33,-251.47" /><path
         id="path18"
         style="fill:#ffffff;fill-opacity:1;fill-rule:nonzero;stroke:none"
         d="m 1430.37,1922.36 c -32.52,-4.96 -76.11,-7.85 -121.76,-7.81 0.57,49.96 1.41,86.06 2.39,96.97 46.25,-7.89 88.27,-41.23 119.37,-89.16" /><path
         id="path20"
         style="fill:#e22739;fill-opacity:1;fill-rule:nonzero;stroke:none"
         d="m 1484.62,1742.84 c -47.07,-7.19 -110.17,-11.35 -176.24,-11.29 -0.08,68.06 0.25,133.74 0.86,184.88 45.62,-0.04 89.17,2.85 121.65,7.79 31.8,-49.06 52.13,-113.42 53.73,-181.38" /><path
         id="path22"
         style="fill:#ffffff;fill-opacity:1;fill-rule:nonzero;stroke:none"
         d="m 1480.48,1743.17 c -13.04,2.05 -24.04,23.86 -18.3,46.38 -18.4,-12.73 -39.12,13.42 -36.09,37.62 1.6,12.81 10,24.22 24.65,18.92 -5.96,20.47 -13.42,39.83 -22.13,57.66 -13.01,-1.66 -27.27,-3.03 -42.38,-4.1 13.43,-20.29 0.25,-39.18 -18.5,-36.17 -13.57,2.18 -26.27,16.42 -22.73,33.41 -11.05,-7.65 -33.73,-4.64 -35.78,19.61 41.66,0.22 78.34,1.61 121.77,7.74 l 0,0 c 35.1,-57.91 50.2,-108.69 53.81,-181.09 -1.29,0.02 -3.03,-0.18 -4.32,0.02" /><path
         id="path24"
         style="fill:#ffffff;fill-opacity:1;fill-rule:nonzero;stroke:none"
         d="m 1178.69,1573.54 c -25.95,4.36 -43.19,9.92 -49.01,15.96 -6.41,7.2 -14.81,16.97 -20.75,24.59 -14.41,21.07 -14.69,21.48 -21.04,33.61 -11.04,23.36 -11.25,23.81 -15.59,36.8 -7.29,25.23 -7.43,25.72 -9.65,39.43 -1.42,11.91 -2.71,27.89 -3.2,39.86 l 0.22,10.92 c -0.44,-10.69 25.32,-20.8 69.9,-28.28 -0.11,-3.54 -0.16,-7.09 -0.15,-10.64 0.1,-65.67 18.8,-122.49 49.27,-162.25" /><path
         id="path26"
         style="fill:#ffffff;fill-opacity:1;fill-rule:nonzero;stroke:none"
         d="m 1311.82,1511.68 c -1.18,0 -2.74,0.02 -3.91,0.04 -2.3,0.04 -4.63,0.14 -6.94,0.2 -15.17,0.84 -25.1,2.3 -38.12,4.69 -32.76,7.48 -61.81,27.73 -84.34,57.38 22.23,-3.73 50.82,-6.54 84.06,-7.99 15.72,-0.68 31.53,-1.02 47.1,-1.03 0.58,-33.68 1.35,-53.27 2.15,-53.29" /><path
         id="path28"
         style="fill:#e22739;fill-opacity:1;fill-rule:nonzero;stroke:none"
         d="m 1309.67,1564.97 c -15.58,0.01 -31.39,0.35 -47.1,1.03 -33.2,1.45 -61.76,4.26 -83.99,7.97 -30.2,39.74 -48.71,96.37 -48.81,161.76 0,2.85 0.03,5.7 0.09,8.55 30.29,-5.06 69.19,-8.89 114.43,-10.86 21.39,-0.92 42.92,-1.38 64.15,-1.4 0,-2.86 0,-5.71 0.02,-8.58 0.08,-65.39 0.54,-120.76 1.21,-158.47" /><path
         id="path30"
         style="fill:#e22739;fill-opacity:1;fill-rule:nonzero;stroke:none"
         d="m 1309.28,1561.51 c -2.17,-8.71 -14.37,-17.03 -31.67,-10 8.08,-10.65 1.09,-19.86 -13.13,-17.29 -11.05,2.01 -24.17,10.9 -25.19,19.79 -13.67,1.03 -26.15,2.34 -37.26,3.89 10.54,-12.25 22.3,-22.27 35,-29.69 1.52,0.62 3.87,0.47 11.41,-2.17 9.64,-3.38 18.63,-8.3 28.25,-11.72 0,-0.02 0,-0.04 0,-0.04 -7.55,1.15 -8.52,1.31 -13.86,2.33 -18.15,5.21 -51.92,14.94 -84.33,57.38 l 0,0 c 39.04,-6.04 77.05,-8.63 131.19,-8.97 -0.14,-1.05 -0.16,-2.48 -0.41,-3.51" /><path
         id="path32"
         style="fill:#ffffff;fill-opacity:1;fill-rule:nonzero;stroke:none"
         d="m 1178.51,1573.99 -0.01,0 c -34.76,49.78 -48.45,97.46 -48.81,170.04 19.65,-6.49 25.05,-35.2 20,-51.33 18.7,7.21 42.18,-25.1 33.95,-46.7 -3.78,-9.96 -13.63,-12.73 -23.93,-6.74 5.57,-18.85 12.79,-36.09 21.42,-51.36 13.21,-1.82 28.06,-3.38 44.3,-4.61 -13.04,16.05 -2.58,29.21 14.82,28.32 14.94,-0.77 34.72,-13.19 30.48,-30.16 13.48,6.07 36.28,1.09 38.96,-16.52 -16.37,0.11 -41.12,0.31 -72.81,2.5 -19.56,1.34 -38.84,5.04 -58.37,6.56" /><path
         id="path34"
         style="fill:#e22739;fill-opacity:1;fill-rule:nonzero;stroke:none"
         d="m 1178.5,1573.99 0,0" /><path
         id="path36"
         style="fill:#e22739;fill-opacity:1;fill-rule:nonzero;stroke:none"
         d="m 1178.5,1573.99 0,0" /><path
         id="path38"
         style="fill:#e22739;fill-opacity:1;fill-rule:nonzero;stroke:none"
         d="m 1178.5,1573.99 c -28.76,5.19 -41.2,9.24 -49.29,16.01 -5.83,6.59 -13.55,15.43 -18.99,22.35 1,-1.25 1.65,-2.07 4.33,-5.2 -2.63,3.28 -15.79,20.08 -16.74,27.48 7.15,1.16 30.18,-34.76 30.41,-35.13 6.99,-2.6 16.09,-5.04 27.05,-7.27 -10.31,15.55 -18.96,33.03 -25.62,52.07 -15.68,-7.93 -35.69,33.54 -29.35,51.02 1.29,3.55 5.45,10.97 16.07,2.95 -8.01,18.45 -5.9,45.78 13.42,45.74 0.44,-61.12 8.89,-113.4 48.71,-170.02" /><path
         id="path40"
         style="fill:#231f20;fill-opacity:1;fill-rule:nonzero;stroke:none"
         d="m 1483.51,1699.55 -0.31,0.45 c 1.09,11.27 1.66,22.88 1.64,34.75 -0.02,2.79 -0.04,5.57 -0.12,8.34 0.12,0.02 0.26,0.04 0.37,0.06 0.06,-2.77 0.1,-5.55 0.12,-8.34 0.02,-12.07 -0.57,-23.83 -1.7,-35.26" /><path
         id="path42"
         style="fill:#231f20;fill-opacity:1;fill-rule:nonzero;stroke:none"
         d="m 1350.78,1514.65 -0.14,-0.02 c 69.28,10.77 122.68,84.3 132.56,185.37 l 0.31,-0.45 c -10.02,-100.78 -63.44,-174.1 -132.73,-184.9" /><path
         id="path44"
         style="fill:#231f20;fill-opacity:1;fill-rule:nonzero;stroke:none"
         d="m 1434.41,1543.32 c -17.11,-8.78 -20.68,-10.62 -38.99,-17.5 -5.39,-1.75 -12.59,-4.02 -18.04,-5.56 35.25,9.49 66.54,29.65 91.27,57.67 -5.26,-11.68 -8.87,-18.34 -27.29,-30.56 -2.28,-1.39 -4.61,-2.74 -6.95,-4.05" /><path
         id="path46"
         style="fill:#fcd213;fill-opacity:1;fill-rule:nonzero;stroke:none"
         d="m 1441.36,1547.37 c 15.16,10.49 21.56,16.68 27.29,30.56 36.23,41.06 58.38,99.03 58.28,165.2 0,2.79 -0.06,5.57 -0.14,8.32 11.45,3.02 20.65,6.32 27.13,9.86 0.1,-2.76 0.16,-5.53 0.16,-8.32 0.13,-88.79 -44.87,-164.65 -112.74,-205.62" /><path
         id="path48"
         style="fill:#231f20;fill-opacity:1;fill-rule:nonzero;stroke:none"
         d="m 1365.68,1612.46 c -16.77,16.82 -16.77,16.82 -57.07,55 -0.09,17.62 -0.15,36.35 -0.19,55.98 0,2.79 0,5.57 0,8.34 21.83,-0.02 43.36,0.43 64.08,1.29 0.04,-2.77 0.06,-5.57 0.06,-8.34 0.06,-42.23 -2.42,-80.35 -6.88,-112.27" /><path
         id="path50"
         style="fill:#fcd213;fill-opacity:1;fill-rule:nonzero;stroke:none"
         d="m 1322.56,1511.9 -1.6,-0.06 c -3.48,-0.1 -5.06,-0.16 -6.51,-0.16 l -2.63,0 c -1.47,0.04 -2.74,62.31 -3.21,155.78 37.7,-35.68 41.64,-39.41 57.07,-55 -8.55,-61.3 -24.33,-99.74 -43.12,-100.56" /><path
         id="path52"
         style="fill:#231f20;fill-opacity:1;fill-rule:nonzero;stroke:none"
         d="m 1334.49,1512.68 c -2.01,-0.16 -4.67,-0.37 -6.68,-0.51 -1.56,-0.08 -3.67,-0.19 -5.25,-0.27 18.77,0.8 34.55,39.18 43.1,100.41 18.19,-19.12 26.23,-28.46 35.02,-42.79 -17.13,-33.83 -40.17,-54.52 -66.19,-56.84" /><path
         id="path54"
         style="fill:#fcd213;fill-opacity:1;fill-rule:nonzero;stroke:none"
         d="m 1400.68,1569.52 c -8.67,13.63 -13.94,20.84 -35.02,42.79 4.46,31.95 6.96,70.12 6.9,112.42 0,2.77 -0.02,5.57 -0.06,8.34 20.76,0.86 40.7,2.15 59.37,3.79 0.04,-2.77 0.08,-5.55 0.08,-8.32 0.1,-64.92 -11.76,-120.51 -31.27,-159.02" /><path
         id="path56"
         style="fill:#231f20;fill-opacity:1;fill-rule:nonzero;stroke:none"
         d="m 1405.76,1538.62 c 3.16,9.98 2.89,15.86 -5,31.05 19.47,38.52 31.29,94.03 31.19,158.87 0,2.77 -0.04,5.55 -0.08,8.32 7.01,0.62 13.83,1.31 20.45,2.03 9.28,-10.92 20.8,-24.51 30.88,-38.89 -7.05,-72.03 -36.19,-130.07 -77.44,-161.38" /><path
         id="path58"
         style="fill:#fcd213;fill-opacity:1;fill-rule:nonzero;stroke:none"
         d="m 1350.64,1514.63 c -1.87,-0.25 -4.37,-0.64 -6.25,-0.88 -5.89,-0.7 -5.89,-0.7 -8.94,-0.99 l -0.96,-0.08 c 26.06,2.32 49.12,23.07 66.27,56.99 6.81,-13.57 9,-19.78 5,-31.05 -16.62,-12.62 -35.21,-20.9 -55.13,-23.99" /><path
         id="path60"
         style="fill:#fcd213;fill-opacity:1;fill-rule:nonzero;stroke:none"
         d="m 1377.38,1520.26 -6.09,-1.54 c -10.12,-2.29 -10.12,-2.29 -15.59,-3.25 l -4.92,-0.82 c 49.16,7.68 90.33,46.8 113.67,104.89 6.46,-17.21 8.49,-25.26 4.16,-41.64 -24.73,-28.01 -56.02,-48.15 -91.23,-57.64" /><path
         id="path62"
         style="fill:#231f20;fill-opacity:1;fill-rule:nonzero;stroke:none"
         d="m 1371.29,1518.72 c -10.12,-2.29 -10.12,-2.29 -15.59,-3.25 l -4.92,-0.82 c 19.81,3.09 38.3,11.29 54.88,23.77 -5.8,-8.61 -9.73,-12.4 -28.28,-18.16 l -6.09,-1.54" /><path
         id="path64"
         style="fill:#231f20;fill-opacity:1;fill-rule:nonzero;stroke:none"
         d="m 1468.61,1577.9 c 3.46,14.41 3.34,22.44 -4.16,41.64 13.3,33.04 20.82,72.24 20.76,115.27 -0.02,2.79 -0.06,5.57 -0.12,8.34 15.92,2.44 29.98,5.23 41.7,8.3 0.08,-2.75 0.14,-5.53 0.14,-8.32 0.1,-66.19 -22.07,-124.16 -58.32,-165.23" /><path
         id="path66"
         style="fill:#fcd213;fill-opacity:1;fill-rule:nonzero;stroke:none"
         d="m 1434.41,1543.32 c 2.26,1.27 4.51,2.56 6.72,3.89 l -2.56,-1.52 -4.16,-2.37" /><path
         id="path68"
         style="fill:#231f20;fill-opacity:1;fill-rule:nonzero;stroke:none"
         d="m 1555.25,1753.65 c 0.14,-90.21 -46.54,-167.2 -116.56,-207.88 l -0.12,-0.08 2.56,1.52 c 67.99,40.96 113.08,116.9 112.95,205.78 0,2.79 -0.06,5.56 -0.16,8.32 0.41,0.21 0.8,0.45 1.17,0.66 0.1,-2.77 0.16,-5.54 0.16,-8.32" /><path
         id="path70"
         style="fill:#fcd213;fill-opacity:1;fill-rule:nonzero;stroke:none"
         d="m 1464.17,1619.55 c -8.9,18.13 -14.94,27.78 -35.31,52.8 2.05,17.71 3.13,36.52 3.09,56.19 0,2.77 -0.04,5.55 -0.08,8.32 19.12,1.7 36.91,3.79 52.85,6.23 0.08,-2.77 0.1,-5.55 0.12,-8.34 0.06,-42.99 -7.42,-82.17 -20.67,-115.2" /><path
         id="path72"
         style="fill:#231f20;fill-opacity:1;fill-rule:nonzero;stroke:none"
         d="m 1428.84,1672.13 c -14.57,16.72 -21.85,25.12 -56.32,60.94 19.49,0.98 34.88,1.74 59.35,3.93 0.04,-2.84 0.08,-5.65 0.08,-8.46 0.04,-19.75 -1.06,-38.61 -3.11,-56.41" /><path
         id="path74"
         style="fill:#231f20;fill-opacity:1;fill-rule:nonzero;stroke:none"
         d="m 1129.76,1744.07 c -0.12,0.02 -0.23,0.04 -0.36,0.06 0.34,14.78 1.61,29.39 3.73,43.7 l 0.28,-0.56 c -2.09,-14.16 -3.33,-28.6 -3.65,-43.2" /><path
         id="path76"
         style="fill:#231f20;fill-opacity:1;fill-rule:nonzero;stroke:none"
         d="m 1133.41,1787.27 -0.28,0.56 c 15.42,103.65 75.93,191.72 151.65,218.71 l -0.32,-0.13 c -75.53,-27.23 -135.82,-115.43 -151.05,-219.14" /><path
         id="path78"
         style="fill:#231f20;fill-opacity:1;fill-rule:nonzero;stroke:none"
         d="m 1284.46,2006.41 0.32,0.13 c 8.76,3.13 17.72,5.45 26.84,6.86 l 0,0 c -9.23,-1.45 -18.3,-3.79 -27.16,-6.99" /><path
         id="path80"
         style="fill:#fcd213;fill-opacity:1;fill-rule:nonzero;stroke:none"
         d="m 1160.52,1932.4 c 8.79,19.73 15.24,29.57 33.92,45.57 34.78,20.88 74.71,33.61 117.18,35.43 -58.48,-5.29 -111.62,-35.67 -151.1,-81" /><path
         id="path82"
         style="fill:#231f20;fill-opacity:1;fill-rule:nonzero;stroke:none"
         d="m 1090.93,1752.54 c -10.23,2.99 -18.15,6.19 -23.46,9.53 2.79,90.98 53.35,171.68 126.97,215.9 -17.41,-15.47 -25.15,-24.67 -33.92,-45.57 -41.33,-47.44 -67.7,-111.27 -69.59,-179.86" /><path
         id="path84"
         style="fill:#fcd213;fill-opacity:1;fill-rule:nonzero;stroke:none"
         d="m 1308.42,1731.78 c -21.22,0.02 -42.74,0.47 -64.14,1.41 -0.64,0.02 -1.28,0.06 -1.93,0.08 0.34,44.89 3.97,88.66 10.07,127.84 18.23,-22.89 27.8,-34 56.04,-63.47 -0.06,-21.41 -0.08,-43.5 -0.04,-65.86" /><path
         id="path86"
         style="fill:#fcd213;fill-opacity:1;fill-rule:nonzero;stroke:none"
         d="m 1252.44,1861.29 c -17.08,23.77 -24.4,36.11 -31.46,58.07 23.45,49.47 55.4,84.59 90.64,94.04 -25.09,-14.14 -47.02,-74.01 -59.18,-152.11" /><path
         id="path88"
         style="fill:#231f20;fill-opacity:1;fill-rule:nonzero;stroke:none"
         d="m 1242.35,1733.27 c -21.96,0.99 -42.42,2.42 -61.1,4.19 1.05,67.5 16.07,131.99 39.72,181.9 7.22,-21.08 13.06,-33.01 31.47,-58.07 -6.1,-39.22 -9.75,-83.07 -10.09,-128.02" /><path
         id="path90"
         style="fill:#fcd213;fill-opacity:1;fill-rule:nonzero;stroke:none"
         d="m 1181.25,1737.46 c -7.01,0.69 -13.76,1.41 -20.26,2.19 -8.43,12.91 -18.91,28.96 -27.58,47.62 10.78,73.37 44.12,139.02 89.46,180.76 -6.04,-16.66 -7.25,-26.57 -1.98,-48.87 -23.61,-49.88 -38.59,-114.3 -39.64,-181.7" /><path
         id="path92"
         style="fill:#231f20;fill-opacity:1;fill-rule:nonzero;stroke:none"
         d="m 1220.89,1919.16 c -4.54,20.53 -4.92,31 1.98,48.87 26.25,24.18 56.52,40.33 88.75,45.37 -35.29,-9.45 -67.27,-44.67 -90.73,-94.24" /><path
         id="path94"
         style="fill:#231f20;fill-opacity:1;fill-rule:nonzero;stroke:none"
         d="m 1156.95,1872.4 c -3.68,24.44 -3.69,37.17 3.61,60.04 39.48,45.31 92.6,75.67 151.06,80.96 l 0,0 c -13.93,-2.33 -16.44,-2.76 -26.84,-6.86 -53.92,-19.22 -100.13,-69.41 -127.83,-134.14" /><path
         id="path96"
         style="fill:#fcd213;fill-opacity:1;fill-rule:nonzero;stroke:none"
         d="m 1223.03,1968.36 c 8.48,14.69 14.05,21.78 35.31,32.95 17.07,6.29 34.92,10.43 53.28,12.09 -32.16,-5 -62.36,-21.04 -88.59,-45.04" /><path
         id="path98"
         style="fill:#fcd213;fill-opacity:1;fill-rule:nonzero;stroke:none"
         d="m 1129.4,1744.13 c -15.07,2.53 -27.99,5.37 -38.47,8.41 1.89,68.61 28.27,132.46 69.63,179.9 -6.43,-21.25 -7.94,-33.51 -3.61,-60.04 -16.57,-38.73 -26.53,-82.65 -27.55,-128.27" /><path
         id="path100"
         style="fill:#231f20;fill-opacity:1;fill-rule:nonzero;stroke:none"
         d="m 1194.68,1978.11 c 18.45,13.3 28.83,19.59 57.58,28.37 19.03,4.54 38.92,6.92 59.36,6.92 l 0,0 c -42.37,-1.82 -82.22,-14.49 -116.94,-35.29" /><path
         id="path102"
         style="fill:#fcd213;fill-opacity:1;fill-rule:nonzero;stroke:none"
         d="m 1067.47,1762.07 c -5.28,3.3 -8,6.76 -7.89,10.25 l 0.43,8.75 c 7.26,109.93 86.81,200.34 192.25,225.41 -23.8,-7.55 -37.05,-13.16 -57.58,-28.37 -73.76,-44.18 -124.42,-124.97 -127.21,-216.06" /><path
         id="path104"
         style="fill:#231f20;fill-opacity:1;fill-rule:nonzero;stroke:none"
         d="m 1181.25,1737.46 c -19.13,1.86 -36.38,4.09 -51.49,6.61 1.02,45.58 10.93,89.48 27.46,128.2 6.38,-25.41 11.53,-38.97 29.48,-69.11 -3.22,-21.28 -5.1,-43.32 -5.45,-65.7" /><path
         id="path106"
         style="fill:#fcd213;fill-opacity:1;fill-rule:nonzero;stroke:none"
         d="m 1181.25,1737.37 c 0.34,22.45 2.24,44.62 5.49,66.01 15.43,-22.97 24.92,-36.52 55.61,-70.11 -21.04,1.05 -36.24,1.83 -61.1,4.1" /><path
         id="path108"
         style="fill:#231f20;fill-opacity:1;fill-rule:nonzero;stroke:none"
         d="m 1258.34,2001.31 c 14.03,5.66 26.14,10.57 53.28,12.09 l 0,0 c -18.36,-1.66 -36.21,-5.8 -53.28,-12.09" /><path
         id="path110"
         style="fill:none;stroke:#231f20;stroke-width:8;stroke-linecap:round;stroke-linejoin:round;stroke-miterlimit:4;stroke-dasharray:none;stroke-opacity:1"
         d="m 1564.57,1764.63 c -0.26,-13.56 -0.61,-34.02 -7.86,-63.12 -6.54,-26.29 -17.96,-49.42 -21.81,-56.12 -13.03,-22.63 -37.25,-64.76 -96.21,-99.62" /><path
         id="path112"
         style="fill:#231f20;fill-opacity:1;fill-rule:nonzero;stroke:none"
         d="m 1555.58,1762.21 c 6.43,3.75 9.43,7.52 9.32,11.21 3.45,-105.13 -55.76,-186.68 -125.78,-227.38 l -0.26,-0.14 2.64,1.58 c 67.99,40.92 113.07,116.86 112.93,205.74 0,2.8 -0.06,5.57 -0.16,8.32 0.43,0.24 0.86,0.47 1.25,0.73 0.12,-2.78 0.16,-5.55 0.16,-8.34" /><path
         id="path114"
         style="fill:none;stroke:#231f20;stroke-width:8;stroke-linecap:round;stroke-linejoin:round;stroke-miterlimit:4;stroke-dasharray:none;stroke-opacity:1"
         d="m 1555.58,1762.21 c 6.43,3.75 9.43,7.52 9.32,11.21 3.45,-105.13 -55.76,-186.68 -125.78,-227.38 l -0.26,-0.14 2.64,1.58 c 67.99,40.92 113.07,116.86 112.93,205.74 0,2.8 -0.06,5.57 -0.16,8.32 0.43,0.24 0.86,0.47 1.25,0.73 0.12,-2.78 0.16,-5.55 0.16,-8.34" /><path
         id="path116"
         style="fill:#e22739;fill-opacity:1;fill-rule:nonzero;stroke:none"
         d="m 1431.25,1924.36 0,0 c 0.07,0 0.13,0.02 0.21,0.03 l -0.02,0 c 0,0 0.06,0 0.14,0.02 2.44,0.39 4.72,0.79 6.93,1.2 14.4,2.65 45.76,9.51 45.76,19.02 0,0 13.97,-12.75 23.32,-30.18 1.16,-1.89 2.09,-3.86 2.82,-5.86 0.84,-1.99 1.4,-3.84 1.69,-5.5 0.08,-0.1 0.16,-0.22 0.22,-0.32 0.04,-0.8 0.04,-1.52 0.02,-2.16 0,-0.28 -0.02,-0.55 -0.06,-0.81 -0.55,-5.41 -3.87,-5.52 -7.46,-3.92 -0.39,0.16 -0.74,0.27 -1.17,0.47 -12.91,5.82 -17.13,17.67 -19.65,22.56 -6.56,-2.07 -17.42,-6.8 -26.47,-8.54 -1.03,-0.21 -2.96,-0.66 -4.04,-0.88 10.65,-17.52 20.78,-38.44 28.07,-58.69 12.65,13.01 32.48,-11.13 33.44,-34.45 0.56,-13.69 -5.61,-25.9 -18.11,-21.51 10.02,-18.55 6.8,-45.75 -12.21,-51.71 -3.16,61.01 -13.49,115.15 -53.69,181.11 l 0,0" /><path
         id="path118"
         style="fill:#e22739;fill-opacity:1;fill-rule:evenodd;stroke:none"
         d="m 1433.53,1971.13 c -0.06,0.04 -0.12,0.08 -0.18,0.12 0.04,0 0.1,0 0.16,0 -0.08,0.18 -0.12,0.37 -0.16,0.55 0.18,0.23 0.43,0.56 0.61,0.8 0.31,0.04 0.57,0.06 0.82,0.1 l -0.06,0.05 c 0,0 1.84,7.68 30.72,-12.28 -49.1,38.34 -98.9,49.22 -128.39,52.11 3.13,-0.92 5.49,-1.84 7.25,-2.72 1.54,-0.76 2.65,-1.48 3.43,-2.16 0.06,0.01 0.12,0.03 0.12,0.03 3.58,-0.41 6.82,-1.03 9.73,-1.73 l 0,0 c 1.03,-0.37 2.09,-0.77 3.16,-1.16 0.14,-0.05 0.26,-0.09 0.39,-0.15 0.92,-0.35 1.86,-0.71 2.78,-1.1 0.23,-0.07 0.47,-0.17 0.7,-0.27 0.84,-0.35 1.7,-0.72 2.58,-1.09 0.27,-0.12 0.52,-0.24 0.8,-0.35 1.09,-0.49 2.21,-0.98 3.3,-1.51 l 0,-0.06 c 8.87,-4.33 16.05,-9.2 16.09,-12.93 -1.31,-0.8 -1.72,-1.05 -5.62,0 14.86,-10.6 36.18,-30.58 48.8,-45.29 8.65,1.64 21.56,3.5 27.52,5.51 -0.43,-0.45 -21.95,15.74 -24.55,23.53" /><path
         id="path120"
         style="fill:#ffffff;fill-opacity:1;fill-rule:evenodd;stroke:none"
         d="m 1484.14,1944.45 c -6.2,5.82 -12.45,11.16 -18.7,16.02 -11.69,8.08 -18.94,11.64 -23.45,12.99 l 0.06,0.06 c 0,0 -14.4,4.64 -6.25,-6.39 l 0.02,0.04 c 6.26,-8.28 21.89,-19.96 22.26,-19.57 -5.96,-2.01 -18.87,-3.87 -27.52,-5.51 -12.62,14.71 -33.94,34.69 -48.8,45.29 3.9,-1.05 4.31,-0.8 5.62,0 -0.04,3.73 -7.22,8.6 -16.09,12.93 l 0,0.06 c -1.09,0.53 -2.21,1.02 -3.3,1.51 -0.28,0.11 -0.53,0.23 -0.8,0.35 -0.88,0.37 -1.74,0.74 -2.58,1.09 -0.23,0.1 -0.47,0.2 -0.7,0.27 -0.92,0.39 -1.86,0.75 -2.78,1.1 -0.13,0.06 -0.25,0.1 -0.39,0.15 -1.07,0.39 -2.13,0.79 -3.16,1.16 l 0,0 c -2.91,0.7 -6.15,1.32 -9.73,1.73 0,0 -0.06,-0.02 -0.12,-0.03 0.2,-0.18 0.34,-0.34 0.51,-0.51 l -0.95,0.47 c 0.17,0.02 0.33,0.04 0.44,0.04 -0.78,0.68 -1.89,1.4 -3.43,2.16 -1.76,0.88 -4.12,1.8 -7.25,2.72 -7.17,0.7 -13.14,0.92 -17.62,0.96 -3.36,0.13 -6.09,0.15 -6.66,-0.04 -0.06,-0.02 -0.06,-0.04 -0.06,-0.08 -1.05,-0.04 -1.64,-0.08 -1.64,-0.08 l 1.14,-0.35 c -0.65,0.1 -1.31,0.21 -1.92,0.29 1.59,-0.25 3.15,-0.55 4.71,-0.86 3.91,-1.31 12.07,-3.47 18.22,-5.08 37.78,-13.3 71.78,-43.04 98.03,-82.98 0.41,0.05 0.8,0.11 1.19,0.17 23.38,3.95 36.32,8.26 45.6,12.54 0.02,0.02 0.04,0.04 0.08,0.04 6.66,3.69 5.94,7.32 5.94,7.32 l 0.08,0.02" /><path
         id="path122"
         style="fill:#e22739;fill-opacity:1;fill-rule:evenodd;stroke:none"
         d="m 1430.99,1924.24 0,0 c -40.99,60.41 -78.67,78.46 -112.96,87.32 0.9,-0.25 1.77,-0.54 2.67,-0.82 -1.6,0.43 -3.24,0.86 -4.66,1.23 -0.41,0.14 -0.81,0.26 -1.14,0.37 1.04,-0.25 2.09,-0.5 3.13,-0.78 -1.19,0.33 -2.4,0.67 -3.65,0.96 -0.42,0.14 -0.75,0.25 -0.98,0.35 0.08,-0.06 0.19,-0.12 0.33,-0.19 -0.78,0.17 -1.58,0.35 -2.4,0.5 l 0,0 c 7.34,-8.1 17.6,-11.52 20.1,-12.26 -0.71,-3.05 -0.2,-9.12 10.41,-16.78 1.64,-1.19 3.22,-2.13 4.76,-2.89 16.35,-8.54 19.94,-1.89 20.72,0.78 0.08,0.08 0.18,0.14 0.28,0.22 4.98,-3.7 14.69,-11.51 25.42,-23.66 6.17,-7.42 12.01,-13.88 16.41,-20.37 -10.1,-1.29 -23.47,-2.46 -36.73,-3.42 -0.75,16.04 -12.33,24.05 -19.59,26.74 -15.94,5.92 -21.18,-12.83 -14.28,-25.99 -12.6,6.81 -27.52,0.74 -29.61,-19.18 49.78,0.29 83.92,2.5 121.77,7.87 l 0,0" /><path
         id="path124"
         style="fill:#231f20;fill-opacity:1;fill-rule:nonzero;stroke:none"
         d="m 1308.46,1797.64 c -24.72,25.93 -37.98,40.49 -56.04,63.47 12.15,78.19 34.09,138.13 59.2,152.29 l 0,0 c -1.62,-18.4 -2.87,-108.4 -3.16,-215.76" /><path
         id="path126"
         style="fill:#231f20;fill-opacity:1;fill-rule:nonzero;stroke:none"
         d="m 1009,1950.1 1.44,-0.71 c -2.45,-5.13 -1.3,-7.96 3.55,-10.37 l 20.49,-10.15 c 9.41,-4.67 16.53,-15.67 8.36,-32.13 -7.19,-14.49 -19.14,-17.83 -30,-12.44 l -22.152,10.97 c -4.852,2.41 -6.293,1.43 -8.926,-3.71 l -1.442,0.73 9.676,19.51 1.442,-0.73 -0.34,-0.68 c -2.071,-4.18 -1.836,-6.56 2.562,-8.75 l 21.1,-10.45 c 10.24,-5.1 19.36,-2.15 24.97,9.16 4.25,8.58 5.01,19.06 -7.89,25.47 l -17.67,8.77 c -7.29,3.61 -9.15,3.11 -12.57,-3.03 l -1.44,0.71 8.84,17.83" /><path
         id="path128"
         style="fill:#231f20;fill-opacity:1;fill-rule:nonzero;stroke:none"
         d="m 1096.67,1975.21 -63.37,-3.96 27.79,-23.42 c 4.66,-3.92 6.51,-3.71 11.14,1.8 l 1.24,-1.04 -12.66,-15.02 -1.23,1.04 0.21,0.25 c 3.38,4.03 3.12,6.45 0.14,8.97 l -31.87,26.85 c -2.29,-0.62 -4.22,-1.87 -6.2,-4.08 l -1.23,1.04 8.56,10.17 57.51,3.71 -25.78,21.72 c -3.95,3.32 -5.64,2.76 -10.13,-2.3 l -1.24,1.03 12.77,15.16 1.23,-1.04 c -4.09,-4.86 -4.12,-6.62 -1.59,-8.73 l 36.14,-30.47 -1.43,-1.68" /><path
         id="path130"
         style="fill:#231f20;fill-opacity:1;fill-rule:nonzero;stroke:none"
         d="m 1127.5,2002.48 -15.83,-13.14 -1.03,1.23 c 3.88,3.55 3.86,5.29 0.24,9.66 l -23.05,27.76 c -2.92,3.51 -4.97,3.47 -8.78,0.64 l -1.03,1.23 15.83,13.15 1.03,-1.23 c -4.1,-3.42 -4.78,-5.51 -1.15,-9.89 l 22.93,-27.63 c 3.19,-3.85 5.32,-4.28 9.81,-0.55 l 1.03,-1.23" /><path
         id="path132"
         style="fill:#231f20;fill-opacity:1;fill-rule:nonzero;stroke:none"
         d="m 1158.7,2021.89 -39.03,30.24 c -4.52,3.53 -6.04,4.12 -10.5,1.5 l -0.82,1.39 20.1,11.78 0.81,-1.39 c -6.63,-4.08 -7.34,-6.56 -3.99,-9.12 l 32.34,-25.02 -6.14,36.95 c -0.39,2.5 -0.81,4.22 -1.41,5.26 -1.29,2.18 -3.62,1.99 -8.6,-0.92 l -0.81,1.39 16.96,9.94 0.81,-1.39 c -3.8,-2.23 -4.75,-5.14 -3.84,-10.7 l 7.77,-47.78 -3.65,-2.13" /><path
         id="path134"
         style="fill:#231f20;fill-opacity:1;fill-rule:nonzero;stroke:none"
         d="m 1220.9,2071.56 -1.52,-0.52 c -2.6,5.46 -4.34,5.58 -7.62,4.45 l -13.53,-4.67 5.89,-17.05 c 1.26,-3.69 2.87,-3.95 5.84,-2.91 l 12.33,4.24 c 5.6,1.93 6.54,4.69 6.16,12.24 l 1.44,0.51 2.84,-12.36 -42.52,-14.67 -0.53,1.52 2.24,0.77 c 6.41,2.22 6.93,4.35 5.27,9.16 l -11.65,33.78 c -1.55,4.5 -3.25,6.06 -8.62,4.2 l -1.76,-0.6 -0.53,1.52 38.44,13.24 4.47,-10.89 -1.44,-0.49 c -3.38,6.44 -5.88,7.18 -8.76,6.19 l -16.9,-5.82 6.79,-19.69 14.34,4.94 c 2.88,0.98 3.77,2.81 2.57,7.6 l 1.52,0.53 5.24,-15.22" /><path
         id="path136"
         style="fill:#231f20;fill-opacity:1;fill-rule:nonzero;stroke:none"
         d="m 1256.5,2083.32 c 1.36,0.08 2.46,0.12 4.32,0.33 2.27,0.28 3.6,0.53 5.69,0.86 2.18,-1.11 5.41,-3.2 9.56,-6.46 l 6.21,-4.89 c 8.38,-6.6 12.54,-9.33 27.17,-6.91 l -0.17,1.5 c -6.53,-0.35 -12.03,2.15 -17.59,6.53 l -7.43,5.86 c -4.42,3.47 -7.22,5.54 -10.63,7.59 6.66,2.86 10.32,8.66 9.57,14.97 -1.02,8.57 -8.76,14.14 -24.32,12.28 -5.47,-0.64 -7.14,-0.94 -10.57,-1.5 -3.43,-0.59 -8.52,-1.53 -10.54,-1.78 l 0.2,-1.58 1.85,0.21 c 4.88,0.59 6.48,-0.76 7.1,-5.97 l 4.22,-35.41 c 0.67,-5.65 -0.94,-7.19 -5.9,-7.78 l -1.43,-0.17 0.19,-1.61 23.8,2.84 -0.19,1.6 -1.93,-0.24 c -4.71,-0.56 -6.89,0.47 -7.49,5.51 l -1.69,14.22 z m -3.47,29.18 c 1.5,0.35 2.6,0.47 4.19,0.66 12.96,1.55 17.2,-4.1 18.13,-11.91 1.2,-10.1 -4.47,-14.77 -13.8,-15.88 -1.93,-0.23 -3.19,-0.47 -5.23,-0.45 l -3.29,27.58" /><path
         id="path138"
         style="fill:#231f20;fill-opacity:1;fill-rule:nonzero;stroke:none"
         d="m 1321.58,2078.46 c 1.19,-7.66 6.76,-12.5 13.34,-13.03 5.67,-0.43 11.92,2.38 12.44,9.06 0.96,12.15 -25.86,17.99 -24.7,32.78 0.54,6.99 7.36,11.73 15.97,11.05 7.09,-0.55 8.36,-2.77 11.33,-3.01 0.67,-0.06 1.02,0.1 1.58,0.73 l 1.35,-0.1 0.59,-10.84 -1.43,0.11 c -1.89,6.27 -6.99,10.57 -12.81,11.04 -5.59,0.43 -9.71,-2.48 -10.08,-7.21 -0.94,-11.99 25.92,-17.32 24.71,-32.85 -0.65,-8.28 -8.48,-13.87 -18.36,-13.08 -4.65,0.35 -10.37,3.1 -11.56,3.18 -0.77,0.06 -1.39,-0.31 -1.76,-0.8 l -1.43,0.12 -0.78,12.96 1.6,-0.11" /><path
         id="path140"
         style="fill:#231f20;fill-opacity:1;fill-rule:nonzero;stroke:none"
         d="m 1386.7,2056.25 -20.1,4.38 0.33,1.56 c 5.2,-0.86 6.57,0.21 7.76,5.76 l 7.69,35.25 c 0.98,4.48 -0.33,6.06 -4.9,7.33 l 0.33,1.56 20.1,-4.38 -0.34,-1.58 c -5.21,1.14 -7.28,0.39 -8.49,-5.15 l -7.63,-35.1 c -1.08,-4.88 -0.1,-6.82 5.6,-8.07 l -0.35,-1.56" /><path
         id="path142"
         style="fill:#231f20;fill-opacity:1;fill-rule:nonzero;stroke:none"
         d="m 1429.39,2050.16 c -1.68,-4.24 -0.86,-6.31 3.94,-8.21 l 2.92,-1.15 -0.59,-1.5 -24.81,9.84 0.61,1.49 2.91,-1.16 c 4.8,-1.89 6.8,-0.97 8.5,3.28 l 15.41,38.91 -13.7,5.43 c -3.16,1.25 -5.27,0 -9.21,-6.46 l -1.41,0.56 6.31,12.25 1.5,-0.59 c -0.11,-0.51 0.08,-0.96 0.49,-1.29 0.41,-0.35 0.94,-0.64 1.47,-0.86 l 37.87,-15.02 c 1.11,-0.45 2.38,-0.66 2.93,0.22 l 1.48,-0.59 -3.79,-13.26 -1.42,0.57 c 1.56,7.38 0.87,9.76 -2.29,11.01 l -13.69,5.43 -15.43,-38.9" /><path
         id="path144"
         style="fill:#231f20;fill-opacity:1;fill-rule:nonzero;stroke:none"
         d="m 1515.62,2044.65 c 4.84,2.36 4.32,4.45 -0.2,7.46 l 0.9,1.35 15.92,-10.65 -0.9,-1.33 c -5.04,2.86 -8.34,2.31 -12.54,0.32 l -24.9,-11.98 -7.05,-10.56 c -2.5,-3.73 -2.15,-6.12 2.15,-8.99 l 0.92,-0.6 -0.9,-1.33 -19.38,12.93 0.9,1.35 1.35,-0.9 c 4.36,-2.91 6.72,-2.15 9.02,1.31 l 6.62,9.92 0.55,27.95 c 0.18,7.73 -0.78,9.8 -5.27,13.01 l 0.9,1.32 18.73,-12.52 -0.88,-1.32 c -5.51,3.67 -6.74,2.56 -6.8,-2.09 l -0.35,-24.92 21.21,10.27" /><path
         id="path146"
         style="fill:#231f20;fill-opacity:1;fill-rule:nonzero;stroke:none"
         d="m 1592.63,1939.14 c 12.13,9.26 12.5,26.8 2.79,39.51 -10.93,14.36 -28.28,17.4 -41.69,7.19 -12.6,-9.61 -12.6,-27.19 -2.54,-40.39 9.98,-13.07 27.85,-16.68 41.44,-6.31 z m -7.05,4.65 c -9.55,-7.29 -23.26,-9.43 -31.62,1.54 -8.26,10.84 -5.9,26.17 6.68,35.78 8.09,6.16 22.73,9.87 31.76,-1.99 8.47,-11.11 5.72,-25.78 -6.82,-35.33" /><path
         id="path148"
         style="fill:#231f20;fill-opacity:1;fill-rule:nonzero;stroke:none"
         d="m 1610.41,1886.21 -0.63,1.31 c 4.38,2.27 4.98,4.53 3.22,8.2 l -6.74,14.14 -16.75,-7.98 c -4.26,-2.06 -5.43,-3.74 -2.7,-9.48 l -1.46,-0.68 -8.87,18.57 1.46,0.69 c 2.56,-4.59 3.97,-4.96 10.16,-2 l 29.96,14.3 c 4.88,2.33 6.92,3.77 4.45,9.16 l 1.45,0.69 16.35,-34.24 -9.03,-4.3 -0.62,1.29 c 4.39,2.21 5.51,4.61 3.24,9.33 l -6.93,14.54 -17.95,-8.58 7.21,-15.13 c 1.36,-2.84 3.61,-3.44 7.01,-2.09 l 0.62,-1.31 -13.45,-6.43" /><path
         id="path150"
         style="fill:#231f20;fill-opacity:1;fill-rule:nonzero;stroke:none"
         d="m 1017.54,1554.73 30.48,56.21 -0.12,0.18 -41.14,-26.23 c -4.66,-2.97 -3.21,-6.99 -0.52,-11.08 l -1.66,-1.21 -13.225,18.22 1.668,1.22 c 4.637,-6.39 6.61,-6.18 14.897,-0.82 l 35.6,22.61 c 6.04,3.85 7.49,5.16 3.9,10.84 l 1.57,1.15 9.6,-13.22 -28.83,-53.14 59.4,11.01 9.34,-12.89 -1.57,-1.13 c -3.47,4.02 -4.77,5.64 -7.62,3.3 l -37.64,-31.6 c -7.68,-6.37 -7.17,-7.07 -2.53,-13.46 l -1.67,-1.21 -16.33,22.52 1.66,1.21 c 2.99,-4.12 7.05,-7.32 11.44,-3.61 l 37.4,31.01 -0.13,0.18 -62.51,-12.07 -1.46,2.01" /><path
         id="path152"
         style="fill:#231f20;fill-opacity:1;fill-rule:nonzero;stroke:none"
         d="m 1123.41,1491.25 -5.82,-20.15 c -0.3,-1.13 -0.65,-2.89 -1.68,-4.28 -1.79,-2.44 -4.01,-1.62 -8.98,2.03 l -2.26,1.66 -1.22,-1.64 23.98,-17.64 1.21,1.67 c -4.35,3.2 -5.54,5.41 -3.89,11.32 l 17.36,61.78 -7.58,5.57 -0.62,-2.48 -47.74,-31.66 c -8.37,-5.55 -10.03,-5.78 -15.76,-1.72 l -1.22,-1.64 20.14,-14.83 1.22,1.66 -1.39,1.04 c -4.8,3.51 -6.43,6.05 -4.7,8.42 0.9,1.21 3.95,2.98 5.78,4.2 l 15.13,9.98 18.04,-13.29 z m 1.34,4.93 -15.08,11.09 22.35,14.86 -7.27,-25.95" /><path
         id="path154"
         style="fill:#231f20;fill-opacity:1;fill-rule:nonzero;stroke:none"
         d="m 1180.29,1457.39 c 1.59,-0.67 2.88,-1.25 5.13,-2.03 2.75,-1 4.42,-1.47 7.01,-2.27 1.87,-2.5 4.38,-6.72 7.28,-12.81 l 4.34,-9.12 c 5.86,-12.29 9.08,-17.8 27.21,-23.3 l 0.65,1.83 c -7.67,3.3 -12.55,9.28 -16.43,17.42 l -5.21,10.92 c -3.08,6.51 -5.13,10.43 -7.86,14.73 9.24,-0.51 16.72,4.06 19.43,11.72 3.69,10.39 -2.03,21.15 -20.89,27.85 -6.63,2.34 -8.71,2.97 -12.96,4.26 -4.25,1.27 -10.62,3.06 -13.07,3.94 l -0.69,-1.95 2.24,-0.8 c 5.92,-2.09 7,-4.53 4.76,-10.86 L 1166,1443.97 c -2.43,-6.82 -5.15,-7.7 -11.16,-5.57 l -1.73,0.63 -0.69,-1.94 28.86,-10.25 0.68,1.95 -2.34,0.82 c -5.71,2.04 -7.62,4.44 -5.45,10.55 l 6.12,17.23 z m 12.55,35.39 c 1.91,-0.45 3.24,-0.92 5.18,-1.6 15.7,-5.57 17.38,-14.44 14.02,-23.91 -4.34,-12.25 -13.49,-14.39 -24.81,-10.39 -2.35,0.84 -3.91,1.29 -6.25,2.46 l 11.86,33.44" /><path
         id="path156"
         style="fill:#231f20;fill-opacity:1;fill-rule:nonzero;stroke:none"
         d="m 1303.07,1459.67 c 3.94,5.65 2.05,7.66 -4.84,8.24 l 0.16,2.06 24.38,-2.09 -0.19,-2.06 c -7.37,0.1 -10.74,-2.55 -14.2,-7.36 l -20.47,-28.77 -1.38,-16.17 c -0.49,-5.72 1.37,-8.16 7.95,-8.71 l 1.39,-0.12 -0.16,-2.05 -29.66,2.52 0.18,2.05 2.04,-0.17 c 6.69,-0.57 8.84,1.73 9.29,7.03 l 1.3,15.19 -16.64,31.62 c -4.58,8.75 -6.93,10.47 -13.92,11.29 l 0.17,2.03 28.69,-2.44 -0.18,-2.05 c -8.41,0.72 -9.12,-1.29 -6.31,-6.52 l 14.98,-28.09 17.42,24.57" /><path
         id="path158"
         style="fill:#231f20;fill-opacity:1;fill-rule:nonzero;stroke:none"
         d="m 1393,1411.06 -47.69,-8.07 -0.35,2.03 3.52,0.59 c 4.92,0.84 6.46,2.75 5.54,8.18 l -7.98,47.29 c -0.96,5.64 -3.07,7.71 -9.79,6.56 l -1.48,-0.23 -0.36,2.01 31.49,5.33 0.33,-2.03 -3.94,-0.66 c -6.92,-1.18 -8.62,-2.23 -7.5,-8.85 l 8.32,-49.2 c 0.46,-2.87 1.83,-3.75 4.92,-3.22 l 15.68,2.65 c 6.29,1.06 7.79,3.83 12.96,14.26 l 1.92,0.31 -5.59,-16.95" /><path
         id="path160"
         style="fill:#231f20;fill-opacity:1;fill-rule:nonzero;stroke:none"
         d="m 1448.2,1461.43 14.28,-15.37 c 0.82,-0.84 2.12,-2.03 2.81,-3.63 1.17,-2.8 -0.69,-4.28 -6.39,-6.66 l -2.58,-1.08 0.78,-1.89 27.47,11.46 -0.79,1.9 c -5,-2.07 -7.52,-1.96 -11.73,2.5 l -44.01,46.7 -8.69,-3.64 1.82,-1.81 2.56,-57.23 c 0.43,-10.02 -0.22,-11.58 -6.65,-14.37 l 0.79,-1.92 23.06,9.65 -0.78,1.89 -1.6,-0.66 c -5.51,-2.3 -8.52,-2.38 -9.65,0.31 -0.57,1.39 -0.53,4.94 -0.62,7.13 l -0.75,18.09 20.67,8.63 z m -3.54,3.69 -17.28,-7.21 -1.23,26.8 18.51,-19.59" /><path
         id="path162"
         style="fill:#231f20;fill-opacity:1;fill-rule:nonzero;stroke:none"
         d="m 1565.25,1503.38 -80.57,9.52 29.57,-35.79 c 4.96,-6.01 7.35,-6.15 14.42,-0.29 l 1.33,-1.6 -19.36,-15.98 -1.31,1.58 0.33,0.28 c 5.18,4.28 5.37,7.4 2.23,11.23 l -33.93,41.05 c -3.02,-0.25 -5.74,-1.36 -8.73,-3.71 l -1.31,1.58 13.11,10.82 73.13,-8.49 -27.45,33.22 c -4.2,5.08 -6.44,4.77 -13.26,-0.58 l -1.31,1.58 19.52,16.13 1.3,-1.58 c -6.25,-5.18 -6.7,-7.37 -4,-10.63 l 38.46,-46.54 -2.17,-1.8" /><path
         id="path164"
         style="fill:#231f20;fill-opacity:1;fill-rule:nonzero;stroke:none"
         d="m 1591.46,1548.83 c 5.25,-3.4 5.18,-6.56 1.99,-11.46 l -0.99,-1.55 1.71,-1.11 18.81,29.08 c 14.85,22.99 5.28,44.26 -8.45,53.13 -14.98,9.69 -34.05,6.93 -49.55,-17.05 -3.07,-4.73 -6.55,-10.33 -9.59,-15.45 -3.05,-5.12 -5.77,-9.69 -7.74,-13.17 l 1.72,-1.13 1.17,1.84 c 3.48,5.35 5.94,5.95 11.84,2.15 l 39.08,-25.28 z m -42.03,37.85 c 0.62,1.16 1.93,3.79 4.33,7.52 8.23,12.72 15.59,17.11 22.47,18.6 8.82,1.89 17.52,-1.02 24.23,-5.35 9.38,-6.06 13.66,-14.77 14.77,-20.24 1.97,-9.28 0.43,-15.49 -7.46,-27.65 -4.63,-7.19 -6.08,-6.65 -9.81,-4.24 l -48.53,31.36" /><path
         id="path166"
         style="fill:#231f20;fill-opacity:1;fill-rule:nonzero;stroke:none"
         d="m 965.098,1784.77 0,-46.37 c 0,-2.4 0.484,-3.04 2.961,-3.04 l 4.48,0 0,-1.47 -20.094,0 0,1.47 4.317,0 c 2.562,0 3.047,0.74 3.047,3.12 l 0,39.9 c -2.563,-2.25 -7.039,-5.22 -10.004,-6.56 l -0.633,1.11 c 4.637,3.12 11.262,9.12 13.164,11.84 l 2.762,0" /><path
         id="path168"
         style="fill:#231f20;fill-opacity:1;fill-rule:nonzero;stroke:none"
         d="m 1010.04,1773.32 c 0,-4.55 -2.23,-8.22 -6.69,-11.02 -10.346,4.4 -12.737,7.58 -12.737,11.98 0,5.04 4.305,9.04 9.797,9.04 5.57,0 9.63,-4.24 9.63,-10 z m 4.83,-0.08 c 0,6.39 -6.44,11.51 -14.44,11.51 -7.903,0 -14.516,-5.9 -14.516,-12.93 0,-5.43 3.426,-9.52 10.91,-12.87 -7.84,-3.11 -11.644,-7.5 -11.644,-13.11 0,-7.26 6.84,-13.1 15.51,-13.1 8.91,0 15.79,6.39 15.79,14.71 0,6.14 -3.6,10.38 -12.02,14.13 7.03,2.81 10.41,6.56 10.41,11.66 z m -3.51,-28.04 c 0,-6.23 -4.57,-11.02 -10.59,-11.02 -6.102,0 -10.594,5.04 -10.594,11.82 0,5.19 2.73,9.2 8.187,12.16 9.317,-4.25 12.997,-7.59 12.997,-12.96" /><path
         id="path170"
         style="fill:#231f20;fill-opacity:1;fill-rule:nonzero;stroke:none"
         d="m 1606.58,1779.02 18.92,0 c 1.45,0 1.92,0.34 2.33,1.04 l 1.52,0 -0.88,-6.17 -20.21,0 -0.65,-14.32 c 2.48,1.33 5.37,1.97 8.64,1.97 8.94,0 16.36,-7.48 16.36,-16.48 0,-9.68 -8.06,-17.05 -18.77,-17.05 -6.38,0 -11.66,2.25 -11.66,5.04 0,1.37 1.21,2.48 2.64,2.48 4.32,0 5.82,-5.6 10.86,-5.6 5.92,0 10.96,6.17 10.96,13.45 0,7.39 -5.04,12.85 -11.92,12.85 -2.95,0 -6.07,-1.15 -8.46,-3.2 l -0.8,0.56 1.12,25.43" /><path
         id="path172"
         style="fill:#231f20;fill-opacity:1;fill-rule:nonzero;stroke:none"
         d="m 1667.92,1780.06 c -16.73,-4.71 -26.81,-16.47 -26.81,-31.25 0,-12.26 6.89,-20.8 16.74,-20.8 8.55,0 15.59,7.33 15.59,16.15 0,8.16 -6.32,14.73 -14.15,14.73 -3.92,0 -7.05,-1.27 -11.38,-4.63 1.77,11.68 8.41,19.51 20.89,24.63 l -0.88,1.17 z m -0.48,-36.62 c 0,-9.06 -3.83,-14.1 -9.44,-14.1 -5.04,0 -10.88,4.41 -10.88,17.87 0,2.72 0.16,3.84 0.39,4.96 4.89,3.92 8.49,4.8 10.58,4.8 5.35,0 9.35,-4.96 9.35,-13.53" /><path
         id="path174"
         style="fill:#231f20;fill-opacity:1;fill-rule:nonzero;stroke:none"
         d="m 299.031,830.379 -72.898,0 0,5.703 c 18.601,0.898 22.5,5.688 22.5,25.789 l 0,127.801 c 0,16.188 -5.703,20.698 -22.5,21.588 l 0,5.71 72.898,0 0,-5.71 c -18.902,0 -25.496,-4.2 -25.496,-24.291 l 0,-127.199 c 0,-17.7 4.793,-23.688 25.496,-23.688 l 0,-5.703" /><path
         id="path176"
         style="fill:#231f20;fill-opacity:1;fill-rule:nonzero;stroke:none"
         d="m 513.574,828.281 -155.398,162.59 0,-128.699 c 0,-21.602 4.804,-26.09 30.301,-26.09 l 0,-5.703 -69.598,0 0,5.703 1.199,0 c 18.606,0 24.602,6.297 24.602,20.098 l 0,147.58 c -6.899,4.81 -14.7,7.21 -25.2,7.5 l 0,5.71 47.102,0 141.289,-147.298 0,119.398 c 0,18.3 -5.398,21.6 -29.394,22.19 l 0,5.71 70.195,0 0,-5.71 c -22.5,0 -27.305,-3.89 -27.305,-15.588 l 0,-167.391 -7.793,0" /><path
         id="path178"
         style="fill:#231f20;fill-opacity:1;fill-rule:nonzero;stroke:none"
         d="m 695.254,902.07 -5.098,0 c -0.605,17.399 -6.902,22.801 -21.301,22.801 l -55.496,0 0,-65.699 c 0,-16.793 3.594,-23.09 26.094,-23.09 l 0,-5.703 -72.89,0 0,5.703 c 18.593,1.199 21.894,5.098 21.894,29.387 l 0,117.601 c 0,19.2 -1.504,27.9 -22.5,28.19 l 0,5.71 134.395,0 0,-35.4 -5.098,0 c -0.305,17.399 -6.301,24.6 -24.902,24.6 l -56.993,0 0,-70.498 59.395,0 c 11.101,0 16.504,6.297 17.402,19.199 l 5.098,0 0,-52.801" /><path
         id="path180"
         style="fill:#231f20;fill-opacity:1;fill-rule:nonzero;stroke:none"
         d="m 834.543,1013.97 c -52.805,0 -73.801,-49.2 -73.801,-85.2 0,-56.098 38.098,-95.7 86.399,-95.7 48.894,0 72.293,43.2 72.293,85.801 0,55.801 -35.403,95.099 -84.891,95.099 z m 6.297,-188.388 c -58.797,0 -108.301,37.789 -108.301,93.887 0,59.703 45.899,102.001 109.797,102.001 56.695,0 105.301,-38.7 105.301,-92.7 0,-60.59 -48.606,-103.188 -106.797,-103.188" /><path
         id="path182"
         style="fill:#231f20;fill-opacity:1;fill-rule:nonzero;stroke:none"
         d="m 1042.91,914.371 c -6.89,0 -11.4,-0.289 -18.59,0.609 l 0,98.38 c 5.4,0.61 9.29,0.61 15,0.61 46.19,0 58.8,-21.599 58.8,-49.501 0,-36 -21.91,-50.098 -55.21,-50.098 z m 380.46,-50.691 -9.59,135.879 c -0.6,10.211 5.1,10.511 19.81,11.701 l 0,5.4 -44.11,0 -72,-151.191 -72.3,151.191 -45.3,0 0,-5.4 c 18.6,-1.19 19.2,-6.59 18,-26.389 l -7.2,-116.691 c -1.49,-27.188 -9.39,-32.09 -25.85,-32.09 -7.29,0 -27.85,14.012 -40.52,26.691 l -23.69,23.688 c -14.11,14.101 -23.11,22.5 -34.2,31.203 24.6,7.199 39.89,26.098 39.89,48.598 0,30.601 -24.89,53.4 -80.39,53.4 -19.5,0 -25.51,-0.3 -37.8,-0.91 -12.3,-0.59 -30.6,-1.79 -37.807,-1.79 l 0,-5.71 6.601,0 c 17.402,0 22.5,-5.4 22.5,-23.99 l 0,-126.301 c 0,-20.098 -6.301,-24.887 -23.992,-24.887 l -5.109,0 0,-5.703 84.897,0 0,5.703 -6.9,0 c -16.8,0 -23.99,4.488 -23.99,22.5 l 0,50.688 c 4.79,-0.301 8.7,-0.59 15.29,-0.59 8.1,0 12.9,0.289 20.4,0.59 7.21,-4.79 17.7,-13.489 30.9,-26.7 l 19.8,-19.789 c 17.68,-17.679 29.57,-28.64 50.83,-33.34 16.62,-3.671 41.87,0.938 41.87,0.938 l 43.57,0 0,5.703 c -13.5,0.59 -24.9,3.898 -24,19.199 l 8.1,134.989 0.6,0 76.49,-159.891 6.91,0 74.69,159.891 0.61,0 8.7,-134.399 c 1.21,-15.891 -12.61,-19.789 -26.71,-19.789 l 0,-5.703 77.12,0 0,5.703 c -21.92,0 -24.3,0 -26.12,27.598" /><path
         id="path184"
         style="fill:#231f20;fill-opacity:1;fill-rule:nonzero;stroke:none"
         d="m 1541.87,996.262 -25.51,-69.891 51.92,0 -26.41,69.891 z m -30.61,-83.09 -17.4,-47.09 c -2.09,-5.703 -5.99,-14.711 -5.99,-18.91 0,-8.09 7.81,-11.09 24.29,-11.09 l 4.81,0 0,-5.703 -69.3,0 0,5.703 c 19.49,0.289 22.79,3.59 32.4,29.699 l 54.59,149.089 -2.69,6.6 26.09,0 62.7,-166.49 c 6.01,-15.898 12.3,-18.898 27.3,-18.898 l 0,-5.703 -82.5,0 0,5.703 7.81,0 c 17.09,0 23.4,1.797 23.4,10.188 0,4.812 -2.11,9.3 -3.3,12.312 l -20.1,54.59 -62.11,0" /><path
         id="path186"
         style="fill:#231f20;fill-opacity:1;fill-rule:nonzero;stroke:none"
         d="m 1732.12,857.969 c 0,-16.199 5.41,-21.887 23.71,-21.887 l 11.1,0 0,-5.703 -94.49,0 0,5.703 11.09,0 c 18.3,0 23.71,5.688 23.71,21.887 l 0,148.201 -52.21,0 c -11.99,0 -17.4,-6.9 -21.89,-33.299 l -5.41,0 4.8,48.599 5.71,0 c 0.29,-1.8 1.5,-3 3.3,-3.6 1.79,-0.6 3.9,-0.9 5.99,-0.9 l 144.3,0 c 4.2,0 8.69,0.9 9.3,4.5 l 5.7,0 4.81,-48.599 -5.41,0 c -4.5,26.399 -9.91,33.299 -21.9,33.299 l -52.21,0 0,-148.201" /><path
         id="path188"
         style="fill:#231f20;fill-opacity:1;fill-rule:nonzero;stroke:none"
         d="m 1915.13,830.379 -72.89,0 0,5.703 c 18.59,0.898 22.5,5.688 22.5,25.789 l 0,127.801 c 0,16.188 -5.7,20.698 -22.5,21.588 l 0,5.71 72.89,0 0,-5.71 c -18.88,0 -25.49,-4.2 -25.49,-24.291 l 0,-127.199 c 0,-17.7 4.79,-23.688 25.49,-23.688 l 0,-5.703" /><path
         id="path190"
         style="fill:#231f20;fill-opacity:1;fill-rule:nonzero;stroke:none"
         d="m 2036.17,1013.97 c -52.8,0 -73.79,-49.2 -73.79,-85.2 0,-56.098 38.1,-95.7 86.4,-95.7 48.89,0 72.29,43.2 72.29,85.801 0,55.801 -35.39,95.099 -84.9,95.099 z m 6.31,-188.388 c -58.79,0 -108.31,37.789 -108.31,93.887 0,59.703 45.9,102.001 109.81,102.001 56.7,0 105.29,-38.7 105.29,-92.7 0,-60.59 -48.59,-103.188 -106.79,-103.188" /><path
         id="path192"
         style="fill:#231f20;fill-opacity:1;fill-rule:nonzero;stroke:none"
         d="m 2361.38,828.281 -155.39,162.59 0,-128.699 c 0,-21.602 4.79,-26.09 30.29,-26.09 l 0,-5.703 -69.59,0 0,5.703 1.2,0 c 18.59,0 24.59,6.297 24.59,20.098 l 0,147.58 c -6.9,4.81 -14.69,7.21 -25.2,7.5 l 0,5.71 47.11,0 141.29,-147.298 0,119.398 c 0,18.3 -5.41,21.6 -29.4,22.19 l 0,5.71 70.2,0 0,-5.71 c -22.5,0 -27.31,-3.89 -27.31,-15.588 l 0,-167.391 -7.79,0" /><path
         id="path194"
         style="fill:#231f20;fill-opacity:1;fill-rule:nonzero;stroke:none"
         d="m 831.555,1187.68 c -5.617,15.81 -20.239,26.17 -38.762,26.17 -28.391,0 -46.063,-20.56 -46.063,-49.12 0,-30.76 22.098,-53.38 47.938,-53.38 13.43,0 29.91,4.59 41.477,25.17 l 3.218,0 c -2.207,-7.65 -6.797,-18.2 -10.879,-24.82 -10.879,1.53 -18.347,-4.59 -38.406,-4.59 -34.512,0 -59.324,22.78 -59.324,54.22 0,32.98 25.496,56.78 61.023,56.78 21.414,0 30.594,-6.8 35.86,-6.8 1.875,0 2.722,0.51 3.066,1.02 l 2.551,0 1.519,-24.65 -3.218,0" /><path
         id="path196"
         style="fill:#231f20;fill-opacity:1;fill-rule:nonzero;stroke:none"
         d="m 921.344,1213.85 c -29.922,0 -41.817,-27.87 -41.817,-48.27 0,-31.79 21.59,-54.23 48.953,-54.23 27.708,0 40.969,24.48 40.969,48.63 0,31.61 -20.058,53.87 -48.105,53.87 z m 3.562,-106.74 c -33.308,0 -61.355,21.41 -61.355,53.21 0,33.83 26.004,57.79 62.207,57.79 32.129,0 59.668,-21.93 59.668,-52.53 0,-34.34 -27.539,-58.47 -60.52,-58.47" /><path
         id="path198"
         style="fill:#231f20;fill-opacity:1;fill-rule:nonzero;stroke:none"
         d="m 1081.65,1109.83 -75.99,0 0,3.22 5.62,0 c 7.81,0 10.7,2.56 10.7,11.23 l 0,75.29 c 0,9.02 -2.71,12.76 -13.43,12.76 l -2.37,0 0,3.22 50.14,0 0,-3.22 -6.29,0 c -11.05,0 -13.94,-1.19 -13.94,-11.73 l 0,-78.37 c 0,-4.59 1.88,-6.29 6.8,-6.29 l 24.99,0 c 10.03,0 13.09,3.92 23.8,18.71 l 3.06,0 -13.09,-24.82" /><path
         id="path200"
         style="fill:#231f20;fill-opacity:1;fill-rule:nonzero;stroke:none"
         d="m 1190.79,1109.83 -75.98,0 0,3.22 5.61,0 c 7.82,0 10.71,2.56 10.71,11.23 l 0,75.29 c 0,9.02 -2.73,12.76 -13.43,12.76 l -2.38,0 0,3.22 50.14,0 0,-3.22 -6.29,0 c -11.05,0 -13.93,-1.19 -13.93,-11.73 l 0,-78.37 c 0,-4.59 1.86,-6.29 6.8,-6.29 l 24.99,0 c 10.03,0 13.08,3.92 23.79,18.71 l 3.06,0 -13.09,-24.82" /><path
         id="path202"
         style="fill:#231f20;fill-opacity:1;fill-rule:nonzero;stroke:none"
         d="m 1292.02,1148.07 -3.23,0 c -1.36,12.07 -4.59,13.44 -11.56,13.44 l -28.73,0 0,-36.21 c 0,-7.82 2.89,-9.36 9.18,-9.36 l 26.18,0 c 11.9,0 15.47,4.59 19.72,19.22 l 3.06,0 -2.72,-25.33 -90.26,0 0,3.22 4.75,0 c 13.61,0 15.99,3.75 15.99,13.95 l 0,71.73 c 0,9.52 -2.22,13.6 -13.6,13.6 l -3.74,0 0,3.22 81.59,0 1.35,-23.62 -3.05,0 c -2.21,14.45 -6.46,17.51 -12.58,17.51 l -35.87,0 0,-41.82 30.43,0 c 6.12,0 9,2.89 9.86,12.76 l 3.23,0 0,-32.31" /><path
         id="path204"
         style="fill:#231f20;fill-opacity:1;fill-rule:nonzero;stroke:none"
         d="m 1431.82,1117.82 c -16.83,-8.67 -38.42,-10.71 -45.55,-10.71 -37.23,0 -54.57,28.72 -54.57,53.54 0,25.51 17.85,57.46 59.32,57.46 18.2,0 30.25,-5.78 33.83,-5.78 1.54,0 2.89,0.34 3.9,1.19 l 2.39,0 0,-27.54 -3.4,0 c -4.59,21.25 -19.04,27.87 -34.84,27.87 -29.92,0 -45.21,-24.8 -45.21,-52.18 0,-34.85 24.47,-50.32 44.01,-50.32 7.82,0 16.49,1.7 26.02,6.47 l 0,21.42 c 0,9.69 -3.4,12.91 -13.61,12.91 l -6.29,0 0,3.07 45.9,0 0,-3.07 c -8.5,-0.5 -11.9,-3.4 -11.9,-10.7 l 0,-23.63" /><path
         id="path206"
         style="fill:#231f20;fill-opacity:1;fill-rule:nonzero;stroke:none"
         d="m 1546.82,1148.07 -3.22,0 c -1.37,12.07 -4.59,13.44 -11.56,13.44 l -28.73,0 0,-36.21 c 0,-7.82 2.89,-9.36 9.18,-9.36 l 26.17,0 c 11.91,0 15.47,4.59 19.72,19.22 l 3.07,0 -2.73,-25.33 -90.26,0 0,3.22 4.77,0 c 13.59,0 15.97,3.75 15.97,13.95 l 0,71.73 c 0,9.52 -2.2,13.6 -13.59,13.6 l -3.75,0 0,3.22 81.6,0 1.35,-23.62 -3.05,0 c -2.22,14.45 -6.46,17.51 -12.59,17.51 l -35.86,0 0,-41.82 30.43,0 c 6.11,0 9,2.89 9.86,12.76 l 3.22,0 0,-32.31" /><path
         id="path208"
         style="fill:#231f20;fill-opacity:1;fill-rule:nonzero;stroke:none"
         d="m 1735.59,1213.85 c -29.92,0 -41.82,-27.87 -41.82,-48.27 0,-31.79 21.61,-54.23 48.97,-54.23 27.69,0 40.96,24.48 40.96,48.63 0,31.61 -20.06,53.87 -48.11,53.87 z m 3.58,-106.74 c -33.33,0 -61.37,21.41 -61.37,53.21 0,33.83 26.01,57.79 62.2,57.79 32.13,0 59.67,-21.93 59.67,-52.53 0,-34.34 -27.54,-58.47 -60.5,-58.47" /><path
         id="path210"
         style="fill:#231f20;fill-opacity:1;fill-rule:nonzero;stroke:none"
         d="m 1888.97,1150.45 -2.89,0 c -0.33,9.87 -3.91,12.92 -12.07,12.92 l -31.45,0 0,-37.22 c 0,-9.52 2.05,-13.1 14.79,-13.1 l 0,-3.22 -41.29,0 0,3.22 c 10.53,0.68 12.4,2.89 12.4,16.66 l 0,66.64 c 0,10.88 -0.86,15.8 -12.75,15.98 l 0,3.22 76.15,0 0,-20.05 -2.89,0 c -0.18,9.86 -3.57,13.94 -14.1,13.94 l -32.31,0 0,-39.94 33.66,0 c 6.28,0 9.35,3.56 9.86,10.88 l 2.89,0 0,-29.93" /><path
         id="path212"
         style="fill:#231f20;fill-opacity:1;fill-rule:nonzero;stroke:none"
         d="m 888.313,646.219 c 3.683,-15.629 15.968,-24.75 29.671,-24.75 11.766,0 24.243,6.84 24.243,20.722 0,25.278 -56.387,33.008 -56.387,63.739 0,14.582 13.359,25.468 31.265,25.468 14.754,0 17.739,-4.378 23.887,-4.378 1.403,0 2.11,0.339 3.164,1.742 l 2.801,0 3,-22.301 -3,0 c -4.91,12.648 -16.152,20.73 -28.269,20.73 -11.598,0 -19.672,-6.679 -19.672,-16.511 0,-24.942 56.379,-31.61 56.379,-63.93 0,-17.211 -15.278,-30.031 -35.829,-30.031 -9.664,0 -21.949,4.75 -24.414,4.75 -1.574,0 -2.804,-0.887 -3.504,-1.93 l -2.992,0 -3.691,26.68 3.348,0" /><path
         id="path214"
         style="fill:#231f20;fill-opacity:1;fill-rule:nonzero;stroke:none"
         d="m 1049.57,635.699 c 0,-9.48 3.17,-12.828 13.88,-12.828 l 6.5,0 0,-3.332 -55.33,0 0,3.332 6.51,0 c 10.71,0 13.87,3.348 13.87,12.828 l 0,86.75 -30.55,0 c -7.04,0 -10.188,-4.039 -12.825,-19.5 l -3.164,0 2.805,28.449 3.343,0 c 0.18,-1.046 0.875,-1.75 1.93,-2.109 1.055,-0.348 2.289,-0.527 3.521,-0.527 l 84.47,0 c 2.45,0 5.08,0.527 5.45,2.636 l 3.33,0 2.8,-28.449 -3.16,0 c -2.63,15.461 -5.79,19.5 -12.82,19.5 l -30.56,0 0,-86.75" /><path
         id="path216"
         style="fill:#231f20;fill-opacity:1;fill-rule:nonzero;stroke:none"
         d="m 1263.01,728.762 0,-3.332 c -11.78,-0.168 -15.99,-4.918 -15.99,-16.149 l 0,-47.41 c 0,-21.789 -13.87,-45.152 -51.97,-45.152 -33.55,0 -50.76,19.14 -50.76,44.25 l 0,51.273 c 0,11.238 -3.16,13.02 -15.11,13.188 l 0,3.332 45.14,0 0,-3.332 -1.58,0 c -9.66,0 -13.88,-2.629 -13.88,-12.821 l 0,-48.828 c 0,-23.699 13.88,-37.941 40.05,-37.941 19.84,0 40.03,8.269 40.03,38.121 l 0,40.918 c 0,16.863 -2.63,19.84 -17.21,20.551 l 0,3.332 41.28,0" /><path
         id="path218"
         style="fill:#231f20;fill-opacity:1;fill-rule:nonzero;stroke:none"
         d="m 1327.5,632.52 c 0,-7.188 0.52,-9.649 14.4,-9.649 23.54,0 33.37,3.348 44.27,14.211 6.5,6.328 14.56,19.848 14.56,37.938 0,13.011 -3.68,27.41 -14.05,37.769 -8.07,8.063 -20.54,14.231 -45.13,14.231 -7.2,0 -11.94,-0.528 -14.05,-0.731 l 0,-93.769 z m -14.58,78.691 c 0,11.41 -2.99,14.219 -13.35,14.219 l -3.51,0 0,3.332 c 6.51,0.359 15.11,0.707 24.77,1.058 9.65,0.352 20.36,0.532 29.51,0.532 46.37,0 66.9,-23.543 66.9,-52.512 0,-26.52 -20.53,-58.301 -64.97,-58.301 l -56.21,0 0,3.332 2.99,0 c 9.47,0 13.87,2.621 13.87,12.828 l 0,75.512" /><path
         id="path220"
         style="fill:#231f20;fill-opacity:1;fill-rule:nonzero;stroke:none"
         d="m 1492.98,619.539 -42.67,0 0,3.332 c 10.91,0.527 13.17,3.348 13.17,15.09 l 0,74.828 c 0,9.481 -3.32,12.121 -13.17,12.641 l 0,3.332 42.67,0 0,-3.332 c -11.06,0 -14.92,-2.461 -14.92,-14.219 l 0,-74.481 c 0,-10.351 2.8,-13.859 14.92,-13.859 l 0,-3.332" /><path
         id="path222"
         style="fill:#231f20;fill-opacity:1;fill-rule:nonzero;stroke:none"
         d="m 1607.03,659.051 -3.34,0 c -1.42,12.469 -4.74,13.871 -11.97,13.871 l -29.65,0 0,-37.41 c 0,-8.082 2.97,-9.672 9.46,-9.672 l 27.06,0 c 12.29,0 15.98,4.75 20.37,19.859 l 3.16,0 -2.8,-26.16 -93.27,0 0,3.332 4.91,0 c 14.07,0 16.52,3.848 16.52,14.41 l 0,74.09 c 0,9.848 -2.29,14.059 -14.05,14.059 l -3.85,0 0,3.332 84.29,0 1.41,-24.41 -3.17,0 c -2.28,14.918 -6.68,18.097 -13,18.097 l -37.04,0 0,-43.207 31.42,0 c 6.33,0 9.32,2.988 10.2,13.18 l 3.34,0 0,-33.371" /><path
         id="path224"
         style="fill:#231f20;fill-opacity:1;fill-rule:nonzero;stroke:none"
         d="m 1658.51,646.219 c 3.68,-15.629 15.98,-24.75 29.71,-24.75 11.74,0 24.21,6.84 24.21,20.722 0,25.278 -56.38,33.008 -56.38,63.739 0,14.582 13.35,25.468 31.25,25.468 14.77,0 17.76,-4.378 23.9,-4.378 1.39,0 2.13,0.339 3.16,1.742 l 2.82,0 2.97,-22.301 -2.97,0 c -4.93,12.648 -16.17,20.73 -28.27,20.73 -11.6,0 -19.7,-6.679 -19.7,-16.511 0,-24.942 56.41,-31.61 56.41,-63.93 0,-17.211 -15.3,-30.031 -35.85,-30.031 -9.65,0 -21.94,4.75 -24.41,4.75 -1.6,0 -2.79,-0.887 -3.52,-1.93 l -2.97,0 -3.68,26.68 3.32,0" /></g></g></svg>