<?xml version="1.0" encoding="UTF-8" standalone="no"?>
<svg
   xmlns:dc="http://purl.org/dc/elements/1.1/"
   xmlns:cc="http://creativecommons.org/ns#"
   xmlns:rdf="http://www.w3.org/1999/02/22-rdf-syntax-ns#"
   xmlns:svg="http://www.w3.org/2000/svg"
   xmlns="http://www.w3.org/2000/svg"
   viewBox="0 0 163.98666 68.866669"
   height="68.866669"
   width="163.98666"
   xml:space="preserve"
   id="svg2"
   version="1.1"><metadata
     id="metadata8"><rdf:RDF><cc:Work
         rdf:about=""><dc:format>image/svg+xml</dc:format><dc:type
           rdf:resource="http://purl.org/dc/dcmitype/StillImage" /></cc:Work></rdf:RDF></metadata><defs
     id="defs6" /><g
     transform="matrix(1.3333333,0,0,-1.3333333,0,68.866667)"
     id="g10"><g
       transform="scale(0.1)"
       id="g12"><path
         id="path14"
         style="fill:#a80c30;fill-opacity:1;fill-rule:nonzero;stroke:none"
         d="M 0,2.67578 V 234.957 H 56.8594 L 83.3047,76.9922 h 0.4687 L 111.855,234.957 h 54.993 V 2.67578 H 132.445 V 181.875 h -0.468 L 99.4492,2.67578 H 65.7578 L 34.8672,181.875 H 34.3984 V 2.67578 H 0" /><path
         id="path16"
         style="fill:#a80c30;fill-opacity:1;fill-rule:nonzero;stroke:none"
         d="m 198.492,2.67578 h 35.332 v 232.281 h -35.332 z" /><path
         id="path18"
         style="fill:#a80c30;fill-opacity:1;fill-rule:nonzero;stroke:none"
         d="M 361.781,234.957 V 196.348 H 322.473 V 2.67578 h -35.34 V 196.348 h -39.305 v 38.609 h 113.953" /><path
         id="path20"
         style="fill:#a80c30;fill-opacity:1;fill-rule:nonzero;stroke:none"
         d="M 389.535,3.20312 V 235.512 h 20.594 V 20.5859 h 76.898 V 3.20312 h -97.492" /><path
         id="path22"
         style="fill:#a80c30;fill-opacity:1;fill-rule:nonzero;stroke:none"
         d="M 504.691,3.20312 V 165.703 H 524 V 3.20312 Z M 502.445,211.059 v 24.453 h 23.805 v -24.453 h -23.805" /><path
         id="path24"
         style="fill:#a80c30;fill-opacity:1;fill-rule:nonzero;stroke:none"
         d="M 549.074,3.20312 C 550.039,8.67188 551,13.8281 551,19.2969 V 235.512 h 19.309 v -88.149 l 0.644,-0.644 c 9.969,15.429 22.84,22.187 41.18,22.187 52.765,0 48.594,-55.332 48.594,-84.2966 C 660.727,48.9062 657.828,0 610.527,0 591.547,0 577.711,7.71484 569.664,22.832 H 569.02 V 3.20312 Z M 604.73,15.4297 c 35.723,0 36.68,30.5664 36.68,68.5351 0,37.9692 -0.957,69.5042 -36.68,69.5042 -31.21,0 -35.066,-42.149 -35.066,-66.6135 0,-25.7227 0,-71.4258 35.066,-71.4258" /><path
         id="path26"
         style="fill:#a80c30;fill-opacity:1;fill-rule:nonzero;stroke:none"
         d="m 699.281,143.809 h 0.645 c 8.047,15.449 25.097,25.097 44.726,25.097 v -19.621 c -27.351,2.258 -45.371,-14.168 -45.371,-41.512 V 3.20312 H 679.977 V 165.703 h 19.304 v -21.894" /><path
         id="path28"
         style="fill:#a80c30;fill-opacity:1;fill-rule:nonzero;stroke:none"
         d="m 834.371,23.1641 h -0.656 C 823.434,7.71484 807.66,0 787.711,0 c -28.957,0 -44.727,19.6211 -44.727,47.9297 0,56.9533 57.274,51.1641 90.086,53.7303 v 13.516 c 0,23.808 -7.07,38.293 -32.812,38.293 -17.696,0 -31.856,-8.684 -31.856,-28 h -20.586 c 1.602,31.211 25.735,43.437 54.055,43.437 16.406,0 50.516,-1.601 50.516,-43.105 V 44.0625 c 0,-11.5625 0,-21.875 1.925,-40.85938 h -19.941 z m -1.301,63.0664 c -27.656,-0.9766 -69.492,2.2461 -69.492,-37.3243 0,-18.3476 9.336,-33.4765 29.277,-33.4765 22.207,0 40.215,19.9609 40.215,41.1914 v 29.6094" /><path
         id="path30"
         style="fill:#a80c30;fill-opacity:1;fill-rule:nonzero;stroke:none"
         d="m 899.301,143.809 h 0.656 c 8.035,15.449 25.086,25.097 44.715,25.097 v -19.621 c -27.344,2.258 -45.371,-14.168 -45.371,-41.512 V 3.20312 H 880.004 V 165.703 h 19.297 v -21.894" /><path
         id="path32"
         style="fill:#a80c30;fill-opacity:1;fill-rule:nonzero;stroke:none"
         d="M 960.062,3.20312 V 165.703 h 19.309 V 3.20312 Z M 957.816,211.059 v 24.453 h 23.809 v -24.453 h -23.809" /><path
         id="path34"
         style="fill:#a80c30;fill-opacity:1;fill-rule:nonzero;stroke:none"
         d="M 1025.68,80.4297 V 67.8828 c 0,-22.5312 6.11,-52.4531 36.68,-52.4531 24.13,0 36.04,15.4492 35.71,37.3242 h 20.27 C 1116.09,13.5078 1094.86,0 1062.36,0 c -28,0 -55.99,11.25 -55.99,60.4883 v 39.8827 c 0,46.992 19.63,68.535 55.99,68.535 55.98,0 55.98,-40.215 55.98,-88.4763 z m 73.35,15.4492 c 0,36.0351 -5.78,57.5901 -36.67,57.5901 -30.89,0 -36.68,-21.555 -36.68,-57.5901 h 73.35" /><path
         id="path36"
         style="fill:#a80c30;fill-opacity:1;fill-rule:nonzero;stroke:none"
         d="m 1182.01,0 c -35.08,0 -48.92,17.0508 -48.59,51.4766 h 19.63 c 0,-22.1993 5.14,-37.0039 29.91,-37.0039 18.66,0 27.68,10.6171 27.68,28.6328 0,42.4726 -73.04,31.5351 -73.04,85.2655 0,29.93 20.59,40.535 48.91,40.535 32.17,0 42.46,-22.187 42.46,-46.972 H 1210 c -0.97,20.597 -6.44,31.535 -28.32,31.535 -13.83,0 -24.78,-9.016 -24.78,-23.489 0,-40.5464 73.05,-29.609 73.05,-83.9839 C 1229.95,15.4297 1212.25,0 1182.01,0" /><path
         id="path38"
         style="fill:#a80c30;fill-opacity:1;fill-rule:evenodd;stroke:none"
         d="m 1167.11,326.812 c -324.919,103.75 -788.243,103.75 -1112.5241,0 295.0041,159.18 816.3751,159.18 1112.5241,0 v 0" /><path
         id="path40"
         style="fill:#a80c30;fill-opacity:1;fill-rule:evenodd;stroke:none"
         d="m 1012.75,430.25 c -234.758,74.961 -569.512,74.961 -803.809,0 213.145,115.008 589.844,115.008 803.809,0 v 0" /></g></g></svg>