<?xml version="1.0" encoding="utf-8"?>
<!-- Generator: Adobe Illustrator 15.1.0, SVG Export Plug-In . SVG Version: 6.00 Build 0)  -->
<!DOCTYPE svg PUBLIC "-//W3C//DTD SVG 1.1//EN" "http://www.w3.org/Graphics/SVG/1.1/DTD/svg11.dtd">
<svg version="1.1" id="Layer_1" xmlns="http://www.w3.org/2000/svg" xmlns:xlink="http://www.w3.org/1999/xlink" x="0px" y="0px"
	 width="612px" height="485.137px" viewBox="0 0 612 485.137" enable-background="new 0 0 612 485.137" xml:space="preserve">
<rect x="144.303" y="93.439" fill="#231F20" width="348.137" height="298.523"/>
<polygon fill="#231F20" points="11.68,137.145 180.474,0 195.543,68.573 276.927,37.677 329.675,304.431 65.935,394.857 "/>
<polygon fill="#FFFEF9" points="32.779,147.695 263.363,61.791 313.097,290.868 79.499,369.237 "/>
<polygon fill="#FFFEF9" points="68.949,114.539 180.473,75.355 170.677,33.156 "/>
<polygon fill="#FFFEF9" points="142.957,103.507 157.795,105.871 173.804,147.432 177.159,108.959 192.138,111.348 186.075,180.889 
	171.095,178.5 155.166,137.246 151.837,175.43 136.893,173.048 "/>
<polygon fill="none" stroke="#231F20" stroke-width="2" stroke-miterlimit="10" points="142.957,103.507 157.795,105.871 
	173.804,147.432 177.159,108.959 192.138,111.348 186.075,180.889 171.095,178.5 155.166,137.246 151.837,175.43 136.893,173.048 
	"/>
<g>
	<defs>
		<rect id="SVGID_1_" y="-81.863" width="612" height="792"/>
	</defs>
	<clipPath id="SVGID_2_">
		<use xlink:href="#SVGID_1_"  overflow="visible"/>
	</clipPath>
	<path clip-path="url(#SVGID_2_)" fill="#FFFEF9" d="M211.67,150.437l-13.477-4.12c0.796-3.144,1.76-5.562,2.892-7.258
		c1.131-1.696,2.669-3.077,4.611-4.147c1.396-0.771,3.263-1.244,5.601-1.415c2.339-0.172,4.842-0.046,7.508,0.38
		c4.28,0.682,7.688,1.554,10.228,2.615c2.539,1.063,4.585,2.76,6.136,5.091c1.092,1.618,1.875,3.787,2.349,6.505
		c0.474,2.723,0.608,5.268,0.401,7.641l-1.94,22.248c-0.206,2.37-0.257,4.247-0.153,5.626c0.106,1.379,0.441,3.172,1.008,5.38
		l-13.401-2.138c-0.425-1.383-0.69-2.426-0.794-3.132c-0.104-0.707-0.175-1.8-0.212-3.28c-2.083,2.135-4.093,3.578-6.032,4.328
		c-2.647,0.989-5.642,1.216-8.988,0.683c-4.443-0.708-7.694-2.637-9.756-5.787c-2.06-3.151-2.913-6.767-2.557-10.845
		c0.333-3.827,1.438-6.842,3.314-9.043c1.875-2.201,5.098-3.549,9.67-4.036c5.482-0.601,9.044-1.067,10.685-1.399
		c1.642-0.333,3.392-0.83,5.252-1.495c0.207-2.372-0.011-4.09-0.653-5.155c-0.642-1.064-1.876-1.741-3.699-2.032
		c-2.339-0.374-4.137-0.147-5.394,0.679C213.289,146.976,212.422,148.345,211.67,150.437 M223.167,162.563
		c-2.046,0.635-4.166,1.146-6.358,1.534c-2.991,0.584-4.916,1.316-5.776,2.206c-0.887,0.917-1.387,2.039-1.503,3.369
		c-0.132,1.516,0.151,2.82,0.85,3.911c0.7,1.088,1.81,1.755,3.33,1.996c1.59,0.255,3.115-0.032,4.574-0.856
		c1.459-0.826,2.541-1.944,3.244-3.355c0.704-1.412,1.161-3.318,1.37-5.722L223.167,162.563z"/>
	<path clip-path="url(#SVGID_2_)" fill="none" stroke="#231F20" stroke-width="2" stroke-miterlimit="10" d="M211.67,150.437
		l-13.477-4.12c0.796-3.144,1.76-5.562,2.892-7.258c1.131-1.696,2.669-3.077,4.611-4.147c1.396-0.771,3.263-1.244,5.601-1.415
		c2.339-0.172,4.842-0.046,7.508,0.38c4.28,0.682,7.688,1.554,10.228,2.615c2.539,1.063,4.585,2.76,6.136,5.091
		c1.092,1.618,1.875,3.787,2.349,6.505c0.474,2.723,0.608,5.268,0.401,7.641l-1.94,22.248c-0.206,2.37-0.257,4.247-0.153,5.626
		c0.106,1.379,0.441,3.172,1.008,5.38l-13.401-2.138c-0.425-1.383-0.69-2.426-0.794-3.132c-0.104-0.707-0.175-1.8-0.212-3.28
		c-2.083,2.135-4.093,3.578-6.032,4.328c-2.647,0.989-5.642,1.216-8.988,0.683c-4.443-0.708-7.694-2.637-9.756-5.787
		c-2.06-3.151-2.913-6.767-2.557-10.845c0.333-3.827,1.438-6.842,3.314-9.043c1.875-2.201,5.098-3.549,9.67-4.036
		c5.482-0.601,9.044-1.067,10.685-1.399c1.642-0.333,3.392-0.83,5.252-1.495c0.207-2.372-0.011-4.09-0.653-5.155
		c-0.642-1.064-1.876-1.741-3.699-2.032c-2.339-0.374-4.137-0.147-5.394,0.679C213.289,146.976,212.422,148.345,211.67,150.437z
		 M223.167,162.563c-2.046,0.635-4.166,1.146-6.358,1.534c-2.991,0.584-4.916,1.316-5.776,2.206
		c-0.887,0.917-1.387,2.039-1.503,3.369c-0.132,1.516,0.151,2.82,0.85,3.911c0.7,1.088,1.81,1.755,3.33,1.996
		c1.59,0.255,3.115-0.032,4.574-0.856c1.459-0.826,2.541-1.944,3.244-3.355c0.704-1.412,1.161-3.318,1.37-5.722L223.167,162.563z"/>
	<path clip-path="url(#SVGID_2_)" fill="#FFFEF9" d="M242.299,175.665l14.329,0.458c0.386,2.37,1.062,4.129,2.029,5.278
		c0.968,1.148,2.328,1.86,4.082,2.141c1.918,0.307,3.451-0.01,4.599-0.949c0.891-0.689,1.389-1.65,1.496-2.88
		c0.122-1.391-0.323-2.549-1.332-3.481c-0.725-0.659-2.714-1.648-5.966-2.967c-4.856-1.958-8.205-3.588-10.047-4.892
		c-1.843-1.304-3.322-3.244-4.437-5.825c-1.114-2.579-1.539-5.386-1.275-8.419c0.29-3.317,1.252-6.064,2.888-8.237
		c1.636-2.173,3.757-3.652,6.363-4.438c2.605-0.786,6.012-0.842,10.222-0.171c4.444,0.708,7.683,1.688,9.72,2.943
		c2.036,1.256,3.678,2.96,4.924,5.113c1.247,2.155,2.195,4.952,2.843,8.391l-13.697-0.357c-0.21-1.669-0.692-2.947-1.444-3.837
		c-1.034-1.192-2.347-1.914-3.937-2.167c-1.613-0.257-2.822-0.058-3.626,0.599c-0.805,0.657-1.255,1.536-1.351,2.641
		c-0.108,1.232,0.279,2.237,1.16,3.019c0.88,0.778,2.864,1.672,5.954,2.679c4.684,1.483,8.128,3.055,10.33,4.721
		c2.202,1.663,3.813,3.795,4.831,6.392c1.019,2.595,1.402,5.334,1.152,8.207c-0.254,2.908-1.15,5.631-2.687,8.172
		c-1.537,2.542-3.775,4.402-6.711,5.585c-2.936,1.18-6.814,1.387-11.631,0.618c-6.805-1.084-11.538-3.17-14.197-6.255
		C244.223,184.663,242.695,180.633,242.299,175.665"/>
	<path clip-path="url(#SVGID_2_)" fill="none" stroke="#231F20" stroke-width="2" stroke-miterlimit="10" d="M242.299,175.665
		l14.329,0.458c0.386,2.37,1.062,4.129,2.029,5.278c0.968,1.148,2.328,1.86,4.082,2.141c1.918,0.307,3.451-0.01,4.599-0.949
		c0.891-0.689,1.389-1.65,1.496-2.88c0.122-1.391-0.323-2.549-1.332-3.481c-0.725-0.659-2.714-1.648-5.966-2.967
		c-4.856-1.958-8.205-3.588-10.047-4.892c-1.843-1.304-3.322-3.244-4.437-5.825c-1.114-2.579-1.539-5.386-1.275-8.419
		c0.29-3.317,1.252-6.064,2.888-8.237c1.636-2.173,3.757-3.652,6.363-4.438c2.605-0.786,6.012-0.842,10.222-0.171
		c4.444,0.708,7.683,1.688,9.72,2.943c2.036,1.256,3.678,2.96,4.924,5.113c1.247,2.155,2.195,4.952,2.843,8.391l-13.697-0.357
		c-0.21-1.669-0.692-2.947-1.444-3.837c-1.034-1.192-2.347-1.914-3.937-2.167c-1.613-0.257-2.822-0.058-3.626,0.599
		c-0.805,0.657-1.255,1.536-1.351,2.641c-0.108,1.232,0.279,2.237,1.16,3.019c0.88,0.778,2.864,1.672,5.954,2.679
		c4.684,1.483,8.128,3.055,10.33,4.721c2.202,1.663,3.813,3.795,4.831,6.392c1.019,2.595,1.402,5.334,1.152,8.207
		c-0.254,2.908-1.15,5.631-2.687,8.172c-1.537,2.542-3.775,4.402-6.711,5.585c-2.936,1.18-6.814,1.387-11.631,0.618
		c-6.805-1.084-11.538-3.17-14.197-6.255C244.223,184.663,242.695,180.633,242.299,175.665z"/>
	<path clip-path="url(#SVGID_2_)" fill="#FFFEF9" d="M293.552,127.518l14.278,2.277l-2.234,25.615
		c2.178-2.41,4.277-4.048,6.296-4.913c2.02-0.862,4.339-1.087,6.959-0.669c3.882,0.619,6.801,2.703,8.755,6.253
		c1.955,3.55,2.645,8.629,2.067,15.239l-2.792,32.02l-14.348-2.289l2.417-27.701c0.275-3.163,0.038-5.469-0.713-6.92
		c-0.75-1.449-1.91-2.301-3.476-2.55c-1.731-0.276-3.211,0.387-4.442,1.985c-1.23,1.6-2.045,4.693-2.445,9.278l-2.11,24.192
		l-14.277-2.276L293.552,127.518z"/>
	<path clip-path="url(#SVGID_2_)" fill="none" stroke="#231F20" stroke-width="2" stroke-miterlimit="10" d="M293.552,127.518
		l14.278,2.277l-2.234,25.615c2.178-2.41,4.277-4.048,6.296-4.913c2.02-0.862,4.339-1.087,6.959-0.669
		c3.882,0.619,6.801,2.703,8.755,6.253c1.955,3.55,2.645,8.629,2.067,15.239l-2.792,32.02l-14.348-2.289l2.417-27.701
		c0.275-3.163,0.038-5.469-0.713-6.92c-0.75-1.449-1.91-2.301-3.476-2.55c-1.731-0.276-3.211,0.387-4.442,1.985
		c-1.23,1.6-2.045,4.693-2.445,9.278l-2.11,24.192l-14.277-2.276L293.552,127.518z"/>
	<polygon clip-path="url(#SVGID_2_)" fill="#FFFEF9" points="335.591,153.651 350.444,156.019 354.889,189.096 365.172,158.368 
		379.579,160.664 359.354,208.516 346.691,206.498 	"/>
	<polygon clip-path="url(#SVGID_2_)" fill="none" stroke="#231F20" stroke-width="2" stroke-miterlimit="10" points="
		335.591,153.651 350.444,156.019 354.889,189.096 365.172,158.368 379.579,160.664 359.354,208.516 346.691,206.498 	"/>
	<path clip-path="url(#SVGID_2_)" fill="#FFFEF9" d="M384.209,161.402l14.279,2.277l-4.394,50.377l-14.277-2.276L384.209,161.402z
		 M385.881,142.239l14.278,2.277l-1.147,13.139l-14.275-2.277L385.881,142.239z"/>
	<path clip-path="url(#SVGID_2_)" fill="none" stroke="#231F20" stroke-width="2" stroke-miterlimit="10" d="M384.209,161.402
		l14.279,2.277l-4.394,50.377l-14.277-2.276L384.209,161.402z M385.881,142.239l14.278,2.277l-1.147,13.139l-14.275-2.277
		L385.881,142.239z"/>
	<polygon clip-path="url(#SVGID_2_)" fill="#FFFEF9" points="409.771,146.048 424.082,148.33 418.019,217.87 403.706,215.589 	"/>
	<polygon clip-path="url(#SVGID_2_)" fill="none" stroke="#231F20" stroke-width="2" stroke-miterlimit="10" points="
		409.771,146.048 424.082,148.33 418.019,217.87 403.706,215.589 	"/>
	<polygon clip-path="url(#SVGID_2_)" fill="#FFFEF9" points="433.694,149.862 448.007,152.145 441.942,221.685 427.63,219.403 	"/>
	<polygon clip-path="url(#SVGID_2_)" fill="none" stroke="#231F20" stroke-width="2" stroke-miterlimit="10" points="
		433.694,149.862 448.007,152.145 441.942,221.685 427.63,219.403 	"/>
	<path clip-path="url(#SVGID_2_)" fill="#FFFEF9" d="M494.199,209.336l-28.625-4.564c-0.012,3.141,0.406,5.547,1.256,7.223
		c1.19,2.402,2.896,3.779,5.116,4.133c1.404,0.225,2.779-0.037,4.124-0.784c0.824-0.479,1.746-1.407,2.768-2.782l13.914,3.998
		c-2.593,4.717-5.504,7.931-8.736,9.646c-3.232,1.713-7.69,2.117-13.373,1.21c-4.935-0.786-8.733-2.345-11.4-4.679
		c-2.665-2.333-4.749-5.694-6.252-10.086c-1.501-4.393-2.01-9.356-1.527-14.889c0.686-7.875,3.105-13.949,7.262-18.224
		c4.153-4.275,9.518-5.889,16.089-4.842c5.332,0.85,9.446,2.613,12.342,5.286c2.897,2.675,4.973,6.213,6.227,10.611
		c1.251,4.401,1.588,9.921,1.01,16.563L494.199,209.336z M480.484,197.771c0.044-3.777-0.467-6.568-1.529-8.373
		c-1.063-1.805-2.578-2.864-4.541-3.176c-2.27-0.362-4.188,0.567-5.759,2.786c-0.996,1.379-1.741,3.553-2.237,6.52L480.484,197.771z
		"/>
	<path clip-path="url(#SVGID_2_)" fill="none" stroke="#231F20" stroke-width="2" stroke-miterlimit="10" d="M494.199,209.336
		l-28.625-4.564c-0.012,3.141,0.406,5.547,1.256,7.223c1.19,2.402,2.896,3.779,5.116,4.133c1.404,0.225,2.779-0.037,4.124-0.784
		c0.824-0.479,1.746-1.407,2.768-2.782l13.914,3.998c-2.593,4.717-5.504,7.931-8.736,9.646c-3.232,1.713-7.69,2.117-13.373,1.21
		c-4.935-0.786-8.733-2.345-11.4-4.679c-2.665-2.333-4.749-5.694-6.252-10.086c-1.501-4.393-2.01-9.356-1.527-14.889
		c0.686-7.875,3.105-13.949,7.262-18.224c4.153-4.275,9.518-5.889,16.089-4.842c5.332,0.85,9.446,2.613,12.342,5.286
		c2.897,2.675,4.973,6.213,6.227,10.611c1.251,4.401,1.588,9.921,1.01,16.563L494.199,209.336z M480.484,197.771
		c0.044-3.777-0.467-6.568-1.529-8.373c-1.063-1.805-2.578-2.864-4.541-3.176c-2.27-0.362-4.188,0.567-5.759,2.786
		c-0.996,1.379-1.741,3.553-2.237,6.52L480.484,197.771z"/>
	<path clip-path="url(#SVGID_2_)" fill="#FFFEF9" d="M132.616,190.103l26.415,4.211c5.753,0.918,9.901,3.455,12.442,7.613
		c2.543,4.157,3.516,9.65,2.92,16.48c-0.612,7.022-2.652,12.26-6.118,15.715c-3.467,3.455-8.404,4.671-14.812,3.65l-8.7-1.388
		l-2.25,25.804l-15.961-2.543L132.616,190.103z M145.992,222.295l3.894,0.621c3.064,0.488,5.277,0.111,6.643-1.13
		c1.364-1.24,2.144-2.984,2.34-5.229c0.191-2.183-0.186-4.117-1.129-5.807c-0.943-1.69-2.9-2.772-5.87-3.246l-4.525-0.72
		L145.992,222.295z"/>
	<path clip-path="url(#SVGID_2_)" fill="none" stroke="#231F20" stroke-width="2" stroke-miterlimit="10" d="M132.616,190.103
		l26.415,4.211c5.753,0.918,9.901,3.455,12.442,7.613c2.543,4.157,3.516,9.65,2.92,16.48c-0.612,7.022-2.652,12.26-6.118,15.715
		c-3.467,3.455-8.404,4.671-14.812,3.65l-8.7-1.388l-2.25,25.804l-15.961-2.543L132.616,190.103z M145.992,222.295l3.894,0.621
		c3.064,0.488,5.277,0.111,6.643-1.13c1.364-1.24,2.144-2.984,2.34-5.229c0.191-2.183-0.186-4.117-1.129-5.807
		c-0.943-1.69-2.9-2.772-5.87-3.246l-4.525-0.72L145.992,222.295z"/>
	<path clip-path="url(#SVGID_2_)" fill="#FFFEF9" d="M216.812,274.033l-13.33-2.126l0.71-8.155
		c-2.279,3.033-4.493,5.103-6.639,6.201c-2.148,1.103-4.695,1.417-7.641,0.947c-3.929-0.628-6.872-2.706-8.828-6.241
		c-1.956-3.534-2.646-8.605-2.07-15.217l2.797-32.064l14.347,2.286l-2.416,27.705c-0.275,3.16-0.039,5.477,0.71,6.941
		c0.75,1.465,1.908,2.325,3.475,2.572c1.707,0.274,3.182-0.386,4.424-1.987c1.242-1.596,2.062-4.688,2.462-9.274l2.114-24.239
		l14.277,2.277L216.812,274.033z"/>
	<path clip-path="url(#SVGID_2_)" fill="none" stroke="#231F20" stroke-width="2" stroke-miterlimit="10" d="M216.812,274.033
		l-13.33-2.126l0.71-8.155c-2.279,3.033-4.493,5.103-6.639,6.201c-2.148,1.103-4.695,1.417-7.641,0.947
		c-3.929-0.628-6.872-2.706-8.828-6.241c-1.956-3.534-2.646-8.605-2.07-15.217l2.797-32.064l14.347,2.286l-2.416,27.705
		c-0.275,3.16-0.039,5.477,0.71,6.941c0.75,1.465,1.908,2.325,3.475,2.572c1.707,0.274,3.182-0.386,4.424-1.987
		c1.242-1.596,2.062-4.688,2.462-9.274l2.114-24.239l14.277,2.277L216.812,274.033z"/>
	<path clip-path="url(#SVGID_2_)" fill="#FFFEF9" d="M231.61,205.887l14.418,2.298l-2.102,24.099
		c1.603-1.797,3.355-3.057,5.256-3.781c1.9-0.723,3.95-0.908,6.148-0.557c4.537,0.722,8.097,3.528,10.683,8.412
		c2.585,4.884,3.519,11.457,2.799,19.708c-0.48,5.505-1.581,10.241-3.302,14.214c-1.723,3.976-3.872,6.806-6.449,8.494
		c-2.579,1.691-5.329,2.3-8.252,1.835c-2.502-0.398-4.731-1.493-6.685-3.276c-1.468-1.389-2.989-3.797-4.563-7.221l-0.649,7.448
		l-13.366-2.134L231.61,205.887z M242.067,252.38c-0.378,4.331-0.049,7.567,0.985,9.704c1.035,2.138,2.477,3.352,4.324,3.646
		c1.708,0.275,3.223-0.458,4.547-2.185c1.324-1.728,2.184-4.852,2.579-9.374c0.347-3.984,0.035-7.001-0.937-9.047
		c-0.97-2.046-2.263-3.199-3.877-3.456c-1.941-0.311-3.61,0.41-5.008,2.158C243.283,245.574,242.412,248.428,242.067,252.38"/>
	<path clip-path="url(#SVGID_2_)" fill="none" stroke="#231F20" stroke-width="2" stroke-miterlimit="10" d="M231.61,205.887
		l14.418,2.298l-2.102,24.099c1.603-1.797,3.355-3.057,5.256-3.781c1.9-0.723,3.95-0.908,6.148-0.557
		c4.537,0.722,8.097,3.528,10.683,8.412c2.585,4.884,3.519,11.457,2.799,19.708c-0.48,5.505-1.581,10.241-3.302,14.214
		c-1.723,3.976-3.872,6.806-6.449,8.494c-2.579,1.691-5.329,2.3-8.252,1.835c-2.502-0.398-4.731-1.493-6.685-3.276
		c-1.468-1.389-2.989-3.797-4.563-7.221l-0.649,7.448l-13.366-2.134L231.61,205.887z M242.067,252.38
		c-0.378,4.331-0.049,7.567,0.985,9.704c1.035,2.138,2.477,3.352,4.324,3.646c1.708,0.275,3.223-0.458,4.547-2.185
		c1.324-1.728,2.184-4.852,2.579-9.374c0.347-3.984,0.035-7.001-0.937-9.047c-0.97-2.046-2.263-3.199-3.877-3.456
		c-1.941-0.311-3.61,0.41-5.008,2.158C243.283,245.574,242.412,248.428,242.067,252.38z"/>
	<polygon clip-path="url(#SVGID_2_)" fill="#FFFEF9" points="279.949,213.595 294.262,215.875 288.198,285.417 273.885,283.137 	"/>
	<polygon clip-path="url(#SVGID_2_)" fill="none" stroke="#231F20" stroke-width="2" stroke-miterlimit="10" points="
		279.949,213.595 294.262,215.875 288.198,285.417 273.885,283.137 	"/>
	<path clip-path="url(#SVGID_2_)" fill="#FFFEF9" d="M302.237,236.579l14.277,2.277l-4.393,50.374l-14.278-2.276L302.237,236.579z
		 M303.908,217.414l14.278,2.277l-1.146,13.141l-14.279-2.277L303.908,217.414z"/>
	<path clip-path="url(#SVGID_2_)" fill="none" stroke="#231F20" stroke-width="2" stroke-miterlimit="10" d="M302.237,236.579
		l14.277,2.277l-4.393,50.374l-14.278-2.276L302.237,236.579z M303.908,217.414l14.278,2.277l-1.146,13.141l-14.279-2.277
		L303.908,217.414z"/>
	<path clip-path="url(#SVGID_2_)" fill="#FFFEF9" d="M350.746,275.382l13.395,4.251c-1.084,3.71-2.6,6.826-4.551,9.35
		c-1.952,2.527-4.321,4.354-7.112,5.481c-2.789,1.126-6.229,1.361-10.323,0.708c-3.95-0.629-7.199-1.652-9.742-3.065
		c-2.545-1.413-4.667-3.387-6.367-5.918c-1.701-2.528-2.958-5.378-3.771-8.55c-0.815-3.176-1.007-7.24-0.573-12.204
		c0.452-5.178,1.482-9.39,3.093-12.626c1.179-2.372,2.686-4.43,4.521-6.173c1.836-1.74,3.673-2.961,5.514-3.662
		c2.917-1.102,6.551-1.309,10.899-0.616c6.081,0.97,10.591,3.179,13.525,6.63c2.935,3.451,4.8,8.108,5.593,13.971l-13.646,0.279
		c-0.234-2.217-0.858-3.96-1.875-5.23c-1.017-1.266-2.459-2.05-4.33-2.349c-2.361-0.374-4.373,0.466-6.034,2.52
		c-1.661,2.058-2.694,5.405-3.101,10.042c-0.358,4.136,0.092,7.396,1.354,9.772s3.017,3.746,5.262,4.104
		c1.87,0.298,3.501-0.1,4.887-1.194C348.753,279.809,349.879,277.97,350.746,275.382"/>
	<path clip-path="url(#SVGID_2_)" fill="none" stroke="#231F20" stroke-width="2" stroke-miterlimit="10" d="M350.746,275.382
		l13.395,4.251c-1.084,3.71-2.6,6.826-4.551,9.35c-1.952,2.527-4.321,4.354-7.112,5.481c-2.789,1.126-6.229,1.361-10.323,0.708
		c-3.95-0.629-7.199-1.652-9.742-3.065c-2.545-1.413-4.667-3.387-6.367-5.918c-1.701-2.528-2.958-5.378-3.771-8.55
		c-0.815-3.176-1.007-7.24-0.573-12.204c0.452-5.178,1.482-9.39,3.093-12.626c1.179-2.372,2.686-4.43,4.521-6.173
		c1.836-1.74,3.673-2.961,5.514-3.662c2.917-1.102,6.551-1.309,10.899-0.616c6.081,0.97,10.591,3.179,13.525,6.63
		c2.935,3.451,4.8,8.108,5.593,13.971l-13.646,0.279c-0.234-2.217-0.858-3.96-1.875-5.23c-1.017-1.266-2.459-2.05-4.33-2.349
		c-2.361-0.374-4.373,0.466-6.034,2.52c-1.661,2.058-2.694,5.405-3.101,10.042c-0.358,4.136,0.092,7.396,1.354,9.772
		s3.017,3.746,5.262,4.104c1.87,0.298,3.501-0.1,4.887-1.194C348.753,279.809,349.879,277.97,350.746,275.382z"/>
	<polygon clip-path="url(#SVGID_2_)" fill="#FFFEF9" points="122.521,269.375 138.412,271.91 133.841,324.324 158.642,328.28 
		157.149,345.404 116.457,338.916 	"/>
	<polygon clip-path="url(#SVGID_2_)" fill="none" stroke="#231F20" stroke-width="2" stroke-miterlimit="10" points="
		122.521,269.375 138.412,271.91 133.841,324.324 158.642,328.28 157.149,345.404 116.457,338.916 	"/>
	<path clip-path="url(#SVGID_2_)" fill="#FFFEF9" d="M168.347,296.11l14.277,2.277l-4.393,50.379l-14.277-2.275L168.347,296.11z
		 M170.019,276.949l14.277,2.277l-1.146,13.139l-14.277-2.277L170.019,276.949z"/>
	<path clip-path="url(#SVGID_2_)" fill="none" stroke="#231F20" stroke-width="2" stroke-miterlimit="10" d="M168.347,296.11
		l14.277,2.277l-4.393,50.379l-14.277-2.275L168.347,296.11z M170.019,276.949l14.277,2.277l-1.146,13.139l-14.277-2.277
		L170.019,276.949z"/>
	<path clip-path="url(#SVGID_2_)" fill="#FFFEF9" d="M193.486,280.691l14.418,2.296l-2.101,24.097
		c1.602-1.795,3.354-3.053,5.255-3.777c1.9-0.725,3.95-0.912,6.149-0.557c4.536,0.72,8.098,3.526,10.683,8.41
		c2.585,4.888,3.518,11.457,2.799,19.711c-0.48,5.501-1.582,10.236-3.303,14.214c-1.721,3.972-3.871,6.806-6.449,8.494
		c-2.578,1.687-5.329,2.3-8.252,1.835c-2.502-0.398-4.731-1.493-6.684-3.28c-1.469-1.389-2.99-3.793-4.564-7.221l-0.649,7.447
		l-13.366-2.13L193.486,280.691z M203.943,327.181c-0.378,4.335-0.049,7.567,0.986,9.704c1.035,2.138,2.476,3.352,4.323,3.646
		c1.708,0.275,3.223-0.453,4.547-2.181c1.326-1.731,2.184-4.855,2.579-9.378c0.347-3.984,0.035-7.001-0.936-9.047
		c-0.971-2.046-2.264-3.196-3.878-3.455c-1.941-0.311-3.61,0.41-5.007,2.157C205.159,320.379,204.288,323.229,203.943,327.181"/>
	<path clip-path="url(#SVGID_2_)" fill="none" stroke="#231F20" stroke-width="2" stroke-miterlimit="10" d="M193.486,280.691
		l14.418,2.296l-2.101,24.097c1.602-1.795,3.354-3.053,5.255-3.777c1.9-0.725,3.95-0.912,6.149-0.557
		c4.536,0.72,8.098,3.526,10.683,8.41c2.585,4.888,3.518,11.457,2.799,19.711c-0.48,5.501-1.582,10.236-3.303,14.214
		c-1.721,3.972-3.871,6.806-6.449,8.494c-2.578,1.687-5.329,2.3-8.252,1.835c-2.502-0.398-4.731-1.493-6.684-3.28
		c-1.469-1.389-2.99-3.793-4.564-7.221l-0.649,7.447l-13.366-2.13L193.486,280.691z M203.943,327.181
		c-0.378,4.335-0.049,7.567,0.986,9.704c1.035,2.138,2.476,3.352,4.323,3.646c1.708,0.275,3.223-0.453,4.547-2.181
		c1.326-1.731,2.184-4.855,2.579-9.378c0.347-3.984,0.035-7.001-0.936-9.047c-0.971-2.046-2.264-3.196-3.878-3.455
		c-1.941-0.311-3.61,0.41-5.007,2.157C205.159,320.379,204.288,323.229,203.943,327.181z"/>
	<path clip-path="url(#SVGID_2_)" fill="#FFFEF9" d="M239.804,307.506l13.365,2.129l-0.72,8.256c1.599-3.367,3.14-5.617,4.625-6.743
		c1.485-1.126,3.234-1.528,5.245-1.206c2.105,0.334,4.331,1.588,6.679,3.757l-5.619,13.052c-1.602-1.218-2.893-1.903-3.875-2.062
		c-1.871-0.298-3.413,0.515-4.623,2.437c-1.73,2.707-2.947,8.092-3.649,16.156l-1.473,16.889l-14.347-2.289L239.804,307.506z"/>
	<path clip-path="url(#SVGID_2_)" fill="none" stroke="#231F20" stroke-width="2" stroke-miterlimit="10" d="M239.804,307.506
		l13.365,2.129l-0.72,8.256c1.599-3.367,3.14-5.617,4.625-6.743c1.485-1.126,3.234-1.528,5.245-1.206
		c2.105,0.334,4.331,1.588,6.679,3.757l-5.619,13.052c-1.602-1.218-2.893-1.903-3.875-2.062c-1.871-0.298-3.413,0.515-4.623,2.437
		c-1.73,2.707-2.947,8.092-3.649,16.156l-1.473,16.889l-14.347-2.289L239.804,307.506z"/>
	<path clip-path="url(#SVGID_2_)" fill="#FFFEF9" d="M284.371,331.158l-13.477-4.124c0.796-3.14,1.76-5.56,2.892-7.256
		c1.131-1.696,2.669-3.077,4.611-4.147c1.396-0.772,3.263-1.241,5.601-1.413c2.339-0.175,4.841-0.048,7.507,0.379
		c4.28,0.68,7.69,1.552,10.229,2.614s4.584,2.763,6.135,5.092c1.093,1.615,1.876,3.784,2.35,6.507
		c0.474,2.719,0.607,5.266,0.4,7.639l-1.939,22.246c-0.206,2.372-0.256,4.247-0.152,5.628c0.105,1.377,0.44,3.172,1.007,5.378
		l-13.4-2.134c-0.426-1.385-0.689-2.428-0.794-3.136c-0.104-0.705-0.175-1.796-0.212-3.276c-2.084,2.133-4.094,3.578-6.033,4.326
		c-2.647,0.988-5.642,1.218-8.987,0.685c-4.443-0.709-7.695-2.639-9.755-5.791c-2.062-3.148-2.914-6.763-2.559-10.843
		c0.334-3.825,1.439-6.842,3.315-9.043c1.875-2.201,5.098-3.547,9.67-4.036c5.482-0.601,9.044-1.066,10.685-1.396
		c1.642-0.335,3.392-0.832,5.252-1.497c0.207-2.372-0.011-4.093-0.653-5.155s-1.875-1.743-3.699-2.034
		c-2.339-0.37-4.137-0.143-5.395,0.681C285.987,327.695,285.122,329.064,284.371,331.158 M295.867,343.282
		c-2.047,0.637-4.167,1.146-6.358,1.536c-2.991,0.582-4.916,1.313-5.776,2.206c-0.886,0.915-1.388,2.037-1.503,3.367
		c-0.133,1.516,0.151,2.821,0.85,3.908c0.699,1.091,1.809,1.756,3.329,1.998c1.591,0.255,3.115-0.031,4.575-0.855
		c1.458-0.828,2.54-1.946,3.244-3.355c0.704-1.412,1.161-3.319,1.37-5.72L295.867,343.282z"/>
	<path clip-path="url(#SVGID_2_)" fill="none" stroke="#231F20" stroke-width="2" stroke-miterlimit="10" d="M284.371,331.158
		l-13.477-4.124c0.796-3.14,1.76-5.56,2.892-7.256c1.131-1.696,2.669-3.077,4.611-4.147c1.396-0.772,3.263-1.241,5.601-1.413
		c2.339-0.175,4.841-0.048,7.507,0.379c4.28,0.68,7.69,1.552,10.229,2.614s4.584,2.763,6.135,5.092
		c1.093,1.615,1.876,3.784,2.35,6.507c0.474,2.719,0.607,5.266,0.4,7.639l-1.939,22.246c-0.206,2.372-0.256,4.247-0.152,5.628
		c0.105,1.377,0.44,3.172,1.007,5.378l-13.4-2.134c-0.426-1.385-0.689-2.428-0.794-3.136c-0.104-0.705-0.175-1.796-0.212-3.276
		c-2.084,2.133-4.094,3.578-6.033,4.326c-2.647,0.988-5.642,1.218-8.987,0.685c-4.443-0.709-7.695-2.639-9.755-5.791
		c-2.062-3.148-2.914-6.763-2.559-10.843c0.334-3.825,1.439-6.842,3.315-9.043c1.875-2.201,5.098-3.547,9.67-4.036
		c5.482-0.601,9.044-1.066,10.685-1.396c1.642-0.335,3.392-0.832,5.252-1.497c0.207-2.372-0.011-4.093-0.653-5.155
		s-1.875-1.743-3.699-2.034c-2.339-0.37-4.137-0.143-5.395,0.681C285.987,327.695,285.122,329.064,284.371,331.158z
		 M295.867,343.282c-2.047,0.637-4.167,1.146-6.358,1.536c-2.991,0.582-4.916,1.313-5.776,2.206
		c-0.886,0.915-1.388,2.037-1.503,3.367c-0.133,1.516,0.151,2.821,0.85,3.908c0.699,1.091,1.809,1.756,3.329,1.998
		c1.591,0.255,3.115-0.031,4.575-0.855c1.458-0.828,2.54-1.946,3.244-3.355c0.704-1.412,1.161-3.319,1.37-5.72L295.867,343.282z"/>
	<path clip-path="url(#SVGID_2_)" fill="#FFFEF9" d="M320.837,320.426l13.364,2.129l-0.72,8.257c1.6-3.368,3.14-5.617,4.626-6.743
		c1.485-1.126,3.232-1.528,5.244-1.206c2.105,0.334,4.331,1.588,6.679,3.757l-5.619,13.052c-1.6-1.218-2.892-1.902-3.875-2.062
		c-1.87-0.298-3.411,0.514-4.622,2.436c-1.73,2.707-2.947,8.092-3.649,16.156l-1.473,16.889l-14.349-2.289L320.837,320.426z"/>
	<path clip-path="url(#SVGID_2_)" fill="none" stroke="#231F20" stroke-width="2" stroke-miterlimit="10" d="M320.837,320.426
		l13.364,2.129l-0.72,8.257c1.6-3.368,3.14-5.617,4.626-6.743c1.485-1.126,3.232-1.528,5.244-1.206
		c2.105,0.334,4.331,1.588,6.679,3.757l-5.619,13.052c-1.6-1.218-2.892-1.902-3.875-2.062c-1.87-0.298-3.411,0.514-4.622,2.436
		c-1.73,2.707-2.947,8.092-3.649,16.156l-1.473,16.889l-14.349-2.289L320.837,320.426z"/>
	<path clip-path="url(#SVGID_2_)" fill="#FFFEF9" d="M352.654,325.498l15.065,2.404l4.758,34.761l10.062-32.401l14.068,2.245
		l-19.473,51.471c-2.22,5.87-4.299,9.743-6.24,11.614c-2.742,2.644-6.651,3.562-11.723,2.75c-2.059-0.325-5.204-1.214-9.438-2.659
		l0.053-13.647c1.979,1.214,4.231,2.022,6.754,2.424c1.684,0.268,3.09-0.036,4.22-0.916c1.132-0.879,2.177-2.606,3.136-5.182
		L352.654,325.498z"/>
	<path clip-path="url(#SVGID_2_)" fill="none" stroke="#231F20" stroke-width="2" stroke-miterlimit="10" d="M352.654,325.498
		l15.065,2.404l4.758,34.761l10.062-32.401l14.068,2.245l-19.473,51.471c-2.22,5.87-4.299,9.743-6.24,11.614
		c-2.742,2.644-6.651,3.562-11.723,2.75c-2.059-0.325-5.204-1.214-9.438-2.659l0.053-13.647c1.979,1.214,4.231,2.022,6.754,2.424
		c1.684,0.268,3.09-0.036,4.22-0.916c1.132-0.879,2.177-2.606,3.136-5.182L352.654,325.498z"/>
</g>
<text transform="matrix(1 0 0 1.6942 144.3027 468.7036)"><tspan x="0" y="0" font-family="'Arial-Black'" font-size="45.367">books a</tspan><tspan x="194.139" y="0" font-family="'Arial-Black'" font-size="45.367">r</tspan><tspan x="215.001" y="0" font-family="'Arial-Black'" font-size="45.367">e on</tspan><tspan x="320.909" y="0" font-family="'Arial-Black'" font-size="45.367">l</tspan><tspan x="336.787" y="0" font-family="'Arial-Black'" font-size="45.367">y</tspan></text>
<g>
	<defs>
		<rect id="SVGID_3_" y="-81.863" width="612" height="792"/>
	</defs>
	<clipPath id="SVGID_4_">
		<use xlink:href="#SVGID_3_"  overflow="visible"/>
	</clipPath>
	<g clip-path="url(#SVGID_4_)">
		<text transform="matrix(-6.123234e-17 -1 1.5301 -9.369377e-17 574.6992 468.7017)"><tspan x="0" y="0" font-family="'Arial-Black'" font-size="50.2317">hal</tspan><tspan x="83.736" y="0" font-family="'Arial-Black'" font-size="50.2317" letter-spacing="2">f</tspan><tspan x="106.197" y="0" font-family="'Arial-Black'" font-size="50.2317"> the sto</tspan><tspan x="315.488" y="0" font-family="'Arial-Black'" font-size="50.2317" letter-spacing="2">r</tspan><tspan x="340.696" y="0" font-family="'Arial-Black'" font-size="50.2317">y</tspan></text>
	</g>
</g>
</svg>
