<?xml version="1.0" encoding="UTF-8" standalone="no"?>
<svg
   xmlns:dc="http://purl.org/dc/elements/1.1/"
   xmlns:cc="http://creativecommons.org/ns#"
   xmlns:rdf="http://www.w3.org/1999/02/22-rdf-syntax-ns#"
   xmlns:svg="http://www.w3.org/2000/svg"
   xmlns="http://www.w3.org/2000/svg"
   viewBox="0 0 562.08752 483.21249"
   height="483.21249"
   width="562.08752"
   xml:space="preserve"
   version="1.1"
   id="svg2"><metadata
     id="metadata8"><rdf:RDF><cc:Work
         rdf:about=""><dc:format>image/svg+xml</dc:format><dc:type
           rdf:resource="http://purl.org/dc/dcmitype/StillImage" /></cc:Work></rdf:RDF></metadata><defs
     id="defs6" /><g
     transform="matrix(1.25,0,0,-1.25,0,483.2125)"
     id="g10"><g
       transform="scale(0.1,0.1)"
       id="g12"><path
         id="path14"
         style="fill:#231f20;fill-opacity:1;fill-rule:nonzero;stroke:none"
         d="m 595.707,183.93 c 56.305,0 107.922,10.519 154.973,31.648 47.101,21.024 87.41,49.684 120.968,85.922 33.563,36.23 59.817,78.641 78.743,127.371 18.964,48.617 28.433,100.457 28.433,155.617 l 0,3.242 c 0,55.168 -9.469,107.309 -28.433,156.508 -18.926,49.16 -45.434,91.844 -79.532,128.071 -34.082,36.242 -74.961,65.203 -122.543,86.8 -47.714,21.563 -99.636,32.43 -155.937,32.43 -56.262,0 -107.961,-10.609 -154.977,-31.629 C 390.309,938.832 349.996,910.211 316.43,873.93 282.867,837.738 256.672,795.328 237.652,746.609 218.719,698.012 209.258,646.059 209.258,590.969 l 0,-3.239 c 0,-55.171 9.461,-107.289 28.394,-156.511 19.02,-49.16 45.485,-91.867 79.567,-128.098 34.09,-36.25 74.969,-65.16 122.551,-86.723 47.628,-21.687 99.64,-32.468 155.937,-32.468 z M 592.379,0 C 504.797,0 424.742,15.4297 352.184,46.2813 279.711,77.0586 217.496,119.051 165.527,172.109 113.609,225.082 72.9922,287.02 43.7695,358.02 14.5898,428.871 0,504.359 0,584.488 l 0,3.242 c 0,80.059 14.5898,155.59 43.7695,226.481 29.2227,70.898 70.3715,133.121 123.4335,186.699 52.969,53.59 115.707,96.09 188.266,127.45 72.515,31.34 152.562,47.11 240.238,47.11 87.59,0 167.68,-15.38 240.195,-46.36 72.461,-30.75 134.727,-72.73 186.648,-125.74 51.92,-53.069 92.49,-115.03 121.76,-185.921 29.23,-70.879 43.82,-146.41 43.82,-226.48 l 0,-3.239 c 0,-80.128 -14.59,-155.582 -43.82,-226.48 C 1115.04,290.352 1073.95,228.16 1020.88,174.559 967.914,120.969 905.172,78.4297 832.617,47.1016 760.141,15.6914 680.098,0 592.379,0" /><path
         id="path16"
         style="fill:#231f20;fill-opacity:1;fill-rule:nonzero;stroke:none"
         d="m 1848.86,0 c -82.24,0 -158.83,15.1211 -229.73,45.4805 -70.93,30.3086 -132.1,71.6795 -183.4,124.2185 -51.44,52.492 -91.71,114.442 -120.94,185.86 -29.18,71.429 -43.77,147.742 -43.77,228.929 l 0,3.242 c 0,81.192 14.34,157.18 42.99,228.149 28.61,70.801 68.91,133.062 120.84,186.691 51.92,53.56 113.91,95.79 185.91,126.54 71.94,30.98 150.72,46.36 236.29,46.36 51.87,0 99.24,-4.38 142.01,-13.02 42.75,-8.71 81.97,-20.89 117.72,-36.63 35.71,-15.77 68.71,-34.47 99.07,-56.12 30.33,-21.73 58.97,-45.57 86.06,-71.649 L 2173.62,850.27 c -45.49,42.242 -93.6,76.332 -144.5,102.261 -50.88,25.989 -108.8,39.008 -173.73,39.008 -54.16,0 -104.19,-10.609 -150.2,-31.629 -46.01,-21.078 -85.57,-49.699 -118.52,-85.98 -32.99,-36.192 -59.02,-78.602 -77.95,-127.321 -18.97,-48.597 -28.39,-100.55 -28.39,-155.64 l 0,-3.239 c 0,-55.171 9.42,-107.289 28.39,-156.511 18.93,-49.16 44.96,-92.168 77.95,-128.887 32.95,-36.812 72.51,-65.73 118.52,-86.754 46.01,-21.129 96.04,-31.648 150.2,-31.648 34.6,0 66.51,3.511 95.78,10.601 29.26,6.981 56.78,16.699 82.76,29.188 26.07,12.441 51.12,27.871 75.54,46.261 24.35,18.399 48.42,38.961 72.25,61.7 l 128.24,-129.91 c -29.17,-30.258 -59.81,-58.02 -91.69,-82.899 -32,-24.9726 -66.35,-46.4491 -103.15,-64.3593 C 2078.31,36.6211 2038.05,23.0586 1994.14,13.8008 1950.33,4.64063 1901.97,0 1848.86,0" /><path
         id="path18"
         style="fill:#231f20;fill-opacity:1;fill-rule:nonzero;stroke:none"
         d="m 2451.44,1155.35 199.8,0 0,-954.51 597.5,0 0,-181.8205 -797.3,0 0,1136.3305" /><path
         id="path20"
         style="fill:#231f20;fill-opacity:1;fill-rule:nonzero;stroke:none"
         d="m 3821.05,0 c -82.24,0 -158.87,15.1211 -229.76,45.4805 -70.9,30.3086 -132.07,71.6795 -183.41,124.2185 -51.39,52.492 -91.7,114.442 -120.89,185.86 -29.21,71.429 -43.81,147.742 -43.81,228.929 l 0,3.242 c 0,81.192 14.32,157.18 42.99,228.149 28.6,70.801 68.91,133.062 120.84,186.691 51.96,53.56 113.91,95.79 185.89,126.54 72,30.98 150.73,46.36 236.27,46.36 51.91,0 99.32,-4.38 142.04,-13.02 42.77,-8.71 82.02,-20.89 117.73,-36.63 35.66,-15.77 68.74,-34.47 99.02,-56.12 30.35,-21.73 59.07,-45.57 86.14,-71.649 L 4145.77,850.27 c -45.43,42.242 -93.6,76.332 -144.47,102.261 -50.91,25.989 -108.83,39.008 -173.77,39.008 -54.11,0 -104.18,-10.609 -150.18,-31.629 -46.07,-21.078 -85.54,-49.699 -118.49,-85.98 -33.07,-36.192 -59.02,-78.602 -77.99,-127.321 -18.93,-48.597 -28.4,-100.55 -28.4,-155.64 l 0,-3.239 c 0,-55.171 9.47,-107.289 28.4,-156.511 18.97,-49.16 44.92,-92.168 77.99,-128.887 32.95,-36.812 72.42,-65.73 118.49,-86.754 46,-21.129 96.07,-31.648 150.18,-31.648 34.62,0 66.52,3.511 95.79,10.601 29.26,6.981 56.82,16.699 82.77,29.188 26.01,12.441 51.16,27.871 75.53,46.261 24.4,18.399 48.41,38.961 72.29,61.7 L 4282.12,201.77 C 4252.89,171.512 4222.36,143.75 4190.4,118.871 4158.42,93.8984 4124.08,72.4219 4087.32,54.5117 4050.51,36.6211 4010.2,23.0586 3966.3,13.8008 3922.47,4.64063 3874.11,0 3821.05,0" /><path
         id="path22"
         style="fill:#19508a;fill-opacity:1;fill-rule:nonzero;stroke:none"
         d="m 2906.5,3082.56 c -84.2,509.61 -565.86,854.74 -1075.65,770.5 -509.88,-84.15 -854.963,-565.78 -770.75,-1075.46 62.83,-380.88 347.76,-669.71 700.52,-756.24 1.04,27.64 4.59,55.34 10.77,82.81 -252.72,88.77 -452.3,313.98 -500.06,603.77 -69.04,417.73 202.95,810.62 607.54,877.37 360.5,59.52 704.33,-159.99 823.9,-503.98 82.71,-29.54 155.71,-75.53 216.04,-134.03 -0.87,44.69 -4.82,89.86 -12.31,135.26" /><path
         id="path24"
         style="fill:#349732;fill-opacity:1;fill-rule:nonzero;stroke:none"
         d="m 2710.65,3249.64 c -387.63,106.39 -788.05,-121.67 -894.35,-509.1 -43.9,-160.11 -30.71,-322.26 27.08,-465.1 21.12,29.4 44.91,55.73 70.98,78.65 -17.53,90.48 -15.47,186.61 10.77,282.17 88.6,322.65 413.62,514.87 726.15,429.08 312.54,-85.75 494.11,-416.99 405.59,-739.68 -60.23,-219.52 -230.11,-378.39 -430.91,-430.67 -7.31,-23.91 -16.87,-47.41 -28.3,-70.45 287.85,31.77 540.93,234.63 622.26,530.86 106.29,387.46 -121.81,787.95 -509.27,894.24" /><path
         id="path26"
         style="fill:#f46d1e;fill-opacity:1;fill-rule:nonzero;stroke:none"
         d="m 2532.82,1799.22 c -124.19,-189.45 -373.62,-245.59 -557.16,-125.32 -183.55,120.32 -231.65,371.47 -107.35,560.93 124.31,189.45 373.7,245.57 557.15,125.26 183.46,-120.27 231.6,-371.46 107.36,-560.87 z m -33.54,693.19 c -240.05,157.43 -562.27,90.31 -719.57,-149.76 -157.46,-239.97 -90.51,-562.23 149.73,-719.65 240.06,-157.39 562.3,-90.35 719.7,149.7 157.38,240.07 90.3,562.33 -149.86,719.71" /><path
         id="path28"
         style="fill:#231f20;fill-opacity:1;fill-rule:nonzero;stroke:none"
         d="m 4443.65,1100.12 c 3.32,0 5.83,0.82 7.6,2.42 1.76,1.6 2.65,3.65 2.65,6.13 l 0,0.32 c 0,2.91 -0.93,5.09 -2.82,6.53 -1.85,1.46 -4.45,2.18 -7.77,2.18 l -12.91,0 0,-17.58 13.25,0 z m -26.45,29.25 26.59,0 c 7.98,0 14.13,-2.18 18.5,-6.54 3.31,-3.31 4.97,-7.67 4.97,-13.04 l 0,-0.31 c 0,-4.89 -1.19,-8.82 -3.57,-11.82 -2.38,-3.03 -5.5,-5.25 -9.34,-6.69 l 14.63,-21.47 -15.39,0 -12.78,19.28 -10.41,0 0,-19.28 -13.2,0 0,59.87 z m 23,-81.64 c 7.16,0 13.76,1.35 19.83,3.96 6.08,2.65 11.33,6.23 15.78,10.73 4.46,4.52 7.95,9.83 10.5,15.95 2.54,6.1 3.82,12.6 3.82,19.43 l 0,0.3 c 0,6.85 -1.26,13.3 -3.75,19.36 -2.49,6.07 -5.95,11.36 -10.41,15.87 -4.45,4.51 -9.74,8.06 -15.78,10.65 -6.05,2.6 -12.62,3.88 -19.66,3.88 -7.17,0 -13.77,-1.31 -19.83,-3.96 -6.06,-2.65 -11.35,-6.22 -15.78,-10.73 -4.45,-4.51 -7.95,-9.83 -10.52,-15.93 -2.54,-6.11 -3.79,-12.6 -3.79,-19.44 l 0,-0.31 c 0,-6.84 1.25,-13.29 3.79,-19.36 2.57,-6.07 6.02,-11.36 10.45,-15.86 4.38,-4.5 9.64,-8.05 15.7,-10.65 6.06,-2.59 12.61,-3.89 19.65,-3.89 z m 0,-6.2 c -7.86,0 -15.23,1.46 -22.07,4.41 -6.85,2.97 -12.77,6.98 -17.81,12.05 -5.01,5.08 -8.98,11.02 -11.9,17.81 -2.88,6.78 -4.34,14.02 -4.34,21.69 l 0,0.31 c 0,7.66 1.46,14.91 4.34,21.7 2.92,6.77 6.91,12.75 11.98,17.88 5.07,5.12 11.07,9.2 17.96,12.19 6.9,3 14.27,4.51 22.17,4.51 7.86,0 15.23,-1.46 22.07,-4.43 6.83,-2.95 12.77,-6.96 17.82,-12.03 5,-5.09 8.97,-11.03 11.88,-17.81 2.9,-6.8 4.35,-14.02 4.35,-21.71 l 0,-0.3 c 0,-7.68 -1.45,-14.91 -4.35,-21.68 -2.91,-6.8 -6.9,-12.76 -11.96,-17.88 -5.09,-5.15 -11.08,-9.21 -17.98,-12.22 -6.89,-3 -14.26,-4.49 -22.16,-4.49" /></g></g></svg>