<?xml version="1.0" encoding="UTF-8" standalone="no"?>
<svg
   xmlns:dc="http://purl.org/dc/elements/1.1/"
   xmlns:cc="http://creativecommons.org/ns#"
   xmlns:rdf="http://www.w3.org/1999/02/22-rdf-syntax-ns#"
   xmlns:svg="http://www.w3.org/2000/svg"
   xmlns="http://www.w3.org/2000/svg"
   viewBox="0 0 405.02499 533.17499"
   height="533.17499"
   width="405.02499"
   xml:space="preserve"
   version="1.1"
   id="svg2"><metadata
     id="metadata8"><rdf:RDF><cc:Work
         rdf:about=""><dc:format>image/svg+xml</dc:format><dc:type
           rdf:resource="http://purl.org/dc/dcmitype/StillImage" /></cc:Work></rdf:RDF></metadata><defs
     id="defs6" /><g
     transform="matrix(1.25,0,0,-1.25,0,533.175)"
     id="g10"><g
       transform="scale(0.1,0.1)"
       id="g12"><path
         id="path14"
         style="fill:#f14f1b;fill-opacity:1;fill-rule:evenodd;stroke:none"
         d="m 1013.26,2331.33 c 0,-259.54 -225.53,-468.77 -502.248,-468.77 -276.715,0 -502.25028,209.23 -502.25028,468.77 L 8.73828,3796.61 c 0,259.54 225.53472,468.78 502.24572,468.78 276.727,0 502.256,-209.24 502.256,-468.77 l 0.02,-1465.29 z m -634.92,-9.78 c 0,-68.89 58.894,-130.89 132.672,-130.89 73.769,0 132.664,61.99 132.664,130.89 l -0.02,1484.99 c 0,68.91 -58.894,130.88 -132.672,130.88 -73.761,0 -132.664,-61.97 -132.664,-130.88 l 0.02,-1484.99 z m 1235.35,-132.77 c 73.73,0 132.67,61.69 132.67,130.31 0,15.73 -0.42,85.33 -0.42,173.17 0,81.39 -23.78,153.9 -53.52,190.8 l -456.89,555.67 c -93.1,117.42 -123.65,269.67 -123.65,392.39 0,87.84 -0.42,147.9 -0.42,163.32 0,258.19 225.49,466.4 502.25,466.4 276.75,0 502.25,-208.21 502.25,-466.39 l 0.01,-270.97 -369.59,0 0,280.82 c 0,68.62 -58.94,130.3 -132.67,130.3 -73.73,0 -132.67,-61.68 -132.67,-130.3 0,-15.74 0.42,-85.34 0.42,-173.18 0,-81.37 23.78,-153.89 53.52,-190.79 l 454.69,-552.87 c 94.74,-117.77 125.85,-271.56 125.85,-395.2 0,-87.84 0.43,-147.89 0.43,-163.32 0,-258.17 -225.5,-466.38 -502.26,-466.38 -276.75,0 -502.25,208.2 -502.25,466.38 l 0,295.91 369.59,0 0,-305.76 c 0,-68.62 58.93,-130.31 132.66,-130.31 z m 1102.73,-326.22 c -276.71,0 -502.25,209.23 -502.25,468.77 l -0.02,1869.52 369.57,0 0.03,-1879.3 c 0,-68.89 58.9,-130.89 132.67,-130.89 73.77,0 132.66,61.99 132.66,130.89 l -0.02,1879.3 369.58,0 0.03,-1869.52 c 0,-259.54 -225.54,-468.77 -502.25,-468.77" /><path
         id="path16"
         style="fill:#231f20;fill-opacity:1;fill-rule:evenodd;stroke:none"
         d="m 107.113,1552.17 0,-175.28 c -0.558,-26.93 3.024,-48.68 10.774,-65.22 7.761,-16.53 23.105,-25.04 46.043,-25.51 18.582,0.47 31.898,5.71 39.976,15.73 8.063,10.03 12.969,21.99 14.727,35.9 1.754,13.91 2.453,26.95 2.097,39.1 l 0,175.28 c 0.356,11.98 -0.335,23.89 -2.046,35.71 -1.715,11.82 -6.512,21.69 -14.391,29.61 -7.883,7.91 -20.902,12.04 -39.059,12.34 -19.019,-0.58 -32.644,-5.83 -40.898,-15.7 -8.25,-9.88 -13.273,-20.87 -15.063,-32.97 -1.796,-12.1 -2.515,-21.76 -2.16,-28.99 z M 0.03125,1399.58 l 0,135.39 c -0.339844,25.98 2.45703,50.87 8.40625,74.67 5.9492,23.82 17.0703,45.44 33.3789,64.87 15.332,17.34 33.4766,29.75 54.4453,37.2 20.9613,7.47 42.8713,11.09 65.7073,10.92 24.676,0.24 47.801,-3.33 69.375,-10.75 21.582,-7.39 40.465,-20.08 56.644,-38.05 13.457,-14.66 23.77,-34.32 30.938,-58.95 7.172,-24.63 10.793,-56.99 10.859,-97.09 l 0,-122.33 c 0.16,-35.11 -2.937,-64.75 -9.305,-88.93 -6.371,-24.19 -16.98,-44.72 -31.835,-61.61 -13.551,-14.9 -28.239,-25.96 -44.059,-33.16 -15.836,-7.22 -31.148,-11.92 -45.953,-14.08 -14.817,-2.17 -27.465,-3.16 -37.973,-2.93 -16.18,-0.31 -34.168,2.29 -53.949,7.79 -19.7891,5.5 -38.3126,15.73 -55.5587,30.7 -17.246,14.96 -30.1523,36.51 -38.7226,64.6 -5.07423,18.51 -8.45314,37.19 -10.12111,56.04 -1.65234,18.82 -2.421871,34.06 -2.27734,45.7 z M 2128.9,1580.84 c -7.82,14.76 -18.68,27.32 -32.52,37.69 -14.88,11.13 -32.08,16.91 -51.42,17.39 -18.2,-0.52 -32.04,-4.37 -40.73,-12.12 -8.27,-7.37 -13.61,-15.24 -15.68,-23.65 -1.86,-7.58 -2.85,-13.04 -2.43,-15.98 0.72,-18.18 7.44,-32.17 20.41,-41.8 12.45,-9.27 26.45,-16.47 42.08,-21.69 l 60.69,-23.35 c 14.56,-5.47 29.22,-13.16 43.93,-23.07 14.61,-9.87 26.83,-21.64 36.52,-35.17 3.38,-3.99 8.5,-13.57 15.24,-29.06 6.52,-15 10.22,-34.34 10.96,-58.05 0.41,-7.89 -0.43,-19.41 -2.49,-34.56 -2.04,-14.96 -7.78,-31.15 -17.3,-48.61 -9.37,-17.17 -24.91,-33.1 -46.86,-47.79 -14.38,-8.73 -29.89,-15.06 -46.69,-19.07 -16.92,-4.03 -31.58,-5.99 -43.95,-5.94 -41.21,-0.8 -75.41,6.09 -102.62,20.48 -26.6,14.07 -50.25,40.06 -70.81,78.39 l 76.94,53.76 c 8.92,-20.4 20.95,-36.55 36.08,-48.35 15.94,-12.45 34.58,-18.75 55.81,-18.96 8.36,-0.16 17.57,1.43 27.63,4.68 10.34,3.35 19.33,9.39 26.92,18.03 7.86,8.93 11.82,21.39 12.19,36.98 0.21,12.69 -2.45,23.27 -8.23,31.47 -5.73,8.12 -15.53,15.52 -29.05,22.28 -13.39,6.72 -32.02,14.87 -55.84,24.44 -24.35,9.42 -46.64,20.43 -66.82,33.01 -19.99,12.45 -36.02,28.71 -48.1,48.8 -11.96,19.93 -18.21,46.04 -18.53,78.58 0.32,41.72 13.78,75.17 40.22,100.71 26.39,25.49 63.97,38.79 113.15,39.53 34.65,0 64.61,-7.45 90.03,-22.29 24.84,-14.51 46.71,-36.13 65.58,-64.99 l -74.31,-51.72 z m 970.46,-698.391 0,75.11 -54.74,112.921 42.03,0 32.5,-70.23 32.5,70.23 41.78,0 -54.49,-112.921 0,-75.11 -39.58,0 z m -208.1,0 0,151.761 -45.21,0 0,36.27 130,0 0,-36.27 -45.2,0 0,-151.761 -39.59,0 z m -192.59,0 0,188.031 39.58,0 0,-188.031 -39.58,0 z m -221.03,33.172 30.78,22.891 c 5.04,-8.832 10.3,-15.391 15.79,-19.633 5.5,-4.25 11.8,-6.367 18.92,-6.34 6.92,0.133 12.37,2 16.36,5.66 4,3.653 6.04,8.371 6.11,14.141 0.12,10.172 -6.47,18.14 -19.79,23.93 l -24.49,10.601 c -7.5,3.348 -14.07,7.277 -19.74,11.77 -12.5,10.468 -18.78,24.529 -18.82,42.199 0.18,16.79 5.37,30.02 15.58,39.71 10.2,9.67 24.32,14.62 42.33,14.82 26.08,-0.13 45.54,-11.19 58.41,-33.18 l -28.35,-21.35 c -9.4,14.1 -20.15,21.13 -32.24,21.08 -6.19,-0.08 -11.01,-1.71 -14.49,-4.85 -3.48,-3.14 -5.25,-7.27 -5.32,-12.37 0,-4.72 1.78,-8.94 5.35,-12.64 3.57,-3.72 8.96,-7.23 16.16,-10.52 l 25.11,-11.028 c 7.63,-3.371 14.17,-7.242 19.61,-11.602 12.26,-10.379 18.54,-24.871 18.81,-43.48 -0.23,-17.371 -5.86,-31.301 -16.85,-41.758 -11,-10.473 -25.91,-15.84 -44.73,-16.113 -28.1,0.093 -49.6,12.773 -64.5,38.062 z m -419.85,-33.172 0,188.031 120.47,0 0,-36.27 -80.89,0 0,-33.7 55.24,0 0,-36.26 -55.24,0 0,-45.539 86.02,0 0,-36.262 -125.6,0 z m -140.04,0 -41.78,0 -54.74,188.031 39.58,0 36.17,-131.441 35.92,131.441 39.59,0 -54.74,-188.031 z m 349.96,188.211 44.97,0 c 11.95,0.11 22.49,-0.32 31.62,-1.29 9.11,-0.97 16.9,-3.2 23.36,-6.69 8.09,-4.56 14.25,-10.87 18.51,-18.97 4.25,-8.09 6.38,-17.63 6.42,-28.61 -0.04,-12.68 -2.84,-23.338 -8.41,-32.018 -5.56,-8.703 -13.68,-14.992 -24.35,-18.91 l 39.11,-81.543 -43.74,0 -34.7,76.652 -13.21,0 0,-76.652 -39.58,0 0,188.031 z m 39.58,-31.9 0,-49.389 11,0 c 11.92,-0.289 20.7,1.199 26.34,4.438 5.62,3.242 8.42,10.001 8.37,20.261 0.05,10.26 -2.75,17.01 -8.37,20.26 -5.64,3.24 -14.42,4.71 -26.34,4.43 l -11,0 z m -616.34,-156.311 0,188.031 39.59,0 0,-188.031 -39.59,0 z m -237.45,0 0,188.031 38.12,0 57.18,-114.21 -0.73,114.21 34.45,0 0,-188.031 -32.5,0 -62.8,127.071 0.73,-127.071 -34.45,0 z m -193.04,188.031 0,-117.55 c -0.26,-13.559 1.24,-23.43 4.52,-29.649 3.28,-6.222 9.92,-9.281 19.92,-9.199 10.1,-0.07 16.77,3.027 20.01,9.297 3.23,6.262 4.7,16.113 4.43,29.551 l 0,117.55 39.59,0 0,-127.07 c 0.05,-22.09 -5.19,-38.558 -15.71,-49.39 -10.51,-10.84 -26.62,-16.239 -48.32,-16.211 -42.97,-0.129 -64.31,21.742 -64.03,65.601 l 0,127.07 39.59,0 z m 1378.73,316.57 c -28.11,-4.06 -49.65,-12.75 -64.61,-26.06 -14.95,-13.32 -22.51,-29.09 -22.65,-47.28 0.25,-13.31 3.91,-23.87 10.99,-31.71 7.08,-7.84 16.08,-11.84 26.99,-12.03 15.16,0.03 27.13,6.37 35.88,19 8.76,12.66 13.23,31.45 13.4,56.36 l 0,41.72 z m 13.34,-141.3 c -16.12,-16.12 -32.18,-28.12 -48.15,-35.99 -15.95,-7.9 -33,-11.82 -51.12,-11.79 -27.63,0.42 -49.46,9.5 -65.46,27.25 -15.96,17.74 -24.13,41.63 -24.47,71.67 0,80.18 58.61,128.4 175.86,144.67 l 0,28.25 c -0.1,10.66 -4.21,19.31 -12.31,26 -8.1,6.69 -19.55,10.15 -34.31,10.35 -25.99,-0.35 -53.3,-12.45 -81.94,-36.35 l -43.31,55.86 c 36.87,31.29 80.39,46.77 130.58,46.43 88.6,-0.33 133.22,-41.39 133.9,-123.14 l 0,-154.09 c 0.22,-11.77 5.77,-19.19 16.65,-22.2 l 0,-69.99 c -5.44,-0.55 -10.55,-0.79 -15.32,-0.68 -37.53,-0.21 -64.39,14.36 -80.6,43.75 z m 421.14,172.94 86.59,0 0,30.96 c -0.09,39.81 -14.54,59.76 -43.29,59.87 -13.17,-0.04 -23.64,-4.98 -31.39,-14.8 -7.76,-9.8 -11.73,-24.16 -11.91,-43.06 l 0,-32.97 z m 166.54,-197.16 c -39.75,-16.93 -77.5,-25.47 -113.25,-25.57 -45.46,0.18 -80.1,12.76 -103.91,37.77 -23.83,24.99 -35.82,61.3 -35.99,108.92 l 0,84.79 c 0.19,47.24 11.15,83.13 32.9,107.67 21.74,24.53 53.19,36.85 94.35,37 38.69,-0.38 68.9,-11.9 90.69,-34.58 21.77,-22.66 32.83,-54.2 33.21,-94.62 l 0,-77.37 -164.54,0 0,-30.96 c 0.12,-20.68 6.2,-36.69 18.24,-48.04 12.04,-11.33 29.26,-17.08 51.71,-17.23 23.75,0 52.18,8.07 85.28,24.21 l 11.31,-71.99 z m -340.46,129.48 c -0.56,-27.25 2.9,-46.6 10.33,-58.03 7.45,-11.44 22.2,-16.99 44.3,-16.66 l 12.66,0.67 0,-79.4 c -14.22,-1.13 -27.09,-1.58 -38.64,-1.34 -44.98,-0.46 -76.59,8.69 -94.86,27.42 -18.24,18.72 -27.05,49.74 -26.4,93.02 l 0,176.98 -51.95,0 0,67.96 51.95,0 0,128.54 92.61,0 0,-128.54 64.63,0 0,-67.96 -64.63,0 0,-142.66 z m -2518.359,-147.96 0,357.8 79.746,0 6.113,-45.43 c 12.91,35.86 40.762,54.2 83.563,55.04 l 6.121,0 0,-87.21 -8.832,0 c -27.2,0.17 -46.524,-6.78 -58,-20.83 -11.489,-14.03 -17.055,-36.16 -16.735,-66.38 l 0,-192.99 -91.976,0 z m 876.699,149.29 c 0,-17.29 0.66,-30.4 1.95,-42.16 0.54,-4.87 1.46,-9.33 2.63,-13.49 l 2.36,-6.95 c 4.32,-10.98 10.27,-17.82 17.84,-20.56 l 8.93,-2.79 c 4.16,-1.06 7.49,-1.47 10.01,-1.23 6.82,0.01 10.49,0.45 13.83,1.26 7.73,1.65 13.66,5.08 17.81,10.29 2.37,2.99 4.39,6.73 6.06,11.23 3.23,7.46 5.25,16.14 6.05,26.02 1.13,14.02 1.62,28.5 1.13,43.44 l 0,32.28 c 0.11,7.99 0.19,15.68 0,23.04 0.27,17.64 -0.34,33.38 -1.86,47.22 -1.53,13.85 -5.58,24.8 -12.19,32.82 -6.61,8.03 -17.42,12.13 -32.42,12.3 -14.12,-0.33 -24.18,-5.06 -30.2,-14.19 -6,-9.14 -9.58,-20.69 -10.71,-34.7 -0.63,-7.82 -1.09,-15.78 -1.22,-23.89 -0.17,-4.04 -0.12,-7.99 0,-11.82 l 0,-68.12 z m -87.09,39.48 c -0.33,17.28 0.34,36.16 2,56.64 1.66,20.47 6.32,40.07 13.95,58.8 7.64,18.72 20.27,34.1 37.88,46.13 17.61,12.04 42.19,18.26 73.75,18.67 12.55,0.27 25.73,-0.64 39.58,-2.77 13.84,-2.12 27.26,-7.1 40.27,-14.94 13,-7.82 24.51,-20.14 34.54,-36.97 8.01,-14.26 13.51,-32.16 16.5,-53.67 2.98,-21.51 4.4,-48.18 4.23,-80 0.68,-36.24 -0.97,-66.2 -4.95,-89.87 -3.95,-23.67 -14.24,-44.35 -30.86,-62.02 -5.06,-6.43 -14.27,-13.49 -27.66,-21.2 -13.37,-7.68 -34.53,-11.87 -63.47,-12.56 -10.66,-0.22 -23.28,0.54 -37.87,2.27 -14.58,1.74 -27.52,5.7 -38.81,11.91 -18.33,11.23 -31.73,25.3 -40.18,42.2 -8.44,16.9 -13.78,36.77 -16.01,59.61 -2.22,22.82 -3.2,48.75 -2.89,77.77 z m 303.72,-188.77 0,357.8 85.07,0 0,-66.15 c 12.13,19.89 25.52,36.97 42.14,51.21 16.61,14.25 36.39,21.71 59.31,22.36 28.69,-0.77 49.26,-7.7 61.72,-20.77 12.45,-13.09 20.02,-27.67 22.73,-43.73 2.72,-16.09 3.79,-29.01 3.25,-38.78 l 0,-261.94 -92.29,0 0,233.58 c 0.21,5.06 -0.12,11.37 -0.97,18.9 -0.84,7.55 -3.39,14.29 -7.66,20.26 -4.24,5.96 -11.41,9.1 -21.47,9.44 -12.83,-0.31 -23.81,-4.06 -32.97,-11.22 -9.14,-7.16 -18,-15.8 -26.58,-25.9 l 0,-245.06 -92.28,0 z m -437.37,114.86 0,133.56 c -1.24,12.56 -3.42,22.71 -6.54,30.62 -5.59,14.14 -16.83,21.16 -33.708,21.04 -18.254,0.15 -29.473,-9.2 -33.629,-28.07 -4.164,-18.85 -5.86,-48.06 -5.098,-87.6 l 0,-8.06 c -0.582,-37.37 1.605,-65.54 6.535,-84.5 4.945,-18.95 16.121,-28.47 33.547,-28.5 22.123,-0.09 35.083,16.65 38.893,51.51 z m -173.819,-196.03 57.703,35.61 c 4.43,-6.78 11.008,-13.92 19.746,-21.39 8.727,-7.47 20.946,-11.51 36.641,-12.15 8.27,-0.2 17.91,1.93 28.939,6.42 11.01,4.48 19.49,12.63 25.45,24.39 4.09,10.48 5.89,24.41 5.32,41.74 l 0.02,35.79 c -22.98,-26.86 -49.198,-37.77 -78.295,-37.65 -35.762,-0.05 -60.703,15.06 -74.813,45.29 -14.105,30.25 -20.879,75.91 -20.297,136.98 -0.332,33.52 0.664,62.61 2.981,87.3 2.297,24.67 7.871,45.38 16.719,62.09 7.648,14.05 18.347,24.91 32.097,32.62 13.762,7.69 29.563,11.6 47.387,11.71 17.457,-0.09 37.001,-7.04 46.361,-11.81 6.86,-3.49 20.54,-11.92 27.86,-24.63 l 0,27.85 90.23,0 0,-319.29 c 0.4,-17.77 -0.43,-36.9 -2.45,-57.39 -2.02,-20.49 -4.04,-39.97 -12.87,-58.47 -8.83,-18.49 -23.34,-33.64 -43.54,-45.44 -20.21,-11.78 -48.37,-17.89 -84.466,-18.28 -26.387,0.32 -47.977,3.75 -64.758,10.32 -16.777,6.56 -29.625,14.33 -38.516,23.36 -8.894,9.01 -14.71,17.36 -17.449,25.03 z m 1503.639,229.13 c -0.56,-27.25 2.9,-46.6 10.33,-58.03 7.44,-11.44 22.2,-16.99 44.31,-16.66 l 12.65,0.67 0,-79.4 c -14.22,-1.13 -27.1,-1.58 -38.65,-1.34 -44.97,-0.46 -76.59,8.69 -94.84,27.42 -18.25,18.72 -27.05,49.74 -26.4,93.02 l 0,176.98 -51.95,0 0,67.96 51.95,0 0,128.54 92.6,0 0,-128.54 64.63,0 0,-67.96 -64.63,0 0,-142.66 z m -1705.217,67.68 86.598,0 0,30.96 c -0.098,39.81 -14.535,59.76 -43.293,59.87 -13.172,-0.04 -23.649,-4.98 -31.406,-14.8 -7.754,-9.8 -11.719,-24.16 -11.899,-43.06 l 0,-32.97 z M 828.496,1221.53 C 788.738,1204.6 751,1196.06 715.25,1195.96 c -45.469,0.18 -80.113,12.76 -103.934,37.77 -23.812,24.99 -35.808,61.3 -35.968,108.92 l 0,84.79 c 0.179,47.24 11.14,83.13 32.894,107.67 21.742,24.53 53.196,36.85 94.34,37 38.688,-0.38 68.906,-11.9 90.688,-34.58 21.781,-22.66 32.847,-54.2 33.222,-94.62 l 0,-77.37 -164.539,0 0,-30.96 c 0.121,-20.68 6.199,-36.69 18.238,-48.04 12.036,-11.33 29.262,-17.08 51.707,-17.23 23.754,0 52.188,8.07 85.274,24.21 l 11.324,-71.99" /><path
         id="path18"
         style="fill:#f14f1b;fill-opacity:1;fill-rule:nonzero;stroke:none"
         d="m 1655.14,588.789 c -260.92,0 -752.41,17.133 -752.41,17.133 -9.039,0.418 -9.046,8.808 -0.003,9.23 0,0 486.663,17.129 752.413,17.129 265.81,0 698.4,-17.14 698.4,-17.14 8.91,-0.461 9.07,-8.739 -0.01,-9.211 0,0 -437.42,-17.141 -698.39,-17.141" /><path
         id="path20"
         style="fill:#231f20;fill-opacity:1;fill-rule:nonzero;stroke:none"
         d="m 126.355,310.309 58.055,0 0,-251.727 84.024,0 0,-53.91012 -142.079,0 0,305.63712" /><path
         id="path22"
         style="fill:#231f20;fill-opacity:1;fill-rule:nonzero;stroke:none"
         d="m 349.43,4.67188 -53.848,0 0,213.09012 53.848,0 0,-213.09012 z m 0,255.11712 -53.848,0 0,50.52 53.848,0 0,-50.52" /><path
         id="path24"
         style="fill:#231f20;fill-opacity:1;fill-rule:nonzero;stroke:none"
         d="m 443.402,90.4219 c 0,-37.3633 3.821,-54.7735 23.297,-54.7735 21.387,0 21.774,22.9336 21.774,73.0236 0,1.699 0,3.398 0,5.09 0,47.129 -2.297,71.32 -22.535,71.32 -15.278,0 -22.536,-16.141 -22.536,-48.82 l 0,-45.8401 z m 0.383,219.8871 0,-109.95 c 11.074,15.7 25.203,22.922 43.156,22.922 42.012,0 54.997,-35.222 54.997,-108.242 0,-39.8984 -1.141,-68.7695 -11.454,-88.7187 C 522.078,9.76172 505.652,0 485.797,0 466.316,0 451.039,9.33984 443.402,25.4688 l -1.527,-20.37896 -52.703,0 c 1.141,19.10936 1.527,34.80856 1.527,47.12896 l 0,258.0902 53.086,0" /><path
         id="path26"
         style="fill:#231f20;fill-opacity:1;fill-rule:nonzero;stroke:none"
         d="m 580.93,218.191 46.976,0 3.438,-28.011 c 6.875,20.8 23.297,32.679 46.976,32.679 1.149,0 2.289,0 3.438,0 l 0,-51.789 c -1.528,0 -3.438,0 -4.965,0 -30.938,0 -42.012,-15.711 -42.012,-51.781 l 0,-114.61712 -53.851,0 0,213.51912" /><path
         id="path28"
         style="fill:#231f20;fill-opacity:1;fill-rule:nonzero;stroke:none"
         d="m 757.016,71.3203 c 0,-21.2305 8.023,-33.1211 20.625,-33.1211 18.714,0 30.172,17.8321 30.172,53.4922 l 0,18.6796 c -36.665,0 -50.797,-8.5 -50.797,-39.0507 z M 711.188,166.41 c 0,36.5 25.589,56.449 75.238,56.449 48.887,0 70.66,-19.097 70.66,-61.968 l 0,-106.1293 c 0,-17.832 1.141,-34.8125 3.816,-50.08982 l -47.742,0 -4.199,24.19922 C 799.414,13.582 778.789,2.96875 757.402,2.96875 c -31.703,0 -51.562,25.47265 -51.562,66.65235 0,48.8199 26.734,69.6209 85.172,72.1599 l 16.801,0.848 0,9.762 c 0,27.597 -4.961,39.898 -21.387,39.898 -16.801,0 -25.586,-10.18 -25.586,-30.129 l -49.652,0 c 0,1.27 0,2.551 0,4.25" /><path
         id="path30"
         style="fill:#231f20;fill-opacity:1;fill-rule:nonzero;stroke:none"
         d="m 901.422,218.191 46.973,0 3.437,-28.011 c 6.875,20.8 23.301,32.679 46.977,32.679 1.148,0 2.291,0 3.441,0 l 0,-51.789 c -1.53,0 -3.441,0 -4.969,0 -30.933,0 -42.011,-15.711 -42.011,-51.781 l 0,-114.61712 -53.848,0 0,213.51912" /><path
         id="path32"
         style="fill:#231f20;fill-opacity:1;fill-rule:nonzero;stroke:none"
         d="m 1084.77,4.67188 -53.86,0 0,213.09012 53.86,0 0,-213.09012 z m 0,255.11712 -53.86,0 0,50.52 53.86,0 0,-50.52" /><path
         id="path34"
         style="fill:#231f20;fill-opacity:1;fill-rule:nonzero;stroke:none"
         d="m 1224.95,138.391 0,17.82 c 0,20.379 -8.78,31.848 -23.68,31.848 -16.04,0 -24.44,-14.02 -24.44,-42.457 0,-2.122 0,-4.672 0,-7.211 l 48.12,0 z m 54.23,-54.7699 C 1279.18,28.0195 1253.59,0 1201.27,0 c -63.4,0 -79.44,33.1016 -79.44,115.891 0,74.289 21.01,106.968 79.44,106.968 52.7,0 77.91,-28.019 77.91,-85.75 l 0,-32.257 -102.35,0 0,-22.0825 c 0,-31.3984 6.87,-45.8398 24.06,-45.8398 16.04,0 24.82,14.4414 24.82,42.8711 0,1.2695 0,2.5508 0,3.8203 l 53.47,0" /><path
         id="path36"
         style="fill:#231f20;fill-opacity:1;fill-rule:nonzero;stroke:none"
         d="m 1360.95,75.1406 c 0,-1.6992 0,-2.9687 0,-4.25 0,-22.0703 8.02,-34.3906 19.47,-34.3906 14.9,0 24.07,8.9219 24.07,22.082 0,19.9493 -18.33,27.168 -48.89,45.418 -29.79,17.832 -46.6,28.02 -46.6,59.859 0,35.231 27.12,59.852 69.52,59.852 46.21,0 70.27,-19.949 70.27,-57.731 0,-2.121 -0.38,-4.25 -0.38,-6.789 l -50.42,0 c 0.39,2.539 0.39,4.668 0.39,6.789 0,16.981 -6.5,25.461 -19.48,25.461 -11.46,0 -19.48,-7.632 -19.48,-18.671 0,-18.258 22.53,-25.469 56.14,-47.551 27.12,-17.828 40.1,-32.2502 40.1,-60.2698 0,-41.5976 -27.49,-63.24998 -82.11,-63.24998 -42.01,0 -65.31,23.35158 -65.31,64.94138 0,2.5508 0,5.5313 0.38,8.5 l 52.33,0" /><path
         id="path38"
         style="fill:#231f20;fill-opacity:1;fill-rule:nonzero;stroke:none"
         d="m 1634.83,71.3203 c 0,-21.2305 8.02,-33.1211 20.63,-33.1211 18.71,0 30.17,17.8321 30.17,53.4922 l 0,18.6796 c -36.67,0 -50.8,-8.5 -50.8,-39.0507 z M 1589,166.41 c 0,36.5 25.59,56.449 75.24,56.449 48.89,0 70.66,-19.097 70.66,-61.968 l 0,-106.1293 c 0,-17.832 1.14,-34.8125 3.82,-50.08982 l -47.74,0 -4.2,24.19922 C 1677.23,13.582 1656.6,2.96875 1635.21,2.96875 c -31.69,0 -51.55,25.47265 -51.55,66.65235 0,48.8199 26.73,69.6209 85.17,72.1599 l 16.8,0.848 0,9.762 c 0,27.597 -4.97,39.898 -21.39,39.898 -16.8,0 -25.59,-10.18 -25.59,-30.129 l -49.65,0 c 0,1.27 0,2.551 0,4.25" /><path
         id="path40"
         style="fill:#231f20;fill-opacity:1;fill-rule:nonzero;stroke:none"
         d="m 1779.24,4.67188 0,174.88712 c 0,11.461 0,24.203 -1.92,38.203 l 54.24,0 1.53,-22.071 c 8.79,17.829 23.68,27.168 42.77,27.168 33.61,0 51.94,-19.527 51.94,-56.027 l 0,-162.16012 -53.84,0 0,145.59812 c 0,23.769 -3.06,36.089 -17.95,36.089 -13.75,0 -22.92,-11.468 -22.92,-30.148 l 0,-151.53912 -53.85,0" /><path
         id="path42"
         style="fill:#231f20;fill-opacity:1;fill-rule:nonzero;stroke:none"
         d="m 2041.65,185.082 c -20.24,0 -22.53,-24.191 -22.53,-71.32 0,-1.692 0,-3.391 0,-5.09 0,-50.09 0.38,-73.0236 21.77,-73.0236 19.47,0 23.29,17.4102 23.29,54.7735 l 0,45.8401 c 0,32.679 -7.26,48.82 -22.53,48.82 z m 22.92,125.227 52.32,0 0,-258.0902 c 0,-12.3204 0.39,-28.0196 1.53,-47.12896 l -52.33,0 -1.91,20.37896 C 2056.54,9.33984 2041.27,0 2021.79,0 c -15.66,0 -29.41,6.78906 -37.82,16.5508 -16.41,19.0976 -17.94,50.5195 -17.94,98.4882 0,72.59 12.6,108.242 53.09,108.242 19.47,0 33.99,-6.793 45.45,-22.922 l 0,109.95" /><path
         id="path44"
         style="fill:#231f20;fill-opacity:1;fill-rule:nonzero;stroke:none"
         d="m 2322.41,176.59 19.1,0 c 30.55,0 41.63,7.219 41.63,43.719 0,33.543 -9.93,42.031 -36.67,42.031 l -24.06,0 0,-85.75 z m 119.16,42.019 c 0,-32.679 -7.25,-57.3 -19.47,-71.308 -16.81,-19.531 -37.05,-19.961 -62.64,-19.961 -1.14,0 -2.29,0 -3.43,0 l -32.86,0 0,-122.66812 -59.96,0 0,305.63712 92.43,0 c 61.88,0 85.93,-20.379 85.93,-91.7" /><path
         id="path46"
         style="fill:#231f20;fill-opacity:1;fill-rule:nonzero;stroke:none"
         d="m 2474.84,218.191 46.98,0 3.43,-28.011 c 6.88,20.8 23.3,32.679 46.99,32.679 1.14,0 2.29,0 3.43,0 l 0,-51.789 c -1.53,0 -3.43,0 -4.97,0 -30.92,0 -42.01,-15.711 -42.01,-51.781 l 0,-114.61712 -53.85,0 0,213.51912" /><path
         id="path48"
         style="fill:#231f20;fill-opacity:1;fill-rule:nonzero;stroke:none"
         d="m 2704.02,138.391 0,17.82 c 0,20.379 -8.79,31.848 -23.68,31.848 -16.04,0 -24.44,-14.02 -24.44,-42.457 0,-2.122 0,-4.672 0,-7.211 l 48.12,0 z m 54.23,-54.7699 C 2758.25,28.0195 2732.67,0 2680.34,0 c -63.4,0 -79.44,33.1016 -79.44,115.891 0,74.289 21,106.968 79.44,106.968 52.71,0 77.91,-28.019 77.91,-85.75 l 0,-32.257 -102.35,0 0,-22.0825 c 0,-31.3984 6.87,-45.8398 24.06,-45.8398 16.05,0 24.83,14.4414 24.83,42.8711 0,1.2695 0,2.5508 0,3.8203 l 53.46,0" /><path
         id="path50"
         style="fill:#231f20;fill-opacity:1;fill-rule:nonzero;stroke:none"
         d="m 2840.02,75.1406 c 0,-1.6992 0,-2.9687 0,-4.25 0,-22.0703 8.02,-34.3906 19.48,-34.3906 14.89,0 24.05,8.9219 24.05,22.082 0,19.9493 -18.33,27.168 -48.88,45.418 -29.79,17.832 -46.59,28.02 -46.59,59.859 0,35.231 27.12,59.852 69.51,59.852 46.21,0 70.27,-19.949 70.27,-57.731 0,-2.121 -0.38,-4.25 -0.38,-6.789 l -50.41,0 c 0.38,2.539 0.38,4.668 0.38,6.789 0,16.981 -6.49,25.461 -19.48,25.461 -11.46,0 -19.47,-7.632 -19.47,-18.671 0,-18.258 22.53,-25.469 56.14,-47.551 27.11,-17.828 40.1,-32.2502 40.1,-60.2698 0,-41.5976 -27.5,-63.24998 -82.11,-63.24998 -42.01,0 -65.32,23.35158 -65.32,64.94138 0,2.5508 0,5.5313 0.39,8.5 l 52.32,0" /><path
         id="path52"
         style="fill:#231f20;fill-opacity:1;fill-rule:nonzero;stroke:none"
         d="m 3015.35,75.1406 c 0,-1.6992 0,-2.9687 0,-4.25 0,-22.0703 8.02,-34.3906 19.48,-34.3906 14.9,0 24.07,8.9219 24.07,22.082 0,19.9493 -18.34,27.168 -48.89,45.418 -29.8,17.832 -46.6,28.02 -46.6,59.859 0,35.231 27.12,59.852 69.51,59.852 46.21,0 70.27,-19.949 70.27,-57.731 0,-2.121 -0.38,-4.25 -0.38,-6.789 l -50.41,0 c 0.38,2.539 0.38,4.668 0.38,6.789 0,16.981 -6.49,25.461 -19.48,25.461 -11.45,0 -19.47,-7.632 -19.47,-18.671 0,-18.258 22.53,-25.469 56.14,-47.551 27.11,-17.828 40.1,-32.2502 40.1,-60.2698 0,-41.5976 -27.5,-63.24998 -82.11,-63.24998 -42.01,0 -65.31,23.35158 -65.31,64.94138 0,2.5508 0,5.5313 0.38,8.5 l 52.32,0" /></g></g></svg>