<?xml version="1.0" encoding="utf-8"?>
<!-- Generator: Adobe Illustrator 15.1.0, SVG Export Plug-In . SVG Version: 6.00 Build 0)  -->
<!DOCTYPE svg PUBLIC "-//W3C//DTD SVG 1.1//EN" "http://www.w3.org/Graphics/SVG/1.1/DTD/svg11.dtd">
<svg version="1.1" id="Layer_1" xmlns="http://www.w3.org/2000/svg" xmlns:xlink="http://www.w3.org/1999/xlink" x="0px" y="0px"
	 width="279.454px" height="90.394px" viewBox="0 0 279.454 90.394" enable-background="new 0 0 279.454 90.394"
	 xml:space="preserve">
<g>
	<g>
		<path d="M50.257,52.995c1.167-0.099,1.167-2.232,1.167-7.541c0-5.259,0-7.393-1.167-7.492v-0.149
			c0.397,0.05,0.745,0.074,1.067,0.074c0.348,0.025,0.669,0.025,1.017,0.025c1.042,0,2.208-0.074,3.225-0.173
			c1.042-0.075,1.935-0.149,2.48-0.149c2.505,0,4.738,0.794,4.738,3.995c0,4.242-4.019,5.531-7.02,5.531
			c-0.496,0-1.117-0.049-1.612-0.099c0,3.771,0,5.979,1.215,5.979v0.148c-0.894-0.074-1.662-0.099-2.556-0.099
			c-0.867,0-1.587,0-2.555,0.099V52.995z M56.434,46.124c2.407,0,3.374-1.489,3.374-3.448c0-2.928-1.588-4.094-4.119-4.094
			c-0.446,0-0.917,0.025-1.388,0.174c-0.149,0.62-0.149,6.227-0.149,7.07C54.797,46,55.492,46.124,56.434,46.124z"/>
		<path d="M76.875,52.995c1.166-0.099,1.166-2.232,1.166-7.541c0-5.259,0-7.393-1.166-7.492v-0.149
			c0.396,0.05,0.744,0.074,1.066,0.074c0.323,0.025,0.646,0.025,1.018,0.025c0.917,0,1.538-0.074,2.232-0.173
			c0.72-0.075,1.489-0.149,2.68-0.149c3.299,0,5.011,1.167,5.011,3.771c0,2.283-1.86,3.746-3.944,4.341
			c0.297,0.422,1.76,2.63,3.225,4.539c1.34,1.762,2.308,2.754,2.753,2.754v0.148c-0.694-0.099-1.414-0.099-2.133-0.099
			c-0.621,0-1.29,0-1.886,0.099l-2.604-3.993c-1.117-1.712-1.861-2.803-3.027-2.803H80.77c0,4.167,0,6.648,1.216,6.648v0.148
			c-0.869-0.074-1.688-0.099-2.556-0.099s-1.587,0-2.555,0.099V52.995z M82.159,45.479c2.928,0,3.746-1.19,3.746-3.125
			c0-2.704-1.439-3.771-3.597-3.771c-0.472,0-0.943,0.049-1.389,0.149c-0.149,0.794-0.149,5.805-0.149,6.624
			C81.191,45.404,81.737,45.479,82.159,45.479z"/>
		<path d="M104.336,52.995c1.167-0.099,1.167-2.232,1.167-7.541c0-5.259,0-7.393-1.167-7.492v-0.149c0.968,0.1,1.688,0.1,2.556,0.1
			c0.844,0,1.711,0,2.555-0.1v0.149c-1.215,0.099-1.215,2.233-1.215,7.492c0,5.308,0,7.442,1.215,7.541v0.148
			c-0.844-0.099-1.711-0.099-2.555-0.099c-0.868,0-1.588,0-2.556,0.099V52.995z"/>
		<path d="M123.637,52.995c0.347-0.05,0.595-0.174,0.843-0.57c0.646-0.992,0.919-9.427,0.919-11.088c0-0.621-0.05-1.117-0.174-1.489
			c-0.05-0.149-1.488-1.86-2.108-1.885v-0.149c0.744,0.074,1.489,0.1,2.233,0.1c0.769,0,1.538-0.025,2.306-0.1
			c1.737,3.002,7.146,9.229,9.626,11.982v-3.076c0-1.24,0-6.177-0.571-7.865c-0.199-0.446-0.396-0.769-0.868-0.892v-0.149
			c0.744,0.074,1.538,0.1,2.307,0.1c0.818,0,1.216,0,1.81-0.1v0.149c-0.446,0.099-0.644,0.347-0.818,0.744
			c-0.496,1.141-0.868,7.716-0.868,13.049v1.388c-0.248-0.074-0.794-0.099-0.992-0.099c-0.273,0-0.545,0.024-0.818,0.099
			c-0.819-0.967-9.155-10.766-10.023-11.932h-0.05v0.869c0,0.644,0.075,8.161,0.596,10.17c0.124,0.496,0.497,0.694,0.77,0.744v0.148
			c-0.695-0.074-1.39-0.099-2.084-0.099c-0.695,0-1.364,0.024-2.035,0.099V52.995z"/>
		<path d="M165.462,42.055c0-1.266-0.373-2.084-1.589-2.53c-0.968-0.347-2.133-0.446-2.927-0.446c-0.869,0-1.886,0.173-2.356,0.446
			c-1.314,0.769-1.811,3.424-1.811,4.565c0,5.407,2.878,6.797,6.076,6.797c1.466,0,2.357-0.321,3.45-1.117
			c0.173-0.124,0.347-0.322,0.544-0.471c0.1,0.173,0.225,0.347,0.349,0.496c-1.365,1.141-1.96,1.861-2.853,3.25
			c-0.868,0.248-1.514,0.322-2.482,0.322c-4.984,0-8.062-3.051-8.062-7.814c0-6.772,6.773-7.963,8.98-7.963
			c1.018,0,1.812,0.1,2.407,0.199c0.595,0.099,1.019,0.199,1.241,0.199h0.396c-0.298,0.595-0.867,2.208-0.867,3.522
			c0,0.173,0.024,0.348,0.024,0.545H165.462z"/>
		<path d="M180.991,37.813c0.496,0.05,0.92,0.074,1.314,0.074c0.422,0.025,0.82,0.025,1.24,0.025c3.722,0,7.492,0,8.832-0.323
			c-0.149,0.645-0.396,1.588-0.396,3.027v0.496h-0.422c0-1.638-1.613-2.357-4.639-2.357c-0.621,0-1.217,0.05-1.836,0.124
			c-0.05,0.818-0.174,3.15-0.174,5.607c0.521,0.074,1.067,0.098,1.588,0.098c3.025,0,3.498-0.57,3.597-1.637h0.396
			c-0.099,0.844-0.198,1.687-0.198,2.53c0,0.595,0.049,1.637,0.049,1.811h-0.42c0-0.918-0.398-1.835-3.424-1.835
			c-0.546,0-1.043,0-1.588,0.024c0,1.811,0,4.665,0.05,6.475c0.694,0.123,1.265,0.123,1.886,0.123c3.969,0,5.258-1.141,5.879-2.455
			l0.371,0.173c-0.495,1.091-0.967,2.282-1.215,3.572c-0.372-0.173-1.514-0.249-3.026-0.272c-1.515-0.05-3.399-0.05-5.31-0.05
			c-0.867,0-1.587,0-2.555,0.099v-0.148c1.191-0.099,1.191-2.232,1.191-7.541c0-5.259,0-7.393-1.191-7.492V37.813z"/>
		<path d="M211.231,52.995c1.166-0.099,1.166-2.232,1.166-7.541c0-3.97-0.025-5.805-0.148-6.425
			c-0.223-0.025-0.446-0.025-0.67-0.025c-0.272,0-2.059,0.075-3.101,0.694c-0.646,0.397-1.042,0.993-1.241,1.886l-0.496-0.075
			c0.248-0.918,0.547-2.431,0.547-3.92c0.074,0.1,0.396,0.174,1.412,0.223c1.044,0.074,2.755,0.1,5.633,0.1
			c2.281,0,5.756-0.1,6.5-0.298c-0.249,0.968-0.497,2.357-0.497,3.87h-0.521v-0.545c0-1.761-1.266-1.935-3.845-1.935
			c-0.2,0-0.448,0.025-0.622,0.049c-0.049,0.769-0.222,3.523-0.222,6.401c0,5.308,0,7.442,1.215,7.541v0.148
			c-0.844-0.099-1.711-0.099-2.555-0.099c-0.868,0-1.588,0-2.556,0.099V52.995z"/>
		<path d="M233.36,45.503c0-1.463,0.548-3.919,1.639-5.308c0.371-0.472,4.49-2.605,7.417-2.605c3.274,0,6.425,1.513,6.425,7.021
			c0,6.796-5.655,8.756-8.881,8.756C235.941,53.367,233.36,50.665,233.36,45.503z M241.82,51.632c0.919,0,2.208-0.199,2.778-0.67
			c0.795-0.646,1.266-2.779,1.266-5.21c0-4.565-1.514-6.673-5.557-6.673c-0.744,0-2.184,0.323-2.604,0.794
			c-0.62,0.693-1.365,2.604-1.365,4.639C236.337,49.622,238.893,51.632,241.82,51.632z"/>
		<path d="M263.13,52.995c0.346-0.05,0.593-0.174,0.843-0.57c0.645-0.992,0.918-9.427,0.918-11.088c0-0.621-0.05-1.117-0.175-1.489
			c-0.05-0.149-1.487-1.86-2.108-1.885v-0.149c0.744,0.074,1.49,0.1,2.233,0.1c0.769,0,1.538-0.025,2.308-0.1
			c1.736,3.002,7.143,9.229,9.625,11.982v-3.076c0-1.24,0-6.177-0.571-7.865c-0.198-0.446-0.396-0.769-0.869-0.892v-0.149
			c0.745,0.074,1.54,0.1,2.31,0.1c0.817,0,1.215,0,1.811-0.1v0.149c-0.447,0.099-0.646,0.347-0.818,0.744
			c-0.498,1.141-0.869,7.716-0.869,13.049v1.388c-0.248-0.074-0.793-0.099-0.992-0.099c-0.273,0-0.547,0.024-0.818,0.099
			c-0.82-0.967-9.154-10.766-10.023-11.932h-0.049v0.869c0,0.644,0.074,8.161,0.595,10.17c0.124,0.496,0.497,0.694,0.77,0.744v0.148
			c-0.695-0.074-1.39-0.099-2.084-0.099s-1.364,0.024-2.033,0.099V52.995z"/>
	</g>
	<g>
		<path fill="#D31245" d="M55.089,70.847c0.284-0.037,0.51-0.396,0.662-0.888c0.188-0.642,0.227-1.871,0.227-4.839
			c0-1.984-0.056-4.574-0.095-5.009c-0.246-0.019-0.454-0.037-0.774-0.037c-0.587,0-1.417,0.132-1.89,0.339
			c-0.738,0.342-1.002,0.567-1.191,1.268h-0.283c0.095-0.359,0.378-1.834,0.378-2.324c0-0.077,0-0.152-0.019-0.189
			c0.227,0.056,0.623,0.094,1.323,0.112c0.681,0.02,1.644,0.038,2.968,0.038c2.23,0,4.101-0.074,5.462-0.132
			c-0.151,0.396-0.454,1.475-0.454,2.399h-0.283v-0.339c0-0.491-0.189-0.737-0.53-0.945c-0.377-0.227-1.492-0.227-2.117-0.227
			c-0.321,0-0.586,0.019-0.888,0.056c-0.039,0.416-0.189,3.157-0.189,4.99c0,3.08,0.056,4.215,0.151,4.726
			c0.113,0.661,0.283,0.927,0.662,1.001v0.076c-0.171-0.019-1.153-0.076-1.512-0.076c-0.378,0-1.437,0.058-1.607,0.076V70.847z"/>
		<path fill="#D31245" d="M69.388,62.2c-0.213,0.029-0.397,0.227-0.468,0.609c-0.085,0.439-0.155,1.049-0.155,3.062
			c0.425,0,1.672,0.043,2.325,0.043c0.652,0,1.899-0.043,2.324-0.043c0-2.014-0.084-2.623-0.156-3.062
			c-0.07-0.383-0.255-0.58-0.468-0.609v-0.057c0.127,0.014,0.878,0.057,1.163,0.057c0.269,0,1.021-0.043,1.148-0.057V62.2
			c-0.525,0.142-0.625,0.623-0.625,4.324c0,2.438,0.057,3.203,0.157,3.712c0.07,0.385,0.255,0.583,0.468,0.61v0.058
			c-0.127-0.015-0.879-0.058-1.148-0.058c-0.284,0-1.035,0.043-1.163,0.058v-0.058c0.213-0.027,0.397-0.226,0.468-0.61
			c0.085-0.524,0.156-1.302,0.156-3.798c-0.425,0-1.672-0.029-2.324-0.029c-0.652,0-1.9,0.029-2.325,0.029
			c0,2.496,0.042,3.273,0.155,3.798c0.071,0.385,0.255,0.583,0.468,0.61v0.058c-0.128-0.015-0.879-0.058-1.163-0.058
			c-0.269,0-1.02,0.043-1.148,0.058v-0.058c0.483-0.112,0.624-0.481,0.624-4.322c0-2.426-0.071-3.219-0.156-3.715
			c-0.071-0.383-0.255-0.58-0.468-0.609v-0.057c0.128,0.014,0.879,0.057,1.148,0.057c0.283,0,1.035-0.043,1.163-0.057V62.2z"/>
		<path fill="#D31245" d="M85.689,71.032c-0.354-0.087-1.007-0.128-1.771-0.128c-0.567,0-2.51-0.058-2.992-0.058
			c-0.269,0-1.02,0.043-1.148,0.058v-0.058c0.525-0.127,0.625-0.779,0.625-4.309c0-3.417-0.057-4.211-0.625-4.338v-0.057
			c0.17,0,0.752,0.014,1.389,0.029C81.806,62.187,82.5,62.2,82.84,62.2c1.517,0,2.878-0.057,3.133-0.185
			c-0.213,0.524-0.213,1.403-0.213,1.8h-0.184c-0.014-0.325-0.17-0.552-0.581-0.751c-0.567-0.269-1.134-0.354-2.169-0.354
			c-0.609,0-1.063,0.072-1.276,0.086c-0.042,0.496-0.084,1.346-0.084,3.231c0.382,0.056,0.737,0.056,1.119,0.056
			c0.667,0,1.091-0.041,1.574-0.268c0.369-0.171,0.496-0.425,0.51-0.695h0.185c-0.043,0.426-0.071,0.779-0.085,1.148
			c0,0.368,0,0.723,0.057,1.148h-0.213c-0.015-0.27-0.113-0.524-0.511-0.694c-0.283-0.128-0.85-0.143-1.517-0.143
			c-0.411,0-0.737,0.015-1.119,0.015c0,2.324,0.014,3.117,0.084,3.629c0.227,0.057,0.681,0.113,1.035,0.113
			c1.39,0,2.269-0.142,2.751-0.41c0.424-0.228,0.694-0.554,0.836-0.767l0.156,0.085C86.1,69.712,85.746,70.635,85.689,71.032z"/>
		<path fill="#D31245" d="M90.538,66.723c0-1.532,0.567-3.049,1.262-3.501c1.402-0.923,2.538-1.206,3.487-1.206
			c1.886,0,3.714,0.936,3.714,4.196c0,0.979-0.354,2.581-1.234,3.416c-1.162,1.106-2.31,1.404-3.331,1.404
			c-1.276,0-2.311-0.469-2.835-1.105C90.892,69.062,90.538,67.813,90.538,66.723z M95.272,70.323c0.737,0,1.574-0.341,1.786-0.596
			c0.61-0.766,0.738-2.339,0.738-3.119c0-2.905-1.389-3.884-3.374-3.884c-0.652,0-1.616,0.298-1.814,0.468
			c-0.368,0.312-0.879,1.488-0.865,3.049C91.742,69.26,93.627,70.323,95.272,70.323z"/>
		<path fill="#D31245" d="M109.123,69.076c-0.128,0.538-0.312,1.276-0.34,1.956c-0.27-0.087-0.441-0.128-1.361-0.128
			c-0.241,0-1.942-0.058-2.255-0.058c-0.297,0-1.403,0.043-1.573,0.058v-0.058c0.27-0.043,0.412-0.297,0.482-0.68
			c0.085-0.397,0.142-1.205,0.142-3.643c0-3.928-0.156-4.197-0.624-4.324v-0.057c0.127,0.014,0.879,0.057,1.148,0.057
			c0.283,0,1.035-0.043,1.162-0.057V62.2c-0.212,0.029-0.397,0.227-0.468,0.609c-0.099,0.524-0.155,1.275-0.155,3.715
			c0,2.508,0.014,3.26,0.028,3.784c0.156,0.015,0.482,0.028,0.737,0.028c1.021,0,1.985-0.283,2.382-0.539
			c0.339-0.227,0.411-0.412,0.496-0.751L109.123,69.076z"/>
		<path fill="#D31245" d="M113.037,66.723c0-1.532,0.567-3.049,1.262-3.501c1.402-0.923,2.537-1.206,3.487-1.206
			c1.885,0,3.714,0.936,3.714,4.196c0,0.979-0.354,2.581-1.234,3.416c-1.162,1.106-2.311,1.404-3.331,1.404
			c-1.276,0-2.311-0.469-2.835-1.105C113.391,69.062,113.037,67.813,113.037,66.723z M117.771,70.323
			c0.737,0,1.573-0.341,1.786-0.596c0.61-0.766,0.738-2.339,0.738-3.119c0-2.905-1.389-3.884-3.374-3.884
			c-0.652,0-1.616,0.298-1.815,0.468c-0.368,0.312-0.878,1.488-0.864,3.049C114.241,69.26,116.126,70.323,117.771,70.323z"/>
		<path fill="#D31245" d="M134.258,66.779c-0.284,0.142-0.483,0.396-0.483,1.886c0,0.665,0.014,1.317,0.085,1.984
			c-0.595,0.141-2.226,0.383-3.331,0.383c-1.475,0-2.524-0.383-3.232-1.021c-0.878-0.779-1.29-2.184-1.29-3.318
			c0-2.479,1.007-3.23,1.389-3.514c1.531-1.107,2.694-1.163,3.672-1.163c0.439,0,0.935,0.056,1.375,0.128
			c0.454,0.057,0.85,0.127,1.092,0.127c0.126,0,0.311-0.041,0.411-0.07c-0.157,0.396-0.312,1.205-0.312,2.07h-0.213
			c-0.014-0.326-0.056-0.512-0.382-0.795c-0.51-0.439-1.758-0.751-2.708-0.751c-1.049,0-1.658,0.156-2.069,0.482
			c-0.681,0.524-1.049,1.942-1.049,3.005c0,1.275,0.581,2.75,1.729,3.586c0.766,0.511,1.489,0.666,2.396,0.666
			c0.524,0,1.148-0.111,1.318-0.169c0.056-0.213,0.056-0.922,0.056-1.39c0-1.914-0.24-1.998-0.552-2.126v-0.044
			c0.184,0.029,0.836,0.058,1.247,0.058c0.241,0,0.567-0.014,0.851-0.058V66.779z"/>
		<path fill="#D31245" d="M141.047,62.2c-0.51,0.127-0.624,0.553-0.624,4.324c0,3.869,0.142,4.195,0.624,4.322v0.058
			c-0.128-0.015-0.878-0.058-1.162-0.058c-0.27,0-1.021,0.043-1.149,0.058v-0.058c0.497-0.112,0.625-0.552,0.625-4.322
			c0-3.828-0.142-4.211-0.625-4.324v-0.057c0.128,0.014,0.879,0.057,1.149,0.057c0.283,0,1.034-0.043,1.162-0.057V62.2z"/>
		<path fill="#D31245" d="M152.175,64.24c0-0.254-0.028-0.524-0.298-0.778c-0.566-0.523-1.56-0.709-2.098-0.709
			c-0.822,0-1.389,0.085-1.829,0.34c-0.907,0.539-1.106,2.07-1.106,3.062c0,2.679,1.574,3.729,3.588,3.729
			c1.219,0,1.941-0.511,2.297-0.795c0.056,0.1,0.141,0.213,0.184,0.256c-0.694,0.596-0.965,0.922-1.432,1.545
			c-0.283,0.072-0.482,0.143-1.233,0.143c-2.665,0-4.607-1.546-4.607-4.424c0-2.92,2.056-4.593,4.82-4.593
			c1.063,0,1.856,0.228,2.211,0.228h0.142c-0.184,0.369-0.41,1.091-0.41,1.997H152.175z"/>
		<path fill="#D31245" d="M156.74,70.847c0.581-0.311,1.8-3.119,2.494-4.919c0.752-1.941,1.121-2.807,1.121-3.146
			c0-0.242-0.071-0.455-0.185-0.639c0.154,0.029,0.496,0.057,0.738,0.057c0.168,0,0.481-0.043,0.623-0.057
			c0.185,0.666,0.821,2.537,1.474,4.338c0.609,1.688,1.474,4.153,2.099,4.365v0.058c-0.128-0.015-0.27-0.028-0.398-0.044
			c-0.126-0.014-0.254-0.014-0.383-0.014c-0.326,0-0.637,0.043-0.962,0.115c-0.283-1.192-0.923-2.964-1.177-3.673
			c-0.468-0.029-0.951-0.029-1.418-0.029c-0.482,0-0.95,0.015-1.434,0.029c-0.099,0.269-0.948,2.495-0.948,3.034
			c0,0.368,0.198,0.453,0.312,0.523v0.058c-0.257-0.028-0.696-0.058-1.05-0.058c-0.298,0-0.609,0.029-0.907,0.058V70.847z
			 M159.518,66.723c0.283,0.028,0.822,0.042,1.219,0.042c0.412,0,0.822-0.014,1.248-0.042c-0.355-0.937-1.035-2.894-1.248-3.374
			C160.411,64.171,159.703,66.226,159.518,66.723z"/>
		<path fill="#D31245" d="M174.772,69.076c-0.127,0.538-0.312,1.276-0.342,1.956c-0.269-0.087-0.438-0.128-1.361-0.128
			c-0.24,0-1.941-0.058-2.254-0.058c-0.297,0-1.402,0.043-1.572,0.058v-0.058c0.27-0.043,0.411-0.297,0.481-0.68
			c0.085-0.397,0.143-1.205,0.143-3.643c0-3.928-0.156-4.197-0.624-4.324v-0.057c0.127,0.014,0.879,0.057,1.148,0.057
			c0.283,0,1.035-0.043,1.161-0.057V62.2c-0.211,0.029-0.396,0.227-0.468,0.609c-0.098,0.524-0.154,1.275-0.154,3.715
			c0,2.508,0.013,3.26,0.027,3.784c0.156,0.015,0.482,0.028,0.737,0.028c1.021,0,1.983-0.283,2.382-0.539
			c0.341-0.227,0.411-0.412,0.496-0.751L174.772,69.076z"/>
		<path fill="#D31245" d="M194.026,61.888c-0.019-0.264-0.076-0.547-0.416-0.944c-0.793-0.926-2.475-1.114-2.854-1.114
			c-1.077,0-1.795,0.395-1.795,1.662c0,1.455,1.398,2.307,3.099,2.968c2.175,0.851,2.968,1.55,2.968,3.024
			c0,1.436-1.247,3.609-4.328,3.609c-1.531,0-3.213-0.529-3.496-0.586c0.113-0.322,0.245-1.323,0.245-1.852
			c0-0.303,0-0.661-0.02-0.945h0.283c0,1.115,1.55,2.627,3.535,2.627c1.285,0,2.173-0.529,2.173-1.929
			c0-0.698-0.207-1.189-0.547-1.548c-0.549-0.55-1.06-0.738-2.211-1.229c-2.006-0.871-3.308-1.834-3.308-3.441
			c0-2.268,2.229-3.117,4.517-3.117c0.681,0,1.342,0.094,1.927,0.226c0.284,0.075,0.493,0.113,0.7,0.113
			c-0.189,0.87-0.189,1.606-0.189,2.476H194.026z"/>
		<path fill="#D31245" d="M206.439,71.032c-0.353-0.087-1.005-0.128-1.771-0.128c-0.566,0-2.51-0.058-2.992-0.058
			c-0.27,0-1.02,0.043-1.147,0.058v-0.058c0.524-0.127,0.622-0.779,0.622-4.309c0-3.417-0.056-4.211-0.622-4.338v-0.057
			c0.169,0,0.751,0.014,1.39,0.029c0.637,0.014,1.333,0.027,1.672,0.027c1.518,0,2.879-0.057,3.133-0.185
			c-0.213,0.524-0.213,1.403-0.213,1.8h-0.184c-0.015-0.325-0.171-0.552-0.582-0.751c-0.566-0.269-1.134-0.354-2.169-0.354
			c-0.608,0-1.063,0.072-1.274,0.086c-0.043,0.496-0.085,1.346-0.085,3.231c0.382,0.056,0.735,0.056,1.119,0.056
			c0.666,0,1.091-0.041,1.573-0.268c0.369-0.171,0.495-0.425,0.51-0.695h0.186c-0.044,0.426-0.072,0.779-0.085,1.148
			c0,0.368,0,0.723,0.056,1.148h-0.213c-0.014-0.27-0.113-0.524-0.51-0.694c-0.283-0.128-0.851-0.143-1.517-0.143
			c-0.411,0-0.737,0.015-1.119,0.015c0,2.324,0.013,3.117,0.085,3.629c0.225,0.057,0.68,0.113,1.034,0.113
			c1.39,0,2.269-0.142,2.751-0.41c0.424-0.228,0.693-0.554,0.835-0.767l0.157,0.085C206.851,69.712,206.497,70.635,206.439,71.032z"
			/>
		<path fill="#D31245" d="M211.374,70.847c0.24-0.112,0.425-0.453,0.51-1.162c0.226-1.999,0.496-5.5,0.496-6.095
			c0-0.44-0.043-1.304-0.609-1.39v-0.057c0.495,0.057,0.793,0.057,0.979,0.057c0.227,0,0.637-0.027,0.863-0.057
			c0.072,0.609,2.693,6.393,3.148,7.242c0.494-0.991,2.977-6.647,3.188-7.242c0.214,0,0.483,0.057,0.81,0.057
			c0.341,0,0.681-0.027,1.021-0.057V62.2c-0.228,0.014-0.383,0.227-0.469,0.553c-0.155,0.609-0.155,1.233-0.155,3.771
			c0,2.75,0,4.252,0.624,4.322v0.058c-0.411-0.028-0.822-0.058-1.221-0.058c-0.383,0-0.75,0.029-1.119,0.058v-0.058
			c0.441-0.127,0.553-0.552,0.596-1.432c0.057-1.361,0.057-3.572,0.057-6.364h-0.027c-0.851,2.14-3.289,7.542-3.389,7.854
			c-0.1-0.015-0.213-0.028-0.255-0.028c-0.056,0-0.198,0.014-0.269,0.028c-1.348-3.246-2.51-5.473-3.317-7.655h-0.029v4.479
			c0,0.383,0.044,2.509,0.085,2.638c0.086,0.297,0.27,0.411,0.439,0.481v0.058c-0.34-0.028-0.68-0.058-1.006-0.058
			s-0.639,0.029-0.949,0.058V70.847z"/>
		<path fill="#D31245" d="M228.709,62.2c-0.51,0.127-0.624,0.553-0.624,4.324c0,3.869,0.142,4.195,0.624,4.322v0.058
			c-0.128-0.015-0.88-0.058-1.163-0.058c-0.269,0-1.021,0.043-1.147,0.058v-0.058c0.496-0.112,0.623-0.552,0.623-4.322
			c0-3.828-0.143-4.211-0.623-4.324v-0.057c0.127,0.014,0.879,0.057,1.147,0.057c0.283,0,1.035-0.043,1.163-0.057V62.2z"/>
		<path fill="#D31245" d="M233.246,70.847c0.298-0.168,0.354-0.254,0.438-0.736c0.256-1.489,0.412-5.005,0.412-5.827
			c0-1.162-0.014-1.147-0.271-1.445c-0.368-0.454-0.623-0.581-0.808-0.638v-0.057c0.34,0.043,0.738,0.057,1.021,0.057
			c0.325,0,0.736-0.027,0.935-0.057c1.915,2.892,4.083,5.188,5.714,7.061c0.015-0.186,0.015-1.12,0.015-1.844
			c-0.03-1.914-0.072-4.055-0.271-4.68c-0.1-0.297-0.24-0.438-0.426-0.48v-0.057c0.383,0.029,0.809,0.057,1.221,0.057
			c0.382,0,0.595-0.027,0.807-0.057V62.2c-0.197,0.07-0.297,0.171-0.396,0.553c-0.214,0.779-0.483,6.549-0.554,8.151
			c-0.07-0.015-0.143-0.015-0.213-0.015c-0.085,0-0.156,0-0.227,0.015c-1.772-2.027-4.607-5.26-5.997-7.131l-0.028,0.028
			c0.015,0.979,0.072,4.777,0.271,6.379c0.042,0.369,0.099,0.539,0.354,0.666v0.058c-0.34-0.044-0.68-0.058-1.021-0.058
			c-0.325,0-0.651,0.029-0.978,0.058V70.847z"/>
		<path fill="#D31245" d="M245.975,70.847c0.581-0.311,1.8-3.119,2.494-4.919c0.752-1.941,1.121-2.807,1.121-3.146
			c0-0.242-0.072-0.455-0.186-0.639c0.155,0.029,0.496,0.057,0.738,0.057c0.169,0,0.482-0.043,0.623-0.057
			c0.186,0.666,0.822,2.537,1.475,4.338c0.609,1.688,1.473,4.153,2.098,4.365v0.058c-0.127-0.015-0.27-0.028-0.397-0.044
			c-0.126-0.014-0.254-0.014-0.382-0.014c-0.327,0-0.639,0.043-0.963,0.115c-0.283-1.192-0.923-2.964-1.178-3.673
			c-0.467-0.029-0.95-0.029-1.417-0.029c-0.483,0-0.95,0.015-1.434,0.029c-0.099,0.269-0.949,2.495-0.949,3.034
			c0,0.368,0.199,0.453,0.313,0.523v0.058c-0.256-0.028-0.696-0.058-1.051-0.058c-0.298,0-0.608,0.029-0.906,0.058V70.847z
			 M248.752,66.723c0.283,0.028,0.823,0.042,1.221,0.042c0.411,0,0.821-0.014,1.246-0.042c-0.354-0.937-1.035-2.894-1.246-3.374
			C249.646,64.171,248.938,66.226,248.752,66.723z"/>
		<path fill="#D31245" d="M260.774,70.847v0.058c-0.128-0.015-0.879-0.058-1.163-0.058c-0.269,0-1.019,0.043-1.147,0.058v-0.058
			c0.511-0.1,0.623-0.61,0.623-4.295c0-3.473-0.068-4.253-0.623-4.352v-0.057c0.086,0,0.34,0.014,0.639,0.029
			c0.283,0.014,0.594,0.027,0.751,0.027c0.325,0,0.708-0.043,1.091-0.1c0.383-0.043,0.78-0.085,1.106-0.085
			c1.474,0,2.423,0.652,2.423,2.225c0,0.81-0.34,1.392-0.936,1.859c-0.424,0.325-0.708,0.509-1.076,0.708
			c0.467,0.709,2.494,3.827,3.218,4.039v0.058c-0.382-0.028-0.766-0.058-1.148-0.058c-0.2,0-0.411,0.029-0.61,0.058
			c-0.963-1.446-1.857-2.921-2.438-3.528c-0.481-0.498-1.091-0.385-1.332-0.385c0.042,1.971,0.042,2.807,0.142,3.245
			C260.377,70.621,260.547,70.819,260.774,70.847z M261.015,62.583c-0.312,0-0.623,0.042-0.765,0.085
			c-0.072,1.22-0.072,2.595-0.1,3.827c0.34,0.057,0.637,0.057,1.034,0.057c1.445,0,2.085-0.469,2.085-1.744
			C263.27,63.022,262.149,62.583,261.015,62.583z"/>
		<path fill="#D31245" d="M271.663,70.847c0.268-0.084,0.383-0.297,0.496-0.666s0.127-0.992,0.127-2.947l-2.254-3.276
			c-0.694-0.991-1.148-1.687-1.432-1.757v-0.057c0.426,0.029,0.863,0.057,1.291,0.057c0.367,0,0.736-0.027,1.119-0.057V62.2
			c-0.171,0.086-0.297,0.113-0.297,0.439c0,0.524,1.912,3.288,2.38,3.827c0.298-0.425,1.786-3.062,1.786-3.757
			c0-0.339-0.227-0.439-0.354-0.51v-0.057c0.354,0.014,0.709,0.057,1.062,0.057c0.326,0,0.638-0.027,0.964-0.057V62.2
			c-0.495,0.312-1.488,2.083-2.409,3.529c-0.354,0.553-0.793,1.178-0.793,1.475c0,2.141,0.041,2.565,0.112,2.977
			c0.07,0.426,0.296,0.623,0.481,0.666v0.058c-0.326-0.044-0.793-0.058-1.049-0.058c-0.297,0-1.091,0.043-1.232,0.058V70.847z"/>
	</g>
	<line fill="#D31245" stroke="#D31245" stroke-width="0.7691" x1="40.533" y1="8.883" x2="40.533" y2="90.394"/>
	<g>
		<path d="M5.364,47.245c-0.113-0.165,0.535-1.368,0.07-3.005L5.31,44.063c0.088,0.082,14.615,0.425,14.615,0.425
			c0.017-0.95,0.532-12.34-0.566-20.233c0,0,1.208,0.132,3.317,0.164c4.834,0.083,14.194-0.819,13.879,7.367
			c-0.343,9.02-13.894,7.752-13.894,7.752s-0.001-0.05,0,0.036c0.018,1.962-0.055,3.168,0.018,4.896
			c0.005,0.114,14.873-0.396,14.531-0.396c-0.761,1.241-0.167,3.275-0.195,3.267c-0.3-0.085-14.34-0.636-14.34-0.636l0.003,29.102
			c0,0-2.119-0.363-3.528,0.072c0.924-19.754,0.728-28.993,0.81-29.179c0.064-0.145-14.077,0.454-14.589,0.532 M22.689,37.681
			c9.058,0.469,10.735-5.229,10.812-6.053c0.17-2.095-0.782-5.944-10.822-5.393L22.689,37.681z"/>
		<path d="M22.354,72.519c0.071-0.186,13.09,0.877,11.04-7.168c-1.172-4.588-9.957-7.242-8.631-11.749
			c0.178-0.597,1.087-4.491,6.875-1.905c-0.009-0.004,0.617-1.283,0.938-1.648c0.089-0.098-8.309-2.758-10.092,3.146
			c-1.965,6.503,10.652,8.655,7.567,14.896c-1.712,3.469-7.6,2.336-7.6,2.336C22.632,71.033,22.354,72.519,22.354,72.519z"/>
	</g>
</g>
</svg>
