<?xml version="1.0" encoding="utf-8"?>
<!-- Generator: Adobe Illustrator 15.1.0, SVG Export Plug-In . SVG Version: 6.00 Build 0)  -->
<!DOCTYPE svg PUBLIC "-//W3C//DTD SVG 1.1//EN" "http://www.w3.org/Graphics/SVG/1.1/DTD/svg11.dtd">
<svg version="1.1" id="Layer_1" xmlns="http://www.w3.org/2000/svg" xmlns:xlink="http://www.w3.org/1999/xlink" x="0px" y="0px"
	 width="266.442px" height="69.953px" viewBox="0 0 266.442 69.953" enable-background="new 0 0 266.442 69.953"
	 xml:space="preserve">
<g>
	<path fill="#F58025" d="M56.977,16.107v-0.232H56.92c-0.422-1.553-1.907-2.703-3.68-2.703v2.703h-0.007l0.093,39.098
		c0,0-5.51-1.778-10.487-3.945c-5.751-2.503-10.351,0.221-10.772,0.484v0.024c0,0-0.016-0.009-0.021-0.013
		c-0.006,0.004-0.021,0.013-0.021,0.013v-0.024c-0.421-0.264-5.02-2.987-10.771-0.484c-4.979,2.167-10.488,3.945-10.488,3.945
		l0.093-39.098h-0.02v-2.907c-1.752,0-3.209,1.25-3.533,2.907H7.24v0.624c0,0.024-0.004,0.047-0.004,0.071s0.004,0.046,0.004,0.071
		v42.074h49.736V17.44c0.042-0.216,0.068-0.439,0.068-0.667S57.019,16.322,56.977,16.107z"/>
	<g>
		<path fill="#F58025" d="M19.75,37.975c1.148,2.056,2.473,4.021,3.943,5.881l8.436-8.205l8.461,8.225
			c1.459-1.839,2.775-3.799,3.938-5.865L32.129,26.078L19.75,37.975z"/>
		<path fill="#F58025" d="M50.016,12.753c-1.451,0.441-2.997,0.683-4.598,0.683c-5.662,0-10.609-2.977-13.273-7.403
			c-2.672,4.426-7.617,7.403-13.276,7.403c-1.601,0-3.146-0.242-4.596-0.68c-0.378,4.318-0.105,8.583,0.755,12.685h34.209
			C50.128,21.164,50.375,16.9,50.016,12.753"/>
	</g>
</g>
<g>
	<path fill="#FFFFFF" d="M92.318,57.432c-0.076,1.088-0.153,1.203-0.841,1.203c-0.802,0-5.807,0.117-11.003,0.117
		c-2.979,0-5.31-0.039-7.717-0.039c-1.643,0-3.209,0.117-4.547,0.117h-0.764c-0.076-0.156-0.114-0.311-0.114-0.467
		c0-0.193,0.076-0.35,0.114-0.505c0.917-0.271,2.56-0.66,3.516-1.127c0.305-0.544,0.496-1.71,0.534-3.108
		c0-0.66,0.038-2.525,0.038-5.596c0-1.244-0.076-4.896-0.191-10.064c-0.037-1.981-0.113-3.808-0.229-4.197
		c-0.191-0.582-0.496-1.243-1.261-1.593c-0.61-0.155-1.49-0.117-2.407-0.35c-0.076-0.155-0.114-0.388-0.114-0.582
		c0-0.272,0.076-0.272,0.19-0.428l12.073-0.039c0.114,0.078,0.152,0.272,0.152,0.467c0,0.194-0.038,0.388-0.152,0.504
		c-1.758,0.078-3.936,0.039-3.936,2.954v4.741l0.268,14.921c0,0.738,0.688,1.826,1.223,2.293c0.764,0.661,1.986,0.971,3.63,0.971
		c2.215,0,4.164-0.427,5.883-1.32c2.14-1.127,3.438-3.576,4.546-6.295c0.191-0.078,0.382-0.117,0.573-0.117
		c0.306,0,0.382,0.039,0.611,0.195c0.038,1.477,0.038,3.341,0.038,3.807C92.433,55.021,92.395,56.227,92.318,57.432z"/>
	<path fill="#FFFFFF" d="M108.479,58.713h-1.261c-1.261,0-4.088-0.116-4.661-0.116c-1.986,0-4.66,0.194-6.188,0.194H95.72
		c0-0.194-0.076-0.194-0.076-0.504c0-0.156,0.038-0.429,0.114-0.584c2.788-0.194,3.247-0.895,3.705-1.282
		c0.269-0.505,0.459-1.399,0.535-2.331c0.038-1.361,0.114-4.275,0.114-5.402c0-2.254-0.038-4.896-0.076-6.839
		c-0.038-3.574-0.076-5.556-0.114-6.294c-0.152-2.098-0.803-2.953-1.261-3.303c-0.268-0.195-1.107-0.389-2.979-0.544
		c-0.038-0.195-0.076-0.35-0.076-0.505c0-0.35,0.076-0.35,0.19-0.505h0.841c1.681,0.039,4.278,0.155,5.081,0.155
		c1.299,0,3.896-0.194,5.501-0.194h1.107c0.076,0.077,0.191,0.232,0.191,0.466c0,0.155-0.038,0.35-0.115,0.505
		c-1.222,0.155-2.674,0.311-3.399,1.01c-0.268,0.233-0.688,1.049-0.688,2.098v9.871c0,3.614,0.038,7.849,0.076,9.715
		c0.268,1.397,0.688,2.253,1.299,2.992c0.688,0.155,2.254,0.31,2.827,0.349c0.077,0.156,0.115,0.35,0.115,0.545
		C108.633,58.363,108.595,58.52,108.479,58.713z"/>
	<path fill="#FFFFFF" d="M136.483,56.926c-1.604,1.633-3.477,1.904-6.036,1.865l-10.85-0.156c-1.031,0-3.209,0.078-4.279,0.078
		c-0.726,0-1.413,0-1.566-0.039c-0.076-0.154-0.114-0.348-0.114-0.504s0.038-0.312,0.191-0.583c2.216,0,3.896-0.427,4.05-1.011
		c0.229-0.816,0.458-2.176,0.572-3.419c0.038-1.05,0.115-4.585,0.115-8.2c0-3.264-0.191-9.015-0.229-9.403
		c-0.038-0.583-0.114-1.243-0.229-1.749c-0.191-0.738-0.727-1.593-1.796-1.749c-0.918-0.117-2.14-0.272-2.713-0.349
		c-0.076-0.233-0.114-0.35-0.114-0.505c0-0.233,0.038-0.233,0.152-0.428c0.191-0.039,0.611-0.039,0.917-0.039h7.908
		c2.33,0,4.509-0.116,5.959-0.116c1.987,0,3.478,0.271,4.547,0.816c2.369,1.204,3.477,3.302,3.477,6.294
		c0,2.448-0.879,4.236-2.369,4.974c-0.496,0.234-1.719,0.623-2.368,0.816c-0.191,0.039-0.649,0.155-0.649,0.311
		c0,0.234,0.611,0.273,1.031,0.351c0.573,0.116,2.255,0.466,2.675,0.66c0.649,0.272,2.14,1.321,2.827,2.721
		c0.61,1.165,0.917,2.487,0.917,3.964C138.509,53.739,137.82,55.566,136.483,56.926z M133.16,47.988
		c-1.375-2.137-2.789-2.603-5.578-3.147c-0.688-0.116-1.758-0.271-3.209-0.271c-0.993,0-1.604,0.039-1.72,0.194
		c-0.038,0.077-0.076,0.583-0.076,1.398v7.15c0,1.166,0.076,1.477,0.153,1.943c0.458,0.894,1.261,1.67,2.254,2.253
		c0.382,0.078,1.375,0.116,1.91,0.116c2.827,0,3.782-0.465,5.195-1.631c1.223-1.128,1.872-2.799,1.872-5.169
		C133.962,49.736,133.694,48.766,133.16,47.988z M131.097,34.233c-0.764-1.244-1.91-1.904-3.477-2.215
		c-0.688-0.156-1.604-0.234-2.75-0.234c-0.65,0-1.338,0.039-2.062,0.039c-0.077,1.283-0.154,6.296-0.154,6.296
		c-0.038,1.438-0.038,2.486-0.038,3.225c0,1.166,0.076,1.943,0.153,2.021c0.077,0.077,0.535,0.077,1.261,0.077
		c2.063,0,5.311-0.466,5.883-0.854c0.23-0.156,0.497-0.428,0.803-0.855c0.917-1.244,1.413-2.604,1.413-4.003
		C132.128,36.448,131.747,35.244,131.097,34.233z"/>
	<path fill="#FFFFFF" d="M168.041,58.752c-0.956,0-3.4,0-4.279,0c-1.451,0-2.216-0.078-2.521-0.117
		c-0.726-0.076-1.031-0.776-1.146-1.592c-0.383-2.836-1.185-6.567-2.407-8.51c-0.917-1.438-2.216-2.487-3.668-3.147
		c-0.993-0.467-2.024-0.545-3.056-0.545c-0.306,0-0.688,0-0.994,0.039l0.039,9.753c0,1.361,0.688,2.293,1.643,2.76
		c0.42,0.078,1.375,0.311,2.14,0.389c0.076,0.155,0.152,0.311,0.152,0.582c0,0.156-0.076,0.271-0.152,0.428
		c-2.178,0-3.095-0.117-5.54-0.117c-1.222,0-5.921,0.117-6.456,0.117c-0.076-0.194-0.153-0.35-0.153-0.465
		c0-0.195,0.077-0.352,0.191-0.545c0.764-0.039,1.682-0.194,2.178-0.272c1.108-0.466,1.452-1.632,1.566-2.604
		c0.19-1.477,0.152-6.45,0.152-10.414c0-5.479-0.038-8.976-0.229-10.219c-0.382-0.854-0.688-1.399-1.604-2.099
		c-0.611-0.117-1.796-0.272-2.445-0.35c-0.038-0.155-0.076-0.388-0.076-0.543c0-0.155,0.076-0.233,0.19-0.506
		c0.229,0,1.682,0.078,2.255,0.078c1.337,0,3.514,0.078,4.087,0.078c1.91,0,4.241-0.271,7.106-0.271
		c2.024,0,3.667,0.155,4.584,0.427c2.789,0.894,4.775,3.886,4.775,7.034c0,2.098-0.841,3.847-2.368,5.013
		c-0.727,0.582-1.375,1.049-4.203,1.398c-0.726,0.078-0.993,0.116-1.566,0.233c0.459,0.193,0.955,0.389,1.566,0.622
		c1.338,0.466,2.331,0.972,2.675,1.281c0.916,0.855,2.024,2.722,2.827,4.664c0.573,1.476,1.107,3.069,1.604,4.856
		c0.152,0.272,0.458,0.738,0.649,0.973c0.572,0.427,2.139,0.504,2.521,0.504c0.114,0.156,0.19,0.389,0.19,0.584
		C168.27,58.441,168.193,58.597,168.041,58.752z M158.643,34.039c-1.299-1.904-2.941-2.254-6.533-2.254
		c-0.954,0-1.795,0.117-1.947,0.234c-0.153,0.117-0.269,0.389-0.269,0.894v7.344l0.038,3.381c0.573,0.077,1.146,0.077,1.604,0.077
		c1.721,0,3.057-0.116,3.974-0.31c2.254-0.506,4.202-3.265,4.202-5.752C159.712,36.293,159.368,35.088,158.643,34.039z"/>
	<path fill="#FFFFFF" d="M199.636,58.752c-2.482,0-4.278-0.117-6.646-0.117c-1.452,0-3.133,0.078-3.782,0.078h-1.72
		c-0.19-0.154-0.268-0.35-0.268-0.504c0-0.156,0.038-0.272,0.229-0.506c1.49-0.078,2.407-0.232,2.941-0.505
		c0.344-0.39,0.573-1.127,0.573-1.903c-0.152-0.584-0.573-1.866-1.107-3.459c-0.306-0.934-0.688-1.943-0.955-2.604
		c-0.153-0.272-0.458-0.894-0.765-1.127c-3.515,0-6.494,0-9.168,0.117c-0.229,0.426-0.268,0.66-0.535,1.437l-1.566,5.13
		c0.153,1.282,0.764,2.137,1.299,2.643c0.344,0.155,1.337,0.311,2.292,0.389c0.115,0.193,0.191,0.311,0.191,0.467
		c0,0.154-0.038,0.271-0.153,0.504h-1.031c-1.375,0-2.827-0.156-4.279-0.156c-1.336,0-3.285,0.078-4.087,0.078
		c-0.115-0.193-0.153-0.232-0.153-0.426c0-0.156,0.076-0.351,0.114-0.545c1.644-0.466,3.248-0.895,3.821-2.293
		c1.107-2.836,0.993-2.486,2.75-7.422c1.796-5.051,3.095-8.51,3.896-10.53c1.032-2.487,1.605-3.886,1.72-4.158
		c0.459-1.283,0.84-2.098,1.185-2.41c0.229-0.271,0.61-0.388,0.917-0.388c0.382,0,0.688,0.155,0.917,0.466
		c0.076,0.117,0.229,0.583,0.343,0.894l1.682,4.235l5.539,14.455c0.688,1.787,1.223,2.992,1.834,4.547
		c0.306,0.777,0.726,1.67,0.955,1.865c0.191,0.156,2.024,0.699,3.018,0.854c0.076,0.155,0.191,0.312,0.191,0.468
		C199.827,58.48,199.751,58.635,199.636,58.752z M187.144,44.646c-0.611-1.709-1.871-5.129-2.56-6.878
		c-0.267-0.66-0.611-1.437-0.917-2.06c-0.649,1.438-1.185,2.682-2.14,5.246c-1.031,2.759-1.947,5.479-2.101,6.023h5.311
		c1.069,0,2.33-0.039,3.094-0.156C187.603,46.007,187.449,45.502,187.144,44.646z"/>
	<path fill="#FFFFFF" d="M228.863,58.752c-0.955,0-3.4,0-4.278,0c-1.452,0-2.217-0.078-2.521-0.117
		c-0.727-0.076-1.031-0.776-1.146-1.592c-0.382-2.836-1.185-6.567-2.407-8.51c-0.917-1.438-2.215-2.487-3.667-3.147
		c-0.993-0.467-2.025-0.545-3.057-0.545c-0.306,0-0.688,0-0.993,0.039l0.038,9.753c0,1.361,0.688,2.293,1.643,2.76
		c0.421,0.078,1.376,0.311,2.14,0.389c0.077,0.155,0.153,0.311,0.153,0.582c0,0.156-0.076,0.271-0.153,0.428
		c-2.178,0-3.095-0.117-5.539-0.117c-1.223,0-5.922,0.117-6.457,0.117c-0.076-0.194-0.152-0.35-0.152-0.465
		c0-0.195,0.076-0.352,0.191-0.545c0.764-0.039,1.681-0.194,2.178-0.272c1.107-0.466,1.451-1.632,1.566-2.604
		c0.19-1.477,0.152-6.45,0.152-10.414c0-5.479-0.038-8.976-0.229-10.219c-0.382-0.854-0.688-1.399-1.604-2.099
		c-0.611-0.117-1.796-0.272-2.444-0.35c-0.039-0.155-0.077-0.388-0.077-0.543c0-0.155,0.077-0.233,0.191-0.506
		c0.229,0,1.681,0.078,2.253,0.078c1.338,0,3.516,0.078,4.088,0.078c1.911,0,4.241-0.271,7.106-0.271
		c2.025,0,3.668,0.155,4.585,0.427c2.788,0.894,4.775,3.886,4.775,7.034c0,2.098-0.841,3.847-2.369,5.013
		c-0.726,0.582-1.375,1.049-4.202,1.398c-0.726,0.078-0.994,0.116-1.566,0.233c0.458,0.193,0.955,0.389,1.566,0.622
		c1.337,0.466,2.33,0.972,2.674,1.281c0.917,0.855,2.024,2.722,2.827,4.664c0.573,1.476,1.108,3.069,1.604,4.856
		c0.152,0.272,0.459,0.738,0.649,0.973c0.573,0.427,2.14,0.504,2.521,0.504c0.114,0.156,0.19,0.389,0.19,0.584
		C229.092,58.441,229.016,58.597,228.863,58.752z M219.466,34.039c-1.3-1.904-2.942-2.254-6.533-2.254
		c-0.955,0-1.796,0.117-1.948,0.234c-0.153,0.117-0.268,0.389-0.268,0.894v7.344l0.038,3.381c0.573,0.077,1.146,0.077,1.604,0.077
		c1.719,0,3.057-0.116,3.974-0.31c2.254-0.506,4.202-3.265,4.202-5.752C220.535,36.293,220.191,35.088,219.466,34.039z"/>
	<path fill="#FFFFFF" d="M256.672,31.513c-0.764,0.195-1.948,0.427-2.483,0.778c-0.764,0.465-1.91,1.592-2.444,2.603l-5.846,11.851
		c-0.153,0.312-0.268,0.662-0.268,1.05c0,0.039-0.038,0.506,0,0.972l0.345,5.829c0.076,1.516,0.381,1.826,0.993,2.487
		c0.381,0.389,2.101,0.621,3.323,0.776c0.114,0.194,0.152,0.312,0.152,0.505c0,0.195-0.114,0.35-0.19,0.506
		c-0.688,0-1.681-0.039-2.98-0.078c-2.253-0.039-3.781-0.078-4.584-0.078c-1.146,0-3.477,0.039-5.425,0.039
		c-0.038-0.155-0.114-0.271-0.114-0.465c0-0.195,0.038-0.273,0.19-0.545c0.879-0.078,2.789-0.35,3.057-0.505
		c0.649-0.429,1.222-1.321,1.222-2.992c0-1.981-0.076-3.575-0.343-4.663c-0.191-0.699-0.573-1.672-1.224-2.915l-6.685-13.328
		c-0.268-0.506-1.031-0.971-3.591-1.594c-0.115-0.194-0.153-0.31-0.153-0.466c0-0.272,0.076-0.311,0.229-0.583
		c0.305,0,2.864,0.116,4.737,0.116c4.393,0,3.973-0.116,6.532-0.116h0.688c0.114,0.194,0.229,0.116,0.229,0.389
		c0,0.156-0.038,0.389-0.114,0.583c-1.604,0.194-2.789,0.271-3.133,0.971c-0.076,0.155-0.152,0.505-0.152,1.011
		c0,0.349,0.076,0.894,0.152,1.049l2.139,4.741c0.535,1.165,2.561,5.361,3.554,7.071c0.611-0.855,1.528-2.837,3.285-6.45
		c1.031-2.138,1.758-3.651,2.101-4.624c0.192-0.506,0.23-0.971,0.23-1.438c0-0.621-0.077-1.01-0.345-1.515
		c-0.306-0.544-1.91-0.816-3.018-1.049c-0.038-0.117-0.076-0.272-0.076-0.467c0-0.195,0.038-0.233,0.152-0.466
		c1.031,0,3.4,0.156,5.349,0.156c0.802,0,2.865-0.117,4.432-0.117c0.076,0.155,0.229,0.232,0.229,0.466
		C256.825,31.163,256.748,31.319,256.672,31.513z"/>
</g>
<g>
	<path fill="#FFFFFF" d="M160.386,13.939c0-0.048-0.013-0.136-0.037-0.174h-0.288c-0.625,0-1.025,0.025-2.147,0.025
		c-0.389,0-0.963-0.025-1.101-0.025h-0.324c-0.038,0.025-0.051,0.163-0.051,0.213c0,0.063,0.013,0.162,0.062,0.212
		c0.2,0.062,0.962,0.148,1.286,0.362c0.224,0.262,0.326,0.788,0.362,1.274c0.013,0.189,0.024,0.375,0.024,0.888v2.613
		c0,0.301-0.012,0.4-0.024,0.537c-0.212-0.236-0.511-0.687-1.011-1.25l-4.175-4.625c-0.037-0.051-0.11-0.112-0.187-0.163
		c-0.101,0-0.275-0.013-0.375-0.013c-0.801,0-2.251-0.038-2.463-0.038c-0.026,0.05-0.05,0.125-0.05,0.177
		c0,0.024,0.023,0.199,0.037,0.236c0.188,0.049,0.601,0.112,0.938,0.476c0.2,0.224,0.551,0.537,0.663,0.788
		c0.038,0.086,0.049,0.223,0.049,0.399c0,0.649-0.037,1.562-0.037,2.437v2.537c0,0.412-0.037,0.738-0.075,0.949
		c-0.261,0.275-0.661,0.476-1.312,0.637c-0.023,0.063-0.048,0.164-0.048,0.226c0,0.037,0.011,0.162,0.036,0.175h0.238
		c0.248,0,0.825-0.037,1.198-0.037c0.551,0,0.926,0.037,1.438,0.037h0.75c0.052-0.013,0.062-0.163,0.062-0.212
		s-0.011-0.15-0.036-0.201c-0.438-0.111-1.074-0.211-1.5-0.773c-0.09-0.188-0.163-1.114-0.163-1.551c0-0.4-0.013-0.951-0.013-1.687
		c0-0.989,0.013-1.851,0.025-2.288c0.074,0.088,0.162,0.2,0.226,0.275l5.772,6.488c0.062,0.063,0.286,0.076,0.348,0.076
		c0.063,0,0.103,0,0.151-0.026c0.025-0.062,0.113-0.263,0.113-0.562c0-0.362-0.013-0.738-0.013-0.925v-5.212
		c0-1.564,0.737-2.001,1.601-2.039C160.373,14.116,160.386,14.003,160.386,13.939 M146.062,17.917c0,1.886-0.522,3.549-1.234,4.136
		c-0.364,0.3-0.815,0.45-1.327,0.45c-0.699,0-1.312-0.274-1.662-0.837c-0.476-0.726-0.739-2.076-0.739-3.251
		c0-1.738,0.452-3.1,1.251-3.763c0.427-0.35,0.862-0.487,1.301-0.487c0.675,0,1.324,0.325,1.699,0.862
		C145.825,15.677,146.062,16.615,146.062,17.917 M148.327,18.153c0-1.75-0.776-3.087-2.226-3.887
		c-0.775-0.426-1.551-0.639-2.375-0.639c-1.825,0-3.475,1.088-4.213,2.325c-0.476,0.775-0.726,1.625-0.726,2.525
		c0,1.437,0.702,2.85,1.789,3.663c0.823,0.6,1.762,0.899,2.85,0.899c0.662,0,1.287-0.125,1.899-0.362
		c0.688-0.263,1.274-0.675,1.736-1.188C147.875,20.604,148.327,19.466,148.327,18.153 M137.34,16.579v-2.551
		c0-0.187-0.074-0.237-0.264-0.237c-0.375,0-2.351,0.051-4.35,0.051c-1.551,0-2.838-0.025-3.538-0.025h-0.926
		c-0.161,0-0.211,0.038-0.211,0.212v2.389c0.05,0.037,0.137,0.049,0.201,0.049c0.049,0,0.224,0,0.273-0.025
		c0.562-1.136,1.087-1.749,1.75-2.085c0.375-0.039,1.112-0.052,1.311-0.052c0.014,0.138,0.027,0.575,0.039,1.101
		c0.012,0.9,0.012,1.288,0.012,3.411c0,1.839-0.012,2.665-0.037,2.864c-0.049,0.35,0.014,0.613-1.486,0.675
		c-0.039,0.087-0.039,0.188-0.039,0.288c0,0.049,0,0.15,0.014,0.2h0.488c0.462,0,1.548-0.05,2-0.05c0.361,0,1.524,0.037,2.287,0.037
		h0.351c0.037-0.062,0.037-0.199,0.037-0.262c0-0.075-0.014-0.163-0.052-0.224c-0.136,0-0.937,0.024-1.285-0.238
		c-0.038-0.138-0.114-0.5-0.114-0.938c-0.012-1.35-0.025-1.861-0.025-2.762c0-1.163,0.014-1.951,0.014-4.113
		c0.175,0,0.574-0.013,0.949,0c0.775,0.213,1.15,0.501,1.487,0.95c0.214,0.288,0.438,0.776,0.663,1.363
		c0.076,0.025,0.14,0.025,0.214,0.025C137.152,16.628,137.313,16.603,137.34,16.579 M126.563,20.642c0-0.176,0-0.251-0.013-0.365
		c-0.062-0.037-0.087-0.037-0.188-0.037c-0.088,0-0.188,0-0.274,0.026c-0.426,0.962-1.038,1.712-1.376,1.912
		c-0.186,0.113-0.474,0.138-0.936,0.138h-1.026c-0.398,0-0.713-0.037-0.824-0.062c-0.189-0.038-0.388-0.337-0.478-0.538
		c-0.087-0.211-0.135-0.211-0.135-0.787V18.19h0.462c0.125,0,0.426,0.025,0.763,0.175c0.312,0.138,0.438,0.325,0.562,0.524
		c0.112,0.176,0.188,0.863,0.212,1.039c0.062,0.037,0.226,0.049,0.324,0.049c0.102,0,0.163-0.013,0.252-0.063
		c0-0.337-0.077-1.25-0.077-1.75c0-0.625,0.089-1.488,0.125-1.938c-0.048-0.025-0.125-0.049-0.247-0.049
		c-0.09,0-0.252,0-0.327,0.038c-0.037,0.175-0.175,0.699-0.2,0.736c-0.186,0.313-0.513,0.551-0.85,0.65
		c-0.225,0.063-0.55,0.1-0.725,0.1h-0.264v-1.162c0-1.2,0.027-1.587,0.037-1.813c0.014-0.15,0.039-0.312,0.052-0.425
		c0.112-0.012,0.175-0.025,0.751-0.025c0.724,0,1.061,0.013,1.174,0.013c0.352,0.025,0.611,0.101,0.801,0.25
		c0.474,0.363,0.836,0.938,1.199,1.551c0.074,0.024,0.198,0.024,0.262,0.024c0.076,0,0.087-0.024,0.189-0.075
		c0-0.763-0.052-1.75-0.076-2.062c-0.014-0.125-0.037-0.163-0.287-0.163c-0.102,0-0.576-0.025-1.076-0.025
		c-0.713,0-0.999,0.013-2.086,0.013c-0.588,0-1.802,0.012-2.313,0.012c-0.749,0-1.388-0.025-1.712-0.025h-0.426
		c-0.037,0.051-0.062,0.149-0.062,0.201c0,0.062,0.025,0.2,0.062,0.25c0.15,0.05,0.738,0.038,0.913,0.137
		c0.174,0.15,0.338,0.214,0.451,0.813c0.024,0.264,0.037,0.988,0.037,1.562v2.575c0,0.526-0.013,1.287-0.026,1.6
		c-0.025,0.487-0.199,1.075-0.274,1.188c-0.113,0.087-0.626,0.163-1.124,0.188c-0.039,0.075-0.063,0.199-0.063,0.274
		c0,0.074,0.024,0.163,0.063,0.225h0.411c0.398,0,1.874-0.037,2.213-0.037c0.312,0,0.911,0.025,1.637,0.025
		c0.399,0,1.576,0.075,4.101,0.075c0.101,0,0.212,0.013,0.338-0.025c0.037-0.062,0.037-0.088,0.051-0.2
		C126.563,22.391,126.563,21.652,126.563,20.642 M115.987,21.079c-0.036-0.113-0.136-0.3-0.424-0.3
		c-0.024,0-0.062,0.011-0.087,0.011c-0.75,1.063-1.575,1.463-2.513,1.463c-1.301,0-2.227-0.875-2.524-1.649
		c-0.162-0.413-0.388-1.313-0.388-2.275c0-0.912,0.138-1.651,0.374-2.188c0.551-1.449,1.351-1.9,2.325-1.9
		c0.812,0,1.487,0.463,2,1.126c0.213,0.287,0.438,0.85,0.638,1.512c0.05,0.013,0.163,0.037,0.274,0.037
		c0.076,0,0.251-0.062,0.301-0.111c-0.013-0.139-0.137-1.1-0.137-1.4c0-0.375,0.098-0.988,0.098-1.226
		c-0.073-0.075-0.325-0.125-0.486-0.136c-0.188,0.136-0.25,0.298-0.424,0.512c-0.7-0.5-1.352-0.888-2.776-0.888
		c-1.312,0-2.349,0.451-3.138,1.238c-0.861,0.849-1.338,2.024-1.338,3.525c0,1.6,0.677,2.911,1.764,3.737
		c0.688,0.499,1.701,0.837,2.912,0.837c1.525,0,2.639-0.576,3.201-1.337C115.863,21.366,115.891,21.291,115.987,21.079
		 M106.265,13.939c0-0.048-0.014-0.136-0.039-0.174h-0.287c-0.626,0-1.025,0.025-2.149,0.025c-0.388,0-0.963-0.025-1.101-0.025
		h-0.324c-0.036,0.025-0.05,0.163-0.05,0.213c0,0.063,0.014,0.162,0.062,0.212c0.2,0.062,0.962,0.148,1.287,0.362
		c0.225,0.262,0.326,0.788,0.363,1.274c0.011,0.189,0.024,0.375,0.024,0.888v2.613c0,0.301-0.014,0.4-0.024,0.537
		c-0.213-0.236-0.512-0.687-1.013-1.25l-4.175-4.625c-0.036-0.051-0.112-0.112-0.188-0.163c-0.1,0-0.276-0.013-0.374-0.013
		c-0.802,0-2.251-0.038-2.464-0.038c-0.025,0.05-0.051,0.125-0.051,0.177c0,0.024,0.025,0.199,0.039,0.236
		c0.188,0.049,0.6,0.112,0.938,0.476c0.2,0.224,0.549,0.537,0.662,0.788c0.037,0.086,0.05,0.223,0.05,0.399
		c0,0.649-0.037,1.562-0.037,2.437v2.537c0,0.412-0.036,0.738-0.076,0.949c-0.261,0.275-0.662,0.476-1.312,0.637
		c-0.025,0.063-0.049,0.164-0.049,0.226c0,0.037,0.012,0.162,0.035,0.175h0.238c0.25,0,0.826-0.037,1.2-0.037
		c0.551,0,0.924,0.037,1.438,0.037h0.75c0.051-0.013,0.063-0.163,0.063-0.212s-0.013-0.15-0.037-0.201
		c-0.438-0.111-1.076-0.211-1.501-0.773c-0.09-0.188-0.162-1.114-0.162-1.551c0-0.4-0.015-0.951-0.015-1.687
		c0-0.989,0.015-1.851,0.026-2.288c0.076,0.088,0.164,0.2,0.227,0.275l5.773,6.488c0.062,0.063,0.287,0.076,0.35,0.076
		s0.102,0,0.15-0.026c0.025-0.062,0.112-0.263,0.112-0.562c0-0.362-0.011-0.738-0.011-0.925v-5.212c0-1.564,0.736-2.001,1.6-2.039
		C106.251,14.116,106.265,14.003,106.265,13.939 M93.9,22.603c0-0.062-0.012-0.201-0.037-0.25c-0.188-0.012-0.7-0.062-0.925-0.112
		c-0.199-0.238-0.337-0.513-0.424-0.962c-0.013-0.6-0.025-1.838-0.025-3v-3.076c0-0.337,0.137-0.601,0.224-0.675
		c0.237-0.225,0.712-0.275,1.113-0.325c0.026-0.049,0.037-0.188,0.037-0.237c0-0.075-0.037-0.176-0.063-0.201h-0.361
		c-0.525,0-1.75,0.063-2.174,0.063c-0.262,0-1.488-0.038-2.038-0.05h-0.277c-0.035,0.05-0.061,0.101-0.061,0.213
		c0,0.051,0.013,0.175,0.025,0.238c0.612,0.049,0.886,0.111,0.975,0.174c0.149,0.114,0.362,0.389,0.413,1.064
		c0.013,0.237,0.025,0.75,0.036,1.899c0.013,0.625,0.026,1.5,0.026,2.224c0,0.364-0.026,1.176-0.037,1.614
		c-0.025,0.3-0.089,0.587-0.177,0.75c-0.15,0.124-0.298,0.35-1.211,0.412c-0.025,0.049-0.038,0.213-0.038,0.263
		c0,0.1,0.025,0.15,0.025,0.212h0.213c0.499,0,1.75-0.062,2.399-0.062c0.188,0,1.488,0.037,1.899,0.037h0.414
		C93.889,22.753,93.9,22.652,93.9,22.603 M83.876,16.079c0,0.774-0.524,1.662-1.138,1.812c-0.25,0.062-0.562,0.1-1.025,0.1
		c-0.124,0-0.312,0-0.462-0.025l-0.013-1.062v-2.301c0-0.149,0.039-0.236,0.075-0.275c0.038-0.037,0.264-0.075,0.525-0.075
		c0.974,0,1.401,0.087,1.75,0.675C83.789,15.266,83.876,15.653,83.876,16.079 M87.501,22.615c0-0.062-0.024-0.213-0.063-0.262
		c-0.124,0-0.636-0.025-0.823-0.162c-0.062-0.075-0.163-0.226-0.213-0.313c-0.164-0.575-0.35-0.962-0.538-1.436
		c-0.262-0.626-0.626-1.213-0.924-1.489c-0.113-0.101-0.501-0.263-0.937-0.412c-0.201-0.075-0.364-0.138-0.515-0.201
		c0.188-0.037,0.276-0.049,0.515-0.075c0.924-0.112,1.136-0.274,1.374-0.462c0.498-0.375,0.773-0.95,0.773-1.625
		c0-1.013-0.649-1.987-1.562-2.275c-0.301-0.087-0.838-0.138-1.499-0.138c-0.938,0-2.251,0.088-2.876,0.088
		c-0.188,0-1.274-0.025-1.713-0.025c-0.188,0-0.662-0.025-0.738-0.025c-0.037,0.088-0.062,0.188-0.062,0.238
		c0,0.049,0.014,0.173,0.024,0.225c0.214,0.024,0.599,0.073,0.802,0.111c0.298,0.225,0.399,0.4,0.525,0.676
		c0.061,0.401,0.073,1.425,0.073,3.187c0,1.275,0.014,2.75-0.049,3.226c-0.039,0.312-0.15,0.688-0.516,0.838
		c-0.16,0.024-0.459,0.075-0.712,0.087c-0.034,0.062-0.061,0.188-0.061,0.25c0,0.037,0.026,0.138,0.05,0.2
		c0.175,0,2.087-0.038,2.487-0.038c0.801,0,1.477,0.038,2.188,0.038c0.024-0.05,0.05-0.138,0.05-0.188
		c0-0.087-0.025-0.212-0.05-0.262c-0.251-0.025-0.564-0.1-0.7-0.125c-0.312-0.15-0.537-0.45-0.537-0.888l-0.014-2.888
		c0.101-0.012,0.225-0.012,0.325-0.012c0.163,0,0.35,0.025,0.663,0.201c0.461,0.262,0.687,0.449,0.988,0.911
		c0.398,0.626,0.66,1.776,0.786,2.688c0.037,0.263,0.138,0.488,0.375,0.513c0.1,0.012,0.762,0.037,1.237,0.037h1.787
		C87.477,22.778,87.501,22.678,87.501,22.615 M73.926,16.14c0,0.637-0.225,1.2-0.638,1.562c-0.261,0.214-0.674,0.338-1.299,0.338
		c-0.262,0-0.462-0.013-0.538-0.025c-0.1-0.012-0.162-0.024-0.162-0.087l0.012-3.662c0.15-0.014,0.363-0.063,0.725-0.063
		c0.85,0,1.375,0.212,1.625,0.738C73.826,15.278,73.926,15.704,73.926,16.14 M76.163,16.191c0-0.938-0.538-1.813-1.337-2.176
		c-0.413-0.174-1.138-0.287-2.236-0.287c-0.964,0-2.463,0.075-3.125,0.075c-0.463,0-1.165-0.049-1.551-0.049
		c-0.039,0.062-0.062,0.149-0.062,0.201c0,0.049,0,0.186,0.037,0.249c0.238,0.075,0.625,0.136,0.876,0.199
		c0.211,0.189,0.261,0.352,0.335,0.713c0.04,0.438,0.064,0.988,0.064,1.938c0,2.638-0.012,4.026-0.051,4.325
		c-0.05,0.375-0.299,0.763-0.713,0.888c-0.188,0.038-0.461,0.099-0.725,0.125c-0.012,0.062-0.023,0.15-0.023,0.262
		c0,0.101,0.012,0.114,0.035,0.175c0.401,0,1.576-0.049,2.027-0.049c1.111,0,2.25,0.049,2.71,0.049h0.313
		c0.037-0.049,0.037-0.138,0.037-0.199c0-0.075,0-0.175-0.023-0.226c-0.375-0.049-0.938-0.124-1.175-0.399
		c-0.126-0.15-0.251-0.362-0.251-0.737l-0.037-2.75c0.75,0.049,1.55,0.076,1.988,0.076c0.574,0,1.062-0.102,1.45-0.226
		C75.614,18.028,76.163,17.152,76.163,16.191"/>
	<path fill="#FFFFFF" d="M257.589,13.841c0-0.076-0.05-0.1-0.075-0.15c-0.513,0-1.187,0.038-1.448,0.038
		c-0.638,0-1.413-0.05-1.752-0.05c-0.035,0.076-0.049,0.087-0.049,0.151c0,0.062,0.014,0.11,0.025,0.149
		c0.362,0.075,0.886,0.162,0.987,0.337c0.089,0.163,0.112,0.287,0.112,0.487c0,0.15-0.013,0.3-0.074,0.463
		c-0.112,0.313-0.351,0.799-0.688,1.487c-0.574,1.164-0.938,1.887-1.137,2.175c-0.326-0.549-1.051-2-1.226-2.375l-0.7-1.525
		c-0.025-0.049-0.05-0.225-0.05-0.337c0-0.163,0.024-0.275,0.05-0.325c0.113-0.226,0.501-0.25,1.025-0.313
		c0.025-0.062,0.037-0.138,0.037-0.188c0-0.087-0.037-0.062-0.075-0.124h-0.225c-0.838,0-0.589,0.037-2.025,0.037
		c-0.613,0-1.35-0.037-1.449-0.037c-0.051,0.088-0.075,0.1-0.075,0.187c0,0.051,0.013,0.087,0.049,0.151
		c0.838,0.199,1.087,0.351,1.176,0.513l2.188,4.286c0.213,0.4,0.337,0.712,0.4,0.938c0.087,0.35,0.1,0.862,0.1,1.5
		c0,0.537-0.187,0.825-0.4,0.962c-0.087,0.049-0.713,0.138-0.999,0.162c-0.051,0.087-0.062,0.114-0.062,0.177
		c0,0.061,0.024,0.099,0.037,0.149c0.638,0,1.3-0.013,1.675-0.013c0.263,0,0.662,0.013,1.399,0.025
		c0.427,0.013,0.75,0.024,0.977,0.024c0.023-0.05,0.062-0.1,0.062-0.162s-0.011-0.1-0.05-0.163c-0.399-0.05-0.962-0.125-1.087-0.249
		c-0.2-0.214-0.302-0.313-0.326-0.799l-0.099-1.877c-0.013-0.136,0.037-0.262,0.05-0.299c0.037-0.138,0.087-0.25,0.138-0.351
		l1.925-3.812c0.175-0.325,0.55-0.688,0.799-0.838c0.175-0.112,0.562-0.187,0.812-0.249
		C257.565,13.939,257.589,13.891,257.589,13.841 M247.49,16.416v-2.425c0-0.188-0.075-0.237-0.263-0.237
		c-0.375,0-2.101,0.049-4.101,0.049c-1.549,0-2.588-0.025-3.287-0.025h-0.925c-0.163,0-0.213,0.038-0.213,0.213v2.263
		c0.05,0.037,0.088,0.049,0.15,0.049c0.049,0,0.1,0,0.15-0.025c0.486-1.087,0.736-1.663,1.575-2.087
		c0.374-0.037,1.687-0.051,1.887-0.051c0.013,0.138,0.025,0.576,0.038,1.1c0.012,0.9,0.012,1.388,0.012,3.512
		c0,1.838-0.012,2.788-0.037,2.987c-0.05,0.352,0.013,0.614-1.487,0.677c-0.038,0.087-0.038,0.111-0.038,0.212
		c0,0.049,0,0.1,0.014,0.15h0.486c0.463,0,1.075-0.05,1.525-0.05c0.362,0,1.051,0.038,1.812,0.038h0.35
		c0.038-0.063,0.038-0.125,0.038-0.188c0-0.075-0.013-0.112-0.051-0.176c-0.137,0-0.937,0.025-1.288-0.236
		c-0.036-0.138-0.111-0.5-0.111-0.937c-0.013-1.351-0.026-1.988-0.026-2.888c0-1.164,0.014-2.05,0.014-4.212
		c0.176,0,1.101-0.012,1.475,0c0.775,0.211,1.075,0.5,1.413,0.95c0.299,0.4,0.374,0.762,0.562,1.363
		c0.076,0.024,0.113,0.024,0.188,0.024C247.401,16.465,247.465,16.441,247.49,16.416 M237.104,22.59
		c0-0.063-0.014-0.124-0.039-0.174c-0.187-0.014-0.7-0.063-0.925-0.112c-0.199-0.237-0.337-0.513-0.425-0.964
		c-0.012-0.599-0.024-1.962-0.024-3.125V15.04c0-0.336,0.137-0.599,0.226-0.673c0.237-0.226,0.712-0.275,1.113-0.325
		c0.022-0.051,0.035-0.114,0.035-0.163c0-0.075-0.035-0.125-0.062-0.15h-0.362c-0.524,0-1.273,0.062-1.7,0.062
		c-0.262,0-1.013-0.036-1.562-0.049h-0.274c-0.037,0.049-0.062,0.049-0.062,0.162c0,0.05,0.012,0.101,0.025,0.163
		c0.612,0.05,0.888,0.112,0.975,0.174c0.15,0.114,0.361,0.388,0.413,1.063c0.012,0.238,0.023,0.875,0.036,2.024
		c0.014,0.625,0.025,1.475,0.025,2.201c0,0.362-0.025,1.299-0.038,1.736c-0.023,0.301-0.087,0.588-0.175,0.75
		c-0.149,0.126-0.3,0.351-1.212,0.413c-0.024,0.05-0.038,0.138-0.038,0.189c0,0.099,0.025,0.099,0.025,0.162h0.213
		c0.499,0,1.273-0.063,1.925-0.063c0.188,0,1.012,0.038,1.425,0.038h0.412C237.09,22.69,237.104,22.641,237.104,22.59
		 M230.928,20.291c0-1-0.449-1.687-1.413-2.2c-0.263-0.15-0.724-0.313-1.387-0.499c-0.763-0.214-1.4-0.463-1.813-0.688
		c-0.274-0.15-0.737-0.563-0.737-1.362c0-0.801,0.813-1.462,1.763-1.462c0.75,0,1.351,0.375,1.712,0.875
		c0.312,0.438,0.426,0.638,0.776,1.425c0.037,0.012,0.087,0.025,0.124,0.025c0.113,0,0.213-0.063,0.275-0.125
		c-0.037-0.312-0.101-0.749-0.101-1.125c0-0.325,0.075-0.751,0.112-0.976c-0.099-0.15-0.212-0.174-0.374-0.174
		c-0.175,0.113-0.338,0.287-0.487,0.45c-0.825-0.663-1.501-0.775-2.125-0.775c-1.538,0-2.639,1.025-2.639,2.387
		c0,0.462,0.163,0.913,0.464,1.375c0.274,0.388,0.674,0.688,1.211,0.913c0.364,0.15,1.989,0.638,2.213,0.725
		c1.001,0.388,1.375,0.726,1.375,1.613c0,0.438-0.187,0.826-0.549,1.263c-0.325,0.399-0.839,0.587-1.39,0.587
		c-0.586,0-1.599-0.251-2.098-0.926c-0.302-0.386-0.726-1.199-0.85-1.687c-0.089-0.025-0.089-0.025-0.176-0.025
		c-0.075,0-0.163,0.025-0.238,0.076c0,0.162,0.049,0.987,0.049,1.237c0,0.614-0.11,0.912-0.137,1.112
		c0.038,0.125,0.251,0.25,0.4,0.25c0.264-0.225,0.537-0.399,0.625-0.399c0.075,0,0.188,0.037,0.3,0.111
		c0.813,0.525,1.487,0.625,2.089,0.625C229.665,22.915,230.928,22.028,230.928,20.291 M219.865,15.978
		c0,0.799-0.638,1.701-1.376,1.863c-0.299,0.063-0.736,0.099-1.299,0.099c-0.149,0-0.575,0-0.764-0.023l-0.012-1.101v-2.363
		c0-0.163,0.037-0.25,0.088-0.288c0.05-0.037,0.562-0.075,0.875-0.075c1.175,0,1.712,0.112,2.137,0.725
		C219.751,15.153,219.865,15.541,219.865,15.978 M222.49,22.603c0-0.062-0.025-0.136-0.062-0.187c-0.124,0-0.638-0.025-0.825-0.163
		c-0.062-0.074-0.162-0.225-0.212-0.312c-0.163-0.575-0.339-1.088-0.526-1.563c-0.261-0.625-0.625-1.212-0.924-1.488
		c-0.112-0.1-0.463-0.261-0.901-0.412c-0.199-0.075-0.36-0.137-0.512-0.2c0.188-0.039,0.275-0.05,0.512-0.074
		c0.813-0.101,1.089-0.275,1.326-0.463c0.499-0.375,0.824-0.937,0.824-1.613c0-1.013-0.649-1.974-1.562-2.263
		c-0.3-0.087-0.837-0.136-1.5-0.136c-0.937,0-1.637,0.087-2.262,0.087c-0.188,0-0.8-0.025-1.237-0.025
		c-0.188,0-0.662-0.025-0.738-0.025c-0.038,0.088-0.061,0.113-0.061,0.163c0,0.051,0.011,0.125,0.022,0.175
		c0.214,0.026,0.601,0.075,0.8,0.112c0.302,0.226,0.4,0.4,0.525,0.675c0.063,0.399,0.076,1.526,0.076,3.287
		c0,1.276,0.013,2.876-0.051,3.351c-0.038,0.313-0.15,0.687-0.513,0.837c-0.162,0.025-0.462,0.075-0.712,0.088
		c-0.038,0.062-0.062,0.112-0.062,0.175c0,0.037,0.024,0.087,0.051,0.15c0.174,0,1.611-0.038,2.012-0.038
		c0.799,0,1,0.038,1.713,0.038c0.024-0.05,0.049-0.088,0.049-0.138c0-0.087-0.024-0.138-0.049-0.188
		c-0.25-0.025-0.562-0.1-0.701-0.125c-0.312-0.149-0.537-0.45-0.537-0.887l-0.012-3.125c0.099-0.013,0.462-0.013,0.562-0.013
		c0.337,0,0.676,0.024,0.999,0.174c0.476,0.212,0.926,0.55,1.226,1.013c0.399,0.624,0.663,1.812,0.788,2.724
		c0.037,0.263,0.136,0.488,0.374,0.513c0.102,0.013,0.25,0.038,0.727,0.038h1.298C222.465,22.715,222.49,22.665,222.49,22.603
		 M212.003,20.702c0-0.174,0-0.249-0.013-0.361c-0.062-0.038-0.088-0.038-0.188-0.038c-0.087,0-0.074,0-0.162,0.026
		c-0.274,0.912-0.749,1.587-1.286,1.912c-0.189,0.112-0.527,0.139-1.063,0.139h-1.4c-0.438-0.014-0.712-0.038-0.825-0.064
		c-0.187-0.037-0.388-0.337-0.475-0.538c-0.088-0.211-0.138-0.287-0.138-0.861v-2.85h0.4c0.399,0,0.725,0.024,1.062,0.173
		c0.312,0.139,0.551,0.338,0.675,0.539c0.113,0.174,0.149,0.861,0.176,1.037c0.062,0.038,0.1,0.049,0.199,0.049
		s0.113-0.012,0.201-0.061c0-0.338-0.076-1.25-0.076-1.751c0-0.624,0.088-1.388,0.124-1.836c-0.048-0.025-0.074-0.049-0.199-0.049
		c-0.087,0-0.125,0-0.2,0.037c-0.036,0.174-0.138,0.7-0.162,0.736c-0.187,0.312-0.625,0.563-0.962,0.663
		c-0.225,0.063-0.55,0.1-1.025,0.1h-0.2v-1.223c0-1.202,0.025-1.688,0.037-1.914c0.014-0.15,0.037-0.313,0.05-0.425
		c0.113-0.012,0.476-0.024,1.052-0.024c0.725,0,1.262,0.012,1.374,0.012c0.351,0.025,0.612,0.1,0.799,0.249
		c0.614,0.475,0.776,0.788,1.114,1.551c0.074,0.024,0.088,0.024,0.148,0.024c0.075,0,0.089-0.024,0.188-0.075
		c0-0.763-0.05-1.625-0.075-1.938c-0.012-0.124-0.038-0.162-0.287-0.162c-0.101,0-0.576-0.024-1.073-0.024
		c-0.714,0-1.002,0.011-2.089,0.011c-0.588,0-1.626,0.013-2.138,0.013c-0.751,0-0.912-0.024-1.237-0.024h-0.425
		c-0.039,0.049-0.063,0.099-0.063,0.149c0,0.063,0.024,0.125,0.063,0.176c0.149,0.05,0.736,0.038,0.911,0.136
		c0.176,0.151,0.338,0.188,0.451,0.788c0.024,0.263,0.037,1.112,0.037,1.688v2.575c0,0.524-0.013,1.387-0.025,1.7
		c-0.024,0.488-0.2,1.101-0.273,1.213c-0.114,0.087-0.626,0.163-1.128,0.187c-0.036,0.075-0.061,0.125-0.061,0.2
		s0.024,0.112,0.061,0.175h0.414c0.4,0,1.4-0.038,1.737-0.038c0.312,0,0.738,0.025,1.462,0.025c0.4,0,1.575,0.075,4.102,0.075
		c0.1,0,0.211,0.013,0.337-0.024c0.036-0.063,0.036-0.088,0.05-0.2C212.003,22.328,212.003,21.715,212.003,20.702 M202.752,13.878
		c0-0.049-0.013-0.125-0.062-0.138h-0.425c-0.3,0-0.775,0.024-0.988,0.024c-1.012,0-1.373-0.063-1.523-0.063h-0.227
		c-0.023,0.063-0.061,0.101-0.061,0.163c0,0.051,0.024,0.088,0.024,0.139c0.312,0.038,0.587,0.099,0.862,0.188
		c0.15,0.148,0.313,0.449,0.313,0.788c0,0.124-0.126,0.713-0.301,1.137l-2.013,4.95l-2.475-6.262c0.037-0.3,0.198-0.588,0.411-0.7
		c0.214-0.024,0.475-0.099,0.812-0.099c0.026-0.05,0.052-0.125,0.052-0.174c0-0.051-0.014-0.127-0.063-0.139h-0.312
		c-0.388,0-0.975,0.05-1.638,0.05c-0.287,0-0.85-0.025-1.399-0.025h-0.488c-0.024,0.05-0.051,0.075-0.051,0.149
		s0.014,0.101,0.038,0.15c0.352,0.087,0.688,0.225,1.051,0.426c0.237,0.351,0.75,1.612,1.026,2.275l1.036,2.5
		c0.862,2.075,1.375,3.462,1.438,3.699c0.062,0.038,0,0.076,0.111,0.076c0.113,0,0.102-0.025,0.126-0.087l3.226-7.75
		c0.112-0.275,0.287-0.538,0.45-0.712c0.199-0.226,0.613-0.312,0.998-0.399C202.716,13.991,202.752,13.939,202.752,13.878
		 M191.802,22.59c0-0.063-0.011-0.124-0.036-0.174c-0.188-0.014-0.7-0.063-0.925-0.112c-0.2-0.237-0.339-0.513-0.427-0.964
		c-0.012-0.599-0.024-1.962-0.024-3.125V15.04c0-0.336,0.139-0.599,0.226-0.673c0.237-0.226,0.712-0.275,1.111-0.325
		c0.025-0.051,0.039-0.114,0.039-0.163c0-0.075-0.039-0.125-0.062-0.15h-0.364c-0.524,0-1.274,0.062-1.699,0.062
		c-0.262,0-1.012-0.036-1.562-0.049h-0.275c-0.038,0.049-0.063,0.049-0.063,0.162c0,0.05,0.014,0.101,0.025,0.163
		c0.612,0.05,0.888,0.112,0.977,0.174c0.149,0.114,0.362,0.388,0.41,1.063c0.013,0.238,0.026,0.875,0.038,2.024
		c0.013,0.625,0.026,1.475,0.026,2.201c0,0.362-0.026,1.299-0.038,1.736c-0.026,0.301-0.087,0.588-0.177,0.75
		c-0.147,0.126-0.298,0.351-1.211,0.413c-0.025,0.05-0.037,0.138-0.037,0.189c0,0.099,0.024,0.099,0.024,0.162h0.214
		c0.498,0,1.275-0.063,1.923-0.063c0.188,0,1.014,0.038,1.425,0.038h0.413C191.791,22.69,191.802,22.641,191.802,22.59
		 M186.151,13.853c0-0.05-0.012-0.088-0.037-0.125h-0.287c-0.625,0-0.9,0.025-2.025,0.025c-0.388,0-0.961-0.025-1.1-0.025h-0.324
		c-0.037,0.025-0.05,0.112-0.05,0.163c0,0.062,0.013,0.087,0.062,0.137c0.199,0.063,0.964,0.15,1.288,0.363
		c0.226,0.261,0.326,0.788,0.361,1.274c0.013,0.188,0.026,0.375,0.026,0.888v3.712c0,0.3-0.014,0.4-0.026,0.538
		c-0.211-0.238-0.574-0.7-1.062-1.275l-4.775-5.576c-0.036-0.05-0.111-0.112-0.187-0.163c-0.102,0-0.226-0.012-0.324-0.012
		c-0.802,0-1.501-0.037-1.714-0.037c-0.024,0.049-0.038,0.075-0.038,0.124c0,0.026,0.014,0.126,0.026,0.163
		c0.188,0.051,0.737,0.112,0.961,0.35c0.2,0.225,0.501,0.489,0.613,0.738c0.038,0.088,0.05,0.226,0.05,0.4
		c0,0.651-0.037,1.838-0.037,2.713v2.662c0,0.413-0.038,0.738-0.075,0.951c-0.262,0.274-0.663,0.474-1.312,0.637
		c-0.025,0.063-0.05,0.087-0.05,0.15c0,0.037,0.012,0.112,0.038,0.125h0.236c0.25,0,0.826-0.038,1.2-0.038
		c0.55,0,0.799,0.038,1.312,0.038h0.75c0.05-0.012,0.062-0.112,0.062-0.163c0-0.049-0.013-0.076-0.037-0.124
		c-0.438-0.113-1.074-0.213-1.5-0.775c-0.087-0.188-0.162-1.139-0.162-1.576c0-0.399-0.014-1.05-0.014-1.787
		c0-0.988,0.014-2.35,0.024-2.787c0.077,0.087,0.189,0.226,0.275,0.325l5.926,6.937c0.062,0.063,0.087,0.076,0.151,0.076
		c0.061,0,0.023,0,0.073-0.024c0.025-0.063,0.062-0.264,0.062-0.564c0-0.362-0.011-0.736-0.011-0.924v-5.313
		c0-1.563,0.737-2,1.599-2.038C186.14,13.953,186.151,13.916,186.151,13.853 M174.578,13.916c0-0.051-0.025-0.125-0.063-0.162
		h-0.362c-0.388,0-0.912,0.024-1.362,0.024c-0.5,0-1.062-0.024-1.426-0.024h-0.45c-0.037,0.075-0.05,0.099-0.05,0.162
		c0,0.05,0.013,0.1,0.038,0.163c0.052,0,0.964,0.012,1.125,0.237c0.138,0.188,0.438,0.649,0.488,0.925
		c0.024,0.125,0.1,0.638,0.1,1.375c0,1.063,0,1.776-0.013,2.15c-0.024,0.701-0.101,1.25-0.225,1.663
		c-0.351,1.088-1.163,1.624-2.45,1.624c-0.55,0-1.025-0.111-1.463-0.313c-0.812-0.399-1.2-1.161-1.212-1.574l-0.062-3.75
		l-0.013-1.526c0-0.288,0.362-0.551,0.486-0.699c0.101-0.051,0.65-0.1,0.962-0.125c0.04-0.075,0.063-0.113,0.063-0.175
		s-0.037-0.126-0.087-0.163l-0.474,0.012c-0.465,0.013-1.076,0.024-1.464,0.024c-0.599,0-1.062-0.011-1.438-0.011h-0.525
		c-0.049,0.036-0.062,0.111-0.062,0.174s0.013,0.114,0.049,0.151c0.399,0.05,0.662,0.087,0.838,0.125
		c0.212,0.124,0.363,0.338,0.438,0.551c0.012,0.162,0.036,0.562,0.036,1.349v3c0,0.774,0.037,1.325,0.125,1.675
		c0.163,0.651,0.513,1.163,1.088,1.537c0.612,0.4,1.375,0.6,2.288,0.6c0.837,0,1.549-0.174,2.149-0.513
		c0.625-0.336,1.014-0.886,1.238-1.661c0.124-0.463,0.199-0.962,0.199-1.488v-2.4c0-0.45,0.024-1.013,0.024-1.237
		c0.014-0.675,0.188-1.075,0.375-1.376c0.2-0.062,0.377-0.1,1.038-0.174C174.553,14.015,174.578,13.979,174.578,13.916"/>
</g>
</svg>
