<?xml version="1.0" encoding="utf-8"?>
<!-- Generator: Adobe Illustrator 15.1.0, SVG Export Plug-In . SVG Version: 6.00 Build 0)  -->
<!DOCTYPE svg PUBLIC "-//W3C//DTD SVG 1.1//EN" "http://www.w3.org/Graphics/SVG/1.1/DTD/svg11.dtd">
<svg version="1.1" id="Layer_1" xmlns="http://www.w3.org/2000/svg" xmlns:xlink="http://www.w3.org/1999/xlink" x="0px" y="0px"
	 width="254.838px" height="245.968px" viewBox="0 0 254.838 245.968" enable-background="new 0 0 254.838 245.968"
	 xml:space="preserve">
<g>
	<path fill="#FFFFFF" d="M85.674,74.735c2.066-5.865,5.031-10.965,8.9-15.3c3.866-4.331,8.6-7.7,14.2-10.1
		c5.6-2.4,11.865-3.6,18.8-3.6c6.266,0,11.966,0.9,17.101,2.7c5.131,1.8,9.565,4.4,13.3,7.8c3.731,3.4,6.631,7.569,8.7,12.5
		c2.065,4.935,3.1,10.6,3.1,17c0,4.135-0.5,7.834-1.5,11.1c-1,3.269-2.3,6.234-3.9,8.9c-1.6,2.669-3.434,5.135-5.5,7.4
		c-2.068,2.269-4.168,4.469-6.3,6.6c-2.134,2-4.234,4.035-6.3,6.1c-2.068,2.069-3.935,4.269-5.6,6.6c-1.669,2.334-3,4.869-4,7.6
		c-1,2.734-1.5,5.834-1.5,9.3v7.8h-17v-9.4c0.266-5.6,1.3-10.365,3.1-14.3c1.8-3.931,4-7.431,6.6-10.5
		c2.601-3.065,5.332-5.9,8.2-8.5c2.866-2.6,5.531-5.331,8-8.2c2.466-2.865,4.432-6.031,5.9-9.5c1.466-3.465,2.065-7.666,1.8-12.6
		c-0.534-7.332-2.9-13.066-7.1-17.2c-4.2-4.131-9.9-6.2-17.101-6.2c-4.8,0-8.935,0.869-12.399,2.6c-3.469,1.734-6.369,4.069-8.7,7
		c-2.334,2.935-4.035,6.4-5.1,10.4c-1.069,4-1.6,8.334-1.6,13h-17C82.64,86.936,83.605,80.604,85.674,74.735z M137.574,169.735v22.2
		h-22.2v-22.2H137.574z"/>
</g>
</svg>
