<?xml version="1.0" encoding="utf-8"?>
<!-- Generator: Adobe Illustrator 15.1.0, SVG Export Plug-In . SVG Version: 6.00 Build 0)  -->
<!DOCTYPE svg PUBLIC "-//W3C//DTD SVG 1.1//EN" "http://www.w3.org/Graphics/SVG/1.1/DTD/svg11.dtd">
<svg version="1.1" xmlns="http://www.w3.org/2000/svg" xmlns:xlink="http://www.w3.org/1999/xlink" x="0px" y="0px"
	 width="293.141px" height="114.844px" viewBox="0 0 293.141 114.844" enable-background="new 0 0 293.141 114.844"
	 xml:space="preserve">
<g id="long_name">
	<g>
		<path fill="#6D6E71" d="M78.051,81.949c-0.689,1.781-2.327,2.501-4.021,2.501c-1.136,0-2.438-0.32-3.388-1.021l-0.074-0.22
			l0.074-1.22l0.187-0.04c0.8,0.92,1.973,1.42,3.146,1.42c1.638,0,3.165-1,3.165-2.92c0-3.741-6.646-2.541-6.646-7.062
			c0-2.561,2.011-3.661,4.151-3.661c1.117,0,2.16,0.2,3.146,0.78l0.112,0.18l-0.112,0.98l-0.167,0.1
			c-0.912-0.66-1.898-0.98-2.997-0.98c-1.489,0-2.941,0.74-2.941,2.541c0,3.5,6.665,2.161,6.665,7.142
			C78.349,80.969,78.237,81.489,78.051,81.949z"/>
		<path fill="#6D6E71" d="M88.085,83.41l-0.167,0.24c-0.782,0.52-1.712,0.74-2.625,0.74c-0.558,0-1.098-0.12-1.62-0.32
			c-1.955-0.78-2.773-2.701-2.773-4.841c0-3.121,1.563-5.562,4.654-5.562c0.838,0,1.657,0.2,2.383,0.68l0.093,0.16
			c-0.056,0.38-0.112,0.76-0.13,1.14l-0.167,0.08c-0.652-0.66-1.34-0.96-2.234-0.96c-2.29,0-3.407,2.04-3.407,4.301
			c0,2.24,1.08,4.221,3.351,4.221c0.968,0,1.88-0.42,2.551-1.16l0.186,0.08C88.123,82.609,88.123,83.01,88.085,83.41z"/>
		<path fill="#6D6E71" d="M97.99,84.15c-0.373,0.02-0.745,0.04-1.117,0.04l-0.093-0.12c0-1.1,0.037-2.2,0.037-3.301
			c0-0.9-0.019-1.8-0.037-2.7c-0.019-0.66,0.019-1.601-0.242-2.201c-0.354-0.78-1.061-1.12-1.843-1.12
			c-1.042,0-2.215,0.6-2.979,1.34c0,0.08,0,0.16,0,0.24c0,2.561,0.074,5.141,0.149,7.702l-0.112,0.12c-0.354,0-0.726,0-1.08,0.02
			l-0.112-0.12c0-2.92,0.019-5.861,0.019-8.782c0-2.161,0.019-4.521-0.205-6.662l0.13-0.14c0.391-0.04,0.764-0.12,1.154-0.2
			l0.112,0.12c-0.037,1.02-0.056,2.06-0.056,3.081v3.48c0.986-0.74,2.141-1.28,3.369-1.28c1.099,0,2.123,0.521,2.588,1.641
			c0.298,0.74,0.26,1.78,0.279,2.581l0.038,2.041c0.019,1.36,0.056,2.74,0.112,4.101L97.99,84.15z"/>
		<path fill="#6D6E71" d="M105.289,84.39c-3.035,0-4.282-2.421-4.282-5.401c0-3.061,1.377-5.321,4.431-5.321
			c2.979,0,4.17,2.461,4.17,5.341C109.607,81.989,108.323,84.39,105.289,84.39z M105.363,74.708c-2.383,0-3.109,2.021-3.109,4.241
			c0,2.261,0.67,4.381,3.127,4.381c2.271,0,2.979-2.061,2.979-4.161C108.36,77.048,107.727,74.708,105.363,74.708z"/>
		<path fill="#6D6E71" d="M116.311,84.39c-3.035,0-4.282-2.421-4.282-5.401c0-3.061,1.377-5.321,4.431-5.321
			c2.979,0,4.17,2.461,4.17,5.341C120.629,81.989,119.345,84.39,116.311,84.39z M116.385,74.708c-2.383,0-3.109,2.021-3.109,4.241
			c0,2.261,0.67,4.381,3.127,4.381c2.271,0,2.979-2.061,2.979-4.161C119.382,77.048,118.749,74.708,116.385,74.708z"/>
		<path fill="#6D6E71" d="M124.837,84.15c-0.354,0-0.726,0-1.08,0.02l-0.112-0.12c0-2.101,0.019-4.221,0.019-6.321v-3.061
			c0-2.021-0.056-4.061-0.205-6.082l0.13-0.12c0.391-0.04,0.782-0.1,1.154-0.2l0.112,0.12c-0.074,2.22-0.037,4.461-0.037,6.681
			c0,1.82,0,3.661,0.037,5.501c0.019,1.16,0.019,2.3,0.093,3.46L124.837,84.15z"/>
		<path fill="#6D6E71" d="M138.502,84.39c-3.035,0-4.282-2.421-4.282-5.401c0-3.061,1.377-5.321,4.431-5.321
			c2.979,0,4.17,2.461,4.17,5.341C142.821,81.989,141.537,84.39,138.502,84.39z M138.577,74.708c-2.383,0-3.109,2.021-3.109,4.241
			c0,2.261,0.67,4.381,3.127,4.381c2.271,0,2.979-2.061,2.979-4.161C141.574,77.048,140.941,74.708,138.577,74.708z"/>
		<path fill="#6D6E71" d="M149.729,69.667l-0.149,0.14c-0.223-0.08-0.447-0.12-0.67-0.12c-1.396,0-1.527,0.96-1.527,2.2
			c0,0.68,0.019,1.36,0.019,2.041c0.67-0.02,1.341-0.04,2.011-0.04l0.13,0.16c-0.037,0.26-0.056,0.5-0.056,0.76l-0.13,0.16
			c-0.466-0.02-0.912-0.04-1.378-0.04h-0.577v2.161c0,1.541,0.019,3.081,0.056,4.621c0.019,0.78,0.056,1.54,0.056,2.32l-0.093,0.12
			c-0.354,0-0.708,0.02-1.061,0.04l-0.13-0.12c0.019-0.64,0.019-1.26,0.019-1.9c0-2.42-0.019-4.821-0.019-7.242
			c-0.54,0-1.061,0-1.601,0.02l-0.13-0.12c0.019-0.28,0.037-0.561,0.037-0.84l0.13-0.14c0.521,0.06,1.024,0.06,1.545,0.06
			c-0.019-0.72-0.037-1.46-0.037-2.181c0-2.06,0.838-3.061,2.792-3.061c0.242,0,0.465,0.04,0.708,0.08l0.093,0.16
			C149.729,69.167,149.729,69.407,149.729,69.667z"/>
		<path fill="#6D6E71" d="M167.731,83.19l-0.093,0.2c-1.117,0.74-2.327,1.061-3.63,1.061c-4.021,0-6.367-3.081-6.367-7.262
			c0-4.121,2.439-7.461,6.441-7.461c1.21,0,2.42,0.24,3.481,0.88l0.093,0.16c-0.093,0.34-0.13,0.7-0.149,1.06l-0.13,0.1
			c-1.024-0.76-2.066-1.1-3.295-1.1c-2.327,0-3.872,1.3-4.71,3.581c-0.316,0.86-0.465,1.76-0.465,2.681
			c0,3.361,1.917,6.221,5.231,6.221c1.34,0,2.513-0.46,3.537-1.4l0.149,0.1C167.769,82.41,167.731,82.79,167.731,83.19z"/>
		<path fill="#6D6E71" d="M174.043,84.39c-3.035,0-4.282-2.421-4.282-5.401c0-3.061,1.377-5.321,4.431-5.321
			c2.979,0,4.17,2.461,4.17,5.341C178.362,81.989,177.078,84.39,174.043,84.39z M174.118,74.708c-2.383,0-3.109,2.021-3.109,4.241
			c0,2.261,0.67,4.381,3.127,4.381c2.271,0,2.979-2.061,2.979-4.161C177.115,77.048,176.482,74.708,174.118,74.708z"/>
		<path fill="#6D6E71" d="M194.596,84.15c-0.354,0-0.725,0-1.078,0.04l-0.113-0.12c0.037-1.14,0.057-2.26,0.057-3.401v-1.38
			c0-0.46,0-0.9-0.02-1.34c-0.018-0.46,0.02-0.94-0.074-1.4c-0.223-1.18-0.875-1.76-1.99-1.76c-1.118,0-2.104,0.6-2.942,1.34
			c0.093,0.8,0.093,1.62,0.13,2.44c0.075,1.82,0.056,3.641,0.112,5.461l-0.093,0.12c-0.354,0.02-0.726,0-1.08,0.04l-0.093-0.14
			c0.019-0.78,0.038-1.58,0.038-2.36c0-1.08-0.019-2.141-0.038-3.221c-0.037-1.621-0.019-3.661-2.047-3.661
			c-1.042,0-2.066,0.62-2.848,1.32c0,1.66,0.019,3.34,0.056,5.001c0.019,0.96,0.019,1.94,0.112,2.9l-0.112,0.12
			c-0.354,0-0.726,0.02-1.08,0.04l-0.112-0.12c0.037-0.82,0.037-1.64,0.037-2.46c0-1.5-0.037-2.98-0.074-4.481
			c-0.037-1-0.037-2.021-0.149-3.021l0.112-0.12c0.372-0.06,0.763-0.1,1.135-0.2l0.093,0.12c-0.019,0.38-0.019,0.78-0.037,1.16
			c1.023-0.78,1.973-1.42,3.276-1.42c1.08,0,1.88,0.541,2.383,1.561c1.061-0.92,2.178-1.541,3.575-1.541
			c0.707,0,1.414,0.2,1.953,0.72c0.949,0.94,0.912,2.381,0.912,3.641v1.66c0,1.44,0.057,2.9,0.113,4.341L194.596,84.15z"/>
		<path fill="#6D6E71" d="M211.428,84.15c-0.354,0-0.727,0-1.08,0.04l-0.111-0.12c0.037-1.14,0.055-2.26,0.055-3.401v-1.38
			c0-0.46,0-0.9-0.018-1.34c-0.02-0.46,0.018-0.94-0.074-1.4c-0.225-1.18-0.875-1.76-1.992-1.76s-2.104,0.6-2.941,1.34
			c0.092,0.8,0.092,1.62,0.131,2.44c0.074,1.82,0.055,3.641,0.111,5.461l-0.094,0.12c-0.354,0.02-0.727,0-1.08,0.04l-0.092-0.14
			c0.018-0.78,0.037-1.58,0.037-2.36c0-1.08-0.02-2.141-0.037-3.221c-0.037-1.621-0.02-3.661-2.049-3.661
			c-1.043,0-2.066,0.62-2.848,1.32c0,1.66,0.018,3.34,0.055,5.001c0.02,0.96,0.02,1.94,0.113,2.9l-0.113,0.12
			c-0.354,0-0.725,0.02-1.078,0.04l-0.113-0.12c0.039-0.82,0.039-1.64,0.039-2.46c0-1.5-0.039-2.98-0.076-4.481
			c-0.037-1-0.037-2.021-0.148-3.021l0.111-0.12c0.373-0.06,0.764-0.1,1.137-0.2l0.092,0.12c-0.018,0.38-0.018,0.78-0.037,1.16
			c1.025-0.78,1.975-1.42,3.277-1.42c1.08,0,1.881,0.541,2.383,1.561c1.061-0.92,2.178-1.541,3.574-1.541
			c0.707,0,1.414,0.2,1.955,0.72c0.949,0.94,0.912,2.381,0.912,3.641v1.66c0,1.44,0.055,2.9,0.111,4.341L211.428,84.15z"/>
		<path fill="#6D6E71" d="M222.43,84.15l-1.023,0.06l-0.113-0.12c0.02-0.32,0.02-0.62,0.039-0.94c-0.932,0.84-1.955,1.24-3.166,1.24
			c-0.707,0-1.451-0.18-2.029-0.64c-1.377-1.081-1.154-3.141-1.154-4.741v-1.26c0-1.24-0.018-2.48-0.055-3.721l0.111-0.12
			c0.373,0,0.744-0.02,1.117-0.06l0.094,0.12c-0.039,1.28-0.057,2.541-0.057,3.821v2.42c0,1.681,0.428,3.121,2.252,3.121
			c1.08,0,2.066-0.5,2.83-1.3v-1.34v-1.68c0-1.66-0.037-3.321-0.148-4.961l0.111-0.14c0.373,0,0.727,0,1.098-0.06l0.094,0.14
			c0,1.32-0.02,2.621-0.02,3.941c0,2.041,0.02,4.081,0.15,6.101L222.43,84.15z"/>
		<path fill="#6D6E71" d="M233.469,84.15c-0.371,0.02-0.744,0.04-1.115,0.04l-0.094-0.12c0-0.86,0.018-1.72,0.018-2.581
			c0-1.26-0.037-2.541-0.037-3.801c0-1.541-0.279-2.9-2.01-2.9c-1.135,0-2.178,0.56-3.035,1.32v0.44c0,2.5,0.02,5.001,0.168,7.481
			l-0.131,0.12c-0.354,0-0.725,0.02-1.078,0.06l-0.094-0.14c0.037-0.78,0.02-1.58,0.02-2.38v-1.581c0-1.98-0.039-4-0.205-5.981
			l0.111-0.14c0.371-0.04,0.744-0.12,1.117-0.2l0.111,0.12c-0.037,0.36-0.057,0.7-0.074,1.06c1.08-0.78,2.104-1.3,3.426-1.3
			c1.115,0,2.121,0.5,2.586,1.641c0.316,0.78,0.262,1.74,0.279,2.581l0.037,2.041c0.02,1.36,0.057,2.74,0.113,4.101L233.469,84.15z"
			/>
		<path fill="#6D6E71" d="M238.33,70.367l-0.131,0.16c-0.391,0.04-0.799,0.06-1.191,0.12l-0.148-0.16
			c0.037-0.42,0.02-0.82,0.02-1.24l0.148-0.16c0.391-0.04,0.801-0.06,1.191-0.12l0.131,0.16
			C238.35,69.547,238.33,69.947,238.33,70.367z M238.293,84.15c-0.373,0-0.744,0-1.117,0.02l-0.094-0.12c0-0.8,0.02-1.6,0.02-2.4
			c0-2.5,0-5.021-0.168-7.521l0.111-0.12c0.373-0.04,0.746-0.1,1.117-0.2l0.111,0.12c-0.055,0.76-0.055,1.541-0.055,2.3
			c0,2.601,0.094,5.201,0.186,7.802L238.293,84.15z"/>
		<path fill="#6D6E71" d="M248.457,83.41l-0.168,0.24c-0.781,0.52-1.713,0.74-2.625,0.74c-0.559,0-1.098-0.12-1.619-0.32
			c-1.955-0.78-2.773-2.701-2.773-4.841c0-3.121,1.564-5.562,4.654-5.562c0.838,0,1.656,0.2,2.383,0.68l0.092,0.16
			c-0.055,0.38-0.111,0.76-0.129,1.14l-0.168,0.08c-0.652-0.66-1.34-0.96-2.234-0.96c-2.289,0-3.406,2.04-3.406,4.301
			c0,2.24,1.08,4.221,3.352,4.221c0.967,0,1.879-0.42,2.549-1.16l0.188,0.08C248.494,82.609,248.494,83.01,248.457,83.41z"/>
		<path fill="#6D6E71" d="M257.188,84.15c-0.334,0.02-0.67,0.02-1.004,0.06l-0.111-0.12l-0.02-0.72
			c-0.818,0.64-1.676,1.021-2.699,1.021c-1.787,0-3.109-1.3-3.109-3.261c0-3.401,3.482-3.541,5.809-3.901v-0.4
			c0-1.62-0.652-2.1-2.104-2.1c-0.969,0-1.676,0.28-2.531,0.76l-0.148-0.08c0.037-0.32,0.037-0.62,0.055-0.94l0.094-0.14
			c0.875-0.44,1.842-0.66,2.811-0.66c1.135,0,2.326,0.36,2.793,1.601c0.166,0.46,0.166,0.96,0.166,1.44c0,1.1-0.018,2.2-0.018,3.32
			v1.38c0,0.86,0.037,1.721,0.131,2.581L257.188,84.15z M256.053,78.229c-1.676,0.28-4.617,0.4-4.617,2.901
			c0,1.34,0.986,2.18,2.178,2.18c0.988,0,1.695-0.36,2.439-1.06V78.229z"/>
		<path fill="#6D6E71" d="M264.412,74.848l-0.111,0.1c-0.689-0.02-1.396-0.02-2.086-0.04v6.441c0,0.84,0.074,1.841,1.08,1.841
			c0.336,0,0.652-0.06,0.969-0.2l0.148,0.08c-0.057,0.3-0.037,0.62-0.074,0.92l-0.131,0.16c-0.316,0.08-0.65,0.14-0.986,0.14
			c-2.029,0-2.178-1.34-2.178-3.161c0-1.42,0.037-2.841,0.037-4.241v-1.98c-0.502,0.02-1.023,0.02-1.527,0.04l-0.092-0.14
			c0.018-0.28,0.037-0.541,0.037-0.82l0.111-0.12c0.484,0.02,0.986,0.04,1.471,0.04v-0.12c0-0.78-0.037-1.56-0.074-2.34l0.111-0.12
			c0.373-0.08,0.744-0.16,1.098-0.28l0.113,0.14c-0.076,0.9-0.094,1.82-0.094,2.721c0.707,0,1.434-0.02,2.141-0.04l0.094,0.12
			C264.432,74.268,264.412,74.568,264.412,74.848z"/>
		<path fill="#6D6E71" d="M268.025,70.367l-0.131,0.16c-0.391,0.04-0.801,0.06-1.191,0.12l-0.148-0.16
			c0.037-0.42,0.018-0.82,0.018-1.24l0.148-0.16c0.393-0.04,0.801-0.06,1.191-0.12l0.131,0.16
			C268.043,69.547,268.025,69.947,268.025,70.367z M267.988,84.15c-0.373,0-0.746,0-1.117,0.02l-0.094-0.12c0-0.8,0.02-1.6,0.02-2.4
			c0-2.5,0-5.021-0.168-7.521l0.111-0.12c0.373-0.04,0.744-0.1,1.117-0.2l0.111,0.12c-0.057,0.76-0.057,1.541-0.057,2.3
			c0,2.601,0.094,5.201,0.188,7.802L267.988,84.15z"/>
		<path fill="#6D6E71" d="M275.266,84.39c-3.033,0-4.281-2.421-4.281-5.401c0-3.061,1.377-5.321,4.43-5.321
			c2.979,0,4.17,2.461,4.17,5.341C279.584,81.989,278.301,84.39,275.266,84.39z M275.34,74.708c-2.383,0-3.107,2.021-3.107,4.241
			c0,2.261,0.67,4.381,3.127,4.381c2.271,0,2.979-2.061,2.979-4.161C278.338,77.048,277.705,74.708,275.34,74.708z"/>
		<path fill="#6D6E71" d="M290.01,84.15c-0.371,0.02-0.744,0.04-1.115,0.04l-0.094-0.12c0-0.86,0.018-1.72,0.018-2.581
			c0-1.26-0.037-2.541-0.037-3.801c0-1.541-0.279-2.9-2.01-2.9c-1.135,0-2.178,0.56-3.035,1.32v0.44c0,2.5,0.02,5.001,0.168,7.481
			l-0.131,0.12c-0.354,0-0.725,0.02-1.078,0.06l-0.094-0.14c0.037-0.78,0.02-1.58,0.02-2.38v-1.581c0-1.98-0.039-4-0.205-5.981
			l0.111-0.14c0.371-0.04,0.744-0.12,1.117-0.2l0.111,0.12c-0.037,0.36-0.057,0.7-0.074,1.06c1.08-0.78,2.104-1.3,3.426-1.3
			c1.115,0,2.121,0.5,2.586,1.641c0.316,0.78,0.262,1.74,0.279,2.581l0.037,2.041c0.02,1.36,0.057,2.74,0.113,4.101L290.01,84.15z"
			/>
		<path fill="#6D6E71" d="M77.12,105.65c-0.335,0.02-0.67,0.02-1.005,0.06l-0.112-0.119l-0.019-0.721
			c-0.819,0.641-1.675,1.021-2.699,1.021c-1.787,0-3.109-1.301-3.109-3.261c0-3.4,3.481-3.541,5.808-3.901v-0.399
			c0-1.621-0.651-2.101-2.104-2.101c-0.968,0-1.675,0.28-2.532,0.76l-0.149-0.08c0.037-0.319,0.037-0.62,0.056-0.939l0.093-0.141
			c0.875-0.439,1.843-0.66,2.811-0.66c1.136,0,2.327,0.36,2.792,1.601c0.167,0.46,0.167,0.96,0.167,1.44c0,1.1-0.019,2.2-0.019,3.32
			v1.381c0,0.859,0.037,1.72,0.13,2.58L77.12,105.65z M75.984,99.729c-1.675,0.279-4.617,0.399-4.617,2.9
			c0,1.34,0.987,2.181,2.178,2.181c0.987,0,1.694-0.36,2.438-1.061V99.729z"/>
		<path fill="#6D6E71" d="M88.141,105.65c-0.373,0.02-0.745,0.04-1.117,0.04l-0.093-0.12c0-0.86,0.019-1.721,0.019-2.58
			c0-1.261-0.037-2.541-0.037-3.801c0-1.541-0.279-2.901-2.011-2.901c-1.136,0-2.178,0.561-3.034,1.32v0.44
			c0,2.5,0.019,5.001,0.167,7.481l-0.13,0.12c-0.354,0-0.726,0.02-1.08,0.06l-0.093-0.14c0.037-0.78,0.019-1.58,0.019-2.381v-1.58
			c0-1.98-0.037-4.001-0.205-5.981l0.112-0.14c0.372-0.04,0.744-0.12,1.117-0.2l0.112,0.12c-0.037,0.36-0.056,0.7-0.075,1.061
			c1.08-0.78,2.104-1.301,3.425-1.301c1.117,0,2.122,0.5,2.588,1.641c0.316,0.78,0.26,1.74,0.279,2.58l0.037,2.041
			c0.019,1.36,0.056,2.74,0.111,4.101L88.141,105.65z"/>
		<path fill="#6D6E71" d="M99.219,105.65c-0.335,0-0.67,0.02-1.005,0.04l-0.093-0.12v-0.92c-0.875,0.78-1.676,1.14-2.811,1.14
			c-2.662,0-4.17-2.42-4.17-5.081c0-0.979,0.205-2.021,0.67-2.88c1.154-2.101,3.184-2.521,5.287-2.521
			c0.298,0,0.614,0.04,0.912,0.04c-0.075-1.761,0.019-3.501-0.167-5.242l0.112-0.12c0.391-0.06,0.763-0.14,1.154-0.22l0.112,0.12
			c0,1.58-0.037,3.161-0.037,4.761v2.98c0,2.641,0.037,5.281,0.149,7.922L99.219,105.65z M98.064,99.569
			c-0.019-1.061-0.037-2.121-0.037-3.181c-0.354-0.04-0.726-0.04-1.08-0.04c-2.736,0-4.598,1.1-4.598,4.301
			c0,2.141,1.042,4.041,3.221,4.041c0.949,0,1.898-0.46,2.532-1.221C98.064,102.169,98.083,100.869,98.064,99.569z"/>
		<path fill="#6D6E71" d="M110.595,105.65c-0.391,0-0.782,0-1.173,0.02l-0.112-0.119c0.037-1.061,0.037-2.101,0.037-3.161
			c0-2.421-0.037-4.821-0.074-7.241c-0.019-1.181-0.019-2.341-0.093-3.521l0.112-0.1c0.391,0,0.763,0,1.154-0.04l0.111,0.12
			c0,1.3-0.019,2.62-0.019,3.921c0,3.341,0.056,6.661,0.149,10.002L110.595,105.65z"/>
		<path fill="#6D6E71" d="M121.746,105.65c-0.373,0.02-0.745,0.04-1.117,0.04l-0.093-0.12c0-0.86,0.019-1.721,0.019-2.58
			c0-1.261-0.037-2.541-0.037-3.801c0-1.541-0.279-2.901-2.011-2.901c-1.136,0-2.178,0.561-3.034,1.32v0.44
			c0,2.5,0.019,5.001,0.167,7.481l-0.13,0.12c-0.354,0-0.726,0.02-1.08,0.06l-0.093-0.14c0.037-0.78,0.019-1.58,0.019-2.381v-1.58
			c0-1.98-0.037-4.001-0.205-5.981l0.112-0.14c0.372-0.04,0.744-0.12,1.117-0.2l0.112,0.12c-0.037,0.36-0.056,0.7-0.075,1.061
			c1.08-0.78,2.104-1.301,3.425-1.301c1.117,0,2.122,0.5,2.588,1.641c0.316,0.78,0.26,1.74,0.279,2.58l0.037,2.041
			c0.019,1.36,0.056,2.74,0.111,4.101L121.746,105.65z"/>
		<path fill="#6D6E71" d="M129.249,91.167l-0.149,0.14c-0.223-0.08-0.447-0.12-0.67-0.12c-1.396,0-1.527,0.96-1.527,2.2
			c0,0.681,0.019,1.36,0.019,2.04c0.67-0.02,1.34-0.039,2.01-0.039l0.13,0.159c-0.037,0.261-0.056,0.5-0.056,0.761l-0.13,0.16
			c-0.465-0.021-0.913-0.04-1.378-0.04h-0.577v2.16c0,1.54,0.019,3.081,0.056,4.621c0.019,0.78,0.056,1.54,0.056,2.32l-0.093,0.12
			c-0.354,0-0.708,0.02-1.062,0.04l-0.13-0.12c0.019-0.64,0.019-1.26,0.019-1.9c0-2.421-0.019-4.821-0.019-7.241
			c-0.54,0-1.062,0-1.601,0.02l-0.13-0.12c0.019-0.28,0.037-0.56,0.037-0.84l0.13-0.14c0.521,0.06,1.024,0.06,1.545,0.06
			c-0.019-0.72-0.038-1.46-0.038-2.181c0-2.06,0.838-3.061,2.792-3.061c0.242,0,0.465,0.04,0.708,0.08l0.093,0.16
			C129.249,90.667,129.249,90.907,129.249,91.167z"/>
		<path fill="#6D6E71" d="M135.021,105.89c-3.035,0-4.282-2.421-4.282-5.401c0-3.061,1.377-5.321,4.431-5.321
			c2.979,0,4.17,2.461,4.17,5.342C139.339,103.49,138.055,105.89,135.021,105.89z M135.095,96.208c-2.383,0-3.109,2.021-3.109,4.241
			c0,2.261,0.67,4.381,3.127,4.381c2.271,0,2.979-2.061,2.979-4.161C138.092,98.548,137.459,96.208,135.095,96.208z"/>
		<path fill="#6D6E71" d="M146.396,96.608l-0.149,0.12c-0.242-0.16-0.502-0.26-0.782-0.26c-1.806,0-1.88,2.561-1.88,3.961
			c0,1.7-0.019,3.4,0.093,5.101l-0.093,0.12c-0.372,0-0.745,0.02-1.117,0.02l-0.112-0.119v-0.501c0-0.76,0.037-1.54,0.037-2.3v-2.28
			c0-1.621-0.056-3.241-0.167-4.842l0.112-0.12c0.372-0.04,0.726-0.1,1.098-0.18l0.13,0.12c-0.037,0.521-0.037,1.061-0.037,1.58
			c0.354-1.02,1.024-1.82,2.104-1.82c0.279,0,0.559,0.061,0.8,0.2l0.112,0.14C146.471,95.888,146.433,96.248,146.396,96.608z"/>
		<path fill="#6D6E71" d="M161.94,105.65c-0.354,0-0.726,0-1.08,0.04l-0.112-0.12c0.037-1.141,0.056-2.261,0.056-3.4v-1.381
			c0-0.46,0-0.899-0.019-1.34c-0.019-0.46,0.019-0.94-0.075-1.4c-0.223-1.181-0.875-1.761-1.992-1.761
			c-1.117,0-2.104,0.601-2.941,1.341c0.093,0.8,0.093,1.62,0.13,2.44c0.075,1.82,0.056,3.641,0.112,5.461l-0.093,0.12
			c-0.354,0.02-0.726,0-1.08,0.04l-0.093-0.14c0.019-0.78,0.038-1.581,0.038-2.361c0-1.08-0.019-2.14-0.038-3.221
			c-0.037-1.62-0.019-3.66-2.047-3.66c-1.042,0-2.066,0.62-2.848,1.32c0,1.66,0.019,3.341,0.056,5.001
			c0.019,0.96,0.019,1.94,0.112,2.9l-0.112,0.12c-0.354,0-0.726,0.02-1.08,0.04l-0.112-0.12c0.037-0.82,0.037-1.641,0.037-2.461
			c0-1.5-0.037-2.98-0.074-4.48c-0.037-1-0.037-2.021-0.149-3.021l0.112-0.12c0.372-0.061,0.763-0.1,1.135-0.2l0.093,0.12
			c-0.019,0.38-0.019,0.78-0.037,1.16c1.023-0.78,1.973-1.42,3.276-1.42c1.08,0,1.88,0.54,2.383,1.56
			c1.061-0.92,2.178-1.54,3.574-1.54c0.707,0,1.415,0.2,1.955,0.721c0.949,0.939,0.912,2.38,0.912,3.641v1.66
			c0,1.44,0.056,2.9,0.112,4.341L161.94,105.65z"/>
		<path fill="#6D6E71" d="M171.79,105.65c-0.335,0.02-0.67,0.02-1.005,0.06l-0.112-0.119l-0.019-0.721
			c-0.819,0.641-1.675,1.021-2.699,1.021c-1.787,0-3.109-1.301-3.109-3.261c0-3.4,3.481-3.541,5.808-3.901v-0.399
			c0-1.621-0.651-2.101-2.104-2.101c-0.968,0-1.675,0.28-2.532,0.76l-0.149-0.08c0.037-0.319,0.037-0.62,0.056-0.939l0.093-0.141
			c0.875-0.439,1.843-0.66,2.811-0.66c1.136,0,2.327,0.36,2.792,1.601c0.167,0.46,0.167,0.96,0.167,1.44c0,1.1-0.019,2.2-0.019,3.32
			v1.381c0,0.859,0.037,1.72,0.13,2.58L171.79,105.65z M170.654,99.729c-1.675,0.279-4.617,0.399-4.617,2.9
			c0,1.34,0.987,2.181,2.178,2.181c0.987,0,1.694-0.36,2.438-1.061V99.729z"/>
		<path fill="#6D6E71" d="M179.013,96.348l-0.111,0.1c-0.689-0.02-1.396-0.02-2.085-0.04v6.441c0,0.841,0.074,1.841,1.08,1.841
			c0.335,0,0.651-0.061,0.968-0.2l0.149,0.08c-0.056,0.3-0.037,0.62-0.074,0.92l-0.13,0.16c-0.316,0.08-0.652,0.14-0.987,0.14
			c-2.029,0-2.178-1.34-2.178-3.16c0-1.421,0.037-2.841,0.037-4.241v-1.98c-0.503,0.021-1.024,0.021-1.526,0.04l-0.093-0.14
			c0.019-0.28,0.037-0.54,0.037-0.82l0.112-0.12c0.484,0.021,0.987,0.04,1.471,0.04v-0.12c0-0.78-0.037-1.561-0.075-2.341
			l0.112-0.119c0.373-0.08,0.745-0.16,1.099-0.28l0.111,0.14c-0.074,0.9-0.093,1.82-0.093,2.721c0.707,0,1.433-0.02,2.141-0.04
			l0.093,0.12C179.032,95.768,179.013,96.068,179.013,96.348z"/>
		<path fill="#6D6E71" d="M182.625,91.867l-0.13,0.16c-0.391,0.04-0.801,0.06-1.191,0.12l-0.149-0.16
			c0.038-0.42,0.019-0.82,0.019-1.24l0.149-0.16c0.391-0.04,0.8-0.06,1.191-0.12l0.13,0.16
			C182.644,91.047,182.625,91.447,182.625,91.867z M182.588,105.65c-0.372,0-0.745,0-1.117,0.02l-0.093-0.119
			c0-0.801,0.019-1.601,0.019-2.401c0-2.5,0-5.021-0.167-7.521l0.112-0.12c0.372-0.04,0.745-0.1,1.117-0.199l0.112,0.119
			c-0.056,0.761-0.056,1.541-0.056,2.301c0,2.601,0.093,5.201,0.186,7.802L182.588,105.65z"/>
		<path fill="#6D6E71" d="M189.868,105.89c-3.035,0-4.282-2.421-4.282-5.401c0-3.061,1.377-5.321,4.43-5.321
			c2.978,0,4.169,2.461,4.169,5.342C194.186,103.49,192.902,105.89,189.868,105.89z M189.942,96.208
			c-2.383,0-3.109,2.021-3.109,4.241c0,2.261,0.67,4.381,3.127,4.381c2.272,0,2.979-2.061,2.979-4.161
			C192.939,98.548,192.307,96.208,189.942,96.208z"/>
		<path fill="#6D6E71" d="M204.611,105.65c-0.371,0.02-0.744,0.04-1.115,0.04l-0.094-0.12c0-0.86,0.018-1.721,0.018-2.58
			c0-1.261-0.037-2.541-0.037-3.801c0-1.541-0.279-2.901-2.01-2.901c-1.135,0-2.178,0.561-3.035,1.32v0.44
			c0,2.5,0.02,5.001,0.168,7.481l-0.131,0.12c-0.354,0-0.725,0.02-1.078,0.06l-0.094-0.14c0.037-0.78,0.02-1.58,0.02-2.381v-1.58
			c0-1.98-0.039-4.001-0.205-5.981l0.111-0.14c0.371-0.04,0.744-0.12,1.117-0.2l0.111,0.12c-0.037,0.36-0.057,0.7-0.074,1.061
			c1.08-0.78,2.104-1.301,3.426-1.301c1.115,0,2.121,0.5,2.586,1.641c0.316,0.78,0.262,1.74,0.279,2.58l0.037,2.041
			c0.02,1.36,0.057,2.74,0.113,4.101L204.611,105.65z"/>
	</g>
</g>
<g id="Rutgers">
	<g>
		<path fill-rule="evenodd" clip-rule="evenodd" fill="#E31837" d="M71.358,50.588l1.558-0.468V23.92c0-6.341,0-6.602,2.025-6.81
			l1.871-0.155v-1.117H64.19v1.117l1.868,0.155c2.028,0.208,2.028,0.469,2.028,6.81v21.106c-0.779,0.937-4,4.158-9.403,4.158
			c-8.05,0-9.297-4.938-9.297-12.372V23.92c0-6.343,0-6.603,2.026-6.81l1.87-0.155v-1.117H40.658v1.117l1.871,0.155
			c2.025,0.208,2.025,0.467,2.025,6.81v13.725c0,7.068,0.883,13.254,11.636,13.254c6.91,0,11.221-3.273,11.947-3.273
			c0.779-0.001,1.195,0.727,1.921,1.454L71.358,50.588z"/>
		<path fill-rule="evenodd" clip-rule="evenodd" fill="#E31837" d="M85.273,50.121h14.389v-1.12l-1.871-0.154
			c-2.908-0.208-2.908-0.467-2.908-6.81V17.292h2.7c7.325,0,7.428,0.78,8.571,6.81h1.246c0-0.208-0.258-7.121-0.466-8.264H78
			c-0.208,1.143-0.467,8.055-0.467,8.264h1.246c1.142-6.03,1.246-6.81,8.571-6.81h2.703v24.746c0,6.343,0,6.601-2.857,6.81
			l-1.922,0.154V50.121z"/>
		<path fill-rule="evenodd" clip-rule="evenodd" fill="#E31837" d="M139.378,43.283c0-5.057,0-5.316,0.987-5.525l1.871-0.156v-1.117
			h-13.195v1.117l1.871,0.156c3.633,0.209,3.633,0.469,3.633,6.829v3.922c-1.817,0.467-4.205,0.675-6.075,0.675
			c-10.181,0-14.7-8.229-14.7-17.088c0-9.713,5.35-15.324,13.867-15.324c8.883,0,9.558,6.337,10.079,8.416l1.403-0.312
			c-0.229-2.562-0.503-5.473-0.832-7.688c-1.35-0.83-5.297-2.13-10.596-2.13c-8.208,0-19.375,4.156-19.375,18.025
			c0,13.238,9.35,17.817,19.791,17.817c5.557,0,9.533-1.494,11.371-2.071C139.479,48.829,139.378,44.847,139.378,43.283z"/>
		<path fill-rule="evenodd" clip-rule="evenodd" fill="#E31837" d="M145.429,50.121h23.792c0.679-2.812,1.258-5.403,1.713-8.624
			l-1.296-0.208c-1.042,4.261-1.559,7.377-9.833,7.377c-1.864,0-3.781-0.312-5.646-0.675V33.03h4.612
			c4.042,0,4.976,0.052,5.285,2.182l0.263,1.764h1.37v-9.347h-1.37l-0.263,1.766c-0.309,2.129-1.243,2.181-5.285,2.181h-4.612
			V17.292h4.301c7.333,0,7.437,0.779,8.582,6.338l1.247-0.209c0-0.466-0.262-6.44-0.47-7.583h-22.388v1.117l1.871,0.155
			c2.025,0.208,2.025,0.469,2.025,6.816v18.1c0,6.353,0,6.612-2.025,6.821l-1.871,0.154V50.121z"/>
		<path fill-rule="evenodd" clip-rule="evenodd" fill="#E31837" d="M175.004,50.121h12.571v-1.12l-1.871-0.154
			c-1.971-0.208-1.971-0.468-1.971-6.816v-6.871h1.921c1.091,0,2.387,0,3.221,0.678c0.675,0.572,1.867,2.551,3.216,5.101
			l2.078,4.007c1.559,2.86,3.946,5.176,7.375,5.176h4v-1.12c-1.145,0-2.078-0.205-2.599-0.517c-1.297-0.729-3.584-3.8-5.763-7.704
			c-1.404-2.498-3.121-5.83-3.9-7.284c2.858-1.351,7.17-4.213,7.17-9.051c0-7.897-6.961-8.608-11.89-8.608h-13.558v1.117
			l1.871,0.155c2.025,0.208,2.025,0.469,2.025,6.815V42.03c0,6.349,0,6.608-2.025,6.816l-1.871,0.154V50.121z M183.732,17.966
			c1.038-0.208,2.13-0.415,3.22-0.415c4.051,0,8.047,1.87,8.047,7.948c0,5.869-3.945,8.206-8.308,8.206h-2.959V17.966z"/>
		<path fill-rule="evenodd" clip-rule="evenodd" fill="#E31837" d="M216.862,28.822c-2.806-1.66-5.038-3.323-5.038-6.388
			c0-3.48,2.646-5.662,5.662-5.662c5.867,0,6.699,4.52,7.217,7.116h1.301c-0.122-1.512-0.251-5.321-0.521-7.169
			c-1.35-0.829-3.945-1.662-7.166-1.662c-5.506,0-10.805,2.65-10.805,8.988c0,3.894,2.753,7.114,5.713,8.726l3.325,1.817
			c4.053,1.817,7.221,4.416,7.221,8.208c0,4.051-2.65,6.388-6.233,6.388c-7.117,0-9.038-6.18-9.609-9.921l-1.662,0.416
			c0.588,3.562,1.167,7.18,1.662,9.143c1.609,0.987,4.101,2.078,8.155,2.078c5.504,0,11.995-2.703,11.995-9.713
			c0-6.236-4.255-8.416-8.362-10.753L216.862,28.822z"/>
		<path fill-rule="evenodd" clip-rule="evenodd" fill="#E31837" d="M28.716,30.329c0.591,3.292,5.178,11.747,6.938,14.889
			c3.979,7.337,14.171,22.178,21.799,21.7l0.88,0.004l-0.009,1.205l-1.337,0.046c-10.78,0.42-20.412-11.588-26.017-21.217
			c-2.279-3.917-4.487-8.462-6.458-12.542c-0.488-1.054-1.105-1.725-1.796-2.146c-1.063-0.562-2.449-0.554-3.594-0.554
			c-0.666-0.006-2.642,0-3.67,0l-0.004,8.654c0,1.591-0.121,5.533,0.311,7.083c0.341,1.222,1.08,1.38,2.304,1.509l2.111,0.175v0.979
			H5.449v-0.979l2.114-0.175c1.252-0.129,2.01-0.283,2.36-1.508c0.439-1.535,0.319-5.501,0.319-7.083V18.103
			c0-1.578,0.12-5.545-0.319-7.08c-0.351-1.225-1.108-1.379-2.36-1.508L5.449,9.341V8.36l10.04,0.001
			c8.836,0.002,20.764-1.259,20.764,11.168c0,5.028-3.419,8.303-7.598,10.357C28.67,30.091,28.716,30.329,28.716,30.329z
			 M15.452,30.338c1.591,0.083,3.298-0.046,4.89-0.046c6.15,0,9.908-3.3,9.908-9.446c0-6.685-3.812-10.787-10.628-10.787
			c-1.405,0-2.789,0.272-4.161,0.545L15.452,30.338z"/>
	</g>
</g>
</svg>
