<?xml version="1.0" encoding="UTF-8" standalone="no"?>
<svg
   xmlns:dc="http://purl.org/dc/elements/1.1/"
   xmlns:cc="http://creativecommons.org/ns#"
   xmlns:rdf="http://www.w3.org/1999/02/22-rdf-syntax-ns#"
   xmlns:svg="http://www.w3.org/2000/svg"
   xmlns="http://www.w3.org/2000/svg"
   viewBox="0 0 720 315.5"
   height="315.5"
   width="720"
   xml:space="preserve"
   version="1.1"
   id="svg2"><metadata
     id="metadata8"><rdf:RDF><cc:Work
         rdf:about=""><dc:format>image/svg+xml</dc:format><dc:type
           rdf:resource="http://purl.org/dc/dcmitype/StillImage" /></cc:Work></rdf:RDF></metadata><defs
     id="defs6"><clipPath
       id="clipPath20"
       clipPathUnits="userSpaceOnUse"><path
         id="path22"
         d="m 442.578,1493.8 4896.38,0 0,694.637 -4896.38,0 0,-694.637 z" /></clipPath></defs><g
     transform="matrix(1.25,0,0,-1.25,0,315.5)"
     id="g10"><g
       transform="scale(0.1,0.1)"
       id="g12"><path
         id="path14"
         style="fill:#5489cf;fill-opacity:1;fill-rule:nonzero;stroke:none"
         d="m 0,0 5760,0 0,2523.96 -5760,0 L 0,0 Z" /><g
         id="g16"><g
           clip-path="url(#clipPath20)"
           id="g18"><path
             id="path24"
             style="fill:#ffffff;fill-opacity:1;fill-rule:nonzero;stroke:none"
             d="m 5140.31,1493.8 c -62.86,0 -103.75,13 -153.69,44.9 l 0,-40.91 -46.93,0 0,179.66 46.93,0 0,-78.85 c 60.88,-40.94 87.91,-50.91 131.77,-50.91 79.89,0 133.75,41.92 133.75,104.76 0,56.87 -38.91,98.85 -146.72,154.74 -125.78,65.88 -168.7,115.78 -168.7,197.63 0,98.83 83.91,172.68 196.67,172.68 49.89,0 86.82,-9.01 118.75,-27.99 l 0,35.94 45.94,0 0,-170.65 -45.94,0 0,70.83 c -50.89,33.96 -75.89,43.96 -115.78,43.96 -67.92,0 -111.83,-40.89 -111.83,-102.82 0,-50.91 28.97,-79.87 153.75,-151.74 124.75,-71.85 160.73,-115.71 160.73,-197.58 0,-103.8 -85.88,-183.65 -198.7,-183.65" /><path
             id="path26"
             style="fill:#ffffff;fill-opacity:1;fill-rule:nonzero;stroke:none"
             d="m 646.199,1496.72 c -62.886,0 -103.828,13.02 -153.699,44.95 l 0,-40.94 -46.926,0 0,179.64 46.926,0 0,-78.83 c 60.891,-40.94 87.844,-50.91 131.746,-50.91 79.848,0 133.746,41.9 133.746,104.79 0,56.9 -38.929,98.8 -146.715,154.74 -125.781,65.83 -168.699,115.75 -168.699,197.63 0,98.8 83.86,172.66 196.641,172.66 49.875,0 86.82,-9.04 118.773,-27.95 l 0,35.94 45.914,0 0,-170.67 -45.914,0 0,70.8 c -50.883,33.98 -75.851,43.93 -115.773,43.93 -67.895,0 -111.797,-40.88 -111.797,-102.81 0,-50.83 28.953,-79.79 153.719,-151.72 124.765,-71.77 160.703,-115.73 160.703,-197.6 0,-103.78 -85.86,-183.65 -198.645,-183.65" /><path
             id="path28"
             style="fill:#ffffff;fill-opacity:1;fill-rule:nonzero;stroke:none"
             d="m 1052.45,1509.74 0,36.88 74.84,0 0,584.92 -74.84,0 0,36.9 237.55,0 0,-36.9 -74.9,0 0,-584.92 74.9,0 0,-36.88 -237.55,0" /><path
             id="path30"
             style="fill:#ffffff;fill-opacity:1;fill-rule:nonzero;stroke:none"
             d="m 2029.87,1509.74 0,36.88 74.9,0 0,491.09 -244.59,-538.02 -245.49,549.01 0,-502.08 75.8,0 0,-36.88 -201.58,0 0,36.88 75.86,0 0,584.92 -75.86,0 0,36.9 160.7,0 227.58,-509.01 234.53,509.01 155.73,0 0,-36.9 -74.88,0 0,-584.92 74.88,0 0,-36.88 -237.58,0" /><path
             id="path32"
             style="fill:#ffffff;fill-opacity:1;fill-rule:nonzero;stroke:none"
             d="m 2977.09,1509.74 0,36.88 74.9,0 0,491.09 -244.57,-538.02 -245.55,549.01 0,-502.08 75.86,0 0,-36.88 -201.61,0 0,36.88 75.86,0 0,584.92 -75.86,0 0,36.9 160.7,0 227.57,-509.01 234.53,509.01 155.78,0 0,-36.9 -74.9,0 0,-584.92 74.9,0 0,-36.88 -237.61,0" /><path
             id="path34"
             style="fill:#ffffff;fill-opacity:1;fill-rule:nonzero;stroke:none"
             d="m 3678.55,2128.57 c -130.73,0 -224.59,-119.82 -224.59,-289.53 0,-168.62 93.86,-290.39 223.6,-290.39 127.76,0 220.57,122.71 220.57,290.39 0,167.73 -92.81,289.53 -219.58,289.53 m -0.99,-631.85 c -175.68,0 -322.39,155.73 -322.39,341.38 0,187.63 145.72,342.35 322.39,342.35 173.69,0 319.43,-155.76 319.43,-341.41 0,-185.6 -145.74,-342.32 -319.43,-342.32" /><path
             id="path36"
             style="fill:#ffffff;fill-opacity:1;fill-rule:nonzero;stroke:none"
             d="m 4679.22,2131.54 0,-632.79 -30.94,0 -383.28,526.98 0,-479.11 75.89,0 0,-36.88 -201.67,0 0,36.88 75.84,0 0,546.98 -26.93,37.94 -68.85,0 0,36.9 144.68,0 365.37,-501.09 0,464.19 -75.89,0 0,36.9 200.62,0 0,-36.9 -74.84,0" /></g></g><path
         id="path38"
         style="fill:#ffffff;fill-opacity:1;fill-rule:nonzero;stroke:none"
         d="m 846.527,959.84 c 0,-16.559 -4.179,-31.559 -12.539,-45 -8.359,-13.442 -19.843,-24.02 -34.453,-31.762 -14.609,-7.726 -30.742,-11.598 -48.398,-11.598 -14.844,0 -27.813,1.68 -38.907,5.04 -11.093,3.359 -22.812,8.941 -35.156,16.761 l 0,-19.691 -22.5,0 0,86.25 22.5,0 0,-37.969 c 14.844,-9.84 26.485,-16.371 34.922,-19.57 8.438,-3.199 17.969,-4.801 28.594,-4.801 19.062,0 34.531,4.602 46.406,13.82 11.875,9.219 17.813,21.41 17.813,36.571 0,13.75 -5.313,26.25 -15.938,37.5 -10.625,11.25 -28.828,23.509 -54.609,36.789 -20,10.47 -35.938,20.47 -47.813,30 -11.875,9.53 -20.39,19.49 -25.547,29.89 -5.156,10.39 -7.734,22.14 -7.734,35.27 0,15.62 4.102,29.76 12.305,42.42 8.203,12.66 19.57,22.58 34.101,29.77 14.531,7.18 30.547,10.78 48.047,10.78 23.281,0 42.344,-4.46 57.188,-13.36 l 0,17.34 22.031,0 0,-82.26 -22.031,0 0,34.22 c -9.375,6.25 -16.68,10.7 -21.914,13.35 -5.235,2.66 -10.469,4.61 -15.704,5.86 -5.234,1.25 -11.211,1.88 -17.929,1.88 -10.782,0 -20.274,-2.07 -28.477,-6.21 -8.203,-4.14 -14.492,-9.92 -18.867,-17.35 -4.375,-7.42 -6.563,-16.05 -6.563,-25.89 0,-8.13 1.993,-15.51 5.977,-22.15 3.984,-6.64 11.25,-13.83 21.797,-21.57 10.547,-7.73 25.976,-17.46 46.289,-29.17 16.25,-9.38 29.062,-17.58 38.437,-24.61 9.375,-7.04 16.915,-14.03 22.618,-20.98 5.703,-6.95 9.804,-14.379 12.304,-22.269 2.5,-7.891 3.75,-16.993 3.75,-27.301" /><path
         id="path40"
         style="fill:#ffffff;fill-opacity:1;fill-rule:nonzero;stroke:none"
         d="m 1094.3,894.68 c -9.85,-5.93 -18.64,-10.66 -26.37,-14.18 -7.73,-3.512 -15.12,-5.898 -22.15,-7.148 -7.03,-1.25 -15.78,-1.872 -26.25,-1.872 -22.342,0 -41.796,4.532 -58.358,13.59 -16.563,9.071 -29.297,22 -38.203,38.789 -8.906,16.801 -13.36,36.289 -13.36,58.481 0,17.191 2.852,33.08 8.555,47.69 5.703,14.61 13.828,27.27 24.375,37.97 10.547,10.71 22.969,18.87 37.266,24.5 14.297,5.62 29.885,8.43 46.755,8.43 12.5,0 23.17,-1.48 31.99,-4.45 8.83,-2.97 19.5,-8.83 32,-17.58 l -26.02,-28.83 c -8.12,8.44 -14.57,14.53 -19.33,18.28 -4.77,3.75 -11.92,8.52 -21.45,14.3 -9.06,-0.78 -16.45,-1.91 -22.15,-3.4 -5.702,-1.48 -10.78,-3.94 -15.233,-7.38 -4.453,-3.44 -9.414,-8.44 -14.883,-15 -14.687,-17.97 -22.031,-39.06 -22.031,-63.28 0,-17.66 3.672,-34.02 11.016,-49.102 7.344,-15.078 17.304,-26.988 29.883,-35.738 12.578,-8.75 26.128,-13.129 40.668,-13.129 7.65,0 15.43,1.289 23.32,3.867 7.89,2.582 18,7.071 30.35,13.473 l 9.61,-18.281" /><path
         id="path42"
         style="fill:#ffffff;fill-opacity:1;fill-rule:nonzero;stroke:none"
         d="m 1375.12,877.809 -108.99,0 0,17.812 36.57,0 0,140.629 c 0,12.65 -3.05,22.69 -9.15,30.11 -6.09,7.42 -14.37,11.14 -24.84,11.14 -7.34,0 -13.98,-1.45 -19.92,-4.34 -5.94,-2.89 -12.85,-8.2 -20.74,-15.94 -7.89,-7.73 -19.18,-20.04 -33.87,-36.91 l 0,-124.689 36.09,0 0,-17.812 -108.51,0 0,17.812 36.56,0 0,304.219 -42.42,0 0,13.12 69.14,18.52 9.14,0 0,-185.16 c 17.81,20.63 32.97,34.89 45.47,42.78 12.5,7.89 26.33,11.83 41.48,11.83 11.57,0 21.72,-2.42 30.47,-7.26 8.75,-4.85 15.47,-11.76 20.16,-20.75 4.69,-8.98 7.03,-19.64 7.03,-31.99 l 0,-145.309 36.33,0 0,-17.812" /><path
         id="path44"
         style="fill:#ffffff;fill-opacity:1;fill-rule:nonzero;stroke:none"
         d="m 1581.64,986.32 c 0,17.66 -2.86,33.68 -8.56,48.05 -5.7,14.38 -13.44,25.7 -23.2,33.98 -9.77,8.29 -20.67,12.43 -32.7,12.43 -11.87,0 -22.69,-4.18 -32.46,-12.54 -9.76,-8.36 -17.42,-19.77 -22.97,-34.22 -5.54,-14.45 -8.32,-30.35 -8.32,-47.7 0,-26.09 6.14,-48.398 18.4,-66.91 12.27,-18.519 27.38,-27.769 45.35,-27.769 11.72,0 22.54,4.179 32.46,12.531 9.93,8.359 17.74,19.769 23.44,34.219 5.7,14.461 8.56,30.429 8.56,47.929 z m 40.78,0 c 0,-20.781 -4.73,-39.961 -14.18,-57.539 -9.46,-17.57 -22.19,-31.519 -38.21,-41.832 -16.01,-10.308 -33.63,-15.469 -52.85,-15.469 -19.06,0 -36.64,5.161 -52.73,15.469 -16.1,10.313 -28.83,24.262 -38.2,41.832 -9.38,17.578 -14.07,36.758 -14.07,57.539 0,20.78 4.73,39.96 14.18,57.54 9.46,17.58 22.23,31.49 38.32,41.72 16.1,10.24 33.6,15.35 52.5,15.35 14.22,0 27.78,-2.97 40.67,-8.9 12.89,-5.94 24.14,-14.14 33.75,-24.61 9.61,-10.47 17.15,-22.62 22.61,-36.45 5.47,-13.83 8.21,-28.71 8.21,-44.65" /><path
         id="path46"
         style="fill:#ffffff;fill-opacity:1;fill-rule:nonzero;stroke:none"
         d="m 1835.5,986.32 c 0,17.66 -2.85,33.68 -8.56,48.05 -5.7,14.38 -13.43,25.7 -23.2,33.98 -9.77,8.29 -20.66,12.43 -32.7,12.43 -11.87,0 -22.69,-4.18 -32.46,-12.54 -9.76,-8.36 -17.42,-19.77 -22.96,-34.22 -5.55,-14.45 -8.33,-30.35 -8.33,-47.7 0,-26.09 6.14,-48.398 18.4,-66.91 12.27,-18.519 27.39,-27.769 45.35,-27.769 11.72,0 22.54,4.179 32.47,12.531 9.92,8.359 17.73,19.769 23.43,34.219 5.71,14.461 8.56,30.429 8.56,47.929 z m 40.78,0 c 0,-20.781 -4.73,-39.961 -14.18,-57.539 -9.45,-17.57 -22.19,-31.519 -38.2,-41.832 -16.02,-10.308 -33.64,-15.469 -52.86,-15.469 -19.06,0 -36.64,5.161 -52.73,15.469 -16.09,10.313 -28.83,24.262 -38.2,41.832 -9.38,17.578 -14.07,36.758 -14.07,57.539 0,20.78 4.73,39.96 14.18,57.54 9.46,17.58 22.23,31.49 38.32,41.72 16.1,10.24 33.6,15.35 52.5,15.35 14.22,0 27.78,-2.97 40.67,-8.9 12.89,-5.94 24.14,-14.14 33.75,-24.61 9.61,-10.47 17.15,-22.62 22.62,-36.45 5.46,-13.83 8.2,-28.71 8.2,-44.65" /><path
         id="path48"
         style="fill:#ffffff;fill-opacity:1;fill-rule:nonzero;stroke:none"
         d="m 2022.09,877.809 -108.51,0 0,17.812 36.56,0 0,304.219 -42.42,0 0,13.12 69.14,18.52 9.14,0 0,-335.859 36.09,0 0,-17.812" /><path
         id="path50"
         style="fill:#ffffff;fill-opacity:1;fill-rule:nonzero;stroke:none"
         d="m 2360.61,986.32 c 0,17.66 -2.86,33.68 -8.56,48.05 -5.7,14.38 -13.44,25.7 -23.2,33.98 -9.77,8.29 -20.67,12.43 -32.7,12.43 -11.87,0 -22.69,-4.18 -32.46,-12.54 -9.76,-8.36 -17.42,-19.77 -22.97,-34.22 -5.54,-14.45 -8.32,-30.35 -8.32,-47.7 0,-26.09 6.14,-48.398 18.4,-66.91 12.27,-18.519 27.38,-27.769 45.35,-27.769 11.72,0 22.54,4.179 32.46,12.531 9.93,8.359 17.74,19.769 23.44,34.219 5.7,14.461 8.56,30.429 8.56,47.929 z m 40.78,0 c 0,-20.781 -4.73,-39.961 -14.18,-57.539 -9.46,-17.57 -22.19,-31.519 -38.21,-41.832 -16.01,-10.308 -33.63,-15.469 -52.85,-15.469 -19.06,0 -36.64,5.161 -52.73,15.469 -16.1,10.313 -28.83,24.262 -38.21,41.832 -9.37,17.578 -14.06,36.758 -14.06,57.539 0,20.78 4.73,39.96 14.18,57.54 9.46,17.58 22.23,31.49 38.32,41.72 16.1,10.24 33.6,15.35 52.5,15.35 14.22,0 27.78,-2.97 40.67,-8.9 12.89,-5.94 24.14,-14.14 33.75,-24.61 9.61,-10.47 17.14,-22.62 22.61,-36.45 5.47,-13.83 8.21,-28.71 8.21,-44.65" /><path
         id="path52"
         style="fill:#ffffff;fill-opacity:1;fill-rule:nonzero;stroke:none"
         d="m 2645.64,1214.37 -26.48,-32.81 c -10.63,9.37 -18.4,15.74 -23.33,19.1 -4.92,3.36 -13,7.93 -24.25,13.71 -12.66,-2.34 -23.01,-7.11 -31.06,-14.3 -8.04,-7.18 -13.9,-17.07 -17.58,-29.65 -3.67,-12.57 -5.5,-28.71 -5.5,-48.39 l 0,-31.64 55.07,0 0,-22.04 -55.07,0 0,-172.729 45.93,0 0,-17.812 -118.36,0 0,17.812 36.33,0 0,172.729 -41.72,0 0,12.9 41.72,10.54 0,39.38 c 0,19.53 4.07,37.03 12.19,52.5 8.13,15.47 19.57,27.46 34.34,35.97 14.76,8.52 31.75,12.78 50.97,12.78 22.97,0 45.24,-6.02 66.8,-18.05" /><path
         id="path54"
         style="fill:#ffffff;fill-opacity:1;fill-rule:nonzero;stroke:none"
         d="m 2977.82,877.809 -218.44,0 0,17.812 36.1,0 0,281.249 -36.1,0 0,17.81 114.38,0 0,-17.81 -36.09,0 0,-277.499 118.12,0 0,42.188 22.03,0 0,-63.75" /><path
         id="path56"
         style="fill:#ffffff;fill-opacity:1;fill-rule:nonzero;stroke:none"
         d="m 3087.08,1182.5 c 0,-6.88 -2.43,-12.82 -7.27,-17.82 -4.84,-5 -10.86,-7.5 -18.05,-7.5 -7.03,0 -12.97,2.5 -17.81,7.5 -4.84,5 -7.27,10.94 -7.27,17.82 0,7.03 2.43,12.96 7.27,17.81 4.84,4.84 10.78,7.26 17.81,7.26 7.19,0 13.21,-2.42 18.05,-7.26 4.84,-4.85 7.27,-10.78 7.27,-17.81 z m 31.17,-304.691 -108.75,0 0,17.812 36.33,0 0,172.729 -41.72,0 0,12.9 69.14,18.75 8.67,0 0,-204.379 36.33,0 0,-17.812" /><path
         id="path58"
         style="fill:#ffffff;fill-opacity:1;fill-rule:nonzero;stroke:none"
         d="m 3377.27,993.59 c 0,-18.281 -2.97,-34.918 -8.91,-49.918 -5.93,-15 -14.37,-27.852 -25.31,-38.563 -10.94,-10.699 -24.14,-18.98 -39.61,-24.839 -15.47,-5.86 -32.5,-8.79 -51.09,-8.79 -7.5,0 -14.45,0.348 -20.86,1.051 -6.41,0.707 -13.24,1.758 -20.51,3.168 -7.26,1.403 -15.9,3.36 -25.9,5.86 l 0,318.281 -41.72,0 0,13.12 69.14,18.52 8.68,0 0,-331.64 c 8.9,-3.442 15.39,-5.668 19.45,-6.68 4.06,-1.019 9.14,-1.519 15.23,-1.519 15.32,0 29.07,4.14 41.25,12.418 12.19,8.281 21.72,20 28.6,35.152 6.87,15.16 10.31,32.109 10.31,50.859 0,17.35 -2.5,32.43 -7.5,45.24 -5,12.81 -12.15,22.65 -21.44,29.53 -9.3,6.87 -20.36,10.31 -33.17,10.31 l -34.92,0 0,15.7 c 20,6.72 36.33,10.08 48.98,10.08 17.19,0 32.58,-4.57 46.18,-13.71 13.59,-9.14 24.18,-21.83 31.75,-38.08 7.58,-16.25 11.37,-34.77 11.37,-55.55" /><path
         id="path60"
         style="fill:#ffffff;fill-opacity:1;fill-rule:nonzero;stroke:none"
         d="m 3585.43,1083.82 -27.89,-33.75 c -9.53,9.07 -16.56,13.6 -21.09,13.6 -4.22,0 -9.22,-2.62 -15,-7.85 -5.79,-5.24 -15.32,-16.06 -28.6,-32.47 l 0,-127.729 45.94,0 0,-17.812 -118.36,0 0,17.812 36.33,0 0,172.729 -41.72,0 0,12.9 69.14,18.75 8.67,0 0,-53.68 c 17.35,22.03 30.24,36.64 38.67,43.83 8.44,7.19 16.96,10.78 25.55,10.78 6.09,0 10.63,-1.4 13.59,-4.22 l 14.77,-12.89" /><path
         id="path62"
         style="fill:#ffffff;fill-opacity:1;fill-rule:nonzero;stroke:none"
         d="m 3733.82,925.391 0,50.859 -82.26,-19.219 0,-23.91 c 0,-10 3.04,-18.051 9.14,-24.141 6.09,-6.089 14.14,-9.14 24.14,-9.14 7.5,0 14.96,1.949 22.38,5.859 7.42,3.903 16.29,10.473 26.6,19.692 z m 72.9,-38.442 -32.12,-10.078 c -7.34,-2.191 -12.96,-3.281 -16.87,-3.281 -7.34,0 -13.09,2.5 -17.23,7.5 -4.14,5 -6.21,11.871 -6.21,20.621 l 0,4.93 c -10.31,-12.661 -20.39,-21.68 -30.23,-27.071 -9.85,-5.398 -21.1,-8.09 -33.75,-8.09 -16.56,0 -30.28,5.231 -41.14,15.7 -10.85,10.468 -16.28,23.672 -16.28,39.609 0,12.191 3.63,22.93 10.89,32.231 7.27,9.3 16.53,15.191 27.78,17.691 l 82.26,18.75 0,54.139 c 0,9.69 -3.24,17.62 -9.72,23.79 -6.49,6.18 -14.5,9.26 -24.03,9.26 -8.43,0 -18.36,-2.65 -29.76,-7.97 l 0,-23.2 -42.66,-12.42 c -2.5,4.53 -3.75,8.98 -3.75,13.36 0,9.22 3.24,17.5 9.73,24.84 6.48,7.34 15.58,13.13 27.3,17.34 11.72,4.22 24.61,6.33 38.67,6.33 13.91,0 26.18,-2.18 36.8,-6.56 10.63,-4.37 18.83,-10.55 24.61,-18.52 5.78,-7.96 8.67,-17.18 8.67,-27.65 l 0,-147.891 37.04,0 0,-13.36" /><path
         id="path64"
         style="fill:#ffffff;fill-opacity:1;fill-rule:nonzero;stroke:none"
         d="m 4008.78,1083.82 -27.89,-33.75 c -9.53,9.07 -16.56,13.6 -21.1,13.6 -4.21,0 -9.21,-2.62 -15,-7.85 -5.78,-5.24 -15.31,-16.06 -28.59,-32.47 l 0,-127.729 45.94,0 0,-17.812 -118.36,0 0,17.812 36.33,0 0,172.729 -41.72,0 0,12.9 69.14,18.75 8.67,0 0,-53.68 c 17.34,22.03 30.24,36.64 38.67,43.83 8.44,7.19 16.96,10.78 25.55,10.78 6.09,0 10.62,-1.4 13.59,-4.22 l 14.77,-12.89" /><path
         id="path66"
         style="fill:#ffffff;fill-opacity:1;fill-rule:nonzero;stroke:none"
         d="m 4232.87,1077.5 -20.16,0 -81.09,-210.711 c -5.31,-14.219 -12.15,-29.289 -20.51,-45.23 -8.36,-15.938 -16.36,-29.528 -24.02,-40.778 -4.53,-5.941 -7.93,-10.472 -10.2,-13.601 -2.26,-3.121 -5.27,-7.18 -9.02,-12.18 l -31.17,32.102 c 13.91,7.968 23.94,14.5 30.12,19.57 6.17,5.078 12.93,12.308 20.27,21.68 6.87,9.07 12.38,17.468 16.52,25.199 4.14,7.73 9.03,18.871 14.65,33.398 l -77.81,190.551 -20.16,0 0,17.81 93.05,0 0,-17.81 -33.98,0 58.12,-141.57 53.67,141.57 -32.11,0 0,17.81 73.83,0 0,-17.81" /><path
         id="path68"
         style="fill:#ffffff;fill-opacity:1;fill-rule:nonzero;stroke:none"
         d="m 4512.79,925.391 0,50.859 -82.26,-19.219 0,-23.91 c 0,-10 3.04,-18.051 9.14,-24.141 6.09,-6.089 14.14,-9.14 24.14,-9.14 7.5,0 14.96,1.949 22.38,5.859 7.42,3.903 16.29,10.473 26.6,19.692 z m 72.89,-38.442 -32.11,-10.078 c -7.34,-2.191 -12.96,-3.281 -16.87,-3.281 -7.34,0 -13.09,2.5 -17.23,7.5 -4.14,5 -6.21,11.871 -6.21,20.621 l 0,4.93 c -10.31,-12.661 -20.39,-21.68 -30.23,-27.071 -9.85,-5.398 -21.1,-8.09 -33.75,-8.09 -16.57,0 -30.28,5.231 -41.14,15.7 -10.85,10.468 -16.28,23.672 -16.28,39.609 0,12.191 3.63,22.93 10.89,32.231 7.27,9.3 16.53,15.191 27.78,17.691 l 82.26,18.75 0,54.139 c 0,9.69 -3.24,17.62 -9.72,23.79 -6.49,6.18 -14.5,9.26 -24.03,9.26 -8.43,0 -18.36,-2.65 -29.76,-7.97 l 0,-23.2 -42.66,-12.42 c -2.5,4.53 -3.75,8.98 -3.75,13.36 0,9.22 3.24,17.5 9.73,24.84 6.48,7.34 15.58,13.13 27.3,17.34 11.72,4.22 24.61,6.33 38.67,6.33 13.91,0 26.18,-2.18 36.8,-6.56 10.63,-4.37 18.83,-10.55 24.61,-18.52 5.78,-7.96 8.67,-17.18 8.67,-27.65 l 0,-147.891 37.03,0 0,-13.36" /><path
         id="path70"
         style="fill:#ffffff;fill-opacity:1;fill-rule:nonzero;stroke:none"
         d="m 4876.1,877.809 -108.51,0 0,17.812 36.09,0 0,140.629 c 0,12.65 -3.05,22.69 -9.14,30.11 -6.09,7.42 -14.45,11.14 -25.08,11.14 -7.18,0 -13.75,-1.45 -19.68,-4.34 -5.94,-2.89 -12.86,-8.2 -20.75,-15.94 -7.89,-7.73 -19.18,-20.04 -33.86,-36.91 l 0,-124.689 36.32,0 0,-17.812 -108.75,0 0,17.812 36.33,0 0,172.729 -41.72,0 0,12.9 69.14,18.75 8.68,0 0,-53.68 c 17.96,20.78 33.2,35.08 45.7,42.89 12.5,7.82 26.41,11.72 41.72,11.72 11.56,0 21.68,-2.42 30.35,-7.26 8.67,-4.85 15.35,-11.76 20.04,-20.75 4.69,-8.98 7.03,-19.64 7.03,-31.99 l 0,-145.309 36.09,0 0,-17.812" /><path
         id="path72"
         style="fill:#ffffff;fill-opacity:1;fill-rule:nonzero;stroke:none"
         d="m 5069.97,929.602 0,111.328 c 0,15 -2.81,25.39 -8.44,31.17 -5.62,5.79 -15.47,8.68 -29.53,8.68 -15.31,0 -28.87,-3.83 -40.66,-11.49 -11.8,-7.65 -20.9,-18.51 -27.31,-32.58 -6.4,-14.06 -9.61,-30.07 -9.61,-48.038 0,-17.82 2.5,-33.172 7.5,-46.063 5,-12.89 12.23,-22.769 21.68,-29.648 9.46,-6.871 20.67,-10.313 33.64,-10.313 7.5,0 13.79,1.102 18.86,3.282 5.08,2.191 11.76,6.41 20.04,12.66 3.91,3.281 8.52,6.949 13.83,11.012 z m 78.28,-38.43 -69.14,-18.051 -9.14,0 0,33.52 c -13.44,-13.442 -24.96,-22.661 -34.57,-27.661 -9.61,-5 -20.59,-7.5 -32.93,-7.5 -16.09,0 -31.05,4.879 -44.88,14.649 -13.83,9.762 -24.69,23.121 -32.58,40.082 -7.89,16.949 -11.84,35.348 -11.84,55.187 0,21.722 5.08,41.722 15.24,60.002 10.15,18.28 23.98,32.77 41.48,43.48 17.5,10.7 36.49,16.05 56.96,16.05 8.59,0 15.78,-0.82 21.56,-2.46 5.78,-1.64 12.97,-4.8 21.56,-9.49 l 0,110.86 -41.72,0 0,13.12 69.14,18.52 9.14,0 0,-326.718 41.72,0 0,-13.59" /><path
         id="path74"
         style="fill:#ffffff;fill-opacity:1;fill-rule:nonzero;stroke:none"
         d="m 856.172,337.809 -114.375,0 0,17.812 36.094,0 0,281.25 -36.094,0 0,17.809 114.375,0 0,-17.809 -36.094,0 0,-281.25 36.094,0 0,-17.812" /><path
         id="path76"
         style="fill:#ffffff;fill-opacity:1;fill-rule:nonzero;stroke:none"
         d="m 1169.1,337.809 -108.52,0 0,17.812 36.09,0 0,140.629 c 0,12.648 -3.04,22.691 -9.14,30.109 -6.09,7.422 -14.45,11.141 -25.07,11.141 -7.19,0 -13.75,-1.449 -19.69,-4.34 -5.94,-2.89 -12.85,-8.199 -20.74,-15.941 -7.89,-7.731 -19.18,-20.039 -33.87,-36.91 l 0,-124.688 36.33,0 0,-17.812 -108.752,0 0,17.812 36.328,0 0,172.731 -41.718,0 0,12.898 69.14,18.75 8.672,0 0,-53.68 c 17.97,20.782 33.2,35.078 45.7,42.891 12.5,7.82 26.41,11.719 41.72,11.719 11.56,0 21.68,-2.418 30.35,-7.258 8.67,-4.852 15.35,-11.762 20.04,-20.75 4.69,-8.981 7.03,-19.641 7.03,-31.992 l 0,-145.309 36.1,0 0,-17.812" /><path
         id="path78"
         style="fill:#ffffff;fill-opacity:1;fill-rule:nonzero;stroke:none"
         d="m 1406.79,674.371 -26.48,-32.812 c -10.63,9.371 -18.4,15.742 -23.32,19.101 -4.92,3.36 -13.01,7.93 -24.26,13.711 -12.66,-2.34 -23.01,-7.109 -31.06,-14.301 -8.04,-7.179 -13.9,-17.07 -17.57,-29.648 -3.68,-12.57 -5.51,-28.711 -5.51,-48.391 l 0,-31.64 55.08,0 0,-22.039 -55.08,0 0,-172.731 45.94,0 0,-17.812 -118.36,0 0,17.812 36.33,0 0,172.731 -41.72,0 0,12.898 41.72,10.539 0,39.383 c 0,19.527 4.06,37.027 12.18,52.5 8.13,15.469 19.57,27.457 34.34,35.969 14.76,8.519 31.76,12.781 50.98,12.781 22.96,0 45.23,-6.024 66.79,-18.051" /><path
         id="path80"
         style="fill:#ffffff;fill-opacity:1;fill-rule:nonzero;stroke:none"
         d="m 1542.29,446.32 c 0,17.66 -2.85,33.68 -8.55,48.051 -5.7,14.379 -13.44,25.699 -23.2,33.981 -9.77,8.289 -20.67,12.429 -32.7,12.429 -11.87,0 -22.69,-4.179 -32.46,-12.543 -9.76,-8.359 -17.42,-19.769 -22.97,-34.218 -5.54,-14.45 -8.32,-30.348 -8.32,-47.7 0,-26.09 6.13,-48.398 18.4,-66.91 12.27,-18.519 27.38,-27.769 45.35,-27.769 11.72,0 22.54,4.179 32.46,12.531 9.92,8.359 17.74,19.769 23.44,34.219 5.7,14.461 8.55,30.429 8.55,47.929 z m 40.79,0 c 0,-20.781 -4.73,-39.961 -14.18,-57.539 -9.46,-17.57 -22.19,-31.519 -38.21,-41.832 -16.01,-10.308 -33.63,-15.469 -52.85,-15.469 -19.06,0 -36.64,5.161 -52.73,15.469 -16.1,10.313 -28.83,24.262 -38.21,41.832 -9.37,17.578 -14.06,36.758 -14.06,57.539 0,20.782 4.73,39.961 14.18,57.539 9.45,17.582 22.23,31.493 38.32,41.719 16.1,10.242 33.6,15.352 52.5,15.352 14.22,0 27.78,-2.969 40.67,-8.899 12.89,-5.941 24.14,-14.14 33.75,-24.609 9.61,-10.473 17.14,-22.621 22.61,-36.453 5.47,-13.828 8.21,-28.707 8.21,-44.649" /><path
         id="path82"
         style="fill:#ffffff;fill-opacity:1;fill-rule:nonzero;stroke:none"
         d="m 1791.7,543.82 -27.89,-33.75 c -9.53,9.071 -16.56,13.602 -21.09,13.602 -4.22,0 -9.22,-2.621 -15,-7.852 -5.78,-5.242 -15.31,-16.058 -28.59,-32.468 l 0,-127.731 45.93,0 0,-17.812 -118.36,0 0,17.812 36.33,0 0,172.731 -41.72,0 0,12.898 69.14,18.75 8.68,0 0,-53.68 c 17.34,22.032 30.23,36.641 38.67,43.828 8.44,7.192 16.95,10.782 25.54,10.782 6.1,0 10.63,-1.399 13.6,-4.219 l 14.76,-12.891" /><path
         id="path84"
         style="fill:#ffffff;fill-opacity:1;fill-rule:nonzero;stroke:none"
         d="m 2216.89,337.809 -108.28,0 0,17.812 36.33,0 0,140.629 c 0,12.961 -3.01,23 -9.02,30.109 -6.02,7.11 -14.34,10.672 -24.96,10.672 -7.82,0 -15.39,-2.152 -22.74,-6.453 -7.34,-4.297 -16.09,-11.906 -26.25,-22.848 l -25.54,-27.421 0,-124.688 36.09,0 0,-17.812 -108.52,0 0,17.812 36.1,0 0,140.629 c 0,12.648 -3.05,22.691 -9.14,30.109 -6.1,7.422 -14.46,11.141 -25.08,11.141 -7.19,0 -13.75,-1.449 -19.69,-4.34 -5.94,-2.89 -12.85,-8.199 -20.74,-15.941 -7.89,-7.731 -19.18,-20.039 -33.87,-36.91 l 0,-124.688 36.33,0 0,-17.812 -108.75,0 0,17.812 36.33,0 0,172.731 -41.72,0 0,12.898 69.14,18.75 8.67,0 0,-53.68 c 17.97,20.782 33.21,35.078 45.71,42.891 12.5,7.82 26.4,11.719 41.71,11.719 33.75,0 52.89,-18.2 57.43,-54.61 17.81,20.629 32.96,34.891 45.46,42.782 12.5,7.886 26.33,11.828 41.49,11.828 17.97,0 32.07,-5.309 42.3,-15.93 10.24,-10.629 15.36,-25.16 15.36,-43.602 l 0,-145.777 35.85,0 0,-17.812" /><path
         id="path86"
         style="fill:#ffffff;fill-opacity:1;fill-rule:nonzero;stroke:none"
         d="m 2375.37,385.391 0,50.859 -82.26,-19.219 0,-23.91 c 0,-10 3.04,-18.051 9.14,-24.141 6.09,-6.089 14.14,-9.14 24.14,-9.14 7.5,0 14.96,1.949 22.38,5.859 7.42,3.903 16.29,10.473 26.6,19.692 z m 72.89,-38.442 -32.11,-10.078 c -7.34,-2.191 -12.97,-3.281 -16.87,-3.281 -7.35,0 -13.09,2.5 -17.23,7.5 -4.14,5 -6.21,11.871 -6.21,20.621 l 0,4.93 c -10.31,-12.661 -20.39,-21.68 -30.23,-27.071 -9.85,-5.398 -21.1,-8.09 -33.75,-8.09 -16.57,0 -30.28,5.231 -41.14,15.7 -10.86,10.468 -16.29,23.672 -16.29,39.609 0,12.191 3.64,22.93 10.9,32.231 7.27,9.3 16.53,15.191 27.78,17.691 l 82.26,18.75 0,54.141 c 0,9.687 -3.24,17.617 -9.73,23.789 -6.48,6.179 -14.49,9.257 -24.02,9.257 -8.44,0 -18.36,-2.648 -29.76,-7.968 l 0,-23.2 -42.66,-12.421 c -2.5,4.531 -3.75,8.98 -3.75,13.363 0,9.219 3.24,17.5 9.73,24.84 6.48,7.34 15.58,13.129 27.3,17.34 11.72,4.218 24.61,6.328 38.67,6.328 13.91,0 26.17,-2.18 36.8,-6.559 10.62,-4.371 18.83,-10.551 24.61,-18.519 5.78,-7.961 8.67,-17.18 8.67,-27.653 l 0,-147.89 37.03,0 0,-13.36" /><path
         id="path88"
         style="fill:#ffffff;fill-opacity:1;fill-rule:nonzero;stroke:none"
         d="m 2612.83,357.961 c -12.66,-10.152 -22.42,-16.75 -29.3,-19.801 -6.87,-3.051 -14.69,-4.57 -23.44,-4.57 -14.06,0 -25,4.101 -32.81,12.301 -7.81,8.211 -11.72,19.57 -11.72,34.109 l 0,148.352 -41.95,0 0,12.898 41.95,10.539 0,66.332 34.45,0 0,-67.73 59.54,0 0,-22.039 -59.54,0 0,-143.903 c 0,-9.058 1.68,-15.508 5.04,-19.34 3.36,-3.828 9.03,-5.738 17,-5.738 5.15,0 9.72,0.66 13.71,1.988 3.98,1.332 10.35,4.493 19.1,9.493 l 7.97,-12.891" /><path
         id="path90"
         style="fill:#ffffff;fill-opacity:1;fill-rule:nonzero;stroke:none"
         d="m 2717.86,642.5 c 0,-6.879 -2.42,-12.82 -7.26,-17.82 -4.85,-5 -10.86,-7.5 -18.05,-7.5 -7.03,0 -12.97,2.5 -17.81,7.5 -4.85,5 -7.27,10.941 -7.27,17.82 0,7.031 2.42,12.961 7.27,17.809 4.84,4.839 10.78,7.261 17.81,7.261 7.19,0 13.2,-2.422 18.05,-7.261 4.84,-4.848 7.26,-10.778 7.26,-17.809 z m 31.17,-304.691 -108.75,0 0,17.812 36.33,0 0,172.731 -41.72,0 0,12.898 69.14,18.75 8.68,0 0,-204.379 36.32,0 0,-17.812" /><path
         id="path92"
         style="fill:#ffffff;fill-opacity:1;fill-rule:nonzero;stroke:none"
         d="m 2956.73,446.32 c 0,17.66 -2.85,33.68 -8.56,48.051 -5.7,14.379 -13.43,25.699 -23.2,33.981 -9.76,8.289 -20.66,12.429 -32.69,12.429 -11.88,0 -22.7,-4.179 -32.47,-12.543 -9.76,-8.359 -17.42,-19.769 -22.96,-34.218 -5.55,-14.45 -8.32,-30.348 -8.32,-47.7 0,-26.09 6.13,-48.398 18.39,-66.91 12.27,-18.519 27.39,-27.769 45.36,-27.769 11.71,0 22.53,4.179 32.46,12.531 9.92,8.359 17.73,19.769 23.43,34.219 5.71,14.461 8.56,30.429 8.56,47.929 z m 40.78,0 c 0,-20.781 -4.73,-39.961 -14.18,-57.539 -9.45,-17.57 -22.19,-31.519 -38.2,-41.832 -16.02,-10.308 -33.64,-15.469 -52.85,-15.469 -19.07,0 -36.65,5.161 -52.74,15.469 -16.09,10.313 -28.83,24.262 -38.2,41.832 -9.38,17.578 -14.06,36.758 -14.06,57.539 0,20.782 4.72,39.961 14.18,57.539 9.45,17.582 22.22,31.493 38.32,41.719 16.09,10.242 33.59,15.352 52.5,15.352 14.21,0 27.77,-2.969 40.66,-8.899 12.89,-5.941 24.14,-14.14 33.75,-24.609 9.61,-10.473 17.15,-22.621 22.62,-36.453 5.47,-13.828 8.2,-28.707 8.2,-44.649" /><path
         id="path94"
         style="fill:#ffffff;fill-opacity:1;fill-rule:nonzero;stroke:none"
         d="m 3294.5,337.809 -108.52,0 0,17.812 36.1,0 0,140.629 c 0,12.648 -3.05,22.691 -9.15,30.109 -6.09,7.422 -14.45,11.141 -25.07,11.141 -7.19,0 -13.75,-1.449 -19.69,-4.34 -5.94,-2.89 -12.85,-8.199 -20.74,-15.941 -7.89,-7.731 -19.18,-20.039 -33.87,-36.91 l 0,-124.688 36.33,0 0,-17.812 -108.75,0 0,17.812 36.33,0 0,172.731 -41.72,0 0,12.898 69.14,18.75 8.67,0 0,-53.68 c 17.97,20.782 33.2,35.078 45.7,42.891 12.5,7.82 26.41,11.719 41.72,11.719 11.56,0 21.68,-2.418 30.35,-7.258 8.67,-4.852 15.35,-11.762 20.04,-20.75 4.69,-8.981 7.03,-19.641 7.03,-31.992 l 0,-145.309 36.1,0 0,-17.812" /><path
         id="path96"
         style="fill:#ffffff;fill-opacity:1;fill-rule:nonzero;stroke:none"
         d="m 3680.82,419.84 c 0,-16.559 -4.18,-31.559 -12.54,-45 -8.36,-13.442 -19.84,-24.02 -34.45,-31.758 -14.61,-7.73 -30.74,-11.602 -48.4,-11.602 -14.84,0 -27.81,1.68 -38.91,5.04 -11.09,3.359 -22.81,8.941 -35.15,16.761 l 0,-19.691 -22.5,0 0,86.25 22.5,0 0,-37.969 c 14.84,-9.84 26.48,-16.371 34.92,-19.57 8.44,-3.199 17.97,-4.801 28.59,-4.801 19.07,0 34.53,4.602 46.41,13.82 11.87,9.219 17.81,21.41 17.81,36.571 0,13.75 -5.31,26.25 -15.94,37.5 -10.62,11.25 -28.82,23.507 -54.61,36.789 -20,10.468 -35.93,20.468 -47.81,30 -11.87,9.531 -20.39,19.492 -25.54,29.89 -5.16,10.391 -7.74,22.141 -7.74,35.27 0,15.621 4.1,29.762 12.31,42.422 8.2,12.66 19.57,22.578 34.1,29.769 14.53,7.18 30.54,10.778 48.04,10.778 23.29,0 42.35,-4.457 57.19,-13.36 l 0,17.34 22.03,0 0,-82.258 -22.03,0 0,34.219 c -9.37,6.25 -16.68,10.699 -21.91,13.352 -5.24,2.66 -10.47,4.609 -15.71,5.859 -5.23,1.25 -11.21,1.879 -17.93,1.879 -10.78,0 -20.27,-2.07 -28.47,-6.211 -8.2,-4.141 -14.49,-9.918 -18.87,-17.348 -4.37,-7.422 -6.56,-16.051 -6.56,-25.89 0,-8.129 1.99,-15.512 5.98,-22.153 3.98,-6.636 11.25,-13.828 21.79,-21.566 10.55,-7.731 25.98,-17.461 46.29,-29.172 16.25,-9.379 29.06,-17.578 38.44,-24.609 9.37,-7.039 16.91,-14.032 22.62,-20.981 5.7,-6.949 9.8,-14.379 12.3,-22.269 2.5,-7.891 3.75,-16.993 3.75,-27.301" /><path
         id="path98"
         style="fill:#ffffff;fill-opacity:1;fill-rule:nonzero;stroke:none"
         d="m 3928.59,354.68 c -9.84,-5.93 -18.63,-10.66 -26.36,-14.18 -7.74,-3.512 -15.12,-5.898 -22.15,-7.148 -7.03,-1.25 -15.78,-1.872 -26.25,-1.872 -22.35,0 -41.8,4.532 -58.36,13.59 -16.57,9.071 -29.3,22 -38.21,38.789 -8.91,16.801 -13.36,36.289 -13.36,58.481 0,17.191 2.85,33.082 8.56,47.691 5.7,14.61 13.82,27.27 24.37,37.969 10.55,10.711 22.97,18.871 37.27,24.5 14.3,5.621 29.88,8.43 46.76,8.43 12.5,0 23.16,-1.481 31.99,-4.45 8.83,-2.968 19.49,-8.832 31.99,-17.582 l -26.01,-28.828 c -8.13,8.442 -14.57,14.532 -19.34,18.282 -4.76,3.75 -11.91,8.519 -21.44,14.296 -9.07,-0.777 -16.45,-1.91 -22.15,-3.398 -5.7,-1.48 -10.78,-3.941 -15.24,-7.379 -4.45,-3.441 -9.41,-8.441 -14.88,-15 -14.69,-17.973 -22.03,-39.062 -22.03,-63.281 0,-17.66 3.67,-34.02 11.02,-49.102 7.34,-15.078 17.3,-26.988 29.88,-35.738 12.58,-8.75 26.13,-13.129 40.66,-13.129 7.66,0 15.43,1.289 23.32,3.867 7.89,2.582 18.01,7.071 30.35,13.473 l 9.61,-18.281" /><path
         id="path100"
         style="fill:#ffffff;fill-opacity:1;fill-rule:nonzero;stroke:none"
         d="m 4039.95,642.5 c 0,-6.879 -2.42,-12.82 -7.26,-17.82 -4.85,-5 -10.86,-7.5 -18.05,-7.5 -7.03,0 -12.97,2.5 -17.81,7.5 -4.85,5 -7.27,10.941 -7.27,17.82 0,7.031 2.42,12.961 7.27,17.809 4.84,4.839 10.78,7.261 17.81,7.261 7.19,0 13.2,-2.422 18.05,-7.261 4.84,-4.848 7.26,-10.778 7.26,-17.809 z m 31.17,-304.691 -108.75,0 0,17.812 36.33,0 0,172.731 -41.72,0 0,12.898 69.14,18.75 8.67,0 0,-204.379 36.33,0 0,-17.812" /><path
         id="path102"
         style="fill:#ffffff;fill-opacity:1;fill-rule:nonzero;stroke:none"
         d="m 4260.54,479.84 0,11.48 c 0,14.379 -4.46,26.211 -13.36,35.508 -8.91,9.301 -20.31,13.953 -34.22,13.953 -11.72,0 -22.11,-2.461 -31.17,-7.39 -9.07,-4.922 -16.41,-11.911 -22.03,-20.969 -5.63,-9.07 -9.14,-19.922 -10.55,-32.582 l 111.33,0 z m 39.37,-19.219 -151.17,0 0,-5.16 c 0,-19.531 3.24,-37.07 9.73,-52.609 6.48,-15.551 15.66,-27.622 27.54,-36.211 11.87,-8.602 25.15,-12.891 39.84,-12.891 9.53,0 18.59,1.641 27.19,4.922 8.59,3.277 19.22,8.976 31.87,17.109 l 9.14,-17.82 c -12.03,-6.871 -22.22,-12.18 -30.58,-15.93 -8.36,-3.75 -16.45,-6.449 -24.26,-8.09 -7.81,-1.64 -16.41,-2.461 -25.78,-2.461 -20,0 -37.89,4.801 -53.67,14.411 -15.79,9.609 -28.13,23.007 -37.04,40.199 -8.9,17.191 -13.35,36.801 -13.35,58.832 0,16.25 2.57,31.598 7.73,46.047 5.16,14.453 12.34,26.883 21.56,37.269 9.22,10.391 20.16,18.434 32.81,24.141 12.66,5.699 26.33,8.551 41.02,8.551 25.94,0 46.99,-8.008 63.16,-24.02 16.18,-16.019 24.26,-37.07 24.26,-63.16 l 0,-13.129" /><path
         id="path104"
         style="fill:#ffffff;fill-opacity:1;fill-rule:nonzero;stroke:none"
         d="m 4595.49,337.809 -108.52,0 0,17.812 36.1,0 0,140.629 c 0,12.648 -3.05,22.691 -9.14,30.109 -6.1,7.422 -14.46,11.141 -25.08,11.141 -7.19,0 -13.75,-1.449 -19.69,-4.34 -5.94,-2.89 -12.85,-8.199 -20.74,-15.941 -7.89,-7.731 -19.18,-20.039 -33.87,-36.91 l 0,-124.688 36.33,0 0,-17.812 -108.75,0 0,17.812 36.33,0 0,172.731 -41.72,0 0,12.898 69.14,18.75 8.67,0 0,-53.68 c 17.97,20.782 33.2,35.078 45.7,42.891 12.5,7.82 26.41,11.719 41.72,11.719 11.57,0 21.68,-2.418 30.35,-7.258 8.68,-4.852 15.36,-11.762 20.04,-20.75 4.69,-8.981 7.03,-19.641 7.03,-31.992 l 0,-145.309 36.1,0 0,-17.812" /><path
         id="path106"
         style="fill:#ffffff;fill-opacity:1;fill-rule:nonzero;stroke:none"
         d="m 4816.78,354.68 c -9.85,-5.93 -18.64,-10.66 -26.37,-14.18 -7.73,-3.512 -15.12,-5.898 -22.15,-7.148 -7.03,-1.25 -15.78,-1.872 -26.25,-1.872 -22.34,0 -41.8,4.532 -58.36,13.59 -16.56,9.071 -29.29,22 -38.2,38.789 -8.91,16.801 -13.36,36.289 -13.36,58.481 0,17.191 2.85,33.082 8.55,47.691 5.71,14.61 13.83,27.27 24.38,37.969 10.55,10.711 22.97,18.871 37.27,24.5 14.29,5.621 29.88,8.43 46.75,8.43 12.5,0 23.17,-1.481 32,-4.45 8.82,-2.968 19.49,-8.832 31.99,-17.582 l -26.02,-28.828 c -8.12,8.442 -14.57,14.532 -19.33,18.282 -4.77,3.75 -11.92,8.519 -21.45,14.296 -9.06,-0.777 -16.44,-1.91 -22.15,-3.398 -5.7,-1.48 -10.78,-3.941 -15.23,-7.379 -4.46,-3.441 -9.42,-8.441 -14.89,-15 -14.68,-17.973 -22.03,-39.062 -22.03,-63.281 0,-17.66 3.68,-34.02 11.02,-49.102 7.34,-15.078 17.3,-26.988 29.88,-35.738 12.58,-8.75 26.13,-13.129 40.67,-13.129 7.65,0 15.43,1.289 23.32,3.867 7.89,2.582 18,7.071 30.35,13.473 l 9.61,-18.281" /><path
         id="path108"
         style="fill:#ffffff;fill-opacity:1;fill-rule:nonzero;stroke:none"
         d="m 5001.74,479.84 0,11.48 c 0,14.379 -4.45,26.211 -13.36,35.508 -8.91,9.301 -20.31,13.953 -34.22,13.953 -11.72,0 -22.11,-2.461 -31.17,-7.39 -9.06,-4.922 -16.41,-11.911 -22.03,-20.969 -5.63,-9.07 -9.14,-19.922 -10.55,-32.582 l 111.33,0 z m 39.37,-19.219 -151.17,0 0,-5.16 c 0,-19.531 3.24,-37.07 9.73,-52.609 6.48,-15.551 15.66,-27.622 27.54,-36.211 11.87,-8.602 25.15,-12.891 39.84,-12.891 9.53,0 18.59,1.641 27.19,4.922 8.59,3.277 19.22,8.976 31.87,17.109 l 9.14,-17.82 c -12.03,-6.871 -22.22,-12.18 -30.58,-15.93 -8.36,-3.75 -16.45,-6.449 -24.26,-8.09 -7.81,-1.64 -16.41,-2.461 -25.78,-2.461 -20,0 -37.89,4.801 -53.67,14.411 -15.78,9.609 -28.13,23.007 -37.03,40.199 -8.91,17.191 -13.36,36.801 -13.36,58.832 0,16.25 2.57,31.598 7.73,46.047 5.16,14.453 12.34,26.883 21.56,37.269 9.22,10.391 20.16,18.434 32.82,24.141 12.65,5.699 26.32,8.551 41.01,8.551 25.94,0 46.99,-8.008 63.17,-24.02 16.17,-16.019 24.25,-37.07 24.25,-63.16 l 0,-13.129" /></g></g></svg>