<?xml version="1.0" encoding="utf-8"?>
<!-- Generator: Adobe Illustrator 16.0.4, SVG Export Plug-In . SVG Version: 6.00 Build 0)  -->
<!DOCTYPE svg PUBLIC "-//W3C//DTD SVG 1.1//EN" "http://www.w3.org/Graphics/SVG/1.1/DTD/svg11.dtd">
<svg version="1.1" id="Layer_1" xmlns="http://www.w3.org/2000/svg" xmlns:xlink="http://www.w3.org/1999/xlink" x="0px" y="0px"
	 width="259.5px" height="57px" viewBox="0 0 259.5 57" style="enable-background:new 0 0 259.5 57;" xml:space="preserve">
<style type="text/css">
<![CDATA[
	.st0{fill:#FFFFFF;}
	.st1{fill:#9E1C35;}
]]>
</style>
<g>
	<polygon class="st1" points="49.3,56.8 49.3,0.1 0,0.1 0,56.8 49.3,56.8 	"/>
	<polygon class="st0" points="41.9,4.1 7.4,4.1 3.8,4.1 3.8,7.4 3.8,21 7.4,21 7.4,7.4 41.9,7.4 41.9,20.8 45.4,20.8 45.4,7.4 
		45.4,4.1 41.9,4.1 	"/>
	<polygon class="st0" points="13.1,41.8 13.1,45.2 19.1,45.2 22.6,45.2 22.6,41.8 22.6,15.2 22.6,11.7 19.1,11.7 14.9,11.7 
		11.4,11.7 11.4,15.2 11.4,20.9 14.9,20.9 14.9,15.2 19.1,15.2 19.1,41.8 13.1,41.8 	"/>
	<polygon class="st0" points="30.3,11.6 26.8,11.6 26.8,15.1 26.8,41.8 26.8,45.2 30.3,45.2 36.3,45.2 36.3,41.8 30.3,41.8 
		30.3,15.1 34.4,15.1 34.4,20.9 37.9,20.9 37.9,15.1 37.9,11.6 34.4,11.6 30.3,11.6 	"/>
	<polygon class="st0" points="13.1,52.6 36.3,52.6 36.3,49.2 13.1,49.2 13.1,52.6 	"/>
	<path d="M90,10.1C89.7,6.8,89.5,2.3,89.5,0h-1.2c-0.9,1-1.6,1.3-3,1.3H63.8c-1.5,0-2.2-0.1-3-1.3h-1.2c-0.1,2.8-0.4,6.6-0.6,10.3
		h1.8c0.6-2.6,1.2-4.3,2-5.2c0.8-1,1.8-1.6,6.2-1.6h2.4v25.9c0,4.5-0.5,4.8-5.2,5.2v1.7H83v-1.7c-4.9-0.4-5.4-0.8-5.4-5.2V3.5h2.9
		c3.5,0,4.7,0.4,5.6,1.5c0.9,0.9,1.5,2.6,2.1,5.3L90,10.1L90,10.1z M119.8,27.2c-0.9,2.3-1.9,4-2.9,5.2c-1.2,1.4-3,1.8-6.2,1.8
		c-2.3,0-4.1-0.1-5.2-0.6c-1-0.5-1.3-1.8-1.3-4.4v-9.6h4.2c4.6,0,5.2,0.3,5.9,4.1h1.8V13h-1.8c-0.7,3.8-1.2,4.1-6,4.1h-4.1V5.3
		c0-1.7,0.2-1.8,2-1.8h3.2c3.3,0,4.8,0.4,5.6,1.5c0.9,1,1.5,2.6,2,4.6l1.8-0.3c-0.2-3.2-0.5-6.9-0.5-8H93.5v1.7
		c4,0.3,4.5,0.6,4.5,5.3v20.9c0,4.5-0.5,4.9-5.2,5.3v1.7h26.9c0.5-1.6,1.6-6.6,1.9-8.8L119.8,27.2L119.8,27.2z M168.6,36.3v-1.7
		c-4.4-0.4-4.6-0.8-4.7-6l-0.5-19.9c-0.1-4.8,0.1-5.2,4.6-5.6V1.3h-10.2l-11.2,24.7l-11-24.7h-10.3v1.7c4.7,0.4,5.1,1,4.6,7.5
		L129,21.3c-0.4,5.6-0.8,8.3-1.1,10.1c-0.4,2-1.4,2.8-4.5,3.1v1.8h12.8v-1.8c-3.6-0.3-4.7-0.8-4.9-3.2c-0.2-1.9-0.2-4.3,0.1-8.8
		L132.1,8h0.2l11.3,27.9h1.3l12.3-28.5h0.3l0.1,21.1c0.1,5.2-0.2,5.6-4.4,6v1.7H168.6L168.6,36.3z M172.4,1.3v1.7
		c3.8,0.4,4.3,0.6,4.3,5.3v21c0,4.5-0.5,4.9-4.6,5.3v1.7h16v-1.7c-4.7-0.4-5.2-0.7-5.2-5.3v-7.8l3.8,1c0.6,0,1.5,0,2.3-0.1
		c5.5-0.6,10.9-4,10.9-11.1c0-3.5-1.5-6.1-3.8-7.8c-2.2-1.5-5.2-2.1-9.3-2.1H172.4L172.4,1.3z M182.9,5.9c0-1.1,0.2-1.7,0.5-2
		c0.3-0.3,1.1-0.6,2.4-0.6c3.7,0,7.2,2.1,7.2,8.2c0,7.1-4.3,8.7-6.8,8.7c-1.4,0-2.6-0.3-3.3-0.6V5.9L182.9,5.9z M227.4,26.9
		c-0.9,2.6-1.9,4.4-2.9,5.4c-1.2,1.5-3.1,1.8-5.7,1.8c-1.9,0-3.4-0.1-4.4-0.5c-1.1-0.5-1.3-1.5-1.3-4.1V8.3c0-4.6,0.5-4.9,4.6-5.3
		V1.3h-15.5v1.7c4.2,0.4,4.7,0.7,4.7,5.3v21c0,4.6-0.5,4.9-5.1,5.3v1.7h25.5c0.5-1.5,1.6-6.8,2-8.9L227.4,26.9L227.4,26.9z
		 M257.7,27.2c-0.9,2.3-1.9,4-2.9,5.2c-1.2,1.4-3,1.8-6.2,1.8c-2.3,0-4.1-0.1-5.2-0.6c-1-0.5-1.3-1.8-1.3-4.4v-9.6h4.2
		c4.6,0,5.2,0.3,5.9,4.1h1.8V13h-1.8c-0.7,3.8-1.2,4.1-6,4.1h-4.1V5.3c0-1.7,0.2-1.8,2-1.8h3.2c3.3,0,4.8,0.4,5.6,1.5
		c0.9,1,1.5,2.6,2,4.6l1.8-0.3c-0.2-3.2-0.5-6.9-0.5-8h-24.8v1.7c4,0.3,4.5,0.6,4.5,5.3v20.9c0,4.5-0.5,4.9-5.2,5.3v1.7h26.9
		c0.5-1.6,1.6-6.6,1.9-8.8L257.7,27.2L257.7,27.2z"/>
	<path d="M72.5,57c3.4,0,5.7-2,5.7-5.9v-7.5h-2.3v7.6c0,2.4-1.3,3.6-3.3,3.6c-2.1,0-3.3-1.3-3.3-3.7v-7.5h-2.3v7.6
		C66.9,55,69.1,57,72.5,57L72.5,57z"/>
	<polygon points="89.6,56.8 91.9,56.8 91.9,47.4 99.1,56.8 101.1,56.8 101.1,43.6 98.8,43.6 98.8,52.7 91.7,43.6 89.6,43.6 
		89.6,56.8 	"/>
	<polygon points="112.8,56.8 115.1,56.8 115.1,43.6 112.8,43.6 112.8,56.8 	"/>
	<polygon points="130.7,56.8 132.8,56.8 138.2,43.6 135.7,43.6 131.8,53.7 127.8,43.6 125.2,43.6 130.7,56.8 	"/>
	<polygon points="148.3,56.8 158.1,56.8 158.1,54.7 150.6,54.7 150.6,51.2 157.2,51.2 157.2,49.1 150.6,49.1 150.6,45.7 158,45.7 
		158,43.6 148.3,43.6 148.3,56.8 	"/>
	<path d="M169.5,56.8h2.3v-4.6h2.9l3.2,4.6h2.7l-3.6-5c1.8-0.5,3.1-1.8,3.1-4v0c0-1.1-0.4-2.1-1.1-2.8c-0.8-0.8-2.1-1.3-3.8-1.3
		h-5.9V56.8L169.5,56.8z M171.8,50.1v-4.4h3.4c1.7,0,2.7,0.8,2.7,2.2v0c0,1.3-1.1,2.2-2.7,2.2H171.8L171.8,50.1z"/>
	<path d="M196,56.9c2.8,0,4.7-1.5,4.7-3.9v0c0-2.2-1.4-3.2-4.2-3.8c-2.5-0.6-3.1-1.1-3.1-2.1v0c0-0.9,0.8-1.6,2.1-1.6
		c1.2,0,2.4,0.5,3.6,1.4l1.2-1.7c-1.3-1.1-2.9-1.7-4.8-1.7c-2.6,0-4.5,1.6-4.5,3.8v0c0,2.4,1.6,3.2,4.4,3.9c2.4,0.6,3,1.1,3,2v0
		c0,1-0.9,1.7-2.3,1.7c-1.6,0-2.9-0.6-4.1-1.7l-1.4,1.7C192,56.2,193.9,56.9,196,56.9L196,56.9z"/>
	<polygon points="212.3,56.8 214.6,56.8 214.6,43.6 212.3,43.6 212.3,56.8 	"/>
	<polygon points="229.6,56.8 231.9,56.8 231.9,45.7 236.1,45.7 236.1,43.6 225.4,43.6 225.4,45.7 229.6,45.7 229.6,56.8 	"/>
	<polygon points="249.7,56.8 252,56.8 252,51.5 257.2,43.6 254.6,43.6 250.9,49.4 247.2,43.6 244.4,43.6 249.7,51.6 249.7,56.8 	"/>
</g>
</svg>
