<?xml version="1.0" encoding="utf-8"?>
<!-- Generator: Adobe Illustrator 15.1.0, SVG Export Plug-In . SVG Version: 6.00 Build 0)  -->
<!DOCTYPE svg PUBLIC "-//W3C//DTD SVG 1.1//EN" "http://www.w3.org/Graphics/SVG/1.1/DTD/svg11.dtd">
<svg version="1.1" id="Layer_1" xmlns="http://www.w3.org/2000/svg" xmlns:xlink="http://www.w3.org/1999/xlink" x="0px" y="0px"
	 width="216px" height="263.5px" viewBox="0 0 216 263.5" enable-background="new 0 0 216 263.5" xml:space="preserve">
<g>
	<path fill="#153B63" d="M17.174,194.909v-1.879l4.302-0.293c0.584-0.042,0.668-0.209,0.668-0.835v-24.891h-7.309
		c-0.459,0-0.584,0.041-0.668,0.459l-0.668,3.634h-2.088v-6.432h24.307v6.432h-2.088l-0.668-3.634
		c-0.083-0.418-0.209-0.459-0.668-0.459h-7.35v24.891c0,0.585,0.042,0.752,0.668,0.793l4.594,0.335v1.879H17.174z"/>
	<path fill="#153B63" d="M36.465,194.909v-1.879l2.171-0.251c0.585-0.084,0.668-0.209,0.668-0.835v-14.951
		c0-0.46-0.125-0.752-0.543-0.878l-2.422-0.793l0.334-1.754h4.761l0.376,2.673c1.378-1.295,3.55-3.091,6.473-3.091
		c0.96,0,2.004,0.167,2.756,0.376v5.805l-2.13-0.125l-0.543-3.174c-0.042-0.292-0.083-0.376-0.501-0.376
		c-2.214,0-4.678,2.005-5.764,3.091v13.197c0,0.668,0.042,0.751,0.668,0.835l3.759,0.292v1.838H36.465z"/>
	<path fill="#153B63" d="M53.042,194.909v-1.879l3.007-0.251c0.585-0.084,0.668-0.209,0.668-0.835v-14.951
		c0-0.46-0.125-0.752-0.543-0.878l-2.422-0.793l0.334-1.754h5.429v18.376c0,0.668,0.042,0.751,0.668,0.835l2.923,0.292v1.838H53.042
		z M57.552,168.39c-1.42,0-2.255-0.794-2.255-2.214s0.835-2.213,2.255-2.213s2.255,0.793,2.255,2.213S58.972,168.39,57.552,168.39z"
		/>
	<path fill="#153B63" d="M90.209,193.238c-2.171,1.504-6.014,2.172-9.856,2.172c-10.107,0-14.116-6.599-14.116-15.87
		c0-8.812,4.886-15.41,14.784-15.41c3.759,0,7.1,0.877,9.104,2.213v6.098l-2.13-0.125l-0.71-3.926
		c-0.042-0.334-0.083-0.585-0.543-0.752c-1.587-0.585-3.717-1.044-5.93-1.044c-7.058,0-11.652,4.636-11.652,12.988
		c0,8.729,4.344,13.364,11.36,13.364c2.13,0,4.761-0.209,6.515-1.002c0.292-0.126,0.459-0.293,0.543-0.71l0.668-3.718h1.963V193.238
		z"/>
	<path fill="#153B63" d="M93.963,184.176c0-6.515,3.257-11.025,10.19-11.025c6.891,0,9.564,4.511,9.564,10.733
		c0,6.975-3.091,11.526-9.982,11.526C96.803,195.41,93.963,190.732,93.963,184.176z M110.836,184.176
		c0-5.722-2.172-8.562-6.766-8.562c-4.636,0-7.225,2.882-7.225,8.604s2.38,8.896,7.016,8.896
		C108.455,193.113,110.836,190.064,110.836,184.176z"/>
	<path fill="#153B63" d="M116.971,194.909v-1.879l2.799-0.251c0.584-0.042,0.668-0.209,0.668-0.835v-25.142
		c0-0.46-0.125-0.752-0.543-0.877l-2.548-0.794l0.334-1.754h5.555v28.566c0,0.668,0.042,0.751,0.668,0.835l2.715,0.292v1.838
		H116.971z"/>
	<path fill="#153B63" d="M129.038,194.909v-1.879l2.799-0.251c0.584-0.042,0.668-0.209,0.668-0.835v-25.142
		c0-0.46-0.125-0.752-0.543-0.877l-2.548-0.794l0.334-1.754h5.555v28.566c0,0.668,0.042,0.751,0.668,0.835l2.715,0.292v1.838
		H129.038z"/>
	<path fill="#153B63" d="M158.104,193.656c-1.88,1.086-4.261,1.754-7.184,1.754c-7.393,0-9.731-4.97-9.731-11.276
		c0-7.476,4.093-10.983,9.188-10.983c4.928,0,8.395,2.715,8.395,9.856c0,0.585-0.042,1.169-0.084,1.796h-14.575
		c0.125,4.761,1.963,8.06,7.017,8.06c2.589,0,3.926-0.459,5.93-1.545L158.104,193.656z M155.891,182.547
		c-0.084-5.179-2.548-6.933-5.471-6.933c-3.175,0-5.848,1.754-6.223,6.933H155.891z"/>
	<path fill="#153B63" d="M178.523,176.157c0.918,1.17,1.545,2.423,1.545,4.427c0,5.054-3.717,7.811-8.604,7.811
		c-1.462,0-2.715-0.209-3.633-0.585l-1.963,3.926l7.392,0.543c6.014,0.417,8.687,1.086,8.687,5.513
		c0,3.968-3.341,6.515-10.607,6.515c-7.059,0-9.438-1.963-9.438-5.137c0-2.13,1.127-3.55,2.84-5.179
		c-1.337-0.292-1.963-0.793-1.963-1.879c0-0.669,0.334-1.295,0.835-2.047l2.047-3.216c-1.713-1.044-2.924-3.09-2.924-5.847
		c0-4.719,3.425-7.852,8.812-7.852c1.42,0,2.714,0.167,3.592,0.418h7.267v2.297L178.523,176.157z M167.456,194.45
		c-1.128,1.002-2.59,2.506-2.59,4.218c0,2.464,2.757,3.091,7.309,3.091c0.835,0,1.587-0.084,2.297-0.168
		c2.799-0.417,4.469-1.628,4.469-3.758c0-2.047-1.67-2.799-4.636-2.966L167.456,194.45z M171.59,175.447
		c-3.55,0-6.014,1.754-6.014,5.388c0,2.84,1.587,5.179,5.889,5.179c3.592,0,5.847-2.172,5.847-5.263
		C177.312,177.368,175.266,175.447,171.59,175.447z"/>
	<path fill="#153B63" d="M201.531,193.656c-1.88,1.086-4.261,1.754-7.184,1.754c-7.393,0-9.731-4.97-9.731-11.276
		c0-7.476,4.093-10.983,9.188-10.983c4.928,0,8.395,2.715,8.395,9.856c0,0.585-0.042,1.169-0.084,1.796H187.54
		c0.125,4.761,1.963,8.06,7.017,8.06c2.589,0,3.926-0.459,5.93-1.545L201.531,193.656z M199.317,182.547
		c-0.084-5.179-2.548-6.933-5.471-6.933c-3.175,0-5.848,1.754-6.223,6.933H199.317z"/>
	<path fill="#153B63" d="M20.869,242.513v-2.673l2.631-0.292c0.585-0.084,0.668-0.209,0.668-0.836v-22.594
		c0-0.626-0.083-0.793-0.668-0.835l-2.631-0.293v-2.714h12.32v2.714l-3.466,0.335c-0.626,0.041-0.668,0.208-0.668,0.793v22.845
		h9.355c0.459,0,0.584-0.042,0.668-0.46l0.668-3.967h3.508v7.977H20.869z"/>
	<path fill="#153B63" d="M45.588,242.513v-2.631l2.506-0.334c0.585-0.084,0.668-0.209,0.668-0.836v-13.447
		c0-0.46-0.125-0.752-0.543-0.877l-2.297-0.794l0.418-2.673h7.225v17.791c0,0.669,0.042,0.752,0.668,0.836l2.464,0.292v2.673H45.588
		z M50.641,216.828c-2.004,0-3.132-1.128-3.132-3.132c0-1.963,1.127-3.049,3.132-3.049c1.963,0,3.132,1.086,3.132,3.049
		C53.773,215.7,52.604,216.828,50.641,216.828z"/>
	<path fill="#153B63" d="M60.495,242.513c0.292-1.671,0.543-4.01,0.543-6.014v-21.174c0-0.46-0.125-0.752-0.543-0.877l-2.38-0.794
		l0.417-2.673h7.267v11.777c1.921-1.211,4.051-2.255,6.891-2.255c4.594,0,7.977,2.965,7.977,10.523
		c0,8.604-3.591,11.986-8.896,11.986c-2.506,0-4.636-0.877-6.223-2.464h-0.167l-0.25,1.963H60.495z M65.841,236.749
		c1.169,1.086,2.881,2.381,5.179,2.381c3.257,0,4.677-2.924,4.677-7.81c0-4.511-1.629-6.892-4.385-6.892
		c-2.171,0-4.218,1.17-5.471,2.047V236.749z"/>
	<path fill="#153B63" d="M83.962,242.513v-2.715l2.004-0.25c0.585-0.084,0.668-0.209,0.668-0.836v-13.447
		c0-0.46-0.125-0.71-0.543-0.877l-2.297-0.794l0.418-2.673h6.223l0.459,3.049l0.125,0.042c1.378-1.796,3.341-3.508,6.139-3.508
		c0.961,0,2.506,0.167,3.258,0.375v6.85l-3.759-0.167l-0.501-2.59c-0.042-0.375-0.125-0.459-0.501-0.459
		c-1.587,0-3.383,1.378-4.218,2.172v11.986c0,0.668,0.083,0.793,0.71,0.835l3.926,0.334v2.673H83.962z"/>
	<path fill="#153B63" d="M115.783,242.513l-0.418-2.464l-0.125-0.042c-1.838,1.754-4.093,3.007-7.351,3.007
		c-5.262,0-5.972-3.592-5.972-5.931c0-4.176,2.589-6.181,7.685-6.598l5.304-0.418v-2.13c0-2.631-0.459-4.051-3.676-4.051
		c-2.297,0-3.842,0.167-3.842,3.048l-4.51-0.417c0-5.346,4.886-6.014,8.437-6.014c6.056,0,8.312,1.712,8.312,7.476v10.732
		c0,0.669,0.041,0.752,0.668,0.836l2.046,0.292v2.673H115.783z M114.906,233.116l-3.968,0.334c-3.132,0.292-4.093,1.169-4.093,3.174
		s0.961,2.673,2.673,2.673c2.047,0,4.135-1.253,5.388-2.506V233.116z"/>
	<path fill="#153B63" d="M124.509,242.513v-2.715l2.005-0.25c0.584-0.084,0.668-0.209,0.668-0.836v-13.447
		c0-0.46-0.125-0.71-0.543-0.877l-2.297-0.794l0.417-2.673h6.223l0.46,3.049l0.125,0.042c1.378-1.796,3.341-3.508,6.14-3.508
		c0.96,0,2.506,0.167,3.257,0.375v6.85l-3.758-0.167l-0.502-2.59c-0.041-0.375-0.125-0.459-0.501-0.459
		c-1.587,0-3.383,1.378-4.218,2.172v11.986c0,0.668,0.083,0.793,0.71,0.835l3.926,0.334v2.673H124.509z"/>
	<path fill="#153B63" d="M142.756,242.513v-2.631l2.506-0.334c0.584-0.084,0.668-0.209,0.668-0.836v-13.447
		c0-0.46-0.125-0.752-0.543-0.877l-2.297-0.794l0.417-2.673h7.226v17.791c0,0.669,0.042,0.752,0.668,0.836l2.464,0.292v2.673
		H142.756z M147.809,216.828c-2.004,0-3.132-1.128-3.132-3.132c0-1.963,1.128-3.049,3.132-3.049c1.963,0,3.133,1.086,3.133,3.049
		C150.941,215.7,149.771,216.828,147.809,216.828z"/>
	<path fill="#153B63" d="M173.909,241.051c-2.297,1.17-4.97,1.963-8.019,1.963c-7.768,0-10.315-4.97-10.315-11.401
		c0-7.559,4.385-11.108,9.855-11.108c5.263,0,8.854,2.798,8.854,10.064c0,0.543-0.042,1.629-0.125,2.422h-13.49
		c0.209,3.885,1.713,6.182,5.764,6.182c2.046,0,3.633-0.418,6.139-1.462L173.909,241.051z M169.482,229.524
		c0-4.093-1.88-5.388-4.135-5.388c-2.381,0-4.427,1.587-4.636,5.388H169.482z"/>
	<path fill="#153B63" d="M189.817,227.144l-0.459-2.422c-0.042-0.293-0.125-0.46-0.46-0.585c-0.542-0.167-1.712-0.418-3.007-0.418
		c-2.673,0-3.967,0.961-3.967,2.632c0,2.213,2.338,2.714,4.97,3.341c3.299,0.794,7.016,1.796,7.016,6.557
		c0,4.929-4.093,6.766-8.854,6.766c-3.592,0-7.1-0.96-7.852-1.462v-5.68l3.467,0.209l0.417,2.548
		c0.084,0.334,0.126,0.459,0.501,0.585c0.543,0.167,1.88,0.584,3.759,0.584c2.59,0,4.177-0.752,4.177-2.882
		c0-2.338-2.673-2.714-5.471-3.341c-3.175-0.71-6.516-1.712-6.516-6.139c0-5.054,4.219-6.933,8.729-6.933
		c3.091,0,6.014,0.793,7.017,1.211v5.638L189.817,227.144z"/>
</g>
<polygon fill="#1D75BC" points="89.813,134.591 68.837,134.591 68.837,129.176 84.398,129.176 84.398,46.776 64.21,46.776 
	64.21,63.636 72.11,63.636 72.11,55.078 77.525,55.078 77.525,69.052 58.795,69.052 58.795,41.36 89.813,41.36 "/>
<rect x="95.917" y="28.453" fill="#1D75BC" width="5.416" height="106.132"/>
<rect x="106.624" y="17.993" fill="#1D75BC" width="5.416" height="116.592"/>
<rect x="117.331" y="28.453" fill="#1D75BC" width="5.416" height="106.132"/>
<polygon fill="#1D75BC" points="150.076,134.591 129.104,134.591 129.104,41.36 160.124,41.36 160.124,69.052 141.395,69.052 
	141.395,55.078 146.81,55.078 146.81,63.636 154.71,63.636 154.71,46.776 134.519,46.776 134.519,129.176 150.076,129.176 "/>
</svg>
