<?xml version="1.0" encoding="utf-8"?>
<!-- Generator: Adobe Illustrator 15.1.0, SVG Export Plug-In . SVG Version: 6.00 Build 0)  -->
<!DOCTYPE svg PUBLIC "-//W3C//DTD SVG 1.1//EN" "http://www.w3.org/Graphics/SVG/1.1/DTD/svg11.dtd">
<svg version="1.1" id="Layer_1" xmlns="http://www.w3.org/2000/svg" xmlns:xlink="http://www.w3.org/1999/xlink" x="0px" y="0px"
	 width="489px" height="124px" viewBox="0 0 489 124" enable-background="new 0 0 489 124" xml:space="preserve">
<g>
	<defs>
		<path id="SVGID_1_" d="M135.627,78.494h0.78c0.66,1.979,1.84,2.999,3.42,2.999c1.32,0,2.32-0.84,2.32-1.96
			c0-2.979-6.42-2.88-6.42-6.84c0-1.92,1.68-3.26,4.06-3.26c1.54,0,2.74,0.521,3.04,0.521c0.14,0,0.26-0.04,0.44-0.221h0.42
			l0.38,3.24h-0.8c-0.22-0.82-0.64-1.479-1.22-1.939c-0.56-0.48-1.26-0.74-2.04-0.74c-1.12,0-1.96,0.6-1.96,1.38
			c0,1.84,3.32,2.18,5.56,4.42c0.82,0.819,1.14,1.68,1.14,2.64c0,2.08-1.88,3.72-4.26,3.72c-1.6,0-3.06-0.64-3.42-0.64
			c-0.18,0-0.32,0.1-0.42,0.319h-0.52L135.627,78.494"/>
	</defs>
	<clipPath id="SVGID_2_">
		<use xlink:href="#SVGID_1_"  overflow="visible"/>
	</clipPath>
	<g clip-path="url(#SVGID_2_)">
		<defs>
			<rect id="SVGID_3_" width="489" height="124"/>
		</defs>
		<clipPath id="SVGID_4_">
			<use xlink:href="#SVGID_3_"  overflow="visible"/>
		</clipPath>
		<rect x="130.627" y="64.434" clip-path="url(#SVGID_4_)" fill="#63A1D9" width="19.12" height="23.02"/>
	</g>
</g>
<g>
	<defs>
		<path id="SVGID_5_" d="M162.567,78.594c-0.16,1.06-0.64,2.6-1.12,3.64c-0.32-0.101-0.72-0.14-1.18-0.14
			c-0.94,0-1.94,0.359-3.44,0.359c-4.1,0-7.28-2.84-7.28-6.459c0-3.681,3.38-6.561,7.66-6.561c2.08,0,3.44,0.82,3.84,0.82
			c0.16,0,0.28-0.061,0.4-0.2h0.5l0.18,3.5h-0.78c-0.64-1.979-2.06-3.1-3.98-3.1c-2.86,0-4.84,2.159-4.84,5.319
			c0,3.22,2.2,5.7,5.06,5.7c1.84,0,3.36-1.061,4.18-2.88H162.567"/>
	</defs>
	<clipPath id="SVGID_6_">
		<use xlink:href="#SVGID_5_"  overflow="visible"/>
	</clipPath>
	<g clip-path="url(#SVGID_6_)">
		<defs>
			<rect id="SVGID_7_" width="489" height="124"/>
		</defs>
		<clipPath id="SVGID_8_">
			<use xlink:href="#SVGID_7_"  overflow="visible"/>
		</clipPath>
		<rect x="144.547" y="64.434" clip-path="url(#SVGID_8_)" fill="#63A1D9" width="23.02" height="23.02"/>
	</g>
</g>
<g>
	<defs>
		<path id="SVGID_9_" d="M176.246,81.394c1.062,0,1.501-0.46,1.501-1.54v-3.561h-6.6v3.601c0,1.06,0.42,1.5,1.54,1.5h0.3v0.78h-6.42
			v-0.78h0.34c1.02,0,1.48-0.46,1.48-1.46v-7.96c0-1-0.44-1.46-1.5-1.46h-0.32v-0.78h6.42v0.78h-0.28c-1.04,0-1.56,0.34-1.56,1.46
			v3.14h6.6v-3.079c0-1.12-0.44-1.521-1.6-1.521h-0.18v-0.78h6.399v0.78h-0.36c-1.02,0-1.499,0.38-1.499,1.46v7.92
			c0,1.04,0.379,1.5,1.54,1.5h0.319v0.78h-6.399v-0.78H176.246"/>
	</defs>
	<clipPath id="SVGID_10_">
		<use xlink:href="#SVGID_9_"  overflow="visible"/>
	</clipPath>
	<g clip-path="url(#SVGID_10_)">
		<defs>
			<rect id="SVGID_11_" width="489" height="124"/>
		</defs>
		<clipPath id="SVGID_12_">
			<use xlink:href="#SVGID_11_"  overflow="visible"/>
		</clipPath>
		<rect x="161.567" y="64.733" clip-path="url(#SVGID_12_)" fill="#63A1D9" width="25.799" height="22.44"/>
	</g>
</g>
<g>
	<defs>
		<path id="SVGID_13_" d="M194.368,81.594c2.78,0,4.08-2.4,4.08-5.16c0-3.22-1.601-6.22-4.64-6.22c-2.54,0-4.201,1.96-4.201,4.979
			C189.606,79.014,191.547,81.594,194.368,81.594z M194.288,69.354c4.179,0,7.14,2.62,7.14,6.36c0,3.56-2.74,6.739-7.521,6.739
			c-4.599,0-7.279-2.939-7.279-6.3C186.627,72.193,189.828,69.354,194.288,69.354z"/>
	</defs>
	<clipPath id="SVGID_14_">
		<use xlink:href="#SVGID_13_"  overflow="visible"/>
	</clipPath>
	<g clip-path="url(#SVGID_14_)">
		<defs>
			<rect id="SVGID_15_" width="489" height="124"/>
		</defs>
		<clipPath id="SVGID_16_">
			<use xlink:href="#SVGID_15_"  overflow="visible"/>
		</clipPath>
		<rect x="181.627" y="64.354" clip-path="url(#SVGID_16_)" fill="#63A1D9" width="24.8" height="23.1"/>
	</g>
</g>
<g>
	<defs>
		<path id="SVGID_17_" d="M214.047,81.594c2.779,0,4.079-2.4,4.079-5.16c0-3.22-1.599-6.22-4.64-6.22
			c-2.539,0-4.199,1.96-4.199,4.979C209.288,79.014,211.226,81.594,214.047,81.594z M213.966,69.354c4.18,0,7.14,2.62,7.14,6.36
			c0,3.56-2.74,6.739-7.519,6.739c-4.601,0-7.281-2.939-7.281-6.3C206.306,72.193,209.506,69.354,213.966,69.354z"/>
	</defs>
	<clipPath id="SVGID_18_">
		<use xlink:href="#SVGID_17_"  overflow="visible"/>
	</clipPath>
	<g clip-path="url(#SVGID_18_)">
		<defs>
			<rect id="SVGID_19_" width="489" height="124"/>
		</defs>
		<clipPath id="SVGID_20_">
			<use xlink:href="#SVGID_19_"  overflow="visible"/>
		</clipPath>
		<rect x="201.306" y="64.354" clip-path="url(#SVGID_20_)" fill="#63A1D9" width="24.8" height="23.1"/>
	</g>
</g>
<g>
	<defs>
		<path id="SVGID_21_" d="M235.926,82.174h-10.72v-0.78h0.34c1.28,0,1.661-0.46,1.661-1.44v-7.999c0-1.181-0.68-1.44-1.582-1.44
			h-0.378v-0.78h6.779v0.78h-0.579c-1.04,0-1.48,0.46-1.48,1.4v8.239c0,0.74,0.219,0.92,0.999,0.92h2.541
			c1.339,0,1.739-0.66,3.079-2.38h0.801L235.926,82.174"/>
	</defs>
	<clipPath id="SVGID_22_">
		<use xlink:href="#SVGID_21_"  overflow="visible"/>
	</clipPath>
	<g clip-path="url(#SVGID_22_)">
		<defs>
			<rect id="SVGID_23_" width="489" height="124"/>
		</defs>
		<clipPath id="SVGID_24_">
			<use xlink:href="#SVGID_23_"  overflow="visible"/>
		</clipPath>
		<rect x="220.206" y="64.733" clip-path="url(#SVGID_24_)" fill="#63A1D9" width="22.182" height="22.44"/>
	</g>
</g>
<g>
	<defs>
		<path id="SVGID_25_" d="M258.067,81.594c2.779,0,4.079-2.4,4.079-5.16c0-3.22-1.601-6.22-4.641-6.22
			c-2.54,0-4.199,1.96-4.199,4.979C253.307,79.014,255.247,81.594,258.067,81.594z M257.986,69.354c4.18,0,7.14,2.62,7.14,6.36
			c0,3.56-2.739,6.739-7.521,6.739c-4.6,0-7.279-2.939-7.279-6.3C250.326,72.193,253.526,69.354,257.986,69.354z"/>
	</defs>
	<clipPath id="SVGID_26_">
		<use xlink:href="#SVGID_25_"  overflow="visible"/>
	</clipPath>
	<g clip-path="url(#SVGID_26_)">
		<defs>
			<rect id="SVGID_27_" width="489" height="124"/>
		</defs>
		<clipPath id="SVGID_28_">
			<use xlink:href="#SVGID_27_"  overflow="visible"/>
		</clipPath>
		<rect x="245.326" y="64.354" clip-path="url(#SVGID_28_)" fill="#63A1D9" width="24.8" height="23.1"/>
	</g>
</g>
<g>
	<defs>
		<path id="SVGID_29_" d="M273.986,75.333h2.78c1.401,0,1.739-0.319,1.739-1.46h0.801v3.98h-0.801c0-0.96-0.319-1.42-1.378-1.42
			h-3.142v3.22c0,1.44,0.26,1.74,1.34,1.74h0.38v0.78h-5.979v-0.78h0.32c0.858,0,1.179-0.28,1.179-1.141v-8.1
			c0-1.279-0.359-1.659-1.24-1.659h-0.259v-0.761h10.099v2.82h-0.719c-0.081-1.32-0.362-1.72-1.262-1.72h-3.859V75.333"/>
	</defs>
	<clipPath id="SVGID_30_">
		<use xlink:href="#SVGID_29_"  overflow="visible"/>
	</clipPath>
	<g clip-path="url(#SVGID_30_)">
		<defs>
			<rect id="SVGID_31_" width="489" height="124"/>
		</defs>
		<clipPath id="SVGID_32_">
			<use xlink:href="#SVGID_31_"  overflow="visible"/>
		</clipPath>
		<rect x="264.728" y="64.733" clip-path="url(#SVGID_32_)" fill="#63A1D9" width="20.099" height="22.44"/>
	</g>
</g>
<g>
	<defs>
		<path id="SVGID_33_" d="M293.566,69.733h6.36v0.78h-0.342c-1.079,0-1.518,0.46-1.518,1.5v7.92c0,0.98,0.339,1.46,1.559,1.46h0.301
			v0.78h-6.36v-0.78h0.28c1.059,0,1.46-0.5,1.46-1.38v-8c0-1.04-0.36-1.5-1.48-1.5h-0.26V69.733"/>
	</defs>
	<clipPath id="SVGID_34_">
		<use xlink:href="#SVGID_33_"  overflow="visible"/>
	</clipPath>
	<g clip-path="url(#SVGID_34_)">
		<defs>
			<rect id="SVGID_35_" width="489" height="124"/>
		</defs>
		<clipPath id="SVGID_36_">
			<use xlink:href="#SVGID_35_"  overflow="visible"/>
		</clipPath>
		<rect x="288.566" y="64.733" clip-path="url(#SVGID_36_)" fill="#63A1D9" width="16.36" height="22.44"/>
	</g>
</g>
<g>
	<defs>
		<path id="SVGID_37_" d="M306.546,79.773c0,1.221,0.379,1.62,1.98,1.62v0.78h-4.84v-0.78h0.12c1.22,0,1.519-0.44,1.519-1.26v-9.18
			c-0.438-0.301-0.979-0.44-1.599-0.44v-0.78h4.12l8.158,8.521v-6.04c0-1.44-0.299-1.7-1.898-1.7h-0.201v-0.78h5.16v0.78h-0.2
			c-1.239,0-1.639,0.26-1.639,1.021v10.699h-1.101l-9.58-10.02V79.773"/>
	</defs>
	<clipPath id="SVGID_38_">
		<use xlink:href="#SVGID_37_"  overflow="visible"/>
	</clipPath>
	<g clip-path="url(#SVGID_38_)">
		<defs>
			<rect id="SVGID_39_" width="489" height="124"/>
		</defs>
		<clipPath id="SVGID_40_">
			<use xlink:href="#SVGID_39_"  overflow="visible"/>
		</clipPath>
		<rect x="298.687" y="64.733" clip-path="url(#SVGID_40_)" fill="#63A1D9" width="25.379" height="22.5"/>
	</g>
</g>
<g>
	<defs>
		<path id="SVGID_41_" d="M327.286,75.333h2.779c1.401,0,1.739-0.319,1.739-1.46h0.802v3.98h-0.802c0-0.96-0.319-1.42-1.378-1.42
			h-3.141v3.22c0,1.44,0.259,1.74,1.34,1.74h0.379v0.78h-5.979v-0.78h0.32c0.858,0,1.179-0.28,1.179-1.141v-8.1
			c0-1.279-0.359-1.659-1.24-1.659h-0.259v-0.761h10.1v2.82h-0.72c-0.081-1.32-0.361-1.72-1.26-1.72h-3.86V75.333"/>
	</defs>
	<clipPath id="SVGID_42_">
		<use xlink:href="#SVGID_41_"  overflow="visible"/>
	</clipPath>
	<g clip-path="url(#SVGID_42_)">
		<defs>
			<rect id="SVGID_43_" width="489" height="124"/>
		</defs>
		<clipPath id="SVGID_44_">
			<use xlink:href="#SVGID_43_"  overflow="visible"/>
		</clipPath>
		<rect x="318.026" y="64.733" clip-path="url(#SVGID_44_)" fill="#63A1D9" width="20.1" height="22.44"/>
	</g>
</g>
<g>
	<defs>
		<path id="SVGID_45_" d="M345.727,81.594c2.778,0,4.08-2.4,4.08-5.16c0-3.22-1.603-6.22-4.642-6.22c-2.54,0-4.2,1.96-4.2,4.979
			C340.965,79.014,342.906,81.594,345.727,81.594z M345.646,69.354c4.179,0,7.139,2.62,7.139,6.36c0,3.56-2.74,6.739-7.521,6.739
			c-4.6,0-7.279-2.939-7.279-6.3C337.985,72.193,341.185,69.354,345.646,69.354z"/>
	</defs>
	<clipPath id="SVGID_46_">
		<use xlink:href="#SVGID_45_"  overflow="visible"/>
	</clipPath>
	<g clip-path="url(#SVGID_46_)">
		<defs>
			<rect id="SVGID_47_" width="489" height="124"/>
		</defs>
		<clipPath id="SVGID_48_">
			<use xlink:href="#SVGID_47_"  overflow="visible"/>
		</clipPath>
		<rect x="332.985" y="64.354" clip-path="url(#SVGID_48_)" fill="#63A1D9" width="24.8" height="23.1"/>
	</g>
</g>
<g>
	<defs>
		<path id="SVGID_49_" d="M361.645,76.054h0.782c2.418,0,3.819-0.74,3.819-2.88c0-2.12-1.62-2.88-3.562-2.88h-1.04V76.054z
			 M361.645,79.934c0,1.02,0.441,1.46,1.582,1.46h0.599v0.78h-7v-0.78h0.319c1.222,0,1.742-0.3,1.742-1.46v-7.899
			c0-0.96-0.259-1.521-1.601-1.521h-0.419v-0.78c0.998-0.06,1.761-0.1,2.578-0.159c1.121-0.08,2.561-0.141,3.281-0.141
			c2.939,0,4.538,0.38,5.54,1.38c0.658,0.66,0.958,1.42,0.958,2.279c0,1.521-1.099,2.721-2.958,3.221
			c1.318,1.1,2.019,2.68,3.439,4.1c0.82,0.82,1.38,1.061,2.639,1.181v0.78c-0.438,0.02-0.639,0.02-1.239,0.02
			c-2.48,0-3.499-0.36-4.439-1.3c-1-1-2.16-3.1-3.439-4.2h-1.582V79.934z"/>
	</defs>
	<clipPath id="SVGID_50_">
		<use xlink:href="#SVGID_49_"  overflow="visible"/>
	</clipPath>
	<g clip-path="url(#SVGID_50_)">
		<defs>
			<rect id="SVGID_51_" width="489" height="124"/>
		</defs>
		<clipPath id="SVGID_52_">
			<use xlink:href="#SVGID_51_"  overflow="visible"/>
		</clipPath>
		<rect x="351.825" y="64.434" clip-path="url(#SVGID_52_)" fill="#63A1D9" width="25.52" height="22.96"/>
	</g>
</g>
<g>
	<defs>
		<path id="SVGID_53_" d="M378.527,72.294h-0.042l-0.439,7.119c-0.081,1.32-0.061,1.96,1.641,1.98v0.78h-4.44v-0.78
			c1.561-0.021,1.599-0.46,1.699-2.12l0.442-7.239c0.058-1.021,0-1.46-1.342-1.521v-0.78h4.219l3.901,8.4l3.741-8.4h4.299v0.78
			c-1.439,0.08-1.54,0.08-1.439,1.521l0.479,7.379c0.102,1.681,0.159,1.86,1.759,1.98v0.78h-6.299v-0.78h0.339
			c0.84,0,1.541,0,1.541-1.3c0-0.32-0.02-0.64-0.04-0.94l-0.461-7.1h-0.039l-4.479,10.12h-0.481L378.527,72.294"/>
	</defs>
	<clipPath id="SVGID_54_">
		<use xlink:href="#SVGID_53_"  overflow="visible"/>
	</clipPath>
	<g clip-path="url(#SVGID_54_)">
		<defs>
			<rect id="SVGID_55_" width="489" height="124"/>
		</defs>
		<clipPath id="SVGID_56_">
			<use xlink:href="#SVGID_55_"  overflow="visible"/>
		</clipPath>
		<rect x="370.246" y="64.733" clip-path="url(#SVGID_56_)" fill="#63A1D9" width="27.759" height="22.44"/>
	</g>
</g>
<g>
	<defs>
		<path id="SVGID_57_" d="M402.746,71.773l-1.68,4.68h3.52L402.746,71.773z M400.666,77.554l-0.84,2.34
			c-0.361,1.021-0.34,1.5,1.579,1.5h0.261v0.78h-5.3v-0.78h0.3c0.96,0,1.46-0.44,1.959-1.841l3.42-9.539l-0.22-0.58h2.96
			l4.001,10.16c0.521,1.32,0.959,1.72,1.999,1.8v0.78h-6.499v-0.78h0.699c1.22,0,1.401-0.54,1-1.52l-0.939-2.32H400.666z"/>
	</defs>
	<clipPath id="SVGID_58_">
		<use xlink:href="#SVGID_57_"  overflow="visible"/>
	</clipPath>
	<g clip-path="url(#SVGID_58_)">
		<defs>
			<rect id="SVGID_59_" width="489" height="124"/>
		</defs>
		<clipPath id="SVGID_60_">
			<use xlink:href="#SVGID_59_"  overflow="visible"/>
		</clipPath>
		<rect x="391.366" y="64.434" clip-path="url(#SVGID_60_)" fill="#63A1D9" width="24.419" height="22.74"/>
	</g>
</g>
<g>
	<defs>
		<path id="SVGID_61_" d="M420.946,79.894c0,1.04,0.32,1.5,1.741,1.5h0.479v0.78h-7.2v-0.78h0.682c1.099,0,1.537-0.44,1.537-1.5
			v-9.12h-2.357c-1.541,0-1.779,0.24-2.161,2.36h-0.82l0.361-3.74h0.641c0.157,0.141,0.259,0.24,0.377,0.28
			c0.143,0.04,0.302,0.06,0.582,0.06h9.519c0.542,0,0.643-0.04,0.962-0.34h0.641l0.358,3.74h-0.821c-0.377-2.1-0.62-2.36-2.157-2.36
			h-2.361V79.894"/>
	</defs>
	<clipPath id="SVGID_62_">
		<use xlink:href="#SVGID_61_"  overflow="visible"/>
	</clipPath>
	<g clip-path="url(#SVGID_62_)">
		<defs>
			<rect id="SVGID_63_" width="489" height="124"/>
		</defs>
		<clipPath id="SVGID_64_">
			<use xlink:href="#SVGID_63_"  overflow="visible"/>
		</clipPath>
		<rect x="407.846" y="64.394" clip-path="url(#SVGID_64_)" fill="#63A1D9" width="23.44" height="22.78"/>
	</g>
</g>
<g>
	<defs>
		<path id="SVGID_65_" d="M430.126,69.733h6.36v0.78h-0.34c-1.081,0-1.521,0.46-1.521,1.5v7.92c0,0.98,0.339,1.46,1.561,1.46h0.3
			v0.78h-6.36v-0.78h0.281c1.06,0,1.46-0.5,1.46-1.38v-8c0-1.04-0.362-1.5-1.479-1.5h-0.262V69.733"/>
	</defs>
	<clipPath id="SVGID_66_">
		<use xlink:href="#SVGID_65_"  overflow="visible"/>
	</clipPath>
	<g clip-path="url(#SVGID_66_)">
		<defs>
			<rect id="SVGID_67_" width="489" height="124"/>
		</defs>
		<clipPath id="SVGID_68_">
			<use xlink:href="#SVGID_67_"  overflow="visible"/>
		</clipPath>
		<rect x="425.126" y="64.733" clip-path="url(#SVGID_68_)" fill="#63A1D9" width="16.36" height="22.44"/>
	</g>
</g>
<g>
	<defs>
		<path id="SVGID_69_" d="M448.546,81.594c2.779,0,4.08-2.4,4.08-5.16c0-3.22-1.599-6.22-4.641-6.22
			c-2.539,0-4.199,1.96-4.199,4.979C443.786,79.014,445.727,81.594,448.546,81.594z M448.467,69.354c4.18,0,7.139,2.62,7.139,6.36
			c0,3.56-2.74,6.739-7.521,6.739c-4.6,0-7.28-2.939-7.28-6.3C440.805,72.193,444.005,69.354,448.467,69.354z"/>
	</defs>
	<clipPath id="SVGID_70_">
		<use xlink:href="#SVGID_69_"  overflow="visible"/>
	</clipPath>
	<g clip-path="url(#SVGID_70_)">
		<defs>
			<rect id="SVGID_71_" width="489" height="124"/>
		</defs>
		<clipPath id="SVGID_72_">
			<use xlink:href="#SVGID_71_"  overflow="visible"/>
		</clipPath>
		<rect x="435.805" y="64.354" clip-path="url(#SVGID_72_)" fill="#63A1D9" width="24.801" height="23.1"/>
	</g>
</g>
<g>
	<defs>
		<path id="SVGID_73_" d="M462.785,79.773c0,1.221,0.381,1.62,1.979,1.62v0.78h-4.838v-0.78h0.119c1.221,0,1.521-0.44,1.521-1.26
			v-9.18c-0.441-0.301-0.981-0.44-1.602-0.44v-0.78h4.121l8.159,8.521v-6.04c0-1.44-0.3-1.7-1.898-1.7h-0.2v-0.78h5.161v0.78h-0.201
			c-1.24,0-1.64,0.26-1.64,1.021v10.699h-1.102l-9.58-10.02V79.773"/>
	</defs>
	<clipPath id="SVGID_74_">
		<use xlink:href="#SVGID_73_"  overflow="visible"/>
	</clipPath>
	<g clip-path="url(#SVGID_74_)">
		<defs>
			<rect id="SVGID_75_" width="489" height="124"/>
		</defs>
		<clipPath id="SVGID_76_">
			<use xlink:href="#SVGID_75_"  overflow="visible"/>
		</clipPath>
		<rect x="454.927" y="64.733" clip-path="url(#SVGID_76_)" fill="#63A1D9" width="25.381" height="22.5"/>
	</g>
</g>
<g>
	<defs>
		<path id="SVGID_77_" d="M141.027,93.648l-1.68,4.68h3.52L141.027,93.648z M138.947,99.429l-0.84,2.34
			c-0.36,1.021-0.34,1.5,1.58,1.5h0.26v0.78h-5.3v-0.78h0.3c0.96,0,1.46-0.44,1.96-1.841l3.42-9.539l-0.22-0.58h2.96l4,10.16
			c0.52,1.32,0.96,1.72,2,1.8v0.78h-6.5v-0.78h0.7c1.22,0,1.4-0.54,1-1.52l-0.94-2.32H138.947z"/>
	</defs>
	<clipPath id="SVGID_78_">
		<use xlink:href="#SVGID_77_"  overflow="visible"/>
	</clipPath>
	<g clip-path="url(#SVGID_78_)">
		<defs>
			<rect id="SVGID_79_" width="489" height="124"/>
		</defs>
		<clipPath id="SVGID_80_">
			<use xlink:href="#SVGID_79_"  overflow="visible"/>
		</clipPath>
		<rect x="129.647" y="86.309" clip-path="url(#SVGID_80_)" fill="#63A1D9" width="24.42" height="22.74"/>
	</g>
</g>
<g>
	<defs>
		<path id="SVGID_81_" d="M155.408,101.648c0,1.221,0.38,1.62,1.98,1.62v0.78h-4.84v-0.78h0.12c1.22,0,1.52-0.44,1.52-1.26v-9.181
			c-0.44-0.3-0.98-0.439-1.6-0.439v-0.78h4.12l8.16,8.521v-6.04c0-1.44-0.3-1.7-1.9-1.7h-0.2v-0.78h5.16v0.78h-0.2
			c-1.24,0-1.64,0.26-1.64,1.021v10.699h-1.1l-9.58-10.02V101.648"/>
	</defs>
	<clipPath id="SVGID_82_">
		<use xlink:href="#SVGID_81_"  overflow="visible"/>
	</clipPath>
	<g clip-path="url(#SVGID_82_)">
		<defs>
			<rect id="SVGID_83_" width="489" height="124"/>
		</defs>
		<clipPath id="SVGID_84_">
			<use xlink:href="#SVGID_83_"  overflow="visible"/>
		</clipPath>
		<rect x="147.547" y="86.608" clip-path="url(#SVGID_84_)" fill="#63A1D9" width="25.38" height="22.5"/>
	</g>
</g>
<g>
	<defs>
		<path id="SVGID_85_" d="M176.167,101.729c0,1.34,0.201,1.52,1.741,1.52c4.5,0,5.659-3.08,5.659-5.459
			c0-1.66-0.579-3.161-1.479-4.061c-0.98-0.98-2.32-1.439-4.36-1.439c-0.54,0-0.98,0.02-1.561,0.1V101.729z M171.547,91.608
			c1.08-0.06,2.32-0.1,3.22-0.16c1-0.06,1.76-0.1,2.74-0.1c3.999,0,5.88,0.5,7.359,1.98c1.062,1.06,1.681,2.5,1.681,4.199
			c0,1.82-0.8,3.42-1.861,4.48c-1.02,1.02-2.679,2.04-6.779,2.04h-6.36v-0.78c1.32,0,1.86-0.26,1.86-1.4v-7.72
			c0-1.42-0.32-1.76-1.86-1.76V91.608z"/>
	</defs>
	<clipPath id="SVGID_86_">
		<use xlink:href="#SVGID_85_"  overflow="visible"/>
	</clipPath>
	<g clip-path="url(#SVGID_86_)">
		<defs>
			<rect id="SVGID_87_" width="489" height="124"/>
		</defs>
		<clipPath id="SVGID_88_">
			<use xlink:href="#SVGID_87_"  overflow="visible"/>
		</clipPath>
		<rect x="166.547" y="86.349" clip-path="url(#SVGID_88_)" fill="#63A1D9" width="25" height="22.7"/>
	</g>
</g>
<g>
	<defs>
		<path id="SVGID_89_" d="M210.828,104.049h-10.72v-0.78h0.34c1.28,0,1.659-0.46,1.659-1.44v-7.999c0-1.181-0.679-1.44-1.579-1.44
			h-0.38v-0.78h6.779v0.78h-0.579c-1.04,0-1.481,0.46-1.481,1.399v8.24c0,0.74,0.221,0.92,1.001,0.92h2.539
			c1.34,0,1.741-0.66,3.08-2.38h0.8L210.828,104.049"/>
	</defs>
	<clipPath id="SVGID_90_">
		<use xlink:href="#SVGID_89_"  overflow="visible"/>
	</clipPath>
	<g clip-path="url(#SVGID_90_)">
		<defs>
			<rect id="SVGID_91_" width="489" height="124"/>
		</defs>
		<clipPath id="SVGID_92_">
			<use xlink:href="#SVGID_91_"  overflow="visible"/>
		</clipPath>
		<rect x="195.107" y="86.608" clip-path="url(#SVGID_92_)" fill="#63A1D9" width="22.179" height="22.44"/>
	</g>
</g>
<g>
	<defs>
		<path id="SVGID_93_" d="M215.187,91.608h6.36v0.78h-0.34c-1.08,0-1.52,0.46-1.52,1.5v7.92c0,0.98,0.34,1.46,1.56,1.46h0.3v0.78
			h-6.36v-0.78h0.28c1.061,0,1.46-0.5,1.46-1.38v-8c0-1.04-0.36-1.5-1.48-1.5h-0.26V91.608"/>
	</defs>
	<clipPath id="SVGID_94_">
		<use xlink:href="#SVGID_93_"  overflow="visible"/>
	</clipPath>
	<g clip-path="url(#SVGID_94_)">
		<defs>
			<rect id="SVGID_95_" width="489" height="124"/>
		</defs>
		<clipPath id="SVGID_96_">
			<use xlink:href="#SVGID_95_"  overflow="visible"/>
		</clipPath>
		<rect x="210.187" y="86.608" clip-path="url(#SVGID_96_)" fill="#63A1D9" width="16.36" height="22.44"/>
	</g>
</g>
<g>
	<defs>
		<path id="SVGID_97_" d="M230.206,101.349c0,1.46,0.54,1.8,1.82,1.8c2.24,0,2.8-1.44,2.8-2.779c0-1.2-0.56-2.98-3.16-2.98
			c-0.38,0-1.16,0.04-1.46,0.06V101.349z M230.206,96.589c0.44,0.02,1.16,0.04,1.54,0.04c2,0,2.5-1.08,2.5-2.101
			c0-1.14-0.56-2.439-2.98-2.439c-0.42,0-0.72,0.02-1.06,0.06V96.589z M227.446,94.148c0-1.54-0.22-1.76-1.74-1.76h-0.5v-0.78
			c0.5-0.02,1.46-0.1,2.52-0.16c1.2-0.06,2.38-0.14,3.24-0.14c2.5,0,4.42,0.34,5.5,1.42c0.5,0.5,0.76,1.2,0.76,1.819
			c0,1.221-0.8,1.98-2.46,2.341v0.04c1.94,0.42,3.16,1.739,3.16,3.36c0,2.039-1.86,3.76-5.16,3.76h-7.74v-0.78
			c1.96,0,2.42-0.5,2.42-1.68V94.148z"/>
	</defs>
	<clipPath id="SVGID_98_">
		<use xlink:href="#SVGID_97_"  overflow="visible"/>
	</clipPath>
	<g clip-path="url(#SVGID_98_)">
		<defs>
			<rect id="SVGID_99_" width="489" height="124"/>
		</defs>
		<clipPath id="SVGID_100_">
			<use xlink:href="#SVGID_99_"  overflow="visible"/>
		</clipPath>
		<rect x="220.026" y="86.309" clip-path="url(#SVGID_100_)" fill="#63A1D9" width="22.9" height="22.74"/>
	</g>
</g>
<g>
	<defs>
		<path id="SVGID_101_" d="M246.607,97.929h0.779c2.42,0,3.819-0.74,3.819-2.88c0-2.12-1.62-2.88-3.559-2.88h-1.04V97.929z
			 M246.607,101.809c0,1.02,0.438,1.46,1.579,1.46h0.601v0.78h-7.001v-0.78h0.321c1.219,0,1.739-0.3,1.739-1.46v-7.9
			c0-0.96-0.259-1.52-1.6-1.52h-0.42v-0.78c1-0.06,1.761-0.1,2.581-0.16c1.119-0.08,2.559-0.14,3.279-0.14
			c2.939,0,4.541,0.38,5.538,1.38c0.663,0.66,0.962,1.42,0.962,2.279c0,1.521-1.101,2.721-2.96,3.221c1.321,1.1,2.02,2.68,3.439,4.1
			c0.82,0.82,1.38,1.061,2.641,1.181v0.78c-0.44,0.02-0.642,0.02-1.24,0.02c-2.479,0-3.5-0.36-4.44-1.3c-1-1-2.16-3.1-3.439-4.2
			h-1.579V101.809z"/>
	</defs>
	<clipPath id="SVGID_102_">
		<use xlink:href="#SVGID_101_"  overflow="visible"/>
	</clipPath>
	<g clip-path="url(#SVGID_102_)">
		<defs>
			<rect id="SVGID_103_" width="489" height="124"/>
		</defs>
		<clipPath id="SVGID_104_">
			<use xlink:href="#SVGID_103_"  overflow="visible"/>
		</clipPath>
		<rect x="236.786" y="86.309" clip-path="url(#SVGID_104_)" fill="#63A1D9" width="25.521" height="22.96"/>
	</g>
</g>
<g>
	<defs>
		<path id="SVGID_105_" d="M266.366,93.648l-1.682,4.68h3.521L266.366,93.648z M264.286,99.429l-0.84,2.34
			c-0.36,1.021-0.34,1.5,1.58,1.5h0.26v0.78h-5.3v-0.78h0.3c0.959,0,1.46-0.44,1.96-1.841l3.422-9.539l-0.221-0.58h2.959l4,10.16
			c0.52,1.32,0.961,1.72,2,1.8v0.78h-6.5v-0.78h0.7c1.221,0,1.399-0.54,1-1.52l-0.94-2.32H264.286L264.286,99.429z"/>
	</defs>
	<clipPath id="SVGID_106_">
		<use xlink:href="#SVGID_105_"  overflow="visible"/>
	</clipPath>
	<g clip-path="url(#SVGID_106_)">
		<defs>
			<rect id="SVGID_107_" width="489" height="124"/>
		</defs>
		<clipPath id="SVGID_108_">
			<use xlink:href="#SVGID_107_"  overflow="visible"/>
		</clipPath>
		<rect x="254.986" y="86.309" clip-path="url(#SVGID_108_)" fill="#63A1D9" width="24.42" height="22.74"/>
	</g>
</g>
<g>
	<defs>
		<path id="SVGID_109_" d="M282.427,97.929h0.779c2.419,0,3.82-0.74,3.82-2.88c0-2.12-1.62-2.88-3.56-2.88h-1.04V97.929z
			 M282.427,101.809c0,1.02,0.439,1.46,1.579,1.46h0.601v0.78h-7.001v-0.78h0.321c1.22,0,1.739-0.3,1.739-1.46v-7.9
			c0-0.96-0.26-1.52-1.599-1.52h-0.42v-0.78c0.997-0.06,1.759-0.1,2.579-0.16c1.12-0.08,2.56-0.14,3.279-0.14
			c2.94,0,4.54,0.38,5.54,1.38c0.66,0.66,0.959,1.42,0.959,2.279c0,1.521-1.099,2.721-2.959,3.221c1.32,1.1,2.02,2.68,3.44,4.1
			c0.82,0.82,1.38,1.061,2.639,1.181v0.78c-0.438,0.02-0.639,0.02-1.24,0.02c-2.479,0-3.498-0.36-4.438-1.3c-1-1-2.16-3.1-3.44-4.2
			h-1.579V101.809z"/>
	</defs>
	<clipPath id="SVGID_110_">
		<use xlink:href="#SVGID_109_"  overflow="visible"/>
	</clipPath>
	<g clip-path="url(#SVGID_110_)">
		<defs>
			<rect id="SVGID_111_" width="489" height="124"/>
		</defs>
		<clipPath id="SVGID_112_">
			<use xlink:href="#SVGID_111_"  overflow="visible"/>
		</clipPath>
		<rect x="272.605" y="86.309" clip-path="url(#SVGID_112_)" fill="#63A1D9" width="25.52" height="22.96"/>
	</g>
</g>
<g>
	<defs>
		<path id="SVGID_113_" d="M302.307,101.788c0,0.96,0.299,1.48,1.739,1.48h0.301v0.78h-6.82v-0.78h0.499
			c1.201,0,1.521-0.54,1.521-1.44v-2.779l-4.299-5.72c-0.581-0.761-0.82-0.94-1.82-0.94h-0.141v-0.78h6.521v0.78h-0.24
			c-1.16,0-1.32,0.48-0.9,1.021l3.2,4.22l2.32-3.641c0.52-0.82,0.68-1.6-0.72-1.6h-0.242v-0.78h4.722v0.78
			c-1.161,0.08-1.5,0.3-2.222,1.399l-3.418,5.261V101.788"/>
	</defs>
	<clipPath id="SVGID_114_">
		<use xlink:href="#SVGID_113_"  overflow="visible"/>
	</clipPath>
	<g clip-path="url(#SVGID_114_)">
		<defs>
			<rect id="SVGID_115_" width="489" height="124"/>
		</defs>
		<clipPath id="SVGID_116_">
			<use xlink:href="#SVGID_115_"  overflow="visible"/>
		</clipPath>
		<rect x="288.286" y="86.608" clip-path="url(#SVGID_116_)" fill="#63A1D9" width="24.66" height="22.44"/>
	</g>
</g>
<g>
	<defs>
		<path id="SVGID_117_" d="M321.546,100.369h0.779c0.662,1.979,1.841,2.999,3.421,2.999c1.32,0,2.319-0.84,2.319-1.96
			c0-2.979-6.419-2.88-6.419-6.84c0-1.92,1.68-3.26,4.06-3.26c1.539,0,2.74,0.52,3.04,0.52c0.139,0,0.259-0.04,0.44-0.22h0.419
			l0.381,3.24h-0.8c-0.22-0.82-0.641-1.48-1.222-1.94c-0.559-0.479-1.26-0.739-2.038-0.739c-1.12,0-1.96,0.6-1.96,1.38
			c0,1.84,3.319,2.18,5.559,4.42c0.819,0.819,1.14,1.68,1.14,2.64c0,2.08-1.88,3.72-4.26,3.72c-1.599,0-3.059-0.64-3.418-0.64
			c-0.181,0-0.319,0.1-0.42,0.319h-0.52L321.546,100.369"/>
	</defs>
	<clipPath id="SVGID_118_">
		<use xlink:href="#SVGID_117_"  overflow="visible"/>
	</clipPath>
	<g clip-path="url(#SVGID_118_)">
		<defs>
			<rect id="SVGID_119_" width="489" height="124"/>
		</defs>
		<clipPath id="SVGID_120_">
			<use xlink:href="#SVGID_119_"  overflow="visible"/>
		</clipPath>
		<rect x="316.546" y="86.309" clip-path="url(#SVGID_120_)" fill="#63A1D9" width="19.119" height="23.02"/>
	</g>
</g>
<g>
	<defs>
		<path id="SVGID_121_" d="M348.485,100.469c-0.159,1.06-0.641,2.6-1.119,3.64c-0.321-0.101-0.72-0.14-1.182-0.14
			c-0.939,0-1.938,0.359-3.439,0.359c-4.099,0-7.28-2.84-7.28-6.459c0-3.681,3.382-6.561,7.661-6.561c2.08,0,3.44,0.82,3.841,0.82
			c0.158,0,0.278-0.061,0.399-0.2h0.499l0.18,3.5h-0.778c-0.642-1.98-2.061-3.101-3.981-3.101c-2.858,0-4.839,2.16-4.839,5.32
			c0,3.22,2.2,5.7,5.059,5.7c1.84,0,3.361-1.061,4.182-2.88H348.485"/>
	</defs>
	<clipPath id="SVGID_122_">
		<use xlink:href="#SVGID_121_"  overflow="visible"/>
	</clipPath>
	<g clip-path="url(#SVGID_122_)">
		<defs>
			<rect id="SVGID_123_" width="489" height="124"/>
		</defs>
		<clipPath id="SVGID_124_">
			<use xlink:href="#SVGID_123_"  overflow="visible"/>
		</clipPath>
		<rect x="330.465" y="86.309" clip-path="url(#SVGID_124_)" fill="#63A1D9" width="23.021" height="23.02"/>
	</g>
</g>
<g>
	<defs>
		<path id="SVGID_125_" d="M352.506,91.608h6.36v0.78h-0.339c-1.082,0-1.521,0.46-1.521,1.5v7.92c0,0.98,0.339,1.46,1.561,1.46h0.3
			v0.78h-6.36v-0.78h0.281c1.061,0,1.46-0.5,1.46-1.38v-8c0-1.04-0.36-1.5-1.482-1.5h-0.259V91.608"/>
	</defs>
	<clipPath id="SVGID_126_">
		<use xlink:href="#SVGID_125_"  overflow="visible"/>
	</clipPath>
	<g clip-path="url(#SVGID_126_)">
		<defs>
			<rect id="SVGID_127_" width="489" height="124"/>
		</defs>
		<clipPath id="SVGID_128_">
			<use xlink:href="#SVGID_127_"  overflow="visible"/>
		</clipPath>
		<rect x="347.506" y="86.608" clip-path="url(#SVGID_128_)" fill="#63A1D9" width="16.36" height="22.44"/>
	</g>
</g>
<g>
	<defs>
		<path id="SVGID_129_" d="M371.625,92.709h-4.38v4.499h3.24c1.101,0,1.501-0.38,1.501-1.439h0.799v3.98h-0.799
			c0-1.081-0.262-1.44-1.802-1.44h-2.939v3.6c0,0.86,0.161,1.04,0.74,1.04h3.34c1.301,0,1.921-0.359,2.3-2.04h0.762l-0.242,3.141
			h-12.038v-0.78h0.82c1.159,0,1.56-0.46,1.56-1.44v-7.979c0-1.08-0.361-1.46-1.74-1.46h-0.2v-0.78h11.021l0.2,2.9h-0.759
			C372.808,93.148,372.546,92.709,371.625,92.709"/>
	</defs>
	<clipPath id="SVGID_130_">
		<use xlink:href="#SVGID_129_"  overflow="visible"/>
	</clipPath>
	<g clip-path="url(#SVGID_130_)">
		<defs>
			<rect id="SVGID_131_" width="489" height="124"/>
		</defs>
		<clipPath id="SVGID_132_">
			<use xlink:href="#SVGID_131_"  overflow="visible"/>
		</clipPath>
		<rect x="357.106" y="86.608" clip-path="url(#SVGID_132_)" fill="#63A1D9" width="22.28" height="22.44"/>
	</g>
</g>
<g>
	<defs>
		<path id="SVGID_133_" d="M381.205,101.648c0,1.221,0.381,1.62,1.979,1.62v0.78h-4.838v-0.78h0.12c1.22,0,1.521-0.44,1.521-1.26
			v-9.181c-0.442-0.3-0.982-0.439-1.603-0.439v-0.78h4.121l8.16,8.521v-6.04c0-1.44-0.301-1.7-1.899-1.7h-0.2v-0.78h5.158v0.78
			h-0.199c-1.239,0-1.639,0.26-1.639,1.021v10.699h-1.102l-9.58-10.02V101.648"/>
	</defs>
	<clipPath id="SVGID_134_">
		<use xlink:href="#SVGID_133_"  overflow="visible"/>
	</clipPath>
	<g clip-path="url(#SVGID_134_)">
		<defs>
			<rect id="SVGID_135_" width="489" height="124"/>
		</defs>
		<clipPath id="SVGID_136_">
			<use xlink:href="#SVGID_135_"  overflow="visible"/>
		</clipPath>
		<rect x="373.347" y="86.608" clip-path="url(#SVGID_136_)" fill="#63A1D9" width="25.378" height="22.5"/>
	</g>
</g>
<g>
	<defs>
		<path id="SVGID_137_" d="M410.967,100.469c-0.162,1.06-0.641,2.6-1.122,3.64c-0.318-0.101-0.72-0.14-1.179-0.14
			c-0.939,0-1.941,0.359-3.439,0.359c-4.102,0-7.28-2.84-7.28-6.459c0-3.681,3.379-6.561,7.659-6.561c2.079,0,3.439,0.82,3.84,0.82
			c0.161,0,0.281-0.061,0.399-0.2h0.502l0.18,3.5h-0.781c-0.639-1.98-2.061-3.101-3.979-3.101c-2.861,0-4.842,2.16-4.842,5.32
			c0,3.22,2.201,5.7,5.061,5.7c1.841,0,3.359-1.061,4.18-2.88H410.967"/>
	</defs>
	<clipPath id="SVGID_138_">
		<use xlink:href="#SVGID_137_"  overflow="visible"/>
	</clipPath>
	<g clip-path="url(#SVGID_138_)">
		<defs>
			<rect id="SVGID_139_" width="489" height="124"/>
		</defs>
		<clipPath id="SVGID_140_">
			<use xlink:href="#SVGID_139_"  overflow="visible"/>
		</clipPath>
		<rect x="392.946" y="86.309" clip-path="url(#SVGID_140_)" fill="#63A1D9" width="23.02" height="23.02"/>
	</g>
</g>
<g>
	<defs>
		<path id="SVGID_141_" d="M424.005,92.709h-4.379v4.499h3.239c1.102,0,1.5-0.38,1.5-1.439h0.8v3.98h-0.8
			c0-1.081-0.259-1.44-1.8-1.44h-2.939v3.6c0,0.86,0.159,1.04,0.739,1.04h3.34c1.301,0,1.919-0.359,2.3-2.04h0.76l-0.239,3.141
			h-12.039v-0.78h0.818c1.162,0,1.561-0.46,1.561-1.44v-7.979c0-1.08-0.36-1.46-1.739-1.46h-0.2v-0.78h11.021l0.197,2.9h-0.759
			C425.185,93.148,424.926,92.709,424.005,92.709"/>
	</defs>
	<clipPath id="SVGID_142_">
		<use xlink:href="#SVGID_141_"  overflow="visible"/>
	</clipPath>
	<g clip-path="url(#SVGID_142_)">
		<defs>
			<rect id="SVGID_143_" width="489" height="124"/>
		</defs>
		<clipPath id="SVGID_144_">
			<use xlink:href="#SVGID_143_"  overflow="visible"/>
		</clipPath>
		<rect x="409.486" y="86.608" clip-path="url(#SVGID_144_)" fill="#63A1D9" width="22.278" height="22.44"/>
	</g>
</g>
<g>
	<defs>
		<path id="SVGID_145_" d="M45.846,24.269c0.149,0.138,0.243,0.119,0.243,0.119c11.147-0.432,17.534,3.802,18.08,5.543l4.458-0.081
			l1.385-3.016c0.084-0.253,0.044-0.611-0.049-0.713c-1.34-1.491-12.561-4.691-26.1-4.691c-14.449,0-23.608,2.847-25.54,4.28
			c0,0-0.469,0.275-0.48,0.701c-0.003,0.196,0.276,0.738,0.276,0.738l0.393,0.849c0.124,0.248,0.292,0.236,0.587,0.065
			c0,0,0.267-0.081,0.315-0.254c0.049-0.176-0.115-0.472-0.115-0.472c-0.284-0.588,0.096-0.659,0.119-0.673l0.826-0.378
			c0.394-0.115,0.437,0.094,0.571,0.409c0,0,0.154,0.436,0.261,0.499c0.208,0.129,0.865-0.246,2.834-0.724
			c0.135-0.027,0.205-0.039,0.466-0.15c0.196-0.078,0.025-0.738,0.025-0.738c-0.071-0.324-0.22-0.652,0.495-0.775l1.232-0.245
			c0.571-0.15,0.625,0.146,0.693,0.478c0,0,0.038,0.499,0.164,0.708c0.161,0.258,0.456-0.159,4.216-0.557
			c0,0,0.546-0.013,0.652-0.203c0.112-0.2,0.024-0.644,0.024-0.644c-0.044-0.45-0.229-0.789,0.645-0.835l1.64-0.148
			c1.233-0.203,1.024,0.211,1.068,0.661c0,0,0.041,0.49,0.135,0.575c0.093,0.091,0.48,0.083,0.48,0.083
			c2.106-0.219,3.284-0.208,5.522-0.302c0,0,0.312,0,0.428-0.133c0.11-0.131,0.077-0.27,0.077-0.27c0-0.252-0.048-0.645,0.114-0.822
			c0.185-0.198,0.473-0.113,0.767-0.113h1.88c0.291,0,0.882-0.127,1.049,0.079c0.108,0.132,0.076,0.926,0.076,0.926
			S45.756,24.181,45.846,24.269"/>
	</defs>
	<clipPath id="SVGID_146_">
		<use xlink:href="#SVGID_145_"  overflow="visible"/>
	</clipPath>
	<g clip-path="url(#SVGID_146_)">
		<defs>
			<rect id="SVGID_147_" width="489" height="124"/>
		</defs>
		<clipPath id="SVGID_148_">
			<use xlink:href="#SVGID_147_"  overflow="visible"/>
		</clipPath>
		<rect x="12.842" y="16.43" clip-path="url(#SVGID_148_)" fill="#63A1D9" width="62.215" height="18.501"/>
	</g>
</g>
<g>
	<defs>
		<path id="SVGID_149_" d="M43.947,6.146c-10.901,0-17.602,3.501-21.895,7.713c0,0-0.078,0.076-0.118,0.185
			c-0.08,0.216-0.099,0.532,0.342,0.376c9.335-3.914,19.538-1.458,22.788,2.238c0.114,0.171,0.013,0.213-0.126,0.213
			c-3.284,0.033-6.034-0.159-12.1,0.691c-3.286,0.459-6.205,0.938-8.67,1.58c-4.059,1.059-6.937,2.374-8.546,3.441
			c-0.589,0.32-0.635,0.548-0.783,0.82c-0.172,0.525-0.151,0.525-0.265,0.885c-0.202,0.684-0.304,1.116-0.344,1.343
			c-0.07,0.418,0.385,0.271,0.619,0.034c0.486-0.489,1.824-1.672,3.793-2.59c2.006-0.932,5.327-1.993,8.921-2.659
			c4.797-0.889,10.635-1.455,15.975-1.46c6.195-0.014,11.743,0.623,16.388,1.526c4.716,0.922,8.45,2.198,10.861,3.376
			c1.134,0.552,1.767,1.056,2.528,1.708c0.599,0.607,0.636,0.083,0.624-0.079c0,0-0.114-0.82-1.116-2.669
			C69.745,17.151,61.505,6.146,43.947,6.146"/>
	</defs>
	<clipPath id="SVGID_150_">
		<use xlink:href="#SVGID_149_"  overflow="visible"/>
	</clipPath>
	<g clip-path="url(#SVGID_150_)">
		<defs>
			<rect id="SVGID_151_" width="489" height="124"/>
		</defs>
		<clipPath id="SVGID_152_">
			<use xlink:href="#SVGID_151_"  overflow="visible"/>
		</clipPath>
		<rect x="9.224" y="1.146" clip-path="url(#SVGID_152_)" fill="#63A1D9" width="69.718" height="29.75"/>
	</g>
</g>
<g>
	<defs>
		<path id="SVGID_153_" d="M12.276,79.057c0,2.536,10.519,7.723,32.299,7.723c21.13,0,32.29-5.187,32.29-7.723l-0.11-3.884
			c0,0.082-0.015-0.255-0.046-0.166c-0.035-0.694-1.155-0.833-4.566-0.888l-0.08-2.149c0,0.216-0.72,0.692-1.17,0.944
			c-2.78,1.611-13.413,3.998-26.714,3.998c-15.4,0-26.177-3.193-27.881-4.942l-0.036,3.329c5.066,3.611,20.681,6.866,36.448,5.182
			c0.469-0.016,0.63-0.112,1.105,0.034c0.13,0.036,0.56,0.411-0.294,0.727c-9.145,3.019-31.719,2.347-41.277-4.912l0.042,2.728"/>
	</defs>
	<clipPath id="SVGID_154_">
		<use xlink:href="#SVGID_153_"  overflow="visible"/>
	</clipPath>
	<g clip-path="url(#SVGID_154_)">
		<defs>
			<rect id="SVGID_155_" width="489" height="124"/>
		</defs>
		<clipPath id="SVGID_156_">
			<use xlink:href="#SVGID_155_"  overflow="visible"/>
		</clipPath>
		<rect x="7.243" y="66.97" clip-path="url(#SVGID_156_)" fill="#63A1D9" width="74.623" height="24.81"/>
	</g>
</g>
<g>
	<defs>
		<path id="SVGID_157_" d="M57.47,27.336l-5.954-0.005c-0.29,0-0.421,0.151-0.425,0.439v0.666c-0.001,0.315,0.132,0.454,0.449,0.454
			h1.844c0.172-0.005,0.215,0.075,0.219,0.099c0.078,0.18-0.266,0.339-0.377,0.409l-0.91,0.596c-0.129,0.08-0.245,0.243-0.243,0.576
			L52.03,73.234c0.089,0.742,1.284,0.816,2.579,0.812c1.095-0.007,2.385-0.069,2.522-0.798c0,0-0.038-40.602,0.003-44.11
			c0.003-0.162,0.077-0.198,0.1-0.214c0.042-0.027,0.229-0.039,0.229-0.039c0.272-0.014,0.42-0.142,0.42-0.418V27.75
			C57.871,27.493,57.704,27.349,57.47,27.336"/>
	</defs>
	<clipPath id="SVGID_158_">
		<use xlink:href="#SVGID_157_"  overflow="visible"/>
	</clipPath>
	<g clip-path="url(#SVGID_158_)">
		<defs>
			<rect id="SVGID_159_" width="489" height="124"/>
		</defs>
		<clipPath id="SVGID_160_">
			<use xlink:href="#SVGID_159_"  overflow="visible"/>
		</clipPath>
		<rect x="46.091" y="22.331" clip-path="url(#SVGID_160_)" fill="#63A1D9" width="16.792" height="56.715"/>
	</g>
</g>
<g>
	<defs>
		<path id="SVGID_161_" d="M47.688,57.024l0.141-0.281h0.403l-0.003-0.271h-8.266l-0.007,0.271H40.4l0.12,0.252l0.498,1.041
			c0,0,0.087,0.091,0.195,0.144c0.109,0.043,0.323,0.056,0.403,0.056c2.171,0.019,1.702-0.002,2.043,0
			c0.159,0,0.382,0.009,0.484,0.146c0.075,0.089,0.134,0.333-0.169,0.539c-0.708,0.466-1.893,1.244-2.444,1.605
			c-0.068,0.035-0.255,0.167-0.315,0.315c-0.068,0.17-0.059,0.295-0.059,0.295v8.025l-0.701,0.275c0,0-0.211,1.596,0.029,1.756
			c0.233,0.161,6.974,0.161,7.208,0.012c0.229-0.146,0.029-1.802,0.029-1.802l-0.715-0.241V58.397L47.688,57.024"/>
	</defs>
	<clipPath id="SVGID_162_">
		<use xlink:href="#SVGID_161_"  overflow="visible"/>
	</clipPath>
	<g clip-path="url(#SVGID_162_)">
		<defs>
			<rect id="SVGID_163_" width="489" height="124"/>
		</defs>
		<clipPath id="SVGID_164_">
			<use xlink:href="#SVGID_163_"  overflow="visible"/>
		</clipPath>
		<rect x="34.955" y="51.471" clip-path="url(#SVGID_164_)" fill="#63A1D9" width="18.276" height="24.843"/>
	</g>
</g>
<g>
	<defs>
		<path id="SVGID_165_" d="M69.015,29.664l-5.955-0.006c-0.292-0.003-0.421,0.151-0.426,0.435v0.667
			c-0.001,0.315,0.131,0.458,0.449,0.458h1.845c0.17-0.011,0.213,0.07,0.224,0.09c0.067,0.183-0.269,0.345-0.384,0.418l-0.911,0.589
			c-0.126,0.079-0.247,0.245-0.241,0.573l-0.038,38.466c0.088,0.754,1.277,0.823,2.574,0.818c1.096-0.007,2.389-0.064,2.525-0.8
			c0,0-0.035-36.402,0.002-39.908c0.002-0.164,0.075-0.203,0.104-0.22c0.037-0.023,0.222-0.038,0.222-0.038
			c0.272-0.011,0.423-0.142,0.423-0.414v-0.719C69.415,29.809,69.245,29.676,69.015,29.664"/>
	</defs>
	<clipPath id="SVGID_166_">
		<use xlink:href="#SVGID_165_"  overflow="visible"/>
	</clipPath>
	<g clip-path="url(#SVGID_166_)">
		<defs>
			<rect id="SVGID_167_" width="489" height="124"/>
		</defs>
		<clipPath id="SVGID_168_">
			<use xlink:href="#SVGID_167_"  overflow="visible"/>
		</clipPath>
		<rect x="57.634" y="24.657" clip-path="url(#SVGID_168_)" fill="#63A1D9" width="16.794" height="52.515"/>
	</g>
</g>
<g>
	<defs>
		<path id="SVGID_169_" d="M36.474,27.342l-5.955-0.006c-0.289,0-0.42,0.146-0.423,0.434v0.672c0,0.315,0.131,0.448,0.447,0.448
			l1.848,0.006c0.167-0.012,0.212,0.068,0.217,0.092c0.075,0.18-0.268,0.339-0.379,0.42l-0.909,0.585
			c-0.127,0.08-0.246,0.248-0.246,0.576l-0.035,42.665c0.088,0.742,1.276,0.816,2.577,0.812c1.096,0,2.386-0.06,2.521-0.791
			c0,0-0.035-40.608,0.004-44.117c0-0.162,0.072-0.198,0.1-0.209c0.042-0.03,0.224-0.044,0.224-0.044
			c0.276-0.014,0.422-0.142,0.424-0.414V27.75C36.874,27.493,36.709,27.349,36.474,27.342"/>
	</defs>
	<clipPath id="SVGID_170_">
		<use xlink:href="#SVGID_169_"  overflow="visible"/>
	</clipPath>
	<g clip-path="url(#SVGID_170_)">
		<defs>
			<rect id="SVGID_171_" width="489" height="124"/>
		</defs>
		<clipPath id="SVGID_172_">
			<use xlink:href="#SVGID_171_"  overflow="visible"/>
		</clipPath>
		<rect x="25.095" y="22.336" clip-path="url(#SVGID_172_)" fill="#63A1D9" width="16.792" height="56.709"/>
	</g>
</g>
<g>
	<defs>
		<path id="SVGID_173_" d="M24.89,29.775h-5.957c-0.291-0.005-0.422,0.14-0.425,0.434v0.667c0,0.313,0.132,0.45,0.447,0.45
			l1.847,0.008c0.168-0.018,0.212,0.066,0.221,0.086c0.07,0.188-0.268,0.341-0.385,0.419l-0.907,0.589
			c-0.126,0.08-0.244,0.247-0.243,0.57l-0.036,38.468c0.087,0.757,1.277,0.821,2.575,0.821c1.095-0.005,2.386-0.064,2.52-0.8
			c0,0-0.031-36.407,0.005-39.911c0.002-0.161,0.076-0.206,0.101-0.219c0.042-0.023,0.226-0.041,0.226-0.041
			c0.272-0.009,0.421-0.144,0.423-0.414v-0.713C25.288,29.921,25.121,29.781,24.89,29.775"/>
	</defs>
	<clipPath id="SVGID_174_">
		<use xlink:href="#SVGID_173_"  overflow="visible"/>
	</clipPath>
	<g clip-path="url(#SVGID_174_)">
		<defs>
			<rect id="SVGID_175_" width="489" height="124"/>
		</defs>
		<clipPath id="SVGID_176_">
			<use xlink:href="#SVGID_175_"  overflow="visible"/>
		</clipPath>
		<rect x="13.509" y="24.775" clip-path="url(#SVGID_176_)" fill="#63A1D9" width="16.794" height="52.512"/>
	</g>
</g>
<g>
	<defs>
		<path id="SVGID_177_" d="M186.999,8.7v1.455c-5.131,0.079-6.968,2.142-6.968,7.054v20.686c0,9.504-6.052,19.706-22.685,19.706
			c-14.64,0-22.146-8.361-22.146-19.316V15.902c0-4.9-1.38-5.668-6.593-5.748V8.7h19.7v1.455h-0.695
			c-4.21,0-6.054,1.148-6.054,5.599V37.05c0,10.349,6.054,16.558,17.477,16.558c8.654,0,17.47-3.604,17.47-16.631V19.118
			c0-7.352-1.15-8.655-7.512-8.963V8.7H186.999"/>
	</defs>
	<clipPath id="SVGID_178_">
		<use xlink:href="#SVGID_177_"  overflow="visible"/>
	</clipPath>
	<g clip-path="url(#SVGID_178_)">
		<defs>
			<rect id="SVGID_179_" width="489" height="124"/>
		</defs>
		<clipPath id="SVGID_180_">
			<use xlink:href="#SVGID_179_"  overflow="visible"/>
		</clipPath>
		<rect x="123.607" y="3.7" clip-path="url(#SVGID_180_)" fill="#63A1D9" width="68.391" height="58.901"/>
	</g>
</g>
<g>
	<defs>
		<path id="SVGID_181_" d="M235.359,56.909l-39.691-41.543v32.878c0,5.52,1.229,6.665,7.745,6.665v1.458h-17.789v-1.458h0.306
			c4.752,0,6.286-1.611,6.286-5.134v-37.7c-1.757-1.229-3.76-1.841-6.44-1.92V8.7h12.031l36.096,37.625v-30.5
			c0-4.671-1.381-5.517-7.502-5.67V8.7h17.935v1.455c-5.753,0-6.979,0.999-6.979,3.985v42.769H235.359"/>
	</defs>
	<clipPath id="SVGID_182_">
		<use xlink:href="#SVGID_181_"  overflow="visible"/>
	</clipPath>
	<g clip-path="url(#SVGID_182_)">
		<defs>
			<rect id="SVGID_183_" width="489" height="124"/>
		</defs>
		<clipPath id="SVGID_184_">
			<use xlink:href="#SVGID_183_"  overflow="visible"/>
		</clipPath>
		<rect x="180.624" y="3.7" clip-path="url(#SVGID_184_)" fill="#63A1D9" width="68.712" height="58.208"/>
	</g>
</g>
<g>
	<defs>
		<path id="SVGID_185_" d="M290.079,21.271c-2.524-7.131-9.115-11.809-17.476-11.809c-12.795,0-20.769,9.275-20.769,22.147
			c0,13.873,9.969,24.068,21.612,24.068c6.058,0,13.498-2.07,18.703-11.34h1.457c-0.999,3.442-3.066,8.204-4.905,11.184
			c-4.908-0.684-8.273,2.08-17.319,2.08c-15.565,0-26.75-10.272-26.75-24.452c0-14.874,11.495-25.599,27.515-25.599
			c9.659,0,13.789,3.068,16.173,3.068c0.841,0,1.22-0.233,1.377-0.463h1.145l0.695,11.116H290.079"/>
	</defs>
	<clipPath id="SVGID_186_">
		<use xlink:href="#SVGID_185_"  overflow="visible"/>
	</clipPath>
	<g clip-path="url(#SVGID_186_)">
		<defs>
			<rect id="SVGID_187_" width="489" height="124"/>
		</defs>
		<clipPath id="SVGID_188_">
			<use xlink:href="#SVGID_187_"  overflow="visible"/>
		</clipPath>
		<rect x="239.632" y="2.55" clip-path="url(#SVGID_188_)" fill="#63A1D9" width="58.975" height="60.052"/>
	</g>
</g>
</svg>
