<?xml version="1.0" encoding="utf-8"?>
<!-- Generator: Adobe Illustrator 19.1.0, SVG Export Plug-In . SVG Version: 6.00 Build 0)  -->
<svg version="1.1" id="Layer_1" xmlns="http://www.w3.org/2000/svg" xmlns:xlink="http://www.w3.org/1999/xlink" x="0px" y="0px"
	 viewBox="0 0 792 612" style="enable-background:new 0 0 792 612;" xml:space="preserve">
<path d="M252.9,313.6c0-5,2-9.5,6.9-9.5c5,0,7,4.5,7,9.5c0,5.1-2,9.9-7,9.9C254.9,323.4,252.9,318.9,252.9,313.6 M249,313.6
	c0,6,4.6,11.1,10.9,11.1c6.4,0,10.9-5.1,10.9-11.1c0-5.9-4.6-10.7-10.9-10.7C253.5,302.9,249,307.7,249,313.6 M280.6,313.9H278v-9
	c0.5-0.1,1.5-0.3,2.1-0.3h0.8c3.3,0,4.9,1.4,4.9,4.4C285.7,312.1,284.1,313.9,280.6,313.9 M287.3,324.2h5.1v-0.9l-2-0.5
	c-0.7-0.4-1.4-1.1-2.1-2.3l-2.1-3.2c-1.1-1.7-1.6-2.4-2.2-2.8c2.9-0.6,5.3-2.9,5.3-5.6c0-3.7-3.4-5.5-8-5.5h-9.7v0.9l2,0.4
	c0.6,0.1,0.9,0.2,0.9,0.7v16.7c0,0.5-0.1,0.5-0.9,0.7l-2,0.4v1h9.2v-0.9l-2-0.4c-0.7-0.1-0.8-0.2-0.8-0.7v-7h3.3l3.2,5.3
	C285.5,322.2,286.6,323.8,287.3,324.2 M307,303.4h-13.4v1l2,0.4c0.8,0.1,0.9,0.2,0.9,0.7v16.7c0,0.5-0.1,0.5-0.9,0.7l-2,0.4v1h16.6
	l1-6.5h-0.9c-0.4,1.5-1.3,3.5-2,4.3c-0.9,0.7-3.1,1-4.4,1h-0.8c-1.4,0-2.4-0.1-3.1-0.2v-8.8h4c1,0.7,1.5,1.8,1.8,3.2h0.7v-7.7h-0.7
	c-0.2,1-0.9,2.5-1.8,3.1h-4v-7.9c0.7-0.1,1.8-0.2,2.6-0.2h0.3c2,0,4.2,0.5,4.9,1c0.6,0.9,1.2,2.5,1.6,4.1h0.9l-0.6-6.7
	C309.2,303.2,308,303.4,307,303.4 M331.5,310.4h0.9l-0.4-7.2h-0.7l-0.6,0.9c-0.9-0.4-2.5-1.1-5.7-1.1c-7.3,0-12.1,4.5-12.1,10.5
	c0,6.1,4.2,11.1,10.8,11.1c3.7,0,7.2-0.9,8.7-1.8l-0.2-0.6v-6.2c0-0.7,0.2-0.8,0.9-1.1l0.6-0.2v-0.8h-8.1v0.9l2.4,0.6
	c0.7,0.2,0.8,0.3,0.8,0.8v6c-0.8,0.8-2.8,1.4-4.5,1.4c-4.1,0-7.5-3.7-7.5-10.2c0-5.2,2.7-9.2,8-9.2c2.6,0,4.2,0.8,5,1.5
	C330.5,306.5,331.3,308.9,331.5,310.4 M353.4,313.6c0,5.1-2,9.9-7,9.9c-5,0-6.9-4.5-6.9-9.9c0-5,2-9.5,6.9-9.5
	C351.5,304.1,353.4,308.6,353.4,313.6 M357.3,313.6c0-5.9-4.6-10.7-10.9-10.7c-6.3,0-10.9,4.8-10.9,10.7c0,6,4.6,11.1,10.9,11.1
	C352.8,324.7,357.3,319.5,357.3,313.6 M376.2,309v9.6l-12.3-15.2h-5.5v1l1.6,0.4c0.9,0.2,1,0.2,1,0.7v13.2c0,0.9-0.1,2.7-0.2,3.4
	c-0.1,0.6-0.2,0.7-0.6,0.8l-2,0.3v0.9h7.9v-0.9l-2.8-0.4c-0.4-0.1-0.5-0.3-0.6-0.7c-0.1-1-0.2-2.5-0.2-3.5v-11.8l14.4,17.8h0.7V309
	c0-1.2,0.1-2.6,0.1-3.5c0-0.6,0.4-0.7,0.7-0.8l2-0.3v-0.9h-7.9v0.9l2.8,0.4c0.4,0.1,0.5,0.2,0.6,0.8
	C376.1,306.3,376.2,307.7,376.2,309 M259.5,288.2L259.5,288.2l0-0.5h-3.2v0.5l1,0.2c0.3,0.1,0.3,0.1,0.3,0.2v4.7c0,1.9-0.9,3-2.5,3
	c-1.4,0-2.2-1.1-2.2-2.8v-4.8c0-0.2,0-0.2,0.3-0.3l0.9-0.2l0,0v-0.5h-4.1v0.5l0.8,0.2c0.3,0.1,0.3,0.1,0.3,0.3v4.8
	c0,2.3,1.4,3.7,3.9,3.7c2.3,0,3.7-1.4,3.7-3.8v-4.7c0-0.1,0-0.2,0.3-0.3L259.5,288.2z M271.4,288.4l0.9-0.2v-0.5h-3.7v0.5l1.3,0.2
	c0.1,0,0.2,0.1,0.2,0.3c0,0.3,0.1,0.9,0.1,1.5v3.9l-5.1-6.4l0,0h-2.7v0.6l0.8,0.2l0.1,0c0.3,0.1,0.3,0.1,0.3,0.2v5.8
	c0,0.4,0,0.9-0.1,1.2l0,0.4c0,0.2-0.1,0.2-0.2,0.2l-0.9,0.2v0.5h3.7v-0.5l-1.3-0.2c-0.2,0-0.2-0.1-0.2-0.2c0-0.3-0.1-1-0.1-1.5v-4.9
	l6.1,7.6l0,0h0.6v-7c0-0.5,0-0.9,0-1.2l0,0c0-0.1,0-0.2,0-0.2l0-0.1C271.2,288.5,271.3,288.4,271.4,288.4 M275.3,297h4.3v-0.5
	l-0.9-0.2c-0.3-0.1-0.3-0.1-0.3-0.2v-7.4c0-0.1,0-0.2,0.4-0.2l0.8-0.2l0,0v-0.5h-4.3v0.5l0.9,0.2c0.3,0.1,0.3,0.1,0.3,0.2v7.4
	c0,0.2,0,0.2-0.4,0.2l-0.8,0.2l0,0V297z M291.6,288.2L291.6,288.2l0-0.5h-2.9v0.5l0.7,0.2c0.1,0,0.3,0.1,0.3,0.1c0,0,0,0.1,0,0.1
	l-2.4,6.2l-2.4-6.2c0-0.1,0-0.1,0-0.2c0,0,0.1-0.1,0.2-0.1l0.8-0.2l0,0v-0.6h-3.8v0.6l0.4,0.1l0,0c0.2,0.1,0.3,0.1,0.4,0.3l3.3,8.4
	l0,0h0.8l3.6-8.4c0.1-0.2,0.2-0.3,0.3-0.3L291.6,288.2z M297.3,296.3v-3.7h1.6c0.4,0.3,0.7,0.7,0.8,1.4l0,0.1h0.4v-3.5h-0.4l0,0.1
	c-0.1,0.4-0.4,1.1-0.8,1.3h-1.6v-3.4c0.3,0,0.6-0.1,1-0.1h0.1c0.9,0,1.7,0.2,2.1,0.4c0.3,0.3,0.5,1,0.7,1.8l0,0h0.5l-0.3-3.1v0
	l-0.1,0c-0.2,0.1-0.8,0.2-1.2,0.2h-6v0.5l0.9,0.2c0.3,0.1,0.3,0.1,0.3,0.2v7.4c0,0.2,0,0.2-0.4,0.2l-0.8,0.2l0,0v0.5h7.4l0.4-3l0,0
	h-0.5l0,0c-0.2,0.7-0.6,1.5-0.9,1.9c-0.4,0.3-1.3,0.4-1.9,0.4h-0.3C298,296.4,297.7,296.3,297.3,296.3L297.3,296.3z M308.8,292.3
	H308v-3.9c0.1,0,0.5-0.1,0.8-0.1h0.2c1.3,0,2,0.6,2,1.9C311,291.6,310.3,292.3,308.8,292.3 M311.7,297l2.5,0v-0.5l-0.9-0.2
	c-0.3-0.2-0.6-0.5-0.9-1l-0.9-1.4c-0.4-0.6-0.7-1-1-1.2c1.2-0.3,2.3-1.2,2.3-2.5c0-1.5-1.4-2.5-3.6-2.5H305v0.5l0.9,0.2
	c0.3,0.1,0.3,0.1,0.3,0.2v7.4c0,0.2,0,0.2-0.3,0.2l-0.8,0.2l0,0v0.5h4.3v-0.5l-0.9-0.2c-0.3-0.1-0.3-0.1-0.3-0.2v-3h1l1.4,2.3
	C311,296.2,311.4,296.8,311.7,297L311.7,297z M318.7,289.5c0-0.9,0.6-1.5,1.5-1.5c0.7,0,1.2,0.4,1.6,0.7c0.2,0.4,0.5,1.1,0.6,1.7
	l0,0.1h0.6l-0.1-3v0h-0.4l-0.3,0.4c-0.6-0.3-1.2-0.5-2-0.5c-1.9,0-3.2,1.1-3.2,2.5c0,1.2,0.7,2.1,2.2,2.7l0.9,0.4
	c0.7,0.3,1.4,0.7,1.4,1.8c0,1.1-0.7,1.7-1.8,1.7c-0.9,0-1.3-0.4-1.6-0.8c-0.3-0.6-0.5-1.4-0.6-2l0-0.1h-0.6l0,0.3c0,0.3,0,0.6,0,0.9
	c0,0.9,0.1,1.9,0,2.3l0,0.1h0.4l0.2-0.4c0.6,0.3,1.4,0.4,2.2,0.4c2.1,0,3.5-1.1,3.5-2.8c0-1.5-1-2.1-2.1-2.6l-1.4-0.6
	C319.1,290.7,318.7,290.3,318.7,289.5 M326.2,297h4.3v-0.5l-0.9-0.2c-0.3-0.1-0.3-0.1-0.3-0.2v-7.4c0-0.1,0-0.2,0.4-0.2l0.8-0.2l0,0
	v-0.5h-4.3v0.5l0.9,0.2c0.3,0.1,0.3,0.1,0.3,0.2v7.4c0,0.2,0,0.2-0.3,0.2l-0.8,0.2l0,0V297z M341.5,290.6h0.5l-0.1-3.1v0l-0.1,0
	c-0.2,0.1-0.9,0.2-1.2,0.2h-5.9c-0.5,0-1.1-0.1-1.3-0.2l-0.1,0l-0.1,3.1l0,0h0.5l0,0c0.1-0.6,0.4-1.4,0.7-1.8
	c0.3-0.2,0.9-0.3,1.8-0.3h0.5v7.7c0,0.1,0,0.1-0.3,0.2l-1,0.2l0,0v0.5h4.6v-0.5l-1-0.2l0,0c-0.3-0.1-0.3-0.1-0.3-0.2v-7.7h0.6
	c0.7,0,1.1,0.1,1.6,0.4C341,289.1,341.3,289.9,341.5,290.6L341.5,290.6z M353.1,288.4l0.5-0.1v-0.5h-3v0.5l0.7,0.1
	c0.2,0,0.3,0.1,0.4,0.1c0,0,0,0.1,0,0.2l-2,3.4l-2.3-3.5c-0.1-0.1-0.1-0.1-0.1-0.1c0,0,0.1-0.1,0.2-0.1l0.8-0.2l0,0v-0.6h-3.8v0.6
	l0.5,0.2c0.2,0.1,0.2,0.1,0.4,0.3l2.9,4.4v2.8c0,0.1,0,0.2-0.4,0.2l-1,0.2l0,0v0.5h4.6v-0.5l-1.1-0.2c-0.3-0.1-0.3-0.1-0.3-0.2v-3.1
	l2.6-4.2C352.7,288.5,352.9,288.4,353.1,288.4 M365.5,296.5c-2.1,0-2.9-2.3-2.9-4.3c0-1.1,0.2-2.1,0.6-2.8c0.5-0.9,1.2-1.3,2.2-1.3
	c1,0,1.7,0.4,2.2,1.3c0.4,0.7,0.6,1.7,0.6,2.8C368.3,294.2,367.6,296.5,365.5,296.5 M370.3,292.2c0-2.7-2.1-4.7-4.8-4.8v0l-0.1,0
	c-2.8,0-4.8,2.1-4.8,4.8c0,2.4,1.8,4.9,4.9,5h0C368.5,297.2,370.3,294.7,370.3,292.2 M380.4,290.6l-0.3-3.1l0,0l-0.1,0
	c-0.3,0.1-1,0.2-1.5,0.2H373v0.5l1,0.2c0.3,0.1,0.3,0.1,0.3,0.2v7.4c0,0.2,0,0.2-0.3,0.2l-0.8,0.2l0,0v0.5h4.6v-0.5l-1.3-0.2l-0.1,0
	c-0.2,0-0.2,0-0.2-0.2v-3.3h1.7c0.3,0.3,0.6,1.1,0.7,1.5l0,0h0.5v-3.6h-0.5l0,0.1c-0.1,0.4-0.4,1.1-0.7,1.3h-1.7v-3.5
	c0.3-0.1,0.7-0.1,1-0.1h0.1c0.8,0,1.6,0.2,1.9,0.4c0.3,0.3,0.6,1,0.7,1.8l0,0H380.4z"/>
<path d="M218.3,313.4c-0.9,5.8-5.7,10.1-11.3,12.2c-4.6,1.8-9.9,2.6-15.2,2.6c-5.3,0-10.5-0.9-15.2-2.6c-5.6-2.1-10.4-6.4-11.3-12.2
	c-0.4-2.3-0.6-4.7-0.6-7.3c0-2.6,0.2-5.1,0.6-7.3c0.9-5.8,5.7-10.1,11.3-12.2c4.6-1.8,9.9-2.6,15.2-2.6c5.3,0,10.5,0.9,15.2,2.6
	c5.6,2.1,10.4,6.4,11.3,12.2c0.4,2.3,0.6,4.7,0.6,7.3C218.9,308.7,218.6,311.1,218.3,313.4 M205.4,299.8c-0.1-2.5-0.4-5.1-1.8-7.1
	c-2.7-3.9-7.4-5.5-11.8-5.5c-4.5,0-9.1,1.6-11.8,5.5c-1.4,2-1.7,4.6-1.8,7.1c-0.1,1.8-0.2,4-0.2,6.3c0,2.3,0.1,4.5,0.1,6.3
	c0.1,2.5,0.4,5.1,1.8,7.1c2.7,3.9,7.3,5.5,11.8,5.5c4.5,0,9.1-1.6,11.8-5.5c1.4-2,1.7-4.6,1.8-7.1c0.1-1.8,0.1-4,0.1-6.3
	C205.5,303.8,205.5,301.6,205.4,299.8"/>
<rect x="232.4" y="283.7" width="0.7" height="44.7"/>
<rect x="395.8" y="283.7" width="0.7" height="44.7"/>
<g>
	<path d="M415.6,299.7h2.7v8.9h4v2.1h-6.7V299.7z"/>
	<path d="M423.6,300.3c0-0.8,0.6-1.4,1.5-1.4s1.5,0.7,1.5,1.4s-0.6,1.4-1.5,1.4S423.6,301.1,423.6,300.3z M423.9,302.6h2.5v8.1h-2.5
		V302.6z"/>
	<path d="M428.4,310.3v-11.4h2.5v4.4c0.4-0.4,1.1-0.8,2-0.8c2,0,3.4,1.3,3.4,4.2c0,2.9-1.9,4.3-4.4,4.3
		C430.1,310.9,428.9,310.5,428.4,310.3z M433.6,306.6c0-1.5-0.5-2.2-1.5-2.2c-0.6,0-1,0.3-1.2,0.6v3.9c0.2,0.1,0.5,0.1,1,0.1
		C432.9,309,433.6,308.3,433.6,306.6z"/>
	<path d="M437.7,302.6h2.5v1.1c0.4-0.6,1-1.3,2-1.3c0.6,0,1,0.1,1.2,0.2l-0.6,2.1c-0.1-0.1-0.4-0.2-0.9-0.2c-0.9,0-1.5,0.7-1.7,1.1
		v5h-2.5V302.6z"/>
	<path d="M444,308.6c0-2.1,2.1-2.9,4.3-2.9h0.3v-0.4c0-0.6-0.3-0.9-1.2-0.9c-0.9,0-1.6,0.4-2,0.7l-1.1-1.5c0.6-0.5,1.7-1.2,3.4-1.2
		c2.3,0,3.4,0.9,3.4,3.1v2.6c0,1.2,0.1,2,0.2,2.6h-2.5c-0.1-0.2-0.1-0.6-0.1-0.8c-0.4,0.5-1.2,1-2.2,1
		C445.1,310.9,444,310.1,444,308.6z M448.5,308.6v-1.4h-0.3c-1.1,0-1.9,0.3-1.9,1.2c0,0.5,0.4,0.8,0.9,0.8
		C447.9,309.1,448.3,308.9,448.5,308.6z"/>
	<path d="M452.9,302.6h2.5v1.1c0.4-0.6,1-1.3,2-1.3c0.6,0,1,0.1,1.2,0.2l-0.6,2.1c-0.1-0.1-0.4-0.2-0.9-0.2c-0.9,0-1.5,0.7-1.7,1.1
		v5h-2.5V302.6z"/>
	<path d="M459.5,300.3c0-0.8,0.6-1.4,1.5-1.4s1.5,0.7,1.5,1.4s-0.6,1.4-1.5,1.4S459.5,301.1,459.5,300.3z M459.7,302.6h2.5v8.1h-2.5
		V302.6z"/>
	<path d="M463.7,306.6c0-2.6,1.8-4.2,4.1-4.2c2.6,0,3.9,1.8,3.6,4.9h-5c0.1,1,0.7,1.7,1.9,1.7c1.1,0,1.6-0.3,2.1-0.5l0.8,1.6
		c-0.6,0.3-1.4,0.8-3.1,0.8C465.3,310.9,463.7,309.3,463.7,306.6z M469,305.7c0-0.8-0.3-1.5-1.2-1.5c-0.8,0-1.3,0.5-1.4,1.5H469z"/>
	<path d="M472.4,310.2l0.8-1.7c0.3,0.2,1.1,0.7,2,0.7c0.8,0,1.2-0.2,1.2-0.6c0-0.5-1-0.6-2.1-1.2c-1.1-0.5-1.7-1.2-1.7-2.3
		c0-1.6,1.3-2.6,3.2-2.6c1.4,0,2.3,0.4,2.7,0.6l-0.8,1.7c-0.3-0.2-1-0.5-1.7-0.5c-0.7,0-1,0.2-1,0.6c0,0.5,0.8,0.6,1.7,0.9
		c1.3,0.5,2.1,1.1,2.1,2.5c0,1.8-1.3,2.7-3.3,2.7C473.8,310.9,472.9,310.5,472.4,310.2z"/>
</g>
</svg>
