<?xml version="1.0" encoding="utf-8"?>
<!-- Generator: Adobe Illustrator 15.1.0, SVG Export Plug-In . SVG Version: 6.00 Build 0)  -->
<!DOCTYPE svg PUBLIC "-//W3C//DTD SVG 1.1//EN" "http://www.w3.org/Graphics/SVG/1.1/DTD/svg11.dtd">
<svg version="1.1" id="Layer_1" xmlns="http://www.w3.org/2000/svg" xmlns:xlink="http://www.w3.org/1999/xlink" x="0px" y="0px"
	 width="242.713px" height="48px" viewBox="127.268 370.5 242.713 48" enable-background="new 127.268 370.5 242.713 48"
	 xml:space="preserve">
<path d="M195.423,401.873c0-3.864,1.545-7.341,5.332-7.341c3.864,0,5.409,3.477,5.409,7.341c0,3.94-1.545,7.649-5.409,7.649
	C196.968,409.445,195.423,405.968,195.423,401.873 M192.409,401.873c0,4.636,3.555,8.577,8.423,8.577
	c4.945,0,8.422-3.941,8.422-8.577c0-4.56-3.554-8.269-8.422-8.269C195.886,393.604,192.409,397.313,192.409,401.873
	 M216.827,402.104h-2.009v-6.955c0.386-0.077,1.159-0.232,1.623-0.232h0.618c2.55,0,3.786,1.082,3.786,3.4
	C220.768,400.714,219.532,402.104,216.827,402.104 M222.004,410.063h3.941v-0.695l-1.545-0.387c-0.541-0.309-1.082-0.85-1.623-1.776
	l-1.623-2.474c-0.85-1.313-1.236-1.854-1.7-2.163c2.241-0.464,4.095-2.241,4.095-4.327c0-2.859-2.627-4.25-6.182-4.25h-7.496v0.696
	l1.545,0.309c0.464,0.077,0.696,0.154,0.696,0.541v12.905c0,0.386-0.078,0.386-0.696,0.54l-1.545,0.31v0.772h7.109v-0.695
	l-1.545-0.309c-0.541-0.078-0.618-0.155-0.618-0.541v-5.409h2.55l2.473,4.096C220.614,408.519,221.464,409.755,222.004,410.063
	 M237.227,393.991h-10.354v0.773l1.545,0.309c0.618,0.077,0.696,0.155,0.696,0.541v12.905c0,0.386-0.078,0.386-0.696,0.541
	l-1.545,0.309v0.772H239.7l0.772-5.022h-0.695c-0.309,1.159-1.004,2.704-1.545,3.323c-0.696,0.54-2.396,0.772-3.4,0.772h-0.618
	c-1.082,0-1.855-0.077-2.396-0.155v-6.8h3.091c0.772,0.541,1.159,1.392,1.391,2.473h0.541v-5.949H236.3
	c-0.154,0.772-0.695,1.932-1.391,2.396h-3.091v-6.105c0.541-0.077,1.391-0.155,2.009-0.155h0.232c1.545,0,3.246,0.387,3.787,0.773
	c0.463,0.696,0.927,1.932,1.236,3.168h0.695l-0.464-5.178C238.927,393.836,238,393.991,237.227,393.991 M256.159,399.4h0.695
	l-0.309-5.564h-0.541l-0.463,0.695c-0.696-0.309-1.932-0.85-4.405-0.85c-5.641,0-9.35,3.478-9.35,8.114
	c0,4.713,3.246,8.577,8.346,8.577c2.859,0,5.563-0.695,6.723-1.392l-0.154-0.463v-4.791c0-0.541,0.154-0.618,0.695-0.851
	l0.463-0.154v-0.618H251.6v0.695l1.854,0.464c0.541,0.154,0.618,0.231,0.618,0.618v4.637c-0.618,0.618-2.164,1.081-3.478,1.081
	c-3.168,0-5.795-2.858-5.795-7.882c0-4.018,2.086-7.109,6.182-7.109c2.009,0,3.245,0.618,3.863,1.159
	C255.386,396.387,256.004,398.241,256.159,399.4 M273.082,401.873c0,3.94-1.546,7.649-5.409,7.649c-3.864,0-5.332-3.477-5.332-7.649
	c0-3.864,1.545-7.341,5.332-7.341C271.614,394.532,273.082,398.009,273.082,401.873 M276.095,401.873
	c0-4.56-3.554-8.269-8.422-8.269s-8.423,3.709-8.423,8.269c0,4.636,3.555,8.577,8.423,8.577
	C272.618,410.45,276.095,406.432,276.095,401.873 M290.7,398.318v7.418l-9.505-11.746h-4.25v0.773l1.236,0.309
	c0.696,0.155,0.773,0.155,0.773,0.541v10.2c0,0.695-0.077,2.087-0.155,2.628c-0.077,0.463-0.154,0.54-0.463,0.617l-1.545,0.232
	v0.695h6.104v-0.695l-2.164-0.31c-0.309-0.077-0.386-0.231-0.464-0.54c-0.077-0.773-0.154-1.933-0.154-2.705v-9.118l11.127,13.755
	h0.541v-12.055c0-0.928,0.077-2.01,0.077-2.705c0-0.464,0.309-0.541,0.541-0.618l1.545-0.232v-0.695h-6.104v0.695l2.164,0.309
	c0.309,0.077,0.387,0.155,0.464,0.618C290.623,396.231,290.7,397.313,290.7,398.318 M200.523,382.246L200.523,382.246v-0.386h-2.473
	v0.386l0.773,0.154c0.232,0.078,0.232,0.078,0.232,0.155v3.632c0,1.468-0.696,2.318-1.932,2.318c-1.082,0-1.7-0.85-1.7-2.164v-3.709
	c0-0.154,0-0.154,0.231-0.232l0.696-0.154l0,0v-0.386h-3.168v0.386l0.618,0.154c0.232,0.078,0.232,0.078,0.232,0.232v3.709
	c0,1.777,1.082,2.859,3.014,2.859c1.777,0,2.859-1.082,2.859-2.937v-3.632c0-0.077,0-0.154,0.232-0.232L200.523,382.246z
	 M209.718,382.4l0.695-0.154v-0.387h-2.859v0.387l1.004,0.154c0.077,0,0.154,0.078,0.154,0.232c0,0.232,0.078,0.695,0.078,1.159
	v3.014l-3.941-4.946l0,0h-2.086v0.464l0.618,0.155h0.077c0.232,0.077,0.232,0.077,0.232,0.154v4.482c0,0.309,0,0.695-0.077,0.927
	v0.309c0,0.154-0.078,0.154-0.155,0.154l-0.695,0.155v0.386h2.859v-0.386l-1.004-0.155c-0.155,0-0.155-0.077-0.155-0.154
	c0-0.232-0.077-0.773-0.077-1.159v-3.786l4.714,5.873l0,0h0.463v-5.409c0-0.386,0-0.695,0-0.927l0,0c0-0.077,0-0.155,0-0.155v-0.077
	C209.563,382.478,209.641,382.4,209.718,382.4 M212.732,389.045h3.323v-0.386l-0.696-0.155c-0.231-0.077-0.231-0.077-0.231-0.154
	v-5.718c0-0.077,0-0.155,0.309-0.155l0.618-0.154l0,0v-0.386h-3.323v0.386l0.695,0.154c0.232,0.078,0.232,0.078,0.232,0.155v5.718
	c0,0.154,0,0.154-0.309,0.154l-0.618,0.155l0,0V389.045z M225.327,382.246L225.327,382.246v-0.386h-2.241v0.386l0.541,0.154
	c0.077,0,0.231,0.078,0.231,0.078v0.077l-1.854,4.791l-1.854-4.791c0-0.077,0-0.077,0-0.155c0,0,0.078-0.077,0.155-0.077
	l0.618-0.155l0,0v-0.463h-2.937v0.463l0.309,0.078l0,0c0.155,0.077,0.232,0.077,0.309,0.232l2.55,6.491l0,0h0.618l2.782-6.491
	c0.077-0.155,0.154-0.232,0.231-0.232H225.327z M229.732,388.504v-2.859h1.236c0.309,0.232,0.541,0.541,0.618,1.082v0.078h0.309
	V384.1h-0.309v0.077c-0.077,0.309-0.309,0.85-0.618,1.004h-1.236v-2.627c0.231,0,0.463-0.078,0.772-0.078h0.078
	c0.695,0,1.313,0.155,1.623,0.309c0.232,0.232,0.386,0.773,0.541,1.391l0,0h0.386l-0.232-2.396l0,0h-0.077
	c-0.155,0.077-0.618,0.155-0.927,0.155h-4.636v0.386l0.695,0.154c0.232,0.078,0.232,0.078,0.232,0.155v5.718
	c0,0.154,0,0.154-0.309,0.154l-0.618,0.155l0,0v0.386h5.718l0.309-2.318l0,0H232.9l0,0c-0.154,0.541-0.463,1.159-0.695,1.468
	c-0.309,0.232-1.004,0.309-1.468,0.309h-0.232C230.273,388.582,230.041,388.504,229.732,388.504L229.732,388.504z M238.618,385.414
	H238V382.4c0.077,0,0.386-0.077,0.618-0.077h0.155c1.004,0,1.545,0.463,1.545,1.468
	C240.318,384.873,239.777,385.414,238.618,385.414 M240.859,389.045h1.932v-0.386l-0.695-0.155
	c-0.232-0.154-0.464-0.386-0.696-0.772l-0.695-1.082c-0.309-0.463-0.541-0.772-0.773-0.927c0.927-0.232,1.777-0.927,1.777-1.932
	c0-1.159-1.082-1.932-2.782-1.932h-3.246v0.387l0.696,0.154c0.231,0.078,0.231,0.078,0.231,0.155v5.718c0,0.154,0,0.154-0.231,0.154
	l-0.618,0.155l0,0v0.386h3.323v-0.386l-0.696-0.155c-0.232-0.077-0.232-0.077-0.232-0.154v-2.318h0.773l1.082,1.777
	C240.318,388.427,240.627,388.891,240.859,389.045L240.859,389.045z M246.268,383.25c0-0.695,0.464-1.159,1.159-1.159
	c0.541,0,0.927,0.309,1.236,0.541c0.155,0.309,0.386,0.85,0.464,1.313v0.078h0.463l-0.077-2.318l0,0h-0.309l-0.232,0.309
	c-0.463-0.232-0.927-0.386-1.545-0.386c-1.468,0-2.473,0.85-2.473,1.932c0,0.927,0.541,1.623,1.7,2.086l0.695,0.309
	c0.541,0.232,1.082,0.541,1.082,1.391c0,0.85-0.541,1.313-1.391,1.313c-0.695,0-1.004-0.309-1.236-0.618
	c-0.232-0.464-0.387-1.082-0.464-1.545v-0.078h-0.463v0.232c0,0.232,0,0.464,0,0.696c0,0.695,0.077,1.468,0,1.777v0.078h0.309
	l0.154-0.309c0.464,0.231,1.082,0.309,1.7,0.309c1.623,0,2.705-0.85,2.705-2.164c0-1.159-0.773-1.623-1.623-2.009l-1.082-0.464
	C246.577,384.177,246.268,383.868,246.268,383.25 M252.063,389.045h3.323v-0.386l-0.695-0.155c-0.232-0.077-0.232-0.077-0.232-0.154
	v-5.718c0-0.077,0-0.155,0.309-0.155l0.618-0.154l0,0v-0.386h-3.323v0.386l0.696,0.154c0.231,0.078,0.231,0.078,0.231,0.155v5.718
	c0,0.154,0,0.154-0.231,0.154l-0.618,0.155l0,0v0.386H252.063z M263.886,384.1h0.386l-0.077-2.396l0,0h-0.077
	c-0.154,0.077-0.695,0.155-0.927,0.155h-4.559c-0.386,0-0.85-0.078-1.004-0.155h-0.078l-0.077,2.396l0,0h0.386l0,0
	c0.078-0.464,0.309-1.082,0.541-1.391c0.232-0.154,0.695-0.231,1.391-0.231h0.386v5.95c0,0.077,0,0.077-0.232,0.155l-0.772,0.154
	l0,0v0.387h3.554v-0.387l-0.772-0.154l0,0c-0.232-0.078-0.232-0.078-0.232-0.155v-5.95h0.464c0.541,0,0.85,0.077,1.236,0.309
	C263.5,382.941,263.732,383.559,263.886,384.1L263.886,384.1z M272.85,382.4l0.386-0.077v-0.386h-2.318v0.386l0.541,0.077
	c0.155,0,0.232,0.078,0.309,0.078c0,0,0,0.077,0,0.154l-1.545,2.627l-1.777-2.705c-0.077-0.077-0.077-0.077-0.077-0.077
	s0.077-0.078,0.155-0.078l0.618-0.154l0,0v-0.464h-2.937v0.464l0.386,0.154c0.155,0.078,0.155,0.078,0.309,0.232l2.241,3.4v2.164
	c0,0.077,0,0.155-0.309,0.155l-0.773,0.154l0,0v0.387h3.555v-0.387l-0.85-0.154c-0.232-0.078-0.232-0.078-0.232-0.155V385.8
	l2.009-3.245C272.541,382.478,272.695,382.4,272.85,382.4 M282.432,388.659c-1.623,0-2.241-1.777-2.241-3.323
	c0-0.85,0.155-1.623,0.463-2.164c0.387-0.695,0.928-1.005,1.7-1.005c0.773,0,1.313,0.31,1.7,1.005
	c0.309,0.541,0.463,1.313,0.463,2.164C284.595,386.882,284.055,388.659,282.432,388.659 M286.141,385.336
	c0-2.086-1.623-3.632-3.709-3.709l0,0h-0.077c-2.164,0-3.709,1.623-3.709,3.709c0,1.854,1.391,3.786,3.786,3.864l0,0
	C284.75,389.2,286.141,387.268,286.141,385.336 M293.945,384.1l-0.231-2.396l0,0h-0.078c-0.232,0.077-0.772,0.155-1.159,0.155h-4.25
	v0.386L289,382.4c0.232,0.078,0.232,0.078,0.232,0.155v5.718c0,0.154,0,0.154-0.232,0.154l-0.618,0.155l0,0v0.386h3.555v-0.386
	l-1.005-0.155h-0.077c-0.154,0-0.154,0-0.154-0.154v-2.55h1.313c0.232,0.232,0.464,0.85,0.541,1.159l0,0h0.386V384.1h-0.386v0.077
	c-0.077,0.309-0.309,0.85-0.541,1.004H290.7v-2.704c0.231-0.078,0.541-0.078,0.772-0.078h0.077c0.618,0,1.236,0.155,1.468,0.309
	c0.232,0.232,0.464,0.773,0.541,1.391l0,0H293.945z"/>
<path d="M168.687,401.718c-0.696,4.482-4.405,7.805-8.732,9.428c-3.555,1.391-7.65,2.009-11.746,2.009
	c-4.095,0-8.113-0.695-11.745-2.009c-4.328-1.623-8.037-4.945-8.732-9.428c-0.309-1.776-0.464-3.632-0.464-5.641
	s0.155-3.941,0.464-5.641c0.695-4.482,4.404-7.805,8.732-9.427c3.554-1.391,7.65-2.009,11.745-2.009
	c4.096,0,8.114,0.695,11.746,2.009c4.327,1.623,8.036,4.945,8.732,9.427c0.309,1.777,0.463,3.632,0.463,5.641
	S168.918,399.941,168.687,401.718 M158.718,391.209c-0.077-1.932-0.309-3.941-1.391-5.486c-2.086-3.014-5.718-4.25-9.118-4.25
	c-3.477,0-7.032,1.236-9.118,4.25c-1.082,1.545-1.313,3.555-1.391,5.486c-0.078,1.391-0.155,3.091-0.155,4.868
	s0.077,3.478,0.077,4.868c0.078,1.932,0.309,3.941,1.391,5.486c2.086,3.014,5.641,4.25,9.118,4.25c3.477,0,7.032-1.236,9.118-4.25
	c1.082-1.545,1.313-3.555,1.391-5.486c0.077-1.391,0.077-3.091,0.077-4.868C158.795,394.3,158.795,392.6,158.718,391.209"/>
<rect x="179.582" y="378.768" width="0.541" height="34.542"/>
<rect x="305.845" y="378.768" width="0.542" height="34.542"/>
<g>
	<path d="M321.146,391.132h2.086v6.877h3.091v1.623h-5.177V391.132z"/>
	<path d="M327.327,391.596c0-0.618,0.464-1.082,1.159-1.082s1.159,0.541,1.159,1.082c0,0.541-0.464,1.082-1.159,1.082
		S327.327,392.214,327.327,391.596z M327.559,393.373h1.933v6.259h-1.933V393.373z"/>
	<path d="M331.036,399.322v-8.809h1.932v3.4c0.31-0.309,0.851-0.618,1.546-0.618c1.545,0,2.627,1.004,2.627,3.246
		s-1.468,3.322-3.399,3.322C332.35,399.786,331.423,399.478,331.036,399.322z M335.055,396.464c0-1.159-0.387-1.7-1.159-1.7
		c-0.464,0-0.772,0.232-0.928,0.464v3.014c0.155,0.077,0.387,0.077,0.773,0.077C334.514,398.318,335.055,397.777,335.055,396.464z"
		/>
	<path d="M338.223,393.373h1.932v0.85c0.31-0.463,0.773-1.004,1.546-1.004c0.464,0,0.772,0.077,0.927,0.154l-0.463,1.623
		c-0.078-0.078-0.31-0.155-0.696-0.155c-0.695,0-1.158,0.541-1.313,0.85v3.864h-1.932V393.373z"/>
	<path d="M343.091,398.009c0-1.622,1.623-2.241,3.323-2.241h0.231v-0.309c0-0.463-0.231-0.695-0.928-0.695
		c-0.695,0-1.236,0.309-1.545,0.541l-0.851-1.159c0.464-0.386,1.314-0.927,2.628-0.927c1.777,0,2.627,0.695,2.627,2.396v2.009
		c0,0.927,0.077,1.545,0.154,2.009H346.8c-0.077-0.154-0.077-0.464-0.077-0.618c-0.309,0.387-0.928,0.772-1.7,0.772
		C343.941,399.786,343.091,399.168,343.091,398.009z M346.568,398.009v-1.081h-0.232c-0.85,0-1.468,0.231-1.468,0.927
		c0,0.387,0.31,0.618,0.695,0.618C346.104,398.396,346.414,398.241,346.568,398.009z"/>
	<path d="M349.968,393.373h1.933v0.85c0.309-0.463,0.772-1.004,1.545-1.004c0.464,0,0.772,0.077,0.928,0.154l-0.464,1.623
		c-0.077-0.078-0.31-0.155-0.695-0.155c-0.695,0-1.159,0.541-1.313,0.85v3.864h-1.933V393.373z"/>
	<path d="M355.068,391.596c0-0.618,0.464-1.082,1.159-1.082s1.159,0.541,1.159,1.082c0,0.541-0.464,1.082-1.159,1.082
		S355.068,392.214,355.068,391.596z M355.223,393.373h1.932v6.259h-1.932V393.373z"/>
	<path d="M358.313,396.464c0-2.009,1.391-3.246,3.168-3.246c2.01,0,3.014,1.391,2.782,3.787H360.4
		c0.077,0.772,0.541,1.313,1.468,1.313c0.85,0,1.236-0.232,1.623-0.387l0.618,1.236c-0.464,0.232-1.082,0.618-2.396,0.618
		C359.55,399.786,358.313,398.55,358.313,396.464z M362.409,395.768c0-0.618-0.231-1.159-0.928-1.159
		c-0.618,0-1.004,0.386-1.081,1.159H362.409z"/>
	<path d="M365.036,399.245l0.618-1.313c0.232,0.154,0.851,0.541,1.546,0.541c0.618,0,0.927-0.154,0.927-0.464
		c0-0.386-0.772-0.463-1.622-0.927c-0.851-0.387-1.314-0.928-1.314-1.777c0-1.236,1.005-2.009,2.474-2.009
		c1.081,0,1.776,0.309,2.086,0.464l-0.618,1.313c-0.231-0.155-0.772-0.386-1.313-0.386s-0.772,0.154-0.772,0.463
		c0,0.386,0.618,0.464,1.313,0.696c1.004,0.386,1.622,0.85,1.622,1.932c0,1.391-1.004,2.086-2.55,2.086
		C366.118,399.786,365.423,399.478,365.036,399.245z"/>
</g>
</svg>
