<?xml version="1.0" encoding="UTF-8" standalone="no"?>
<svg
   xmlns:dc="http://purl.org/dc/elements/1.1/"
   xmlns:cc="http://creativecommons.org/ns#"
   xmlns:rdf="http://www.w3.org/1999/02/22-rdf-syntax-ns#"
   xmlns:svg="http://www.w3.org/2000/svg"
   xmlns="http://www.w3.org/2000/svg"
   viewBox="0 0 225.5125 82.1875"
   height="82.1875"
   width="225.5125"
   xml:space="preserve"
   version="1.1"
   id="svg2"><metadata
     id="metadata8"><rdf:RDF><cc:Work
         rdf:about=""><dc:format>image/svg+xml</dc:format><dc:type
           rdf:resource="http://purl.org/dc/dcmitype/StillImage" /></cc:Work></rdf:RDF></metadata><defs
     id="defs6" /><g
     transform="matrix(1.25,0,0,-1.25,0,82.1875)"
     id="g10"><g
       transform="scale(0.1,0.1)"
       id="g12"><path
         id="path14"
         style="fill:#ffffff;fill-opacity:1;fill-rule:nonzero;stroke:none"
         d="m 5.07422,652.449 572.91778,0 c 0,0 0,-284.062 0,-289.082 C 574.117,127.742 312.477,3.87891 279.578,5.01172 245.352,6.19141 4.27344,127.383 5,364.59 c 0.01953,4.265 0.07422,287.859 0.07422,287.859" /><path
         id="path16"
         style="fill:none;stroke:#231f20;stroke-width:10;stroke-linecap:butt;stroke-linejoin:miter;stroke-miterlimit:3.86360002;stroke-dasharray:none;stroke-opacity:1"
         d="m 5.07422,652.449 572.91778,0 c 0,0 0,-284.062 0,-289.082 C 574.117,127.742 312.477,3.87891 279.578,5.01172 245.352,6.19141 4.27344,127.383 5,364.59 c 0.01953,4.265 0.07422,287.859 0.07422,287.859 z" /><path
         id="path18"
         style="fill:#231f20;fill-opacity:1;fill-rule:nonzero;stroke:none"
         d="m 5.02344,469.695 0.01953,181.067 572.42203,0 c 0,0 0,-97.571 0,-181.074 L 5.02344,469.695" /><path
         id="path20"
         style="fill:#ffffff;fill-opacity:1;fill-rule:nonzero;stroke:none"
         d="m 439.281,617.52 15.383,0 c 11.297,2.585 15.426,9.207 26.977,9.207 8.336,0 12.254,-5.586 18.386,-5.586 5.161,0 13.102,5.937 21.793,5.937 8.883,0 13.297,-5.39 19.125,-7.89 5.176,-2.227 11.961,-2.11 19.133,-2.11 -0.183,-5.215 0,-8.308 0,-12.676 0,-4.453 5.922,-2.695 5.922,-9.941 0,-7.637 -7.637,-6.141 -7.637,-9.219 l -0.293,-28.355 c 0.387,-3.539 7.465,-3.996 7.465,-9.399 0,-7.984 -7.898,-5.222 -7.367,-11.519 0.383,-4.668 0,-14.512 0,-14.512 -15.215,0 -113.016,-0.91 -117.813,-0.727 0.282,10.508 1.911,9.883 2.286,14.946 0.254,4.097 -8.813,6.609 -8.813,13.496 0,4.734 5.453,4.453 5.914,8.922 l 0,28.261 c -0.285,3.731 -8.492,5.586 -8.215,10.879 0.332,6.348 7.633,5.528 7.633,9.766 0,1.867 0.203,8.73 0.121,10.52" /><path
         id="path22"
         style="fill:none;stroke:#231f20;stroke-width:5.04500008;stroke-linecap:butt;stroke-linejoin:miter;stroke-miterlimit:3.86360002;stroke-dasharray:none;stroke-opacity:1"
         d="m 439.281,617.52 15.383,0 c 11.297,2.585 15.426,9.207 26.977,9.207 8.336,0 12.254,-5.586 18.386,-5.586 5.161,0 13.102,5.937 21.793,5.937 8.883,0 13.297,-5.39 19.125,-7.89 5.176,-2.227 11.961,-2.11 19.133,-2.11 -0.183,-5.215 0,-8.308 0,-12.676 0,-4.453 5.922,-2.695 5.922,-9.941 0,-7.637 -7.637,-6.141 -7.637,-9.219 l -0.293,-28.355 c 0.387,-3.539 7.465,-3.996 7.465,-9.399 0,-7.984 -7.898,-5.222 -7.367,-11.519 0.383,-4.668 0,-14.512 0,-14.512 -15.215,0 -113.016,-0.91 -117.813,-0.727 0.282,10.508 1.911,9.883 2.286,14.946 0.254,4.097 -8.813,6.609 -8.813,13.496 0,4.734 5.453,4.453 5.914,8.922 l 0,28.261 c -0.285,3.731 -8.492,5.586 -8.215,10.879 0.332,6.348 7.633,5.528 7.633,9.766 0,1.867 0.203,8.73 0.121,10.52 z" /><path
         id="path24"
         style="fill:none;stroke:#231f20;stroke-width:5.04500008;stroke-linecap:butt;stroke-linejoin:miter;stroke-miterlimit:3.86360002;stroke-dasharray:none;stroke-opacity:1"
         d="m 451.809,617.059 c 0,0 0.195,-63.258 0,-78.114 0,0 91.257,-0.183 95.277,0.188 0,16.812 -0.121,78.387 -0.121,78.387" /><path
         id="path26"
         style="fill:none;stroke:#231f20;stroke-width:5.04500008;stroke-linecap:butt;stroke-linejoin:miter;stroke-miterlimit:3.86360002;stroke-dasharray:none;stroke-opacity:1"
         d="m 499.531,620.965 0,-82.203" /><path
         id="path28"
         style="fill:#231f20;fill-opacity:1;fill-rule:nonzero;stroke:none"
         d="m 500.973,548.887 c 4.031,-0.188 11.382,-2.918 18.539,-5.117 9.301,-2.832 19.121,-0.848 26.418,-2.313 2.293,-0.473 -44.957,-0.852 -44.957,-0.852 0.179,9.219 0,8.282 0,8.282" /><path
         id="path30"
         style="fill:none;stroke:#231f20;stroke-width:5.04500008;stroke-linecap:butt;stroke-linejoin:miter;stroke-miterlimit:3.86360002;stroke-dasharray:none;stroke-opacity:1"
         d="m 500.973,548.887 c 4.031,-0.188 11.382,-2.918 18.539,-5.117 9.301,-2.832 19.121,-0.848 26.418,-2.313 2.293,-0.473 -44.957,-0.852 -44.957,-0.852 0.179,9.219 0,8.282 0,8.282 z" /><path
         id="path32"
         style="fill:#231f20;fill-opacity:1;fill-rule:nonzero;stroke:none"
         d="m 494.188,536.711 c 0,2.051 2.339,3.711 5.3,3.711 2.922,0 5.301,-1.66 5.301,-3.711 0,-2.074 -2.379,-3.742 -5.301,-3.742 -2.961,0 -5.3,1.668 -5.3,3.742" /><path
         id="path34"
         style="fill:none;stroke:#231f20;stroke-width:5.04500008;stroke-linecap:butt;stroke-linejoin:miter;stroke-miterlimit:3.86360002;stroke-dasharray:none;stroke-opacity:1"
         d="m 494.188,536.711 c 0,2.051 2.339,3.711 5.3,3.711 2.922,0 5.301,-1.66 5.301,-3.711 0,-2.074 -2.379,-3.742 -5.301,-3.742 -2.961,0 -5.3,1.668 -5.3,3.742 z" /><path
         id="path36"
         style="fill:#231f20;fill-opacity:1;fill-rule:nonzero;stroke:none"
         d="m 496.887,548.887 c -4.02,-0.188 -11.403,-2.918 -18.563,-5.117 -9.277,-2.832 -19.113,-0.848 -26.394,-2.313 -2.297,-0.473 44.957,-0.852 44.957,-0.852 -0.199,9.219 0,8.282 0,8.282" /><path
         id="path38"
         style="fill:none;stroke:#231f20;stroke-width:5.04500008;stroke-linecap:butt;stroke-linejoin:miter;stroke-miterlimit:3.86360002;stroke-dasharray:none;stroke-opacity:1"
         d="m 496.887,548.887 c -4.02,-0.188 -11.403,-2.918 -18.563,-5.117 -9.277,-2.832 -19.113,-0.848 -26.394,-2.313 -2.297,-0.473 44.957,-0.852 44.957,-0.852 -0.199,9.219 0,8.282 0,8.282 z" /><path
         id="path40"
         style="fill:#ffffff;fill-opacity:1;fill-rule:nonzero;stroke:none"
         d="m 183.363,513.176 c 1.535,-6.039 6.035,-10.039 13.399,-10.039 13.672,0 26.883,10.23 34.82,15.996 6.207,4.461 12.617,9.199 12.617,18.965 l -1.129,-3.711 c 0,0 10.703,10.781 37.11,2.234 7.32,-2.371 38.73,-20.187 45.519,-23.074 5.832,-2.512 26.278,-17.324 58.262,-11.594 0,0 48.805,6.77 37.887,57.488 -7.789,36.25 -5.368,38.821 -2.414,50.469 -1.137,0.547 -29.844,7.051 -29.079,-33.125 -12.441,-1.297 -28.312,-10.781 -17.972,-35.711 4.215,6.328 9.844,13.035 17.601,13.035 4.864,0 10.016,-7.066 10.329,-12.285 0.765,-12.644 -11.868,-18.23 -27.559,-15.613 -7.949,1.301 -15.277,10.223 -26.234,18.203 1.914,0.93 3.66,7.449 3.66,10.051 0,6.422 -5.446,9.39 -9.172,11.539 0.762,2.207 2.293,5.195 2.293,7.441 0,5.11 -7.172,4.739 -9.949,6.68 1.152,1.594 1.152,0.645 1.152,2.988 0,7.422 1.137,11.543 -13.777,11.153 1.246,7.355 -0.282,12.089 -5.368,14.14 l -11.082,1.504 c -6.89,1.301 -0.019,3.594 -6.39,9.805 -5.66,5.488 -14.989,0 -14.989,0 0,5.098 -3.496,9.152 -9.628,9.152 -3.231,0 -7.254,-0.273 -9.547,-1.484 l -4.602,-3.723 c -5.738,0 -7.168,5.207 -13.769,5.207 -6.59,0 -9.274,-5.207 -11.856,-8.554 -4.508,2.128 -5.074,5.937 -11.094,5.937 -3.539,0 -4.589,-3.809 -6.125,-5.559 -3.929,-4.382 -3.644,-8.906 -9.761,-11.152 l -2.278,4.063 c -0.074,0.234 -0.152,0.5 -0.211,0.753 -8.988,-4.355 -29.277,-51.046 -29.277,-60.617 0,-9.109 7.871,-5.125 7.871,-14.89 0,-5.774 -8.433,-9.961 -8.433,-14.883 0,-6.223 7.179,-9.285 13.402,-9.285 l -4.227,-1.504" /><path
         id="path42"
         style="fill:none;stroke:#231f20;stroke-width:5.04199982;stroke-linecap:butt;stroke-linejoin:miter;stroke-miterlimit:3.86360002;stroke-dasharray:none;stroke-opacity:1"
         d="m 183.363,513.176 c 1.535,-6.039 6.035,-10.039 13.399,-10.039 13.672,0 26.883,10.23 34.82,15.996 6.207,4.461 12.617,9.199 12.617,18.965 l -1.129,-3.711 c 0,0 10.703,10.781 37.11,2.234 7.32,-2.371 38.73,-20.187 45.519,-23.074 5.832,-2.512 26.278,-17.324 58.262,-11.594 0,0 48.805,6.77 37.887,57.488 -7.789,36.25 -5.368,38.821 -2.414,50.469 -1.137,0.547 -29.844,7.051 -29.079,-33.125 -12.441,-1.297 -28.312,-10.781 -17.972,-35.711 4.215,6.328 9.844,13.035 17.601,13.035 4.864,0 10.016,-7.066 10.329,-12.285 0.765,-12.644 -11.868,-18.23 -27.559,-15.613 -7.949,1.301 -15.277,10.223 -26.234,18.203 1.914,0.93 3.66,7.449 3.66,10.051 0,6.422 -5.446,9.39 -9.172,11.539 0.762,2.207 2.293,5.195 2.293,7.441 0,5.11 -7.172,4.739 -9.949,6.68 1.152,1.594 1.152,0.645 1.152,2.988 0,7.422 1.137,11.543 -13.777,11.153 1.246,7.355 -0.282,12.089 -5.368,14.14 l -11.082,1.504 c -6.89,1.301 -0.019,3.594 -6.39,9.805 -5.66,5.488 -14.989,0 -14.989,0 0,5.098 -3.496,9.152 -9.628,9.152 -3.231,0 -7.254,-0.273 -9.547,-1.484 l -4.602,-3.723 c -5.738,0 -7.168,5.207 -13.769,5.207 -6.59,0 -9.274,-5.207 -11.856,-8.554 -4.508,2.128 -5.074,5.937 -11.094,5.937 -3.539,0 -4.589,-3.809 -6.125,-5.559 -3.929,-4.382 -3.644,-8.906 -9.761,-11.152 l -2.278,4.063 c -0.074,0.234 -0.152,0.5 -0.211,0.753 -8.988,-4.355 -29.277,-51.046 -29.277,-60.617 0,-9.109 7.871,-5.125 7.871,-14.89 0,-5.774 -8.433,-9.961 -8.433,-14.883 0,-6.223 7.179,-9.285 13.402,-9.285 l -4.227,-1.504 z" /><path
         id="path44"
         style="fill:#231f20;fill-opacity:1;fill-rule:nonzero;stroke:none"
         d="m 204.512,552.402 c 0,0 9.945,-3.879 9.945,-5.945 0,-2.832 -6.422,-5.957 -10.719,-9.691 l -5.363,0 c 1.93,6.347 0,4.027 0,9.691 0,4.227 4.457,5.945 6.137,5.945" /><path
         id="path46"
         style="fill:none;stroke:#231f20;stroke-width:5.04500008;stroke-linecap:butt;stroke-linejoin:miter;stroke-miterlimit:3.86360002;stroke-dasharray:none;stroke-opacity:1"
         d="m 240.867,569.52 c 5.141,2.519 2.742,8.925 11.086,8.925 7.36,0 10.137,-5.215 16.836,-5.215 4.481,0 7.656,4.454 13.762,4.454 5.457,0 12.64,-7.403 11.476,-16.368 0,0 19.133,6.34 18.375,-14.492 15.297,5.219 13.786,-7.519 15.297,-13.769 1.543,-5.938 11.489,-1.114 9.946,-13.75" /><path
         id="path48"
         style="fill:#ffffff;fill-opacity:1;fill-rule:nonzero;stroke:none"
         d="m 36.6641,617.02 15.3906,0 c 11.2891,2.597 15.3867,9.191 26.9883,9.191 8.3047,0 12.2304,-5.559 18.3554,-5.559 5.1676,0 13.1056,5.938 21.8046,5.938 8.887,0 13.301,-5.391 19.125,-7.91 5.172,-2.227 11.965,-2.11 19.133,-2.11 -0.191,-5.203 0,-8.3 0,-12.675 0,-4.454 5.934,-2.696 5.934,-9.942 0,-7.637 -7.633,-6.152 -7.633,-9.207 l -0.293,-28.367 c 0.375,-3.52 7.453,-3.996 7.453,-9.375 0,-8.012 -7.883,-5.238 -7.375,-11.543 0.383,-4.652 0,-14.492 0,-14.492 -15.219,0 -110.9572,-0.121 -115.7306,0.078 0.2734,10.508 -0.168,9.058 0.1719,14.121 0.3008,4.09 -8.7813,6.617 -8.7813,13.492 0,4.746 5.4571,4.477 5.9258,8.906 l 0,28.301 c -0.289,3.723 -8.5117,5.567 -8.2305,10.879 0.3516,6.328 7.6485,5.527 7.6485,9.766 0,1.867 0.2031,8.73 0.1133,10.508" /><path
         id="path50"
         style="fill:none;stroke:#231f20;stroke-width:5.04500008;stroke-linecap:butt;stroke-linejoin:miter;stroke-miterlimit:3.86360002;stroke-dasharray:none;stroke-opacity:1"
         d="m 36.6641,617.02 15.3906,0 c 11.2891,2.597 15.3867,9.191 26.9883,9.191 8.3047,0 12.2304,-5.559 18.3554,-5.559 5.1676,0 13.1056,5.938 21.8046,5.938 8.887,0 13.301,-5.391 19.125,-7.91 5.172,-2.227 11.965,-2.11 19.133,-2.11 -0.191,-5.203 0,-8.3 0,-12.675 0,-4.454 5.934,-2.696 5.934,-9.942 0,-7.637 -7.633,-6.152 -7.633,-9.207 l -0.293,-28.367 c 0.375,-3.52 7.453,-3.996 7.453,-9.375 0,-8.012 -7.883,-5.238 -7.375,-11.543 0.383,-4.652 0,-14.492 0,-14.492 -15.219,0 -110.9572,-0.121 -115.7306,0.078 0.2734,10.508 -0.168,9.058 0.1719,14.121 0.3008,4.09 -8.7813,6.617 -8.7813,13.492 0,4.746 5.4571,4.477 5.9258,8.906 l 0,28.301 c -0.289,3.723 -8.5117,5.567 -8.2305,10.879 0.3516,6.328 7.6485,5.527 7.6485,9.766 0,1.867 0.2031,8.73 0.1133,10.508 z" /><path
         id="path52"
         style="fill:none;stroke:#231f20;stroke-width:5.04500008;stroke-linecap:butt;stroke-linejoin:miter;stroke-miterlimit:3.86360002;stroke-dasharray:none;stroke-opacity:1"
         d="m 49.1836,616.543 c 0,0 0.1914,-63.234 0,-78.113 0,0 91.2614,-0.168 95.2814,0.195 0,16.836 -0.102,78.395 -0.102,78.395" /><path
         id="path54"
         style="fill:none;stroke:#231f20;stroke-width:5.04500008;stroke-linecap:butt;stroke-linejoin:miter;stroke-miterlimit:3.86360002;stroke-dasharray:none;stroke-opacity:1"
         d="m 96.9141,620.438 0,-82.176" /><path
         id="path56"
         style="fill:#231f20;fill-opacity:1;fill-rule:nonzero;stroke:none"
         d="m 98.3555,548.367 c 4.0035,-0.176 11.3865,-2.898 18.5425,-5.097 9.278,-2.832 19.122,-0.84 26.407,-2.325 2.304,-0.476 -44.9495,-0.847 -44.9495,-0.847 0.1875,9.218 0,8.269 0,8.269" /><path
         id="path58"
         style="fill:none;stroke:#231f20;stroke-width:5.04500008;stroke-linecap:butt;stroke-linejoin:miter;stroke-miterlimit:3.86360002;stroke-dasharray:none;stroke-opacity:1"
         d="m 98.3555,548.367 c 4.0035,-0.176 11.3865,-2.898 18.5425,-5.097 9.278,-2.832 19.122,-0.84 26.407,-2.325 2.304,-0.476 -44.9495,-0.847 -44.9495,-0.847 0.1875,9.218 0,8.269 0,8.269 z" /><path
         id="path60"
         style="fill:#231f20;fill-opacity:1;fill-rule:nonzero;stroke:none"
         d="m 91.5742,536.199 c 0,2.063 2.3555,3.711 5.2852,3.711 2.9414,0 5.3086,-1.648 5.3086,-3.711 0,-2.051 -2.3672,-3.726 -5.3086,-3.726 -2.9297,0 -5.2852,1.675 -5.2852,3.726" /><path
         id="path62"
         style="fill:none;stroke:#231f20;stroke-width:5.04500008;stroke-linecap:butt;stroke-linejoin:miter;stroke-miterlimit:3.86360002;stroke-dasharray:none;stroke-opacity:1"
         d="m 91.5742,536.199 c 0,2.063 2.3555,3.711 5.2852,3.711 2.9414,0 5.3086,-1.648 5.3086,-3.711 0,-2.051 -2.3672,-3.726 -5.3086,-3.726 -2.9297,0 -5.2852,1.675 -5.2852,3.726 z" /><path
         id="path64"
         style="fill:#231f20;fill-opacity:1;fill-rule:nonzero;stroke:none"
         d="m 94.2617,548.367 c -4.0039,-0.176 -11.3867,-2.898 -18.5429,-5.097 -9.2891,-2.832 -19.1211,-0.84 -26.418,-2.325 -2.2852,-0.476 44.9609,-0.847 44.9609,-0.847 -0.1797,9.218 0,8.269 0,8.269" /><path
         id="path66"
         style="fill:none;stroke:#231f20;stroke-width:5.04500008;stroke-linecap:butt;stroke-linejoin:miter;stroke-miterlimit:3.86360002;stroke-dasharray:none;stroke-opacity:1"
         d="m 94.2617,548.367 c -4.0039,-0.176 -11.3867,-2.898 -18.5429,-5.097 -9.2891,-2.832 -19.1211,-0.84 -26.418,-2.325 -2.2852,-0.476 44.9609,-0.847 44.9609,-0.847 -0.1797,9.218 0,8.269 0,8.269 z" /><path
         id="path68"
         style="fill:#ffffff;fill-opacity:1;fill-rule:nonzero;stroke:none"
         d="m 112.52,232.871 c 0,26.492 22.109,47.996 49.398,47.996 27.281,0 49.395,-21.504 49.395,-47.996 0,-26.555 -22.114,-48.058 -49.395,-48.058 -27.289,0 -49.398,21.503 -49.398,48.058" /><path
         id="path70"
         style="fill:none;stroke:#154280;stroke-width:5.04500008;stroke-linecap:butt;stroke-linejoin:miter;stroke-miterlimit:3.86360002;stroke-dasharray:none;stroke-opacity:1"
         d="m 112.52,232.871 c 0,26.492 22.109,47.996 49.398,47.996 27.281,0 49.395,-21.504 49.395,-47.996 0,-26.555 -22.114,-48.058 -49.395,-48.058 -27.289,0 -49.398,21.503 -49.398,48.058 z" /><path
         id="path72"
         style="fill:#ffffff;fill-opacity:1;fill-rule:nonzero;stroke:none"
         d="m 248.305,348.191 c 0,26.528 22.125,48.032 49.394,48.032 27.297,0 49.403,-21.504 49.403,-48.032 0,-26.511 -22.106,-48.023 -49.403,-48.023 -27.269,0 -49.394,21.512 -49.394,48.023" /><path
         id="path74"
         style="fill:none;stroke:#154280;stroke-width:5.04199982;stroke-linecap:butt;stroke-linejoin:miter;stroke-miterlimit:3.86360002;stroke-dasharray:none;stroke-opacity:1"
         d="m 248.305,348.191 c 0,26.528 22.125,48.032 49.394,48.032 27.297,0 49.403,-21.504 49.403,-48.032 0,-26.511 -22.106,-48.023 -49.403,-48.023 -27.269,0 -49.394,21.512 -49.394,48.023 z" /><path
         id="path76"
         style="fill:#ffffff;fill-opacity:1;fill-rule:nonzero;stroke:none"
         d="m 376.445,232.871 c 0,26.492 22.118,47.996 49.399,47.996 27.265,0 49.39,-21.504 49.39,-47.996 0,-26.555 -22.125,-48.058 -49.39,-48.058 -27.281,0 -49.399,21.503 -49.399,48.058" /><path
         id="path78"
         style="fill:none;stroke:#154280;stroke-width:5.04500008;stroke-linecap:butt;stroke-linejoin:miter;stroke-miterlimit:3.86360002;stroke-dasharray:none;stroke-opacity:1"
         d="m 376.445,232.871 c 0,26.492 22.118,47.996 49.399,47.996 27.265,0 49.39,-21.504 49.39,-47.996 0,-26.555 -22.125,-48.058 -49.39,-48.058 -27.281,0 -49.399,21.503 -49.399,48.058 z" /><path
         id="path80"
         style="fill:none;stroke:#231f20;stroke-width:5.04500008;stroke-linecap:butt;stroke-linejoin:miter;stroke-miterlimit:3.86360002;stroke-dasharray:none;stroke-opacity:1"
         d="m 347.262,546.395 c -12.645,14.023 -23.762,30.48 -25.676,31.289 -6.234,2.617 -21.043,32.363 -60.844,34.609 -10.09,0.547 -48.144,-3.152 -49.449,-12.988" /><path
         id="path82"
         style="fill:none;stroke:#231f20;stroke-width:5.04500008;stroke-linecap:butt;stroke-linejoin:miter;stroke-miterlimit:3.86360002;stroke-dasharray:none;stroke-opacity:1"
         d="m 244.441,535.574 c 0.164,0.969 0.247,1.992 0.247,3.067 0,1.582 -9.333,0.695 -11.547,1.347 -1.539,0.473 4.105,2.735 3.129,2.735 5.722,2.25 20.441,8.781 15.312,13.769 -4.98,4.824 -7.973,9.953 -10.715,13.028 -3.75,4.082 -8.148,6.32 -14.937,6.32 -5.836,0 -15.285,-10.207 -19.207,-13.02 2.855,2.813 11.175,10.039 11.175,15.996 0,13.399 -10.609,25.02 -13.386,36.094" /><path
         id="path84"
         style="fill:none;stroke:#231f20;stroke-width:5.04500008;stroke-linecap:butt;stroke-linejoin:miter;stroke-miterlimit:3.86360002;stroke-dasharray:none;stroke-opacity:1"
         d="m 187.25,515.223 c 10.52,0 16.457,0.734 21.422,3.34 5.461,2.871 15.308,9.105 17.617,14.492" /><path
         id="path86"
         style="fill:#231f20;fill-opacity:1;fill-rule:nonzero;stroke:none"
         d="m 46.9453,213.816 c 21.75,-46.16 48.6641,-83.339 86.4377,-114.9683 L 298.109,266.965 453.422,104.258 c 32.695,30.176 65.609,67.527 88.414,110.832 l -3.84,3.711 -240.074,232.926 -249.8439,-238.418 -1.1328,0.507" /><path
         id="path88"
         style="fill:#ffffff;fill-opacity:1;fill-rule:nonzero;stroke:none"
         d="m 345.434,347.961 c 0,-26.836 -21.567,-48.613 -48.168,-48.613 -26.602,0 -48.172,21.777 -48.172,48.613 0,26.875 21.57,48.633 48.172,48.633 26.601,0 48.168,-21.758 48.168,-48.633" /><path
         id="path90"
         style="fill:#ffffff;fill-opacity:1;fill-rule:nonzero;stroke:none"
         d="m 210.723,233.508 c 0,-26.848 -21.567,-48.617 -48.172,-48.617 -26.61,0 -48.18,21.769 -48.18,48.617 0,26.89 21.57,48.629 48.18,48.629 26.605,0 48.172,-21.739 48.172,-48.629" /><path
         id="path92"
         style="fill:#ffffff;fill-opacity:1;fill-rule:nonzero;stroke:none"
         d="m 474.18,231.785 c 0,-26.844 -21.559,-48.621 -48.18,-48.621 -26.602,0 -48.164,21.777 -48.164,48.621 0,26.84 21.562,48.653 48.164,48.653 26.621,0 48.18,-21.813 48.18,-48.653" /><path
         id="path94"
         style="fill:#231f20;fill-opacity:1;fill-rule:nonzero;stroke:none"
         d="m 821.426,65.3438 6.09,0 -12.528,-47.4922 -147.879,0 0,6.3086 c 8.356,0 14.297,2.7812 17.832,8.3515 3.539,5.5742 5.309,14.918 5.309,28.043 l 0,137.0353 c 0,11.765 -1.652,19.961 -4.957,24.605 -3.305,4.641 -9.371,6.965 -18.184,6.965 l 0,6.309 73.071,0 0,-6.309 c -8.117,0 -13.95,-2.668 -17.485,-7.98 -3.539,-5.321 -5.308,-14.102 -5.308,-26.344 l 0,-145.4415 c 0,-8.0468 1.597,-13.5468 4.785,-16.5117 3.187,-2.9726 9.308,-4.4531 18.355,-4.4531 l 40.536,0 c 12.527,0 21.281,2.3125 26.273,6.9531 4.984,4.6367 9.68,14.6289 14.09,29.961" /><path
         id="path96"
         style="fill:#231f20;fill-opacity:1;fill-rule:nonzero;stroke:none"
         d="m 871.348,225.637 c 4.297,0 7.929,-1.582 10.879,-4.739 2.949,-3.144 4.433,-7.011 4.433,-11.593 0,-4.578 -1.504,-8.504 -4.531,-11.778 -3.008,-3.277 -6.602,-4.922 -10.781,-4.922 -4.293,0 -8.004,1.645 -11.129,4.922 -3.125,3.274 -4.688,7.2 -4.688,11.778 0,4.582 1.524,8.449 4.61,11.593 3.066,3.157 6.797,4.739 11.207,4.739 z m 5.566,-69.574 6.094,0 0,-113.3286 c 0,-7.4297 1.504,-12.3828 4.531,-14.8633 3.008,-2.4727 8.516,-3.7109 16.524,-3.7109 l 0,-6.3086 -69.067,0 0,6.3086 c 10.086,0 16.59,1.2109 19.481,3.6328 2.91,2.4101 4.355,7.4101 4.355,14.9804 l 0,82.8006 c 0,8.188 -1.328,13.586 -4.004,16.192 -2.676,2.609 -9.277,3.91 -19.832,3.91 l 0,6.304 41.918,4.083" /><path
         id="path98"
         style="fill:#231f20;fill-opacity:1;fill-rule:nonzero;stroke:none"
         d="m 957.832,126.191 0,-76.7965 c 0,-10.0195 1.582,-16.8828 4.785,-20.5937 3.203,-3.711 8.75,-5.5703 16.66,-5.5703 16.387,0 29.353,5.625 38.883,16.8867 9.54,11.25 14.3,27.0195 14.3,47.3047 0,16.9411 -4.12,30.8011 -12.38,41.5511 -8.26,10.761 -18.15,16.144 -29.65,16.144 -12.09,0 -22.95,-6.308 -32.598,-18.926 z m -6.094,130.235 6.094,0 0,-120.403 c 5.332,6.184 11.816,11.075 19.414,14.661 7.617,3.582 15.313,5.379 23.104,5.379 16.37,0 30.24,-6.336 41.56,-19.012 11.33,-12.688 17,-28.235 17,-46.6604 0,-21.6523 -7.64,-39.3945 -22.91,-53.2422 -15.28,-13.8554 -36.332,-20.7812 -63.168,-20.7812 -10.449,0 -23.516,1.3672 -39.199,4.082 l 0,201.8478 c 0,10.508 -1.231,17 -3.731,19.48 -2.5,2.473 -8.73,3.711 -18.711,3.711 l 0,6.309 40.547,4.629" /><path
         id="path100"
         style="fill:#231f20;fill-opacity:1;fill-rule:nonzero;stroke:none"
         d="m 1123.79,156.063 0,-29.129 c 11.6,10.761 20.62,18.308 27.05,22.636 6.45,4.325 11.8,6.493 16.09,6.493 8.01,0 15.73,-3.524 23.15,-10.575 l -9.57,-23.933 c -13.46,7.918 -23.44,11.875 -29.92,11.875 -7.19,0 -16.14,-5.442 -26.8,-16.321 l 0,-73.9957 c 0,-7.4297 1.44,-12.4492 4.35,-15.0586 2.9,-2.5938 8.46,-3.8945 16.7,-3.8945 l 0,-6.3086 -66.64,0 0,6.3086 c 8.83,0 14.59,1.4843 17.33,4.4648 2.71,2.9766 4.08,10.1055 4.08,21.4023 l 0,73.5077 c 0,9.297 -1.48,15.313 -4.43,18.047 -2.95,2.723 -10.18,4.094 -21.66,4.094 l 0,6.304 44.18,4.083 6.09,0" /><path
         id="path102"
         style="fill:#231f20;fill-opacity:1;fill-rule:nonzero;stroke:none"
         d="m 1274.28,45.1289 0,45.6328 c -3.6,-1.6133 -8.81,-3.6523 -15.67,-6.125 -12.63,-4.5781 -20.72,-9.1211 -24.25,-13.6289 -3.56,-4.5234 -5.32,-10.6094 -5.32,-18.2851 0,-6.668 1.88,-12.461 5.65,-17.3399 3.77,-4.8828 8.28,-7.3281 13.49,-7.3281 4.75,0 9.75,1.6406 14.96,4.9141 5.22,3.2812 8.93,7.3359 11.14,12.1601 z m -33.93,-31.543 c -9.86,0 -18.32,3.4922 -25.41,10.4766 -7.07,6.9922 -10.6,15.4297 -10.6,25.332 0,9.3946 3.04,17.1602 9.14,23.2813 6.09,6.125 18.45,11.9609 37.13,17.5273 11.71,3.4571 19.6,6.4297 23.67,8.9063 l 0,10.0236 c 0,9.762 -2.56,17.644 -7.66,23.648 -5.1,5.996 -11.95,8.996 -20.53,8.996 -7.77,0 -14.66,-2.597 -20.7,-7.793 -6.03,-5.195 -10.27,-12.246 -12.69,-21.14 l -6.45,1.851 c 2.56,12.493 8.09,22.5 16.62,30.051 8.52,7.539 18.52,11.317 30,11.317 13.58,0 24.57,-4.352 32.97,-13.075 8.42,-8.722 12.62,-20.808 12.62,-36.269 l 0,-57.6956 c 0,-8.164 0.49,-13.7031 1.48,-16.6132 0.98,-2.8985 2.87,-4.3555 5.65,-4.3555 1.85,0 3.36,0.832 4.53,2.5 1.15,1.6719 2.48,5.168 4,10.4922 l 6.08,0 c -0.57,-8.418 -3.03,-15.1016 -7.39,-20.0391 -4.35,-4.9453 -10.06,-7.4219 -17.13,-7.4219 -10.33,0 -17.46,6.3633 -21.4,19.1094 -6.27,-7.3047 -11.84,-12.3125 -16.7,-15.0273 -4.88,-2.7188 -10.63,-4.0821 -17.23,-4.0821" /><path
         id="path104"
         style="fill:#231f20;fill-opacity:1;fill-rule:nonzero;stroke:none"
         d="m 1376.58,156.063 0,-29.129 c 11.58,10.761 20.61,18.308 27.05,22.636 6.43,4.325 11.8,6.493 16.1,6.493 7.98,0 15.7,-3.524 23.12,-10.575 l -9.55,-23.933 c -13.46,7.918 -23.44,11.875 -29.94,11.875 -7.19,0 -16.11,-5.442 -26.78,-16.321 l 0,-73.9957 c 0,-7.4297 1.45,-12.4492 4.34,-15.0586 2.91,-2.5938 8.47,-3.8945 16.72,-3.8945 l 0,-6.3086 -66.64,0 0,6.3086 c 8.8,0 14.59,1.4843 17.3,4.4648 2.74,2.9766 4.1,10.1055 4.1,21.4023 l 0,73.5077 c 0,9.297 -1.48,15.313 -4.45,18.047 -2.95,2.723 -10.18,4.094 -21.66,4.094 l 0,6.304 44.2,4.083 6.09,0" /><path
         id="path106"
         style="fill:#231f20;fill-opacity:1;fill-rule:nonzero;stroke:none"
         d="m 1495.06,225.637 c 4.28,0 7.91,-1.582 10.86,-4.739 2.97,-3.144 4.45,-7.011 4.45,-11.593 0,-4.578 -1.52,-8.504 -4.53,-11.778 -3.03,-3.277 -6.62,-4.922 -10.78,-4.922 -4.3,0 -8.01,1.645 -11.13,4.922 -3.15,3.274 -4.71,7.2 -4.71,11.778 0,4.582 1.54,8.449 4.61,11.593 3.06,3.157 6.81,4.739 11.23,4.739 z m 5.57,-69.574 6.09,0 0,-113.3286 c 0,-7.4297 1.5,-12.3828 4.51,-14.8633 3.01,-2.4727 8.54,-3.7109 16.52,-3.7109 l 0,-6.3086 -69.06,0 0,6.3086 c 10.1,0 16.58,1.2109 19.49,3.6328 2.89,2.4101 4.34,7.4101 4.34,14.9804 l 0,82.8006 c 0,8.188 -1.33,13.586 -3.98,16.192 -2.68,2.609 -9.3,3.91 -19.85,3.91 l 0,6.304 41.94,4.083" /><path
         id="path108"
         style="fill:#231f20;fill-opacity:1;fill-rule:nonzero;stroke:none"
         d="m 1573.34,106.348 68.71,0 0,2.597 c 0,11.993 -3.2,21.516 -9.65,28.567 -6.44,7.047 -14.47,10.574 -24.1,10.574 -10.19,0 -18.4,-3.711 -24.61,-11.133 -6.21,-7.422 -9.65,-17.629 -10.35,-30.605 z m 94.82,-53.9964 0,-9.8243 c -7.65,-10.3906 -15.46,-17.8085 -23.41,-22.2656 -7.93,-4.4531 -17.48,-6.6758 -28.62,-6.6758 -19.7,0 -35.97,6.5821 -48.79,19.7539 -12.83,13.1719 -19.23,29.9024 -19.23,50.1836 0,20.4106 6.13,37.6016 18.35,51.5746 12.25,13.972 27.23,20.965 44.99,20.965 14.6,0 27.36,-5.262 38.26,-15.77 10.9,-10.508 16.36,-23.066 16.36,-37.656 l 0,-2.7854 -92.73,0 0,-1.8516 c 0,-14.8477 2.11,-27.7383 6.35,-38.6836 4.24,-10.9492 10.41,-19.5117 18.53,-25.6914 8.11,-6.1953 16.58,-9.2773 25.39,-9.2773 8.25,0 15.3,1.8242 21.14,5.4648 5.86,3.6563 13.67,11.1641 23.41,22.5391" /><path
         id="path110"
         style="fill:#231f20;fill-opacity:1;fill-rule:nonzero;stroke:none"
         d="m 1773.24,156.063 0,-41.368 -7.15,0 c -1.15,10.383 -4.63,18.645 -10.43,24.77 -5.8,6.121 -12.81,9.176 -21.05,9.176 -6.27,0 -11.31,-1.668 -15.14,-5.008 -3.83,-3.34 -5.74,-7.793 -5.74,-13.36 0,-5.437 1.78,-10.234 5.31,-14.375 3.54,-4.14 11.21,-9.121 23.05,-14.929 15.31,-7.4221 25.43,-14.5432 30.35,-21.3401 4.94,-6.8086 7.4,-14.9609 7.4,-24.4922 0,-11.25 -3.94,-20.9961 -11.83,-29.2187 -7.89,-8.2227 -17.23,-12.3321 -28.01,-12.3321 -5.57,0 -12.93,2.168 -22.09,6.4922 -4.98,2.3438 -8.3,3.5235 -9.92,3.5235 -2.21,0 -4.06,-0.8672 -5.57,-2.5938 -1.5,-1.7422 -2.38,-3.8984 -2.6,-6.4961 l -6.09,0 0,45.8203 6.09,0 c 2.19,-12.0507 7.07,-21.6211 14.61,-28.6992 7.54,-7.0898 16.18,-10.625 25.92,-10.625 6.27,0 11.51,2.2227 15.74,6.6875 4.24,4.4531 6.35,9.9727 6.35,16.5313 0,6.3203 -1.95,11.8086 -5.84,16.4492 -3.9,4.6445 -12.34,10.0078 -25.33,16.0898 -14.61,6.8282 -24.22,13.2071 -28.85,19.1524 -4.65,5.937 -6.95,13.113 -6.95,21.531 0,10.52 3.79,19.582 11.39,27.199 7.59,7.61 16.62,11.415 27.05,11.415 4.88,0 10.15,-1.239 15.84,-3.711 4.06,-1.727 7.36,-2.594 9.92,-2.594 3.36,0 5.86,2.097 7.48,6.305 l 6.09,0" /><path
         id="path112"
         style="fill:#231f20;fill-opacity:1;fill-rule:nonzero;stroke:none"
         d="m 778.828,639.531 -42.437,0 0,-152.922 c 11.519,-3.886 25.656,-5.816 42.437,-5.816 25.746,0 46.078,6.59 61.012,19.762 14.91,13.183 22.371,31.211 22.371,54.082 0,24.621 -7.41,44.922 -22.234,60.91 -14.832,15.984 -35.211,23.984 -61.149,23.984 z m -126.855,13.035 125.132,0 c 40.926,0 73.34,-9.003 97.231,-27.019 23.867,-18.02 35.801,-41.27 35.801,-69.738 0,-28.289 -10.449,-50.028 -31.289,-65.235 -20.875,-15.215 -50.813,-22.82 -89.805,-22.82 -15.012,0 -32.563,1.164 -52.652,3.484 l 0,-95.613 c 0,-20.605 2.773,-34.797 8.32,-42.559 5.539,-7.785 15.695,-11.671 30.477,-11.671 l 0,-9.774 -123.215,0 0,9.774 c 14.773,0 24.937,4.082 30.476,12.23 5.539,8.141 8.313,21.734 8.313,40.762 l 0,213.961 c 0,20.382 -2.774,34.55 -8.313,42.511 -5.539,7.95 -15.703,11.942 -30.476,11.942 l 0,9.765" /><path
         id="path114"
         style="fill:#231f20;fill-opacity:1;fill-rule:nonzero;stroke:none"
         d="m 974.707,470.969 132.993,0 0,4.879 c 0,22.48 -6.25,40.324 -18.7,53.539 -12.46,13.203 -28,19.824 -46.62,19.824 -19.76,0 -35.64,-6.965 -47.653,-20.871 -12.012,-13.914 -18.692,-33.035 -20.02,-57.371 z m 183.183,-100.383 0,-18.195 c -14.8,-19.215 -29.86,-32.95 -45.23,-41.168 -15.37,-8.223 -33.81,-12.356 -55.36,-12.356 -38.1,0 -69.566,12.274 -94.331,36.785 -24.785,24.532 -37.168,55.688 -37.168,93.469 0,37.996 11.836,70.012 35.527,96.035 23.652,26.024 52.652,39.043 86.972,39.043 28.28,0 52.95,-9.812 74.02,-29.441 21.1,-19.629 31.64,-43.078 31.64,-70.317 l 0,-5.203 -179.253,0 0,-3.437 c 0,-27.559 4.082,-51.496 12.246,-71.809 8.203,-20.312 20.137,-36.219 35.817,-47.703 15.69,-11.476 32.03,-17.207 49.07,-17.207 15.89,0 29.53,3.348 40.84,10.066 11.3,6.7 26.38,20.508 45.21,41.438" /><path
         id="path116"
         style="fill:#231f20;fill-opacity:1;fill-rule:nonzero;stroke:none"
         d="m 1276.21,564.199 0,-50.144 c 28.52,33.433 57.93,50.144 88.26,50.144 23.58,0 43.23,-8.23 58.95,-24.695 15.72,-16.457 23.59,-38.149 23.59,-65.07 l 0,-112.891 c 0,-17.266 2.78,-28.66 8.32,-34.191 5.57,-5.516 16.49,-8.27 32.76,-8.27 l 0,-11.746 -130.39,0 0,11.746 c 16.26,0 27.4,2.117 33.37,6.379 6,4.258 8.99,12.469 8.99,24.668 l 0,130.719 c 0,17.48 -5.1,31.41 -15.31,41.757 -10.2,10.333 -23.29,15.508 -39.2,15.508 -22.89,0 -46,-16.265 -69.34,-48.808 l 0,-122.227 c 0,-20.723 2.64,-33.902 7.91,-39.551 5.26,-5.64 16.31,-8.445 33.17,-8.445 l 0,-11.746 -129.09,0 0,11.746 c 18.77,0 30.32,3.035 34.61,9.141 4.3,6.101 6.47,19.05 6.47,38.875 l 0,140.918 c 0,14.984 -2.62,24.828 -7.83,29.55 -5.2,4.707 -16.27,7.071 -33.25,7.071 l 0,11.742 76.19,7.82 11.82,0" /><path
         id="path118"
         style="fill:#231f20;fill-opacity:1;fill-rule:nonzero;stroke:none"
         d="m 1592.25,564.199 0,-50.144 c 28.53,33.433 57.93,50.144 88.24,50.144 23.59,0 43.24,-8.23 58.96,-24.695 15.73,-16.457 23.6,-38.149 23.6,-65.07 l 0,-112.891 c 0,-17.266 2.77,-28.66 8.34,-34.191 5.56,-5.516 16.46,-8.27 32.73,-8.27 l 0,-11.746 -130.39,0 0,11.746 c 16.27,0 27.4,2.117 33.4,6.379 6,4.258 8.98,12.469 8.98,24.668 l 0,130.719 c 0,17.48 -5.11,31.41 -15.33,41.757 -10.19,10.333 -23.28,15.508 -39.2,15.508 -22.89,0 -46.01,-16.265 -69.33,-48.808 l 0,-122.227 c 0,-20.723 2.61,-33.902 7.91,-39.551 5.27,-5.64 16.3,-8.445 33.16,-8.445 l 0,-11.746 -129.08,0 0,11.746 c 18.77,0 30.31,3.035 34.61,9.141 4.29,6.101 6.46,19.05 6.46,38.875 l 0,140.918 c 0,14.984 -2.61,24.828 -7.81,29.55 -5.21,4.707 -16.29,7.071 -33.26,7.071 l 0,11.742 76.19,7.82 11.82,0" /></g></g></svg>