<?xml version="1.0" encoding="utf-8"?>
<!-- Generator: Adobe Illustrator 15.1.0, SVG Export Plug-In . SVG Version: 6.00 Build 0)  -->
<!DOCTYPE svg PUBLIC "-//W3C//DTD SVG 1.1//EN" "http://www.w3.org/Graphics/SVG/1.1/DTD/svg11.dtd">
<svg version="1.1"
	 id="svg2" xmlns:rdf="http://www.w3.org/1999/02/22-rdf-syntax-ns#" xmlns:cc="http://creativecommons.org/ns#" xmlns:dc="http://purl.org/dc/elements/1.1/" xmlns:svg="http://www.w3.org/2000/svg"
	 xmlns="http://www.w3.org/2000/svg" xmlns:xlink="http://www.w3.org/1999/xlink" x="0px" y="0px" width="442px" height="80px"
	 viewBox="55.5 59.5 442 80" enable-background="new 55.5 59.5 442 80" xml:space="preserve">
<g id="g10" transform="matrix(1.25,0,0,-1.25,0,360)">
	<g id="g12" transform="scale(0.1,0.1)">
		<path id="path14" fill="#BE4B1F" d="M749.258,2159.629h0.461v0.16h-0.461V2159.629"/>
		<path id="path16" fill="#BE4B1F" d="M856.758,2249.898v14.461h-8.906v24.672h-6.035c-12.746,0-25.422,1.867-37.695,3.668
			c-11.191,1.641-21.777,3.199-31.543,3.199c-9.188,0-16.777-1.449-23.086-4.418c-6.309,2.969-13.906,4.418-23.086,4.418
			c-9.766,0-20.352-1.559-31.551-3.199c-12.266-1.801-24.953-3.668-37.707-3.668h-6.016v-24.672h-8.914v-14.461h8.914v-19.57h-8.809
			v-14.449h8.809v-26.801h6.016c13.633,0,26.992,2.07,39.922,4.062c10.918,1.68,21.23,3.289,30.039,3.289
			c7.109,0,12.441-1.039,16.574-3.188v-0.012h11.609v0.012c4.133,2.148,9.473,3.188,16.562,3.188c8.828,0,19.141-1.609,30.059-3.289
			c12.922-1.992,26.301-4.062,39.902-4.062h6.035v26.801h8.809v14.449h-8.809v19.57H856.758L856.758,2249.898z M695.234,2205.051
			c-10.008-1.551-20.293-3.113-30.527-3.672l2.734,76c9.98,0.641,19.699,2.012,29.16,3.402c10.754,1.578,20.918,3.07,29.805,3.07
			c6.914,0,12.363-0.883,16.848-2.762v-10.539l-2.277-63.59c-4.082,0.988-8.633,1.5-13.867,1.5
			C717.383,2208.461,706.621,2206.801,695.234,2205.051L695.234,2205.051L695.234,2205.051z M803.75,2205.051
			c-11.387,1.75-22.148,3.41-31.895,3.41c-5.215,0-9.777-0.512-13.859-1.5l-2.273,63.59v10.539
			c4.492,1.879,9.941,2.762,16.855,2.762c8.887,0,19.043-1.492,29.793-3.07c9.465-1.391,19.191-2.762,29.172-3.402l2.715-76
			C824.023,2201.941,813.75,2203.5,803.75,2205.051L803.75,2205.051"/>
		<path id="path18" fill="#BE4B1F" d="M696.875,2269.859c-0.598-0.09-1.184-0.168-1.777-0.258
			c-5.664-0.832-11.414-1.672-17.227-2.332l-0.332-9.75c6.426,0.699,12.734,1.629,18.953,2.551c0.129,0.031,0.254,0.039,0.383,0.07
			V2269.859"/>
		<path id="path20" fill="#BE4B1F" d="M704.102,2270.89v-9.73c10.254,1.43,19.648,2.449,27.812,1.781l0.332,9.598
			C723.555,2273.191,714.023,2272.23,704.102,2270.89L704.102,2270.89"/>
		<path id="path22" fill="#BE4B1F" d="M696.875,2225.769c-0.598-0.09-1.184-0.168-1.777-0.262
			c-6.18-0.906-12.461-1.828-18.809-2.516l-0.352-9.734c6.973,0.742,13.828,1.734,20.555,2.723c0.129,0.02,0.254,0.039,0.383,0.059
			V2225.769"/>
		<path id="path24" fill="#BE4B1F" d="M704.102,2226.801v-9.73c9.59,1.328,18.457,2.32,26.23,1.891l0.332,9.59
			C722.402,2228.98,713.43,2228.07,704.102,2226.801L704.102,2226.801"/>
		<path id="path26" fill="#BE4B1F" d="M695.383,2247.601v-9.75c0.371,0.059,0.738,0.117,1.109,0.18
			c12.883,1.867,24.66,3.609,34.621,2.949l0.34,9.57C720.43,2251.23,708.125,2249.469,695.383,2247.601L695.383,2247.601"/>
		<path id="path28" fill="#BE4B1F" d="M688.152,2246.558c-3.66-0.52-7.352-1.008-11.074-1.438l-0.348-9.73
			c3.855,0.41,7.664,0.918,11.422,1.438V2246.558"/>
		<path id="path30" fill="#BE4B1F" d="M790.488,2271.461c-8.34,1.02-16.367,1.641-23.758,1.078l0.34-9.598
			c6.973,0.566,14.863-0.102,23.418-1.191V2271.461"/>
		<path id="path32" fill="#BE4B1F" d="M821.105,2267.269c-5.812,0.66-11.562,1.5-17.227,2.332c-2.07,0.297-4.133,0.609-6.164,0.891
			v-9.734c1.562-0.219,3.164-0.449,4.766-0.688c6.219-0.922,12.539-1.852,18.973-2.551L821.105,2267.269L821.105,2267.269"/>
		<path id="path34" fill="#BE4B1F" d="M788.496,2249.648c-7.324,0.832-14.395,1.312-20.977,0.902l0.34-9.57
			c6.234,0.41,13.156-0.102,20.637-1.02V2249.648"/>
		<path id="path36" fill="#BE4B1F" d="M821.894,2245.121c-6.074,0.68-12.098,1.559-18.016,2.438
			c-2.746,0.391-5.461,0.793-8.156,1.172V2239c2.215-0.309,4.473-0.641,6.758-0.969c6.473-0.961,13.066-1.922,19.766-2.641
			L821.894,2245.121L821.894,2245.121"/>
		<path id="path38" fill="#BE4B1F" d="M802.949,2215.91c6.57-0.969,13.273-1.93,20.086-2.652l-0.34,9.734
			c-6.355,0.688-12.637,1.609-18.816,2.516c-0.305,0.051-0.617,0.094-0.93,0.133V2215.91"/>
		<path id="path40" fill="#BE4B1F" d="M795.723,2226.679c-9.629,1.328-18.898,2.301-27.422,1.871l0.352-9.59
			c8.008,0.43,17.148-0.609,27.07-2.02V2226.679"/>
		<path id="path42" fill="#BE4B1F" d="M660.605,2082.301v-0.012l54.453-39.59l-20.977-64.52c0.02-0.109,0.078-0.238,0.176-0.32
			c0.098-0.078,0.215-0.078,0.332-0.078l54.902,39.93l54.883-39.902c0.117-0.027,0.242,0,0.332,0.051
			c0.176,0.152,0.215,0.383,0.117,0.59l-20.879,64.262l54.434,39.559v0.031c0.254,0.09,0.41,0.34,0.332,0.598
			c-0.078,0.242-0.352,0.363-0.625,0.281v0.02h-67.305l-20.801,64.031h-0.031c0,0.27-0.203,0.5-0.457,0.5s-0.461-0.23-0.461-0.5
			h-0.027l-20.781-64.031h-67.324l-0.02-0.039c-0.254,0.09-0.527-0.031-0.605-0.281
			C660.195,2082.64,660.332,2082.379,660.605,2082.301L660.605,2082.301L660.605,2082.301z M736.953,2071.172l12.539,31.348
			l12.539-31.348l33.699-2.242l-25.945-21.629l8.281-32.723l-28.574,18.012l-28.574-18.012l8.301,32.723l-25.957,21.629
			L736.953,2071.172L736.953,2071.172"/>
		<path id="path44" fill="#BE4B1F" d="M884.668,2036.258c11.23,3.383,20.645,10.773,26.504,20.852
			c5.859,10.062,7.676,21.91,5.098,33.352l-1.133,5.031l-4.941-1.473c-5.684-1.699-10.918-4.441-15.449-8.039
			c1.055,5.59,1.047,11.379-0.059,17.07c-2.207,11.48-8.633,21.598-18.094,28.488l-4.172,3.051l-2.742-4.379
			c-6.211-9.879-8.43-21.672-6.25-33.172c2.195-11.398,8.582-21.449,17.957-28.367c-1.738-3.922-2.918-8.043-3.496-12.262
			c-2.785,7.609-7.531,14.449-13.926,19.719l-3.984,3.301l-3.008-4.199c-6.777-9.488-9.707-21.129-8.223-32.73
			c1.523-11.551,7.324-22.059,16.367-29.531l0.215-0.148c-2.656-3.602-4.746-7.539-6.25-11.711
			c-1.133,8.031-4.375,15.691-9.551,22.18l-3.203,4.051l-3.809-3.5c-8.613-7.891-13.867-18.648-14.805-30.328
			c-0.918-11.621,2.617-23.062,9.902-32.242l0.188-0.23c-3.352-2.949-6.203-6.391-8.535-10.156
			c0.543,8.117-1.027,16.289-4.75,23.707l-2.312,4.609l-4.441-2.648c-10.062-5.941-17.434-15.402-20.754-26.609
			c-3.281-11.211-2.207-23.121,3.027-33.609l0.137-0.262c-3.887-2.199-7.383-4.961-10.449-8.18
			c2.207,7.828,2.344,16.148,0.234,24.16l-1.309,5l-4.883-1.641c-11.066-3.75-20.223-11.48-25.809-21.781
			c-5.344-9.93-6.801-21.418-4.191-32.387c-1.473-1.012-3.016-2.07-4.629-3.16c-1.602,1.09-3.156,2.148-4.629,3.16
			c2.605,10.969,1.164,22.457-4.199,32.406c-5.566,10.281-14.727,18.012-25.801,21.762l-4.883,1.641l-1.309-5
			c-2.109-8.012-1.973-16.332,0.234-24.16c-3.059,3.219-6.551,5.98-10.441,8.18l0.129,0.262c5.242,10.488,6.32,22.398,3.035,33.609
			c-3.328,11.207-10.703,20.668-20.758,26.609l-4.434,2.648l-2.316-4.609c-3.73-7.418-5.293-15.59-4.746-23.707
			c-2.344,3.789-5.195,7.207-8.535,10.156l0.176,0.23c7.305,9.18,10.82,20.621,9.902,32.27c-0.938,11.652-6.191,22.41-14.805,30.301
			l-3.809,3.5l-3.203-4.051c-5.176-6.488-8.406-14.148-9.551-22.18c-1.496,4.172-3.586,8.109-6.238,11.711l0.215,0.148
			c9.031,7.473,14.844,17.98,16.355,29.531c1.492,11.602-1.426,23.242-8.223,32.73l-3.008,4.199l-3.977-3.297
			c-6.402-5.273-11.148-12.113-13.926-19.742c-0.574,4.242-1.746,8.359-3.504,12.281c9.383,6.918,15.762,16.969,17.961,28.379
			c2.176,11.5-0.043,23.281-6.25,33.16l-2.746,4.379l-4.172-3.051c-9.461-6.891-15.887-17.008-18.094-28.469
			c-1.094-5.711-1.113-11.492-0.059-17.09c-4.531,3.598-9.766,6.34-15.438,8.039l-4.945,1.473l-1.133-5.031
			c-2.578-11.441-0.77-23.289,5.09-33.352c5.859-10.078,15.273-17.469,26.504-20.848l4.355-1.301
			c0.449-3.66,1.367-7.262,2.684-10.742c-6.219,3.98-13.328,6.41-20.828,7.012l-5.137,0.418l-0.078-5.168
			c-0.156-11.711,4.062-22.922,11.875-31.551c7.812-8.648,18.555-13.949,30.234-14.922l4.531-0.379c1.191-3.5,2.832-6.84,4.844-9.93
			c-5.078,1.902-10.449,2.902-15.977,2.902c-1.953,0-3.918-0.133-5.848-0.352l-5.121-0.672l0.996-5.039
			c2.277-11.52,8.711-21.617,18.148-28.469c7.84-5.711,17.156-8.711,26.902-8.711c1.914,0,3.848,0.109,5.742,0.352l4.512,0.578
			c1.914-3.18,4.191-6.09,6.816-8.73c-7.316,1.102-14.824,0.449-21.895-2.008l-4.883-1.699l2.031-4.742
			c4.59-10.77,12.988-19.34,23.613-24.078c5.91-2.641,12.16-3.961,18.594-3.961c5.137,0,10.215,0.859,15.098,2.539l3.594,1.25
			c5.996-5.098,12.773-10.18,22.09-16.57c-4.258-2.789-8.945-5.848-14.199-9.211l9.051-5.629c5.121,3.301,9.652,6.27,13.781,9.02
			c4.129-2.75,8.664-5.719,13.781-9.02l9.051,5.629c-5.242,3.363-9.941,6.422-14.18,9.211c9.297,6.391,16.074,11.473,22.07,16.57
			l3.613-1.25c4.883-1.68,9.941-2.539,15.078-2.539l0,0c6.445,0,12.695,1.32,18.594,3.949c10.645,4.75,19.023,13.32,23.613,24.09
			l2.031,4.742l-4.883,1.699c-7.07,2.457-14.582,3.109-21.887,1.988c2.621,2.641,4.906,5.57,6.809,8.75l4.512-0.578
			c1.902-0.242,3.828-0.352,5.742-0.352c0.02,0,0.02,0,0.02,0c9.727,0,19.043,3,26.895,8.711
			c9.426,6.852,15.867,16.949,18.137,28.469l0.996,5.039l-5.117,0.672c-1.938,0.219-3.91,0.352-5.852,0.352
			c-5.52,0-10.898-1-15.977-2.902c2.012,3.09,3.652,6.43,4.863,9.93l4.512,0.379c11.691,0.973,22.422,6.273,30.223,14.922
			c7.824,8.629,12.043,19.84,11.887,31.551l-0.078,5.168l-5.137-0.418c-7.488-0.602-14.609-3.031-20.828-7.012
			c1.324,3.48,2.234,7.082,2.691,10.742l4.348,1.301l0,0V2036.258z M627.519,2045.39c0.957,7.27,4.051,13.988,8.867,19.41
			c3.262-6.48,4.531-13.781,3.594-21.051c-0.957-7.258-4.051-13.992-8.875-19.398C627.82,2030.82,626.562,2038.129,627.519,2045.39
			L627.519,2045.39z M613.059,2101.25c1.383,7.211,4.891,13.73,10.008,18.852c2.871-6.66,3.691-14.031,2.324-21.23
			c-1.387-7.199-4.883-13.73-10.02-18.871C612.48,2086.679,611.66,2094.039,613.059,2101.25L613.059,2101.25z M611.133,2047.5
			c-6.543,3.129-12.012,8.129-15.684,14.449c-3.691,6.332-5.352,13.559-4.844,20.82c6.523-3.121,11.992-8.098,15.703-14.449
			C609.98,2061.992,611.641,2054.769,611.133,2047.5L611.133,2047.5z M613.633,2001.379c-4.902,5.422-8.027,12.172-9.023,19.363
			c7.023-1.672,13.398-5.453,18.328-10.902c4.914-5.398,8.031-12.129,9.027-19.34
			C624.91,1992.199,618.535,1995.961,613.633,2001.379L613.633,2001.379z M653.105,2012.621c4.531-5.672,7.266-12.531,7.871-19.852
			c0.566-7.32-1.094-14.527-4.688-20.84c-4.551,5.66-7.285,12.562-7.852,19.879C647.871,1999.109,649.512,2006.34,653.105,2012.621
			L653.105,2012.621z M643.945,1945.879c-5.938,4.301-10.371,10.23-12.84,17.07c7.285-0.199,14.246-2.539,20.184-6.859
			c5.938-4.27,10.371-10.211,12.832-17.09C656.816,1939.242,649.863,1941.578,643.945,1945.879L643.945,1945.879z M716.621,1924.039
			c6.426-3.32,11.719-8.508,15.215-14.961c3.477-6.469,4.883-13.75,4.141-20.969c-6.445,3.371-11.738,8.562-15.195,15
			C717.285,1909.59,715.879,1916.859,716.621,1924.039L716.621,1924.039z M679.98,1943.691c-2.07,7.027-1.953,14.449,0.262,21.316
			c5.586-4.578,9.707-10.727,11.801-17.777c2.059-7.051,1.941-14.461-0.285-21.352
			C686.144,1930.492,682.031,1936.66,679.98,1943.691L679.98,1943.691z M685.059,1897.828c-6.691,2.973-12.266,7.883-16.094,14.062
			c7.109,1.289,14.473,0.43,21.18-2.551c6.68-2.988,12.25-7.859,16.078-14.059C699.102,1893.98,691.73,1894.859,685.059,1897.828
			L685.059,1897.828z M766.426,1909.039c3.516,6.492,8.809,11.68,15.234,15c0.742-7.18-0.664-14.449-4.16-20.93
			c-3.445-6.438-8.738-11.629-15.195-15C761.562,1895.328,762.969,1902.609,766.426,1909.039L766.426,1909.039z M829.316,1911.89
			c-3.828-6.18-9.395-11.09-16.102-14.062c-4.652-2.078-9.582-3.129-14.66-3.129l0,0c-2.188,0-4.355,0.18-6.484,0.582
			c3.828,6.199,9.383,11.07,16.074,14.059C814.836,1912.32,822.207,1913.179,829.316,1911.89L829.316,1911.89z M818.301,1943.672
			c-2.051-7.012-6.16-13.18-11.777-17.793c-2.227,6.891-2.344,14.301-0.285,21.332c2.09,7.047,6.211,13.219,11.809,17.797
			C820.266,1958.14,820.371,1950.719,818.301,1943.672L818.301,1943.672z M837.305,1992.75c0.605,7.34,3.34,14.199,7.871,19.871
			c3.594-6.281,5.234-13.512,4.668-20.82s-3.301-14.211-7.852-19.871C838.398,1978.242,836.738,1985.449,837.305,1992.75
			L837.305,1992.75z M854.336,1945.879c-5.918-4.301-12.871-6.637-20.164-6.879c2.461,6.879,6.883,12.82,12.82,17.09
			c5.938,4.32,12.91,6.66,20.195,6.859C864.707,1956.109,860.273,1950.179,854.336,1945.879L854.336,1945.879z M907.676,2082.769
			c0.508-7.262-1.152-14.488-4.844-20.82c-3.672-6.32-9.121-11.32-15.676-14.449c-0.508,7.27,1.145,14.492,4.824,20.82
			C895.691,2074.672,901.152,2079.648,907.676,2082.769L907.676,2082.769z M872.891,2098.851c-1.367,7.219-0.535,14.59,2.324,21.25
			c5.129-5.121,8.625-11.66,10-18.871c1.406-7.191,0.586-14.551-2.305-21.23C877.773,2085.14,874.277,2091.672,872.891,2098.851
			L872.891,2098.851z M858.301,2043.73c-0.938,7.289,0.332,14.59,3.594,21.07c4.824-5.422,7.91-12.141,8.867-19.43
			c0.969-7.242-0.301-14.551-3.574-21.02C862.363,2029.758,859.258,2036.492,858.301,2043.73L858.301,2043.73z M884.648,2001.379
			c-4.902-5.418-11.281-9.18-18.32-10.879c0.996,7.211,4.102,13.941,9.004,19.34c4.949,5.449,11.328,9.23,18.34,10.902
			C892.676,2013.551,889.57,2006.801,884.648,2001.379L884.648,2001.379"/>
		<path id="path46" fill="#BE4B1F" d="M958.906,2324.808l-8.438,1.07c-1.121,0.141-113.438,14.113-200.918,14.121
			c-0.02,0-0.039,0-0.059,0s-0.051,0-0.066,0c-87.473-0.008-199.777-13.98-200.91-14.121l-8.438-1.07V2169.41H540v-21.68
			c0-65.461,6.484-150.09,57.07-224.16c10.43-15.25,22.277-29.32,36.465-43.012l-0.012-0.02c0.098-0.078,0.188-0.16,0.285-0.238
			c27.441-26.402,63.711-51.32,115.586-80.223V1800c0.02,0.039,0.031,0.039,0.047,0.039c0.023,0,0.031,0,0.051-0.039v0.078
			c51.875,28.902,88.145,53.82,115.586,80.223c0.098,0.078,0.188,0.16,0.273,0.238v0.02c14.191,13.691,26.035,27.762,36.465,43.012
			c50.586,74.07,57.07,158.699,57.07,224.16v3.082l0.02,0.008v173.992V2324.808z M569.414,2308.711
			c35.352,3.918,114.832,11.84,180.078,11.84c65.234,0,144.707-7.922,180.07-11.84l9.891-139.301H559.519L569.414,2308.711
			L569.414,2308.711z M885.906,1934.449c-9.812-14.348-21.043-27.668-34.578-40.629c-41.777-38.371-88.672-59.562-101.887-65.07
			c-13.211,5.508-60.105,26.699-101.883,65.07c-13.535,12.961-24.766,26.281-34.578,40.629
			c-47.445,69.473-53.664,150.02-53.703,212.609l0.047,0.012l190.168,10.57l190.125-10.562
			C939.57,2084.48,933.352,2003.922,885.906,1934.449L885.906,1934.449"/>
		<path id="path48" fill="#2F3944" d="M1129.449,1902.429c9.012-11.102,25.512-18.891,42.312-18.891
			c25.797,0,40.797,16.191,40.797,38.09c0,20.402-13.199,32.102-31.199,39.891l-36.301,15.902
			c-21.598,9.309-39.297,23.109-39.297,49.809c0,32.691,30,51.891,71.699,60.59c18.898,0,39.898-6.301,54.891-17.391v-40.508
			h-14.992l-8.711,27.309c-7.789,8.09-17.387,14.699-35.387,14.699c-23.703,0-37.801-12.91-37.801-33
			c0-16.508,11.699-26.699,28.188-33.91l34.512-14.988c23.699-10.211,44.398-25.211,44.102-55.801
			c0-28.191-19.203-55.5-75.602-67.199c-27.602,0-46.199,7.797-62.102,20.398l-6.598,40.5h21L1129.449,1902.429"/>
		<path id="path50" fill="#2F3944" d="M1345.762,1997.23c-4.801,3.59-9.301,4.801-17.402,4.801c-20.41,0-36-22.801-36-55.512
			c0-32.09,17.402-56.09,46.801-56.09c11.398,0,23.398,5.699,33.891,12.602l4.801-11.402c-13.801-9.887-29.102-17.387-48.891-23.699
			c-38.402,0-66.902,25.199-66.902,71.41c0,47.09,34.5,69.59,71.402,78.59c13.801,0,32.398-6.91,41.391-15v-30h-22.191
			L1345.762,1997.23"/>
		<path id="path52" fill="#2F3944" d="M1440.859,1885.629l16.5-2.988l-1.5-10.512l-28.5,0.902l-34.5-0.902l-1.5,10.512l21,2.988
			v180.891l-21-0.598l-1.5,10.207l36,9.301l15,1.191v-97.191l43.789,28.5c38.402,0,44.711-14.41,44.711-52.5v-79.801l22.5-2.988
			l-1.508-10.512l-34.492,0.902l-28.199-0.902l-1.512,10.512l14.711,2.988v85.801c0,15.602-7.211,22.5-19.199,22.5
			c-9,0-20.699-6.609-31.801-13.5l-9-5.699V1885.629"/>
		<path id="path54" fill="#2F3944" d="M1632.851,1882.64c24.008,0,36.297,24.59,36.297,56.988c0,38.102-18.297,63.59-44.398,63.59
			c-24.301,0-36.289-24.59-36.289-57.289C1588.461,1911.73,1606.148,1882.64,1632.851,1882.64L1632.851,1882.64z M1699.148,1945.929
			c0-44.699-27.289-70.5-73.797-78c-39.902,0-66.891,30.898-66.891,71.699c0,45,27.289,70.5,73.789,78.301
			C1672.148,2017.929,1699.148,1986.73,1699.148,1945.929"/>
		<path id="path56" fill="#2F3944" d="M1793.051,1882.64c24,0,36.301,24.59,36.301,56.988c0,38.102-18.312,63.59-44.41,63.59
			c-24.301,0-36.293-24.59-36.293-57.289C1748.648,1911.73,1766.351,1882.64,1793.051,1882.64L1793.051,1882.64z M1859.351,1945.929
			c0-44.699-27.301-70.5-73.801-78c-39.91,0-66.902,30.898-66.902,71.699c0,45,27.301,70.5,73.793,78.301
			C1832.34,2017.929,1859.351,1986.73,1859.351,1945.929"/>
		<path id="path58" fill="#2F3944" d="M1905.851,1873.031l-34.5-0.902l-1.512,10.512l21.012,2.988v180.602l-21.012-0.602
			l-1.488,10.5l36.008,9.301l14.992,1.191v-200.992l22.5-2.988l-1.5-10.512L1905.851,1873.031"/>
		<path id="path60" fill="#2F3944" d="M2103.238,1882.64c24.012,0,36.301,24.59,36.301,56.988c0,38.102-18.301,63.59-44.398,63.59
			c-24.301,0-36.289-24.59-36.289-57.289C2058.851,1911.73,2076.539,1882.64,2103.238,1882.64L2103.238,1882.64z M2169.539,1945.929
			c0-44.699-27.289-70.5-73.801-78c-39.898,0-66.887,30.898-66.887,71.699c0,45,27.289,70.5,73.789,78.301
			C2142.539,2017.929,2169.539,1986.73,2169.539,1945.929"/>
		<path id="path62" fill="#2F3944" d="M2237.031,2010.429h37.5v-14.102h-37.5v-110.699l34.5-2.09l-1.492-11.41l-46.5,0.902
			l-34.5-0.902l-1.5,10.512l21,2.988v110.699h-26.398v5.102l8.988,10.5h17.41v2.992c0,18.008,5.699,29.707,16.5,42.008l25.191,28.5
			h37.801v-24h-39l-5.691-8.109c-4.199-5.691-6.309-14.391-6.309-33.891V2010.429"/>
		<path id="path64" fill="#2F3944" d="M2416.441,1873.031l-41.402-0.902l-1.5,10.801l27,3.91v181.48l-27,3.91l1.5,10.5l41.402-0.91
			l41.098,0.91l1.492-10.5l-27-3.91v-181.48l27-3.91l-1.492-10.801L2416.441,1873.031"/>
		<path id="path66" fill="#2F3944" d="M2514.531,1873.031l-34.5-0.902l-1.492,10.512l20.992,2.988v109.5l-20.992-1.809
			l-1.508,10.508l36,9.301l12.898,0.891l1.5-25.191l44.398,29.102c38.391,0,44.695-12.91,44.695-48.91v-83.391l22.805-2.988
			l-1.5-10.512l-34.508,0.902l-28.789-0.902l-1.5,10.512l15,2.988v85.801c0,15.602-6.898,22.5-19.812,22.5
			c-10.492,0-20.992-6.609-31.188-13.5l-9-6v-88.801l16.5-2.988l-1.5-10.512L2514.531,1873.031"/>
		<path id="path68" fill="#2F3944" d="M2702.32,2010.429h37.5v-14.102h-37.5v-110.699l34.508-2.09l-1.5-11.41l-46.5,0.902
			l-34.484-0.902l-1.516,10.512l21,2.988v110.699h-26.398v5.102l9,10.5h17.398v2.992c0,18.008,5.703,29.707,16.5,42.008l25.203,28.5
			h37.789v-24h-38.992l-5.695-8.109c-4.203-5.691-6.312-14.391-6.312-33.891V2010.429"/>
		<path id="path70" fill="#2F3944" d="M2825.633,1882.64c24,0,36.297,24.59,36.297,56.988c0,38.102-18.297,63.59-44.398,63.59
			c-24.305,0-36.305-24.59-36.305-57.289C2781.226,1911.73,2798.929,1882.64,2825.633,1882.64L2825.633,1882.64z M2891.922,1945.929
			c0-44.699-27.289-70.5-73.789-78c-39.906,0-66.906,30.898-66.906,71.699c0,45,27.312,70.5,73.805,78.301
			C2864.922,2017.929,2891.922,1986.73,2891.922,1945.929"/>
		<path id="path72" fill="#2F3944" d="M2954.023,1974.429l34.195,42h24.008v-30h-22.203c-7.203-1.508-20.391-11.398-28.5-21.301
			l-5.992-7.199v-71.398l31.492-2.992l-1.492-11.41l-43.508,0.902l-33.594-0.902l-1.508,10.512l21.008,2.988v109.5l-21.008-1.809
			l-1.492,10.508l36,9.301l11.992,0.891L2954.023,1974.429"/>
		<path id="path74" fill="#2F3944" d="M3240.211,1873.031l-28.492-0.902l-1.508,10.512l15,2.988v85.801
			c0,15.602-6.602,22.5-17.398,22.5c-8.992,0-20.102-6-30.594-13.5l-9-6.309v-88.492l13.5-2.988l-1.508-10.512l-25.492,0.902
			l-27.008-0.902l-1.492,10.512l13.508,2.988v85.801c0,15.602-6.594,22.5-17.406,22.5c-9,0-20.094-6-30.602-13.5l-9-6.309v-88.492
			l14.992-2.988l-1.492-10.512l-27,0.902l-34.492-0.902l-1.508,10.512l21,2.988v109.5l-21-1.809l-1.5,10.508l36,9.301l12.914,0.891
			l1.5-24.898l41.391,28.809c29.094,0,39.898-8.699,43.195-29.41l42.305,29.41c38.398,0,44.688-14.41,44.688-52.5v-79.801
			l22.5-2.988l-1.492-10.512L3240.211,1873.031"/>
		<path id="path76" fill="#2F3944" d="M3365.32,1944.429l-43.5-18c-4.5-4.5-6-10.5-6-16.801c0-15.289,8.703-20.699,17.398-20.699
			c8.398,0,15.609,5.102,19.5,7.801l12.602,8.699V1944.429z M3346.429,2017.929c37.789,0,47.391-9.609,47.391-47.699v-58.801
			c0-12.891,2.102-17.699,5.109-22.5h15l1.188-10.488l-38.688-7.5l-9.312,23.09l-35.688-26.102
			c-25.797,0-44.109,14.391-44.109,38.398c0,10.801,3.906,18.602,10.5,27.602l67.5,22.5v15c0,18-1.492,28.801-17.703,28.801
			c-8.094,0-17.984-2.711-24.586-5.41l-5.102-23.691h-25.797v22.801L3346.429,2017.929"/>
		<path id="path78" fill="#2F3944" d="M3415.117,1996.328v5.102l10.516,10.5h19.484v19.5l19.5,19.492h7.805v-41.102h45.289v-13.492
			h-45v-87.898c0-8.699,3.312-18,15.898-18c8.711,0,15.32,3.012,23.711,7.211l5.102-10.211l-35.102-19.5
			c-33.602,0-38.102,12-38.102,39v89.398H3415.117"/>
		<path id="path80" fill="#2F3944" d="M3554.32,2079.429l21.601,1.492l8.398-1.492l1.5-16.809l-3.297-14.402l-21.304-1.789
			l-8.086,1.789l-1.805,16.801L3554.32,2079.429L3554.32,2079.429z M3569.32,1873.031l-34.5-0.902l-1.5,10.512l21,2.988v109.5
			l-21-1.809l-1.5,10.508l36,9.301l15,1.191v-128.691l22.492-2.988l-1.492-10.512L3569.32,1873.031"/>
		<path id="path82" fill="#2F3944" d="M3685.718,1882.64c24,0,36.289,24.59,36.289,56.988c0,38.102-18.297,63.59-44.391,63.59
			c-24.297,0-36.297-24.59-36.297-57.289C3641.32,1911.73,3659.023,1882.64,3685.718,1882.64L3685.718,1882.64z M3752.007,1945.929
			c0-44.699-27.289-70.5-73.789-78c-39.898,0-66.898,30.898-66.898,71.699c0,45,27.289,70.5,73.797,78.301
			C3725.023,2017.929,3752.007,1986.73,3752.007,1945.929"/>
		<path id="path84" fill="#2F3944" d="M3803.007,1873.031l-34.484-0.902l-1.516,10.512l21,2.988v109.5l-21-1.809l-1.5,10.508
			l36,9.301l12.898,0.891l1.516-25.191l44.391,29.102c38.398,0,44.695-12.91,44.695-48.91v-83.391l22.805-2.988l-1.5-10.512
			l-34.5,0.902l-28.805-0.902l-1.508,10.512l15,2.988v85.801c0,15.602-6.891,22.5-19.789,22.5c-10.5,0-21-6.609-31.203-13.5l-9-6
			v-88.801l16.5-2.988l-1.508-10.512L3803.007,1873.031"/>
		<path id="path86" fill="#BE4B1F" d="M1259.398,2169.258l-18.789-0.609l-1.008,7.012l9.789,2v57.219c0,10.391-4.789,15-12.789,15
			c-6,0-13.812-4.41-21.211-9l-6-3.809v-59.41l11-2l-1-7.012l-19,0.609l-21.012-0.609l-1,7.012l12.012,2v122.43l-7.211-1.199
			l-40.602,0.602v-121.234l23.012-2.598l-1.012-7.012l-32.398,0.609l-33.609-0.609l-1,7.012l24,2.598v121.234l-30.012-0.602
			l-9.199-25h-7.789v35.398l57.398-0.398l49.223,0.398l21.41,2.398h6.789v-64.809l29.199,19c25.609,0,29.809-9.609,29.809-35.008
			v-53.211l15.012-2l-1.012-7.012L1259.398,2169.258"/>
		<path id="path88" fill="#BE4B1F" d="M1351.57,2229.859c0,15.41-3,26.02-18.41,26.02c-12.199,0-20-11.41-21.602-28.008
			L1351.57,2229.859z M1311.371,2219.859c0-22.789,12.188-39,33.199-39c8,0,17.602,3.812,25,8.398l3.199-7.598
			c-9.598-6.602-22.199-12.211-35-15.801c-24.211,0-46.008,17.211-46.008,48.609c0,29.602,17.797,45.41,45.207,51.41
			c26.41,0,35.402-16.598,35.402-37.609v-8.41H1311.371"/>
		<path id="path90" fill="#BE4B1F" d="M1510.578,2302.09l1,6.988l25.613-0.598l23.398,0.598l0.988-6.988l-17-2.598v-81.621
			c0-26.012-10.598-43.422-50.406-52.621c-39.402,0-53.41,21.211-53.41,53.008v81.23l-18.012,2.602l1,6.988l27.621-0.598
			l27.398,0.598l1-6.988l-17.008-2.602v-84.219c0-24.801,10.609-39.012,33.41-39.012c20.797,0,32.398,14.012,32.398,39.613v83.621
			L1510.578,2302.09"/>
		<path id="path92" fill="#BE4B1F" d="M1588.558,2169.258l-22.988-0.609l-1.012,7.012l14,2v73.02l-14-1.211l-1.008,7.012
			l24.008,6.199l8.613,0.602l1-16.801l29.609,19.398c25.598,0,29.797-8.609,29.797-32.609v-55.609l15.203-2l-1-7.012l-23.012,0.609
			l-19.199-0.609l-0.992,7.012l10,2v57.219c0,10.391-4.609,15-13.199,15c-7.008,0-14.008-4.41-20.809-9l-6-4v-59.219l11-2l-1-7.012
			L1588.558,2169.258"/>
		<path id="path94" fill="#BE4B1F" d="M1693.16,2306.89l14.398,1l5.602-1l1-11.211l-2.191-9.59l-14.207-1.211l-5.402,1.211
			l-1.199,11.199L1693.16,2306.89L1693.16,2306.89z M1703.16,2169.258l-23-0.609l-1,7.012l14,2v73.02l-14-1.211l-1,7.012
			l24.012,6.199l10,0.801v-85.82l15-2l-1-7.012L1703.16,2169.258"/>
		<path id="path96" fill="#BE4B1F" d="M1783.371,2181.66l24.207,72.418l-9.199,1.992l1,7l17.59-0.59l16.602,0.59l1.008-7
			l-12.797-1.992l-32.82-82.219l-14.59-6l-34.812,88.219l-12.398,1.992l1,7l23-0.59l21.012,0.59l0.988-7l-13.199-1.992
			l21.809-58.609L1783.371,2181.66"/>
		<path id="path98" fill="#BE4B1F" d="M1894.379,2229.859c0,15.41-3.008,26.02-18.41,26.02c-12.199,0-20-11.41-21.598-28.008
			L1894.379,2229.859z M1854.16,2219.859c0-22.789,12.211-39,33.211-39c8,0,17.609,3.812,25.008,8.398l3.199-7.598
			c-9.598-6.602-22.199-12.211-35.008-15.801c-24.199,0-46.012,17.211-46.012,48.609c0,29.602,17.801,45.41,45.211,51.41
			c26.402,0,35.41-16.598,35.41-37.609v-8.41H1854.16"/>
		<path id="path100" fill="#BE4B1F" d="M1959.961,2236.879l22.809,28h16v-20h-14.809c-4.789-1.008-13.59-7.609-19-14.219
			l-3.992-4.789v-47.613l21-2l-0.988-7.609l-29.02,0.609l-22.402-0.609l-1.008,7.012l14.008,2v73.02l-14.008-1.211l-0.992,7.012
			l24,6.199l8.012,0.602L1959.961,2236.879"/>
		<path id="path102" fill="#BE4B1F" d="M2061.769,2251.679c-2,1.191-8,4.391-15.211,4.391c-7.797,0-15.199-4.191-15.199-11.789
			c0-6.41,5.012-10.41,14-15l15.402-7.82c13.41-6.789,18.809-14.391,18.809-25.801c0-18-14.609-24.801-37.609-29.801
			c-12.191,0-25.199,6-30.41,9l-3.801,22.602h12.809l6.801-16.602c4.199-2.789,10-5,16.402-5c10.609,0,16.008,6.801,16.008,15.199
			c0,7.812-4.199,11.211-14.609,16.613l-15.801,8.199c-8.598,4.398-16.801,12-16.801,23.199c0,14,13,21.809,36.211,26.809
			c10.801,0,22.402-4.809,28.199-9v-20h-10.598L2061.769,2251.679"/>
		<path id="path104" fill="#BE4B1F" d="M2106.961,2306.89l14.41,1l5.598-1l1-11.211l-2.207-9.59l-14.203-1.211l-5.398,1.211
			l-1.199,11.199L2106.961,2306.89L2106.961,2306.89z M2116.961,2169.258l-23-0.609l-1,7.012l14,2v73.02l-14-1.211l-1.012,7.012
			l24.012,6.199l10.008,0.801v-85.82l15-2l-1-7.012L2116.961,2169.258"/>
		<path id="path106" fill="#BE4B1F" d="M2216.172,2121.851v20.008h17.207l19.801,30.199l-8-2.398l-33.621,84.219h-30.188v-61.02
			c0-5.801,2.188-12,10.59-12c5.801,0,12,2.801,17.609,5.602l3.398-6.801l-25.207-13.801c-22.41,0-25.402,8-25.402,26v59.621h-19.41
			v3.398l7.012,7h13v13l13,13h5.199v-25.008h63.02l1-6.801l-13.211-1.992l22.211-58.609l1.602-13.809l24.809,72.418l-9.199,1.992
			l0.988,7l17.602-0.59l16.602,0.59l1.008-7l-12.801-1.992l-32.41-81.82l-22.398-50.406H2216.172"/>
		<path id="path108" fill="#BE4B1F" d="M2395.16,2175.66c16.012,0,24.211,16.398,24.211,38.012
			c0,25.398-12.199,42.398-29.602,42.398c-16.219,0-24.211-16.398-24.211-38.199
			C2365.558,2195.058,2377.359,2175.66,2395.16,2175.66z M2439.379,2217.871c0-29.801-18.207-47.012-49.219-52.012
			c-26.609,0-44.609,20.602-44.609,47.812c0,30,18.199,47.008,49.219,52.207C2421.371,2265.879,2439.379,2245.078,2439.379,2217.871
			"/>
		<path id="path110" fill="#BE4B1F" d="M2484.359,2260.879h25.008v-9.398h-25.008v-73.82l23-1.402l-0.992-7.609l-31.016,0.609
			l-23-0.609l-1,7.012l14,2v73.82h-17.602v3.398l6,7h11.602v2c0,12,3.805,19.801,11.008,28.012l16.797,19h25.203v-16.012h-26
			l-3.812-5.398c-2.789-3.801-4.188-9.602-4.188-22.602V2260.879"/>
		<path id="path112" fill="#BE4B1F" d="M2662.359,2168.648l-32.398,0.609l-33.609-0.609l-1,7.012l24.008,2.598v121.234l-30-0.414
			l-9.211-25.398h-7.805v35.398l57.43-0.598l57.594,0.598v-35.398h-7.797l-9.203,25.398l-30.008,0.414v-121.234l23-2.598
			L2662.359,2168.648"/>
		<path id="path114" fill="#BE4B1F" d="M2738.156,2229.859c0,15.41-3,26.02-18.398,26.02c-12.195,0-20-11.41-21.609-28.008
			L2738.156,2229.859z M2697.953,2219.859c0-22.789,12.203-39,33.203-39c8,0,17.617,3.812,25.016,8.398l3.195-7.598
			c-9.594-6.602-22.195-12.211-35.008-15.801c-24.203,0-46.008,17.211-46.008,48.609c0,29.602,17.797,45.41,45.195,51.41
			c26.414,0,35.414-16.598,35.414-37.609v-8.41H2697.953"/>
		<path id="path116" fill="#BE4B1F" d="M2804.547,2175.66l-1-7.012l-15.594,0.609l-20.609-0.609l-0.992,7.012l14,2l29.609,36.398
			l-29.008,39.82l-12.414,2l1.008,7.191l23.016-0.59l19,0.59l1-7.191l-7.805-2l14.789-22.207l1.602-5.211l19.008,27.418l-9.797,2
			l1.008,7.191l15.594-0.59l20.609,0.59l1-7.191l-14.406-2l-26.414-32l31.414-44.219l12.398-2l-0.992-7.012l-23.008,0.609
			l-19.016-0.609l-0.984,7.012l8.195,2l-17.797,25.809l-1.602,4.602l-21.203-30.41L2804.547,2175.66"/>
		<path id="path118" fill="#BE4B1F" d="M2930.562,2216.859l-29.023-12c-2.992-3-3.992-7-3.992-11.199
			c0-10.199,5.805-13.801,11.602-13.801c5.602,0,10.398,3.398,13,5.199l8.414,5.801V2216.859z M2917.953,2265.879
			c25.203,0,31.609-6.41,31.609-31.809v-39.211c0-8.602,1.398-11.789,3.398-15h10.008l0.805-7.008l-25.812-5l-6.203,15.406
			l-23.805-17.398c-17.211,0-29.414,9.602-29.414,25.602c0,7.199,2.609,12.41,7.008,18.398l45.016,15v10.02
			c0,12-1.016,19.199-11.812,19.199c-5.391,0-11.992-1.809-16.406-3.609l-3.391-15.797h-17.203v15.207L2917.953,2265.879"/>
		<path id="path120" fill="#BE4B1F" d="M3025.758,2251.679c-2.008,1.191-8.008,4.391-15.211,4.391
			c-7.797,0-15.195-4.191-15.195-11.789c0-6.41,5-10.41,14.008-15l15.398-7.82c13.398-6.789,18.789-14.391,18.789-25.801
			c0-18-14.586-24.801-37.586-29.801c-12.211,0-25.219,6-30.414,9l-3.805,22.602h12.805l6.805-16.602c4.195-2.789,10-5,16.398-5
			c10.609,0,16,6.801,16,15.199c0,7.812-4.203,11.211-14.602,16.613l-15.797,8.199c-8.602,4.398-16.812,12-16.812,23.199
			c0,14,13.008,21.809,36.211,26.809c10.797,0,22.406-4.809,28.211-9v-20h-10.609L3025.758,2251.679"/>
		<path id="path122" fill="#BE4B1F" d="M3156.953,2216.859l-29-12c-3.016-3-4-7-4-11.199c0-10.199,5.797-13.801,11.594-13.801
			c5.602,0,10.414,3.398,13,5.199l8.406,5.801V2216.859z M3144.359,2265.879c25.188,0,31.602-6.41,31.602-31.809v-39.211
			c0-8.602,1.398-11.789,3.398-15h10l0.797-7.008l-25.797-5l-6.211,15.406l-23.797-17.398c-17.203,0-29.414,9.602-29.414,25.602
			c0,7.199,2.602,12.41,7,18.398l45.016,15v10.02c0,12-0.992,19.199-11.797,19.199c-5.406,0-12.016-1.809-16.406-3.609
			l-3.398-15.797h-17.211v15.207L3144.359,2265.879"/>
		<path id="path124" fill="#BE4B1F" d="M3189.14,2251.48v3.398l7.008,7h13v13l13,13h5.203v-27.398h30.211v-9h-30v-58.621
			c0-5.801,2.195-12,10.586-12c5.812,0,10.211,2,15.812,4.801l3.398-6.801l-23.398-13c-22.422,0-25.414,8-25.414,26v59.621H3189.14"
			/>
		<path id="path126" fill="#BE4B1F" d="M3368.547,2277.879l-1.398,10.801l-22-63.609h42.602L3368.547,2277.879L3368.547,2277.879z
			 M3341.953,2215.66l-13-37.402l17.398-2.598l-1-7.012l-24,0.609l-21.414-0.609l-0.984,7.012l15.586,2.199l49.609,129.621l12,3.41
			l52.211-133.031l15.602-2.199l-0.992-7.012l-27.609,0.609l-26.398-0.609l-1,7.012l17,2.598l-13.602,37.402H3341.953"/>
		<path id="path128" fill="#BE4B1F" d="M3528.961,2194.859c0-8.602,1-11.789,2.398-15h10l0.797-7.008l-25.805-5l-5.602,16.207
			l-29-18.199c-26.406,0-30.812,9.391-30.812,32.602v52.219l-14.008-1.008l-0.992,7.809l24,5.199l10,0.801v-66.621
			c0-10.398,4.414-15,14.203-15c6.211,0,14.211,5,21.82,10l3.992,2.602v56.219l-12-1.008l-1,7.809l22.008,5.199l10,0.801V2194.859"
			/>
		<path id="path130" fill="#BE4B1F" d="M3605.156,2251.679c-2.016,1.191-8.008,4.391-15.219,4.391
			c-7.789,0-15.188-4.191-15.188-11.789c0-6.41,5-10.41,14-15l15.398-7.82c13.414-6.789,18.805-14.391,18.805-25.801
			c0-18-14.602-24.801-37.602-29.801c-12.211,0-25.211,6-30.414,9l-3.805,22.602h12.82l6.789-16.602c4.195-2.789,10-5,16.406-5
			c10.602,0,15.992,6.801,15.992,15.199c0,7.812-4.188,11.211-14.602,16.613l-15.797,8.199c-8.602,4.398-16.804,12-16.804,23.199
			c0,14,13.015,21.809,36.211,26.809c10.805,0,22.398-4.809,28.203-9v-20h-10.602L3605.156,2251.679"/>
		<path id="path132" fill="#BE4B1F" d="M3629.343,2251.48v3.398l7.008,7h13v13l12.992,13h5.203v-27.398h30.203v-9h-30v-58.621
			c0-5.801,2.203-12,10.602-12c5.797,0,10.195,2,15.805,4.801l3.406-6.801l-23.414-13c-22.406,0-25.398,8-25.398,26v59.621H3629.343
			"/>
		<path id="path134" fill="#BE4B1F" d="M3723.14,2306.89l14.398,1l5.602-1l1-11.211l-2.203-9.59l-14.211-1.211l-5.383,1.211
			l-1.211,11.199L3723.14,2306.89L3723.14,2306.89z M3733.14,2169.258l-23-0.609l-1,7.012l14,2v73.02l-14-1.211l-1.008,7.012
			l24.008,6.199l10.008,0.801v-85.82l15-2l-1-7.012L3733.14,2169.258"/>
		<path id="path136" fill="#BE4B1F" d="M3790.14,2169.258l-23.008-0.609l-1,7.012l14.008,2v73.02l-14.008-1.211l-0.992,7.012
			l24,6.199l8.586,0.602l1.016-16.801l29.602,19.398c25.609,0,29.805-8.609,29.805-32.609v-55.609l15.211-2l-1.008-7.012
			l-22.992,0.609l-19.211-0.609l-1.008,7.012l10.008,2v57.219c0,10.391-4.602,15-13.195,15c-7,0-14.016-4.41-20.812-9l-6-4v-59.219
			l11-2l-1-7.012L3790.14,2169.258"/>
	</g>
</g>
</svg>
