<?xml version="1.0" encoding="utf-8"?>
<!-- Generator: Adobe Illustrator 15.1.0, SVG Export Plug-In . SVG Version: 6.00 Build 0)  -->
<!DOCTYPE svg PUBLIC "-//W3C//DTD SVG 1.1//EN" "http://www.w3.org/Graphics/SVG/1.1/DTD/svg11.dtd">
<svg version="1.1" id="Layer_1" xmlns="http://www.w3.org/2000/svg" xmlns:xlink="http://www.w3.org/1999/xlink" x="0px" y="0px"
	 width="134px" height="23.667px" viewBox="0 0 134 23.667" enable-background="new 0 0 134 23.667" xml:space="preserve">
<path fill="#FDEBEE" d="M7.058,19.718c-1.132,0-2.132-0.166-2.999-0.495c-0.867-0.33-1.582-0.78-2.144-1.35
	c-0.562-0.579-0.981-1.263-1.259-2.053c-0.276-0.79-0.415-1.649-0.415-2.577c0-0.848,0.169-1.653,0.507-2.419
	s0.796-1.438,1.375-2.016C2.717,8.214,3.457,7.74,4.34,7.385c0.884-0.354,1.858-0.532,2.926-0.532c1.498,0,2.684,0.283,3.555,0.849
	s1.307,1.33,1.307,2.291c0,0.586-0.154,1.059-0.464,1.417s-0.843,0.538-1.601,0.538c-0.61,0-1.121-0.146-1.533-0.44
	c-0.41-0.293-0.617-0.676-0.617-1.148c0-0.398,0.066-0.793,0.196-1.185c0.13-0.391,0.208-0.688,0.231-0.892
	C8.251,8.136,8.137,8.025,7.999,7.947C7.86,7.87,7.645,7.831,7.352,7.831c-0.367,0-0.701,0.086-1.002,0.256
	C6.048,8.258,5.768,8.561,5.506,8.992c-0.252,0.407-0.453,0.952-0.604,1.636c-0.151,0.684-0.227,1.507-0.227,2.468
	c0,1.449,0.34,2.618,1.02,3.505c0.68,0.889,1.492,1.332,2.438,1.332c0.904,0,1.623-0.202,2.156-0.604
	c0.533-0.403,1.008-0.976,1.423-1.717l0.916,0.636c-0.253,0.497-0.554,0.95-0.903,1.362c-0.351,0.41-0.77,0.775-1.259,1.093
	c-0.513,0.334-1.034,0.587-1.563,0.757C8.374,19.632,7.758,19.718,7.058,19.718z"/>
<path fill="#FDEBEE" d="M25.846,8.649c0.603,0.562,1.062,1.234,1.381,2.016c0.316,0.782,0.477,1.629,0.477,2.541
	c0,0.904-0.157,1.757-0.471,2.559c-0.314,0.803-0.771,1.488-1.375,2.06c-0.643,0.61-1.41,1.079-2.303,1.404
	c-0.891,0.325-1.911,0.489-3.06,0.489c-0.993,0-1.907-0.143-2.743-0.428c-0.834-0.285-1.573-0.713-2.217-1.283
	c-0.619-0.545-1.107-1.22-1.466-2.021c-0.358-0.803-0.537-1.7-0.537-2.693c0-0.978,0.157-1.847,0.47-2.608
	c0.314-0.762,0.784-1.439,1.411-2.034c0.603-0.57,1.347-1.012,2.229-1.325c0.884-0.313,1.871-0.471,2.963-0.471
	c1.14,0,2.144,0.157,3.011,0.471S25.227,8.08,25.846,8.649z M22.719,17.115c0.179-0.456,0.311-1.01,0.396-1.661
	c0.086-0.652,0.129-1.409,0.129-2.272c0-0.57-0.041-1.222-0.123-1.955c-0.081-0.732-0.203-1.311-0.366-1.734
	c-0.195-0.513-0.466-0.916-0.812-1.209c-0.347-0.293-0.784-0.439-1.314-0.439c-0.578,0-1.04,0.158-1.386,0.476
	c-0.347,0.318-0.613,0.729-0.8,1.234c-0.172,0.464-0.289,1.007-0.354,1.631c-0.065,0.623-0.099,1.272-0.099,1.948
	c0,0.888,0.029,1.623,0.086,2.205s0.195,1.167,0.416,1.753c0.188,0.505,0.455,0.904,0.806,1.197s0.794,0.439,1.331,0.439
	c0.489,0,0.908-0.136,1.259-0.409C22.239,18.046,22.515,17.645,22.719,17.115z"/>
<path fill="#FDEBEE" d="M45.061,19.069l-6.021,0.354l-0.184-0.171v-1.124l-0.086-0.024c-0.397,0.432-0.937,0.809-1.615,1.13
	c-0.68,0.322-1.365,0.483-2.057,0.483c-1.643,0-2.997-0.611-4.062-1.833s-1.598-2.802-1.598-4.74c0-1.718,0.596-3.192,1.787-4.422
	c1.191-1.229,2.633-1.845,4.324-1.845c0.668,0,1.294,0.076,1.879,0.227c0.586,0.15,1.054,0.328,1.403,0.531V3.641
	c0-0.301-0.062-0.584-0.183-0.849c-0.123-0.265-0.285-0.47-0.489-0.617c-0.253-0.179-0.567-0.307-0.946-0.385
	c-0.379-0.077-0.76-0.132-1.143-0.165V0.733l6.609-0.317l0.183,0.195v16.016c0,0.309,0.051,0.569,0.151,0.781
	c0.102,0.212,0.266,0.378,0.492,0.501c0.17,0.09,0.42,0.154,0.748,0.195c0.327,0.041,0.597,0.065,0.807,0.073V19.069z
	 M38.832,16.895V9.993c-0.058-0.187-0.136-0.395-0.237-0.623c-0.102-0.228-0.242-0.444-0.421-0.647
	c-0.162-0.171-0.38-0.321-0.651-0.452c-0.272-0.13-0.58-0.195-0.92-0.195c-0.812,0-1.479,0.46-1.999,1.38
	c-0.521,0.921-0.78,2.22-0.78,3.897c0,0.66,0.047,1.252,0.141,1.777s0.258,1.004,0.493,1.436s0.538,0.77,0.908,1.014
	c0.37,0.245,0.814,0.367,1.335,0.367c0.495,0,0.905-0.096,1.23-0.287C38.254,17.468,38.555,17.213,38.832,16.895z"/>
<path fill="#FDEBEE" d="M59,16.407c-0.285,0.464-0.629,0.901-1.033,1.312c-0.402,0.411-0.86,0.764-1.373,1.057
	c-0.547,0.31-1.098,0.543-1.656,0.702c-0.558,0.159-1.199,0.239-1.924,0.239c-1.205,0-2.246-0.172-3.121-0.514
	s-1.598-0.803-2.168-1.38c-0.57-0.579-0.996-1.261-1.277-2.047c-0.28-0.786-0.421-1.639-0.421-2.56c0-0.831,0.153-1.626,0.458-2.388
	c0.306-0.762,0.739-1.439,1.301-2.034c0.555-0.578,1.252-1.046,2.096-1.405c0.842-0.358,1.785-0.538,2.828-0.538
	c1.14,0,2.076,0.139,2.809,0.415c0.733,0.277,1.34,0.66,1.82,1.149c0.465,0.464,0.803,1.012,1.014,1.643
	c0.213,0.631,0.318,1.293,0.318,1.985v0.794h-8.258c0,1.67,0.321,2.939,0.965,3.812c0.644,0.871,1.666,1.307,3.066,1.307
	c0.766,0,1.453-0.209,2.064-0.629c0.61-0.42,1.132-0.951,1.563-1.594L59,16.407z M54.333,11.765c0-0.489-0.024-0.989-0.073-1.502
	s-0.135-0.933-0.256-1.258c-0.139-0.383-0.328-0.672-0.568-0.868c-0.24-0.195-0.544-0.292-0.91-0.292
	c-0.627,0-1.129,0.317-1.503,0.952s-0.578,1.642-0.61,3.018L54.333,11.765z"/>
<path fill="#7FD3F2" d="M71.143,23.394c-1.076,0-2.059-0.049-2.951-0.146c-0.891-0.099-1.654-0.311-2.29-0.636
	c-0.636-0.326-1.124-0.796-1.466-1.41c-0.342-0.615-0.514-1.433-0.514-2.45c0-0.488,0.027-0.995,0.08-1.521s0.08-1.012,0.08-1.46
	c0-0.587-0.082-1.059-0.244-1.418c-0.164-0.357-0.412-0.643-0.746-0.854c-0.334-0.211-0.738-0.355-1.215-0.434
	c-0.477-0.077-0.988-0.137-1.533-0.178v-1.832c0.537-0.041,1.049-0.1,1.533-0.177s0.889-0.222,1.215-0.434
	c0.334-0.22,0.582-0.493,0.746-0.818C64,9.302,64.083,8.816,64.083,8.174c0-0.465-0.027-0.956-0.08-1.473
	c-0.053-0.517-0.08-1.02-0.08-1.509c0-1.002,0.168-1.808,0.502-2.418c0.334-0.611,0.826-1.091,1.478-1.442
	c0.603-0.317,1.366-0.527,2.29-0.629C69.117,0.601,70.1,0.55,71.143,0.55v1.063c-0.44,0.032-0.823,0.075-1.148,0.128
	c-0.326,0.053-0.664,0.186-1.014,0.397c-0.293,0.179-0.531,0.452-0.715,0.818c-0.184,0.366-0.275,0.851-0.275,1.454v2.321
	c0,0.848-0.115,1.56-0.348,2.138s-0.561,1.042-0.984,1.393c-0.398,0.334-0.862,0.597-1.393,0.788
	c-0.529,0.191-1.104,0.344-1.722,0.458v0.929c0.587,0.114,1.154,0.269,1.704,0.464c0.55,0.196,1.02,0.46,1.41,0.794
	c0.408,0.342,0.732,0.797,0.973,1.362c0.24,0.566,0.359,1.285,0.359,2.156v2.321c0,0.602,0.09,1.085,0.27,1.447
	c0.179,0.362,0.419,0.642,0.721,0.837c0.293,0.179,0.631,0.306,1.014,0.378c0.383,0.074,0.766,0.118,1.148,0.135V23.394z"/>
<path fill="#FDEBEE" d="M86.639,18.418h-2.627v4.63H79.92v-4.63h-8.087v-2.247l8.771-11.104h3.408v10.774h2.627V18.418z
	 M79.92,15.841V7.982l-6.207,7.859H79.92z"/>
<path fill="#7FD3F2" d="M99.862,12.888c-0.545,0.041-1.057,0.101-1.533,0.178c-0.477,0.078-0.881,0.223-1.215,0.434
	c-0.334,0.212-0.582,0.497-0.746,0.854c-0.162,0.359-0.244,0.831-0.244,1.418c0,0.448,0.027,0.935,0.08,1.46s0.08,1.032,0.08,1.521
	c0,1.018-0.172,1.835-0.514,2.45c-0.342,0.614-0.83,1.084-1.466,1.41c-0.636,0.325-1.399,0.537-2.29,0.636
	c-0.893,0.097-1.876,0.146-2.951,0.146v-1.062c0.383-0.017,0.77-0.061,1.161-0.135c0.391-0.072,0.725-0.199,1.001-0.378
	c0.303-0.195,0.542-0.475,0.721-0.837c0.18-0.362,0.27-0.846,0.27-1.447v-2.321c0-0.871,0.12-1.59,0.36-2.156
	c0.239-0.565,0.563-1.021,0.972-1.362c0.391-0.334,0.86-0.598,1.41-0.794c0.55-0.195,1.117-0.35,1.704-0.464v-0.929
	c-0.619-0.114-1.193-0.269-1.722-0.464c-0.53-0.195-0.994-0.456-1.393-0.781c-0.424-0.35-0.752-0.814-0.984-1.393
	s-0.348-1.291-0.348-2.138V4.411c0-0.603-0.092-1.087-0.275-1.454c-0.184-0.367-0.421-0.64-0.715-0.818
	c-0.35-0.212-0.688-0.344-1.014-0.397c-0.326-0.053-0.709-0.096-1.148-0.128V0.55c1.043,0,2.021,0.047,2.938,0.141
	c0.916,0.093,1.684,0.308,2.303,0.641c0.651,0.351,1.144,0.831,1.478,1.442c0.334,0.61,0.502,1.417,0.502,2.418
	c0,0.489-0.027,0.992-0.08,1.509c-0.053,0.517-0.08,1.008-0.08,1.473c0,0.643,0.082,1.128,0.244,1.453
	c0.164,0.326,0.412,0.598,0.746,0.818c0.31,0.204,0.711,0.346,1.203,0.428c0.492,0.081,1.008,0.142,1.545,0.183V12.888z"/>
<path fill="#FDEBEE" d="M108.902,19.326h-7.696v-0.892c0.213-0.017,0.421-0.037,0.621-0.062c0.201-0.024,0.379-0.064,0.535-0.122
	c0.262-0.098,0.441-0.238,0.535-0.421c0.094-0.184,0.141-0.426,0.141-0.728V3.567c0-0.309-0.062-0.596-0.188-0.86
	c-0.126-0.265-0.296-0.466-0.507-0.605c-0.163-0.105-0.409-0.208-0.739-0.305c-0.33-0.098-0.62-0.155-0.874-0.171V0.733l6.156-0.317
	l0.185,0.195v16.333c0,0.301,0.054,0.546,0.159,0.732c0.107,0.188,0.279,0.334,0.518,0.439c0.163,0.074,0.336,0.139,0.516,0.195
	c0.181,0.058,0.395,0.099,0.64,0.123V19.326z"/>
<path fill="#FDEBEE" d="M117.77,19.326h-7.72v-0.892c0.212-0.017,0.419-0.037,0.623-0.062s0.378-0.064,0.525-0.122
	c0.261-0.098,0.444-0.238,0.55-0.421c0.105-0.184,0.158-0.426,0.158-0.728V9.993c0-0.284-0.064-0.536-0.195-0.751
	c-0.13-0.216-0.293-0.389-0.488-0.52c-0.146-0.098-0.369-0.19-0.666-0.281c-0.297-0.09-0.568-0.146-0.812-0.171V7.379l5.986-0.317
	l0.183,0.183v9.7c0,0.285,0.062,0.527,0.184,0.727s0.298,0.348,0.525,0.445c0.163,0.074,0.342,0.139,0.538,0.195
	c0.195,0.058,0.398,0.099,0.609,0.123V19.326z M115.987,2.664c0,0.619-0.238,1.147-0.714,1.582c-0.478,0.436-1.04,0.654-1.692,0.654
	c-0.659,0-1.228-0.218-1.704-0.654c-0.477-0.435-0.715-0.963-0.715-1.582c0-0.619,0.238-1.148,0.715-1.587
	c0.477-0.44,1.045-0.66,1.704-0.66c0.66,0,1.226,0.22,1.697,0.66C115.75,1.516,115.987,2.045,115.987,2.664z"/>
<path fill="#FDEBEE" d="M133.467,13.353c0,1.832-0.604,3.352-1.812,4.557c-1.21,1.205-2.743,1.809-4.6,1.809
	c-0.717,0-1.334-0.052-1.852-0.153c-0.517-0.103-0.955-0.226-1.312-0.372c-0.375-0.155-0.674-0.308-0.898-0.459
	c-0.224-0.15-0.4-0.274-0.531-0.373l-1.746,1.589l-0.721-0.28c0.04-0.595,0.074-1.24,0.104-1.938
	c0.028-0.695,0.043-1.635,0.043-2.814V3.482c0-0.31-0.063-0.597-0.189-0.861c-0.127-0.265-0.296-0.466-0.508-0.604
	c-0.154-0.098-0.381-0.184-0.678-0.257s-0.572-0.118-0.824-0.134V0.733l6.047-0.317l0.184,0.195v7.94h0.072
	c0.594-0.578,1.203-1.001,1.83-1.271c0.627-0.269,1.252-0.403,1.879-0.403c1.708,0,3.055,0.583,4.039,1.747
	C132.976,9.79,133.467,11.366,133.467,13.353z M129.083,13.499c0-0.619-0.047-1.215-0.14-1.79c-0.094-0.574-0.25-1.081-0.47-1.521
	c-0.219-0.439-0.508-0.792-0.865-1.056c-0.357-0.265-0.8-0.397-1.328-0.397c-0.496,0-0.906,0.081-1.23,0.244
	s-0.617,0.403-0.877,0.721v7.109c0.049,0.163,0.14,0.377,0.273,0.642s0.27,0.47,0.408,0.616c0.195,0.213,0.402,0.373,0.621,0.482
	c0.221,0.111,0.529,0.166,0.927,0.166c0.828,0,1.482-0.455,1.962-1.363C128.842,16.445,129.083,15.161,129.083,13.499z"/>
</svg>
