<?xml version="1.0" encoding="utf-8"?>
<!-- Generator: Adobe Illustrator 15.1.0, SVG Export Plug-In . SVG Version: 6.00 Build 0)  -->
<!DOCTYPE svg PUBLIC "-//W3C//DTD SVG 1.1//EN" "http://www.w3.org/Graphics/SVG/1.1/DTD/svg11.dtd">
<svg version="1.1" id="Layer_1" xmlns="http://www.w3.org/2000/svg" xmlns:xlink="http://www.w3.org/1999/xlink" x="0px" y="0px"
	 width="207.04px" height="211.818px" viewBox="0 0 207.04 211.818" enable-background="new 0 0 207.04 211.818"
	 xml:space="preserve">
<g>
	<g>
		<g>
			<path fill="#FDEBEE" d="M103.428,211.818v-3.857c4.49-0.148,7.686-0.742,9.584-1.779c2.904-1.584,4.363-4.554,4.363-8.907
				v-73.612c0-4.423-1.504-7.391-4.521-8.916c-1.74-0.937-37.58-1.523-42.128-1.769v-3.86h131.868v30.648h-8.193
				c-1.993-9.795-5.381-16.498-10.159-20.109c-4.776-3.607-17.837-5.416-30.458-5.416c-4.802,0-7.854,0.48-9.16,1.445
				c-1.301,0.962-1.951,2.885-1.951,5.75v35.178c8.934,0.1,14.994-1.475,18.164-4.715c3.165-3.239,5.598-9.162,7.278-17.772h3.99
				v51.35h-3.99c-1.12-8.661-3.407-14.756-6.861-18.288c-3.446-3.541-9.647-5.309-18.581-5.309v36.803
				c0,3.221,0.852,5.406,2.566,6.572c1.711,1.162,5.224,1.74,10.54,1.74c10.015,0,18.19-1.877,24.525-5.636
				c6.339-3.763,11.951-10.813,16.864-21.148h4.367l0.177,31.608H103.428z"/>
		</g>
		<g>
			<path fill="#FDEBEE" d="M77.412,7.783c6.688,2.353,10.423,3.524,11.19,3.524c1.994,0,3.586-0.743,4.795-2.23
				c1.193-1.482,1.949-3.04,2.258-4.671h4.363v35.544h-3.986c-3.772-7.717-7.63-13.802-11.557-18.253
				C77.122,13.484,68.801,9.376,59.518,9.376C49,9.376,41.54,13.768,37.125,22.546C32.708,31.332,30.5,43.119,30.5,57.908
				c0,10.887,1.303,19.839,3.905,26.862c4.851,13.159,13.854,19.738,27.027,19.738c8.064,0,15.569-2.175,22.505-6.529
				c3.98-2.521,13.039-10.776,18.443-16.314l4.68,3.711c-6.131,6.625-15.88,15.647-20.529,18.615
				c-8.277,5.292-17.475,7.938-27.594,7.938c-15.484,0-28.463-4.452-38.936-13.354C8.403,88.732,2.604,75.472,2.604,58.796
				c0-16.518,5.543-29.901,16.631-40.142C29.663,9.06,42.427,4.256,57.567,4.256C64.101,4.256,70.716,5.436,77.412,7.783z"/>
		</g>
		<g>
			<path fill="#FDEBEE" d="M6.237,207.96c3.935-0.25,6.766-0.789,8.506-1.635c3.068-1.533,4.599-4.326,4.599-8.379v-74.951
				c0-3.91-1.454-6.631-4.368-8.168c-1.684-0.886-4.596-1.506-8.736-1.851v-3.86h47.979c19.37,0,34.138,5,44.295,14.99
				c9.258,9.102,13.881,21.322,13.881,36.66c0,13.746-4.65,25.404-13.947,34.949c-10.477,10.734-24.682,16.102-42.624,16.102H6.237
				V207.96z M46.513,204.621c1.05,1.385,3.282,2.08,6.709,2.08c9.296,0,16.94-3.184,22.92-9.537
				c5.978-6.36,8.962-18.566,8.962-36.623c0-10.732-1.609-19.957-4.825-27.675c-5.208-12.421-14.005-18.626-26.366-18.626
				c-4.088,0-6.746,0.84-7.979,2.521c-0.815,1.091-1.217,3.188-1.217,6.308v74.801C44.868,200.982,45.469,203.236,46.513,204.621z"
				/>
		</g>
		<g>
			<path fill="#FDEBEE" d="M164.37,3.133c12.275-0.006,22.376,3.949,30.307,11.875c9.146,9.153,13.084,20.645,11.795,34.478
				c-1.389,14.124-7.945,27.058-19.698,38.802c-13.86,13.857-28.256,21.034-43.191,21.529c-12.575,0.405-23.083-3.618-31.528-12.061
				c-5.951-5.945-9.602-12.434-10.959-19.476c-1.355-7.04-1.277-14.286,0.244-21.752c1.254-6.343,3.814-12.494,7.689-18.445
				c2.269-3.489,5.936-8.109,11.025-13.848C134.138,10.147,148.915,3.113,164.37,3.133z M113.016,82.077
				c-1.716,5.01-0.896,9.188,2.456,12.542c4.194,4.193,10.144,3.914,17.833-0.849c4.211-2.615,9.672-7.262,16.359-13.945
				l27.025-27.026c9.562-9.566,15.197-16.866,16.878-21.905c1.694-5.029,0.931-9.153-2.269-12.361
				c-3.268-3.255-7.441-4.033-12.542-2.332c-5.095,1.701-12.388,7.299-21.886,16.786L129.846,60.01
				C120.331,69.708,114.719,77.059,113.016,82.077z"/>
		</g>
	</g>
	<g>
		<g>
			<path fill="#C82829" d="M101.725,209.412v-3.857c4.49-0.148,7.686-0.742,9.584-1.778c2.904-1.585,4.363-4.555,4.363-8.908
				v-73.612c0-4.422-1.504-7.39-4.521-8.915c-1.74-0.938-37.58-1.524-42.128-1.769v-3.861h131.868v30.648h-8.193
				c-1.993-9.794-5.381-16.497-10.159-20.109c-4.776-3.606-17.837-5.416-30.458-5.416c-4.802,0-7.854,0.48-9.16,1.445
				c-1.301,0.963-1.951,2.885-1.951,5.75v35.179c8.934,0.1,14.994-1.476,18.164-4.716c3.165-3.239,5.598-9.162,7.278-17.771h3.99
				v51.35h-3.99c-1.12-8.661-3.407-14.756-6.861-18.289c-3.446-3.54-9.647-5.309-18.581-5.309v36.804
				c0,3.22,0.852,5.406,2.566,6.572c1.711,1.162,5.224,1.739,10.54,1.739c10.015,0,18.19-1.876,24.525-5.636
				c6.339-3.763,11.951-10.812,16.864-21.147h4.367l0.177,31.607H101.725z"/>
		</g>
		<g>
			<path fill="#C82829" d="M75.708,5.376c6.688,2.354,10.423,3.525,11.19,3.525c1.994,0,3.586-0.743,4.795-2.23
				C92.887,5.189,93.643,3.632,93.952,2h4.363v35.544h-3.986c-3.772-7.716-7.63-13.801-11.557-18.253
				C75.418,11.078,67.098,6.971,57.815,6.971c-10.518,0-17.979,4.391-22.394,13.169c-4.417,8.786-6.624,20.573-6.624,35.362
				c0,10.887,1.303,19.839,3.905,26.863c4.851,13.158,13.854,19.737,27.027,19.737c8.064,0,15.569-2.175,22.505-6.528
				c3.98-2.521,13.039-10.777,18.443-16.315l4.68,3.71c-6.131,6.625-15.88,15.648-20.529,18.615
				c-8.277,5.293-17.475,7.939-27.594,7.939c-15.484,0-28.463-4.452-38.936-13.355C6.7,86.326,0.901,73.066,0.901,56.39
				c0-16.518,5.543-29.901,16.631-40.142C27.959,6.654,40.724,1.85,55.864,1.85C62.398,1.85,69.013,3.03,75.708,5.376z"/>
		</g>
		<g>
			<path fill="#C82829" d="M4.534,205.554c3.935-0.25,6.766-0.789,8.506-1.635c3.068-1.533,4.599-4.326,4.599-8.379v-74.95
				c0-3.91-1.454-6.631-4.368-8.168c-1.684-0.886-4.596-1.507-8.736-1.851v-3.861h47.979c19.37,0,34.138,5,44.295,14.99
				c9.258,9.102,13.881,21.322,13.881,36.661c0,13.746-4.65,25.403-13.947,34.949c-10.477,10.733-24.682,16.101-42.624,16.101H4.534
				V205.554z M44.81,202.214c1.05,1.385,3.282,2.08,6.709,2.08c9.296,0,16.94-3.184,22.92-9.536
				c5.978-6.36,8.962-18.566,8.962-36.624c0-10.732-1.609-19.956-4.825-27.674c-5.208-12.421-14.005-18.627-26.366-18.627
				c-4.088,0-6.746,0.841-7.979,2.521c-0.815,1.092-1.217,3.189-1.217,6.309v74.8C43.165,198.576,43.766,200.83,44.81,202.214z"/>
		</g>
		<g>
			<path fill="#C82829" d="M162.667,0.727c12.275-0.005,22.376,3.949,30.307,11.875c9.146,9.154,13.084,20.645,11.795,34.478
				c-1.389,14.124-7.945,27.059-19.698,38.803c-13.86,13.857-28.256,21.034-43.191,21.529c-12.575,0.404-23.083-3.619-31.528-12.061
				c-5.951-5.946-9.602-12.435-10.959-19.476c-1.355-7.04-1.277-14.287,0.244-21.752c1.254-6.344,3.814-12.495,7.689-18.445
				c2.269-3.489,5.936-8.109,11.025-13.848C132.435,7.742,147.211,0.708,162.667,0.727z M111.313,79.671
				c-1.716,5.01-0.896,9.188,2.456,12.542c4.194,4.193,10.144,3.914,17.833-0.849c4.211-2.615,9.672-7.262,16.359-13.946
				l27.025-27.025c9.562-9.566,15.197-16.866,16.878-21.905c1.694-5.029,0.931-9.154-2.269-12.362
				c-3.268-3.254-7.441-4.033-12.542-2.331c-5.095,1.701-12.388,7.299-21.886,16.786l-27.025,27.023
				C118.627,67.302,113.016,74.653,111.313,79.671z"/>
		</g>
	</g>
</g>
</svg>
